<svg width="300" height="214" viewBox="0 0 300 214" fill="none" xmlns="http://www.w3.org/2000/svg">
<g clip-path="url(#clip0_168_3750)">
<path d="M235.943 98.5126C213.552 29.6826 93.238 26.6902 83.9975 103.916C83.9975 103.916 76.8646 105.328 70.5732 104.365C36.2665 99.1164 -23.7629 164.814 22.3086 215.016H279.59C307.427 167.072 287.432 118.015 235.942 98.5114L235.943 98.5126Z" fill="#A4A4A4" fill-opacity="0.2"/>
<path d="M101.7 121.162C101.202 122.503 100.337 124.059 99.4307 124.445C98.4021 124.884 97.9731 125.503 97.9731 125.503L97.1429 125.021L96.1517 124.445C96.1517 124.445 96.1753 124.335 96.2239 124.156C96.2711 123.977 96.3461 123.729 96.446 123.454C96.446 123.454 96.7501 123.062 96.564 122.571C96.378 122.081 96.4155 121.322 96.7334 120.859C97.0513 120.397 97.3581 119.259 97.5497 119.292C98.0134 119.371 97.322 120.937 97.5205 121.227C97.6996 121.49 97.9245 121.399 97.9662 121.38C97.9689 121.378 97.9717 121.377 97.9745 121.376C99.2753 120.804 100.854 117.719 101.552 118.136C101.813 118.291 101.914 120.591 101.702 121.162H101.7Z" fill="#FFB27D"/>
<path d="M97.1998 123.029L98.8296 124.174C98.9448 124.255 99.1045 124.227 99.1864 124.112L103.362 118.172C103.443 118.056 103.415 117.897 103.3 117.815L101.67 116.67C101.555 116.589 101.395 116.617 101.313 116.732L97.1373 122.672C97.0568 122.788 97.0846 122.947 97.1998 123.029Z" fill="#2B478B"/>
<path d="M98.6922 124.077L99.6473 124.749C99.7347 124.81 99.8569 124.789 99.918 124.702L104.163 118.662C104.224 118.574 104.203 118.452 104.116 118.391L103.161 117.719C103.073 117.658 102.951 117.679 102.89 117.766L98.645 123.808C98.5839 123.895 98.6047 124.018 98.6922 124.079V124.077Z" fill="#233862"/>
<path d="M73.8178 114.504C73.8178 114.504 82.1111 128.969 85.1194 131.631L96.1517 123.405C96.1517 123.405 97.7523 123.897 98.4534 125.503C98.4534 125.503 91.7538 139.152 85.1583 139.731C78.5628 140.31 69.3047 123.371 69.3047 123.371L73.8178 114.503V114.504Z" fill="#388E3C"/>
<path d="M55.0504 212.888H50.2582C49.6543 212.56 49.1171 211.811 48.9477 210.692C48.7131 209.148 46.9834 208.307 46.6085 207.043C46.2351 205.782 48.1523 204.005 48.1523 204.005L48.4729 203.591L48.8061 203.162L51.9866 203.91C51.9866 203.91 52.0657 204.668 52.1129 205.633C52.1476 206.329 52.1656 207.134 52.1268 207.839C52.0338 209.523 52.5974 211.336 54.0939 211.664C55.2003 211.905 55.1503 212.562 55.049 212.888H55.0504Z" fill="#233862"/>
<path d="M82.8608 212.888H71.9021C71.3746 212.245 71.5689 209.871 71.6495 209.097C71.6661 208.941 71.6772 208.85 71.6772 208.85C71.6772 208.85 75.4199 205.856 75.9335 208.148C75.9488 208.221 75.9683 208.29 75.9891 208.359C76.636 210.503 79.5416 211.477 81.2185 211.748C82.3083 211.924 82.7123 212.492 82.8608 212.888Z" fill="#233862"/>
<path d="M80.7715 151.72C80.7715 151.72 80.2037 158.809 79.536 167.33C78.6281 178.907 77.5369 193.126 77.4287 195.82C77.2426 200.497 76.493 207.979 76.493 207.979C76.493 207.979 74.7174 209.756 71.1622 209.008C71.1622 209.008 67.9942 198.327 67.0891 187.025C67.0752 186.841 67.0613 186.653 67.0475 186.467C66.2062 174.963 64.8971 150.737 64.8971 150.737L80.7729 151.718L80.7715 151.72Z" fill="#E0E0E0"/>
<path d="M80.7715 151.72C80.7715 151.72 80.2037 158.809 79.536 167.33L67.0891 187.025C67.0752 186.841 67.0613 186.653 67.0475 186.467C66.2062 174.963 64.8971 150.737 64.8971 150.737L80.7729 151.718L80.7715 151.72Z" fill="#CCCCCC"/>
<path d="M78.1769 152.561C78.1769 152.561 67.9345 178.236 61.2002 190.301C54.4659 202.368 52.3613 205.734 52.3613 205.734C52.3613 205.734 48.5034 204.191 48.1522 203.138C48.1522 203.138 50.7274 179.845 55.2378 174.166C57.7865 170.958 60.7796 161.329 60.9198 157.961C61.06 154.595 61.8319 147.93 61.8319 147.93L78.1769 152.56V152.561Z" fill="#E0E0E0"/>
<path d="M75.6282 115.133C71.6259 116.396 64.7014 112.988 64.7014 112.988C64.7014 112.988 68.3913 110.219 68.1984 104.46L71.2927 106.953L73.3945 108.647C73.3945 108.647 73.3862 109.645 73.1557 111.396C73.0947 111.857 73.6139 112.871 74.065 113.442C75.2783 114.982 75.6282 115.133 75.6282 115.133Z" fill="#FFB27D"/>
<path d="M73.3931 108.647C73.3931 108.647 73.3848 109.645 73.1544 111.396C70.8249 110.996 68.1831 107.231 68.1831 107.231C69.3687 106.888 70.407 106.827 71.2914 106.953L73.3931 108.647Z" fill="#ED975D"/>
<path d="M74.6175 108.553C74.6175 108.553 68.0068 109.651 67.3862 105.524C66.7657 101.396 65.4941 98.7587 69.6893 97.8827C73.8845 97.0067 74.9424 98.4588 75.4852 99.7859C76.028 101.113 76.3223 108.161 74.6175 108.554V108.553Z" fill="#FFB27D"/>
<path d="M81.2144 152.31C81.0936 152.41 80.9534 152.469 80.7937 152.469C79.2903 152.448 74.9076 153.284 71.1997 152.902C68.0734 152.603 65.3066 151.677 62.3344 150.344C61.9402 150.168 61.0323 149.682 61.0517 149.242C61.0656 148.759 61.1128 148.059 61.1739 147.176C61.3849 144.109 61.7514 138.833 61.3932 132.747C61.3293 131.614 61.2946 130.489 61.2905 129.383C61.2599 121.134 62.8953 113.879 66.1826 111.423C66.463 111.222 68.1872 112.065 69.7698 112.846C71.233 113.568 72.6962 113.647 74.0789 113.368L75.4615 114.59C77.1455 116.153 78.989 118.279 79.79 121.505C80.4717 124.251 80.8729 129.201 81.0922 134.332C81.1922 136.657 81.2727 139.002 81.2935 141.227V141.307C81.3129 141.527 81.3129 141.769 81.3129 141.988C81.3934 147.699 81.3129 152.229 81.213 152.31H81.2144Z" fill="#00B907"/>
<path d="M61.1739 147.177C61.3849 144.111 61.7514 138.834 61.3932 132.748C61.3294 131.615 61.2947 130.491 61.2905 129.384C62.6593 126.062 63.7782 123.654 63.7782 123.654H67.2293C67.2293 123.654 69.7601 140.936 61.1725 147.177H61.1739Z" fill="#388E3C"/>
<path d="M43.4962 166.764L58.2142 168.862C60.1299 169.135 61.9208 167.791 62.1929 165.875L63.1021 159.497C63.3756 157.581 62.0318 155.79 60.1161 155.518L45.398 153.42C43.4823 153.147 41.6915 154.491 41.4194 156.406L40.5101 162.785C40.2366 164.701 41.5804 166.492 43.4962 166.764Z" fill="#233862"/>
<path d="M60.9462 157.418C60.5325 156.383 59.6399 155.565 58.5085 155.287C58.5085 155.287 58.5071 155.287 58.5057 155.287C58.3946 155.261 58.2822 155.237 58.1656 155.222L55.235 154.806L55.4308 153.429C55.4752 153.122 55.3961 152.815 55.2086 152.565C55.0212 152.317 54.7477 152.154 54.4409 152.111L53.676 152.001L50.5983 151.563L50.043 151.484C49.4072 151.393 48.8158 151.836 48.7256 152.472L48.5299 153.849L43.4712 153.129C41.5485 152.855 39.7521 154.203 39.4772 156.126L38.5582 162.578C38.2847 164.501 39.6327 166.297 41.5554 166.572L56.247 168.667C56.5066 168.705 56.7635 168.712 57.0133 168.691H57.0161C57.4187 168.66 57.8046 168.56 58.1628 168.401C59.2428 167.924 60.0633 166.917 60.241 165.667L61.16 159.216C61.2488 158.587 61.1655 157.972 60.9448 157.42L60.9462 157.418ZM49.4503 152.575C49.478 152.382 49.6293 152.236 49.8112 152.207C49.8542 152.2 49.8973 152.199 49.9417 152.206L50.5955 152.299L53.018 152.644L54.3382 152.833C54.5756 152.866 54.7408 153.088 54.7075 153.324L54.5118 154.702L49.2545 153.952L49.4503 152.576V152.575Z" fill="#2B478B"/>
<path d="M54.688 147.772C54.688 147.772 53.9148 148.802 53.8842 149.213C53.676 152.001 54.9504 152.386 51.6519 153.935C51.6519 153.935 50.2443 154.473 50.2193 153.379C50.1957 152.286 51.1966 152.268 51.0134 150.737C50.8023 148.971 50.8232 148.954 51.9823 148.033L52.75 146.764L54.688 147.77V147.772Z" fill="#FFB27D"/>
<path d="M52.7223 148.56C53.9648 148.803 55.3127 148.704 55.3127 148.704C55.3127 148.704 59.0027 137.307 59.4774 136.266C59.9522 135.225 70.4361 122.903 70.4361 122.903L66.0687 111.973C66.0687 111.973 54.7297 130.914 53.5774 133.576C51.6742 137.973 51.0148 147.834 51.0148 147.834C51.0148 147.834 51.7478 148.37 52.7237 148.56H52.7223Z" fill="#00B907"/>
<path d="M67.3806 105.126C67.3806 105.126 68.0595 105.013 67.9498 104.078C67.8401 103.144 67.8415 101.922 68.6009 102.15C69.3603 102.378 69.3977 102.986 69.7101 102.63C70.0224 102.275 70.028 100.779 72.288 100.674C74.5481 100.57 75.4671 101.357 76.518 100.895C77.5689 100.433 77.6244 98.842 77.6244 98.842C77.6244 98.842 77.3259 99.4097 76.8734 99.5902C76.8734 99.5902 78.6267 97.1914 76.5971 95.5463C74.5661 93.9012 72.4963 94.9785 71.3204 95.0493C68.7314 95.2062 67.0586 95.3617 66.2131 97.0622C65.3677 98.7628 65.7162 103.487 67.3779 105.125L67.3806 105.126Z" fill="#2B478B"/>
<path d="M53.4692 148.997C53.4692 148.997 54.2133 149.773 54.2605 150.095C54.4118 151.131 54.7575 151.579 54.584 151.692C54.223 151.927 53.7469 151.159 53.5192 150.47C53.2915 149.782 53.4706 148.996 53.4706 148.996L53.4692 148.997Z" fill="#FFB27D"/>
<path d="M191.525 57.3616H119.703C115.189 57.3616 111.531 61.0206 111.531 65.5341V202.927C111.531 207.441 115.189 211.1 119.703 211.1H191.525C196.038 211.1 199.697 207.441 199.697 202.927V65.5341C199.697 61.0206 196.038 57.3616 191.525 57.3616Z" fill="#4CAF50"/>
<path d="M191.524 212.126H119.702C114.63 212.126 110.503 208 110.503 202.927V65.5342C110.503 60.463 114.629 56.3358 119.702 56.3358H191.524C196.596 56.3358 200.722 60.4616 200.722 65.5342V202.927C200.722 207.999 196.596 212.126 191.524 212.126ZM119.703 58.3876C115.763 58.3876 112.556 61.593 112.556 65.5342V202.927C112.556 206.869 115.762 210.074 119.703 210.074H191.526C195.466 210.074 198.672 206.869 198.672 202.927V65.5342C198.672 61.5944 195.467 58.3876 191.526 58.3876H119.703Z" fill="#616161"/>
<g opacity="0.9">
<path d="M183.803 98.4227H125.814V156.412H183.803V98.4227Z" fill="white"/>
</g>
<path d="M133.931 150.326H131.626V152.63H133.931V150.326Z" fill="#616161"/>
<path d="M136.235 150.326H133.931V152.63H136.235V150.326Z" fill="#616161"/>
<path d="M138.54 150.326H136.235V152.63H138.54V150.326Z" fill="#616161"/>
<path d="M140.844 150.326H138.54V152.63H140.844V150.326Z" fill="#616161"/>
<path d="M143.15 150.326H140.846V152.63H143.15V150.326Z" fill="#616161"/>
<path d="M147.759 150.326H145.455V152.63H147.759V150.326Z" fill="#616161"/>
<path d="M150.064 150.326H147.759V152.63H150.064V150.326Z" fill="#616161"/>
<path d="M156.977 150.326H154.672V152.63H156.977V150.326Z" fill="#616161"/>
<path d="M161.722 150.326H159.281V152.63H161.722V150.326Z" fill="#616161"/>
<path d="M164.026 150.326H161.722V152.63H164.026V150.326Z" fill="#616161"/>
<path d="M168.635 150.326H166.331V152.63H168.635V150.326Z" fill="#616161"/>
<path d="M170.94 150.326H168.635V152.63H170.94V150.326Z" fill="#616161"/>
<path d="M173.246 150.326H170.941V152.63H173.246V150.326Z" fill="#616161"/>
<path d="M175.55 150.326H173.246V152.63H175.55V150.326Z" fill="#616161"/>
<path d="M177.855 150.326H175.55V152.63H177.855V150.326Z" fill="#616161"/>
<path d="M180.295 150.326H177.855V152.63H180.295V150.326Z" fill="#616161"/>
<path d="M131.626 150.326H129.322V152.63H131.626V150.326Z" fill="#616161"/>
<path d="M143.15 148.021H140.846V150.326H143.15V148.021Z" fill="#616161"/>
<path d="M150.064 148.021H147.759V150.326H150.064V148.021Z" fill="#616161"/>
<path d="M154.673 148.021H152.368V150.326H154.673V148.021Z" fill="#616161"/>
<path d="M156.977 148.021H154.672V150.326H156.977V148.021Z" fill="#616161"/>
<path d="M159.281 148.021H156.977V150.326H159.281V148.021Z" fill="#616161"/>
<path d="M161.722 148.021H159.281V150.326H161.722V148.021Z" fill="#616161"/>
<path d="M168.635 148.021H166.331V150.326H168.635V148.021Z" fill="#616161"/>
<path d="M180.295 148.021H177.855V150.326H180.295V148.021Z" fill="#616161"/>
<path d="M131.626 148.021H129.322V150.326H131.626V148.021Z" fill="#616161"/>
<path d="M136.235 145.717H133.931V148.021H136.235V145.717Z" fill="#616161"/>
<path d="M138.54 145.717H136.235V148.021H138.54V145.717Z" fill="#616161"/>
<path d="M143.15 145.717H140.846V148.021H143.15V145.717Z" fill="#616161"/>
<path d="M147.759 145.717H145.455V148.021H147.759V145.717Z" fill="#616161"/>
<path d="M150.064 145.717H147.759V148.021H150.064V145.717Z" fill="#616161"/>
<path d="M152.368 145.717H150.064V148.021H152.368V145.717Z" fill="#616161"/>
<path d="M156.977 145.717H154.672V148.021H156.977V145.717Z" fill="#616161"/>
<path d="M159.281 145.717H156.977V148.021H159.281V145.717Z" fill="#616161"/>
<path d="M161.722 145.717H159.281V148.021H161.722V145.717Z" fill="#616161"/>
<path d="M164.026 145.717H161.722V148.021H164.026V145.717Z" fill="#616161"/>
<path d="M168.635 145.717H166.331V148.021H168.635V145.717Z" fill="#616161"/>
<path d="M173.246 145.717H170.941V148.021H173.246V145.717Z" fill="#616161"/>
<path d="M175.55 145.717H173.246V148.021H175.55V145.717Z" fill="#616161"/>
<path d="M180.295 145.717H177.855V148.021H180.295V145.717Z" fill="#616161"/>
<path d="M131.626 145.717H129.322V148.021H131.626V145.717Z" fill="#616161"/>
<path d="M136.235 143.413H133.931V145.717H136.235V143.413Z" fill="#616161"/>
<path d="M138.54 143.413H136.235V145.717H138.54V143.413Z" fill="#616161"/>
<path d="M143.15 143.413H140.846V145.717H143.15V143.413Z" fill="#616161"/>
<path d="M147.759 143.413H145.455V145.717H147.759V143.413Z" fill="#616161"/>
<path d="M152.368 143.413H150.064V145.717H152.368V143.413Z" fill="#616161"/>
<path d="M156.977 143.413H154.672V145.717H156.977V143.413Z" fill="#616161"/>
<path d="M168.635 143.413H166.331V145.717H168.635V143.413Z" fill="#616161"/>
<path d="M173.246 143.413H170.941V145.717H173.246V143.413Z" fill="#616161"/>
<path d="M175.55 143.413H173.246V145.717H175.55V143.413Z" fill="#616161"/>
<path d="M180.295 143.413H177.855V145.717H180.295V143.413Z" fill="#616161"/>
<path d="M131.626 143.413H129.322V145.717H131.626V143.413Z" fill="#616161"/>
<path d="M143.15 141.108H140.846V143.412H143.15V141.108Z" fill="#616161"/>
<path d="M147.759 141.108H145.455V143.412H147.759V141.108Z" fill="#616161"/>
<path d="M150.064 141.108H147.759V143.412H150.064V141.108Z" fill="#616161"/>
<path d="M152.368 141.108H150.064V143.412H152.368V141.108Z" fill="#616161"/>
<path d="M156.977 141.108H154.672V143.412H156.977V141.108Z" fill="#616161"/>
<path d="M159.281 141.108H156.977V143.412H159.281V141.108Z" fill="#616161"/>
<path d="M164.026 141.108H161.722V143.412H164.026V141.108Z" fill="#616161"/>
<path d="M168.635 141.108H166.331V143.412H168.635V141.108Z" fill="#616161"/>
<path d="M180.295 141.108H177.855V143.412H180.295V141.108Z" fill="#616161"/>
<path d="M131.626 141.108H129.322V143.412H131.626V141.108Z" fill="#616161"/>
<path d="M133.931 138.804H131.626V141.108H133.931V138.804Z" fill="#616161"/>
<path d="M136.235 138.804H133.931V141.108H136.235V138.804Z" fill="#616161"/>
<path d="M138.54 138.804H136.235V141.108H138.54V138.804Z" fill="#616161"/>
<path d="M140.844 138.804H138.54V141.108H140.844V138.804Z" fill="#616161"/>
<path d="M143.15 138.804H140.846V141.108H143.15V138.804Z" fill="#616161"/>
<path d="M147.759 138.804H145.455V141.108H147.759V138.804Z" fill="#616161"/>
<path d="M152.368 138.804H150.064V141.108H152.368V138.804Z" fill="#616161"/>
<path d="M154.673 138.804H152.368V141.108H154.673V138.804Z" fill="#616161"/>
<path d="M159.281 138.804H156.977V141.108H159.281V138.804Z" fill="#616161"/>
<path d="M168.635 138.804H166.331V141.108H168.635V138.804Z" fill="#616161"/>
<path d="M170.94 138.804H168.635V141.108H170.94V138.804Z" fill="#616161"/>
<path d="M173.246 138.804H170.941V141.108H173.246V138.804Z" fill="#616161"/>
<path d="M175.55 138.804H173.246V141.108H175.55V138.804Z" fill="#616161"/>
<path d="M177.855 138.804H175.55V141.108H177.855V138.804Z" fill="#616161"/>
<path d="M180.295 138.804H177.855V141.108H180.295V138.804Z" fill="#616161"/>
<path d="M131.626 138.804H129.322V141.108H131.626V138.804Z" fill="#616161"/>
<path d="M154.673 136.499H152.368V138.804H154.673V136.499Z" fill="#616161"/>
<path d="M156.977 136.499H154.672V138.804H156.977V136.499Z" fill="#616161"/>
<path d="M159.281 136.499H156.977V138.804H159.281V136.499Z" fill="#616161"/>
<path d="M164.026 136.499H161.722V138.804H164.026V136.499Z" fill="#616161"/>
<path d="M133.931 134.195H131.626V136.499H133.931V134.195Z" fill="#616161"/>
<path d="M136.235 134.195H133.931V136.499H136.235V134.195Z" fill="#616161"/>
<path d="M138.54 134.195H136.235V136.499H138.54V134.195Z" fill="#616161"/>
<path d="M140.844 134.195H138.54V136.499H140.844V134.195Z" fill="#616161"/>
<path d="M147.759 134.195H145.455V136.499H147.759V134.195Z" fill="#616161"/>
<path d="M150.064 134.195H147.759V136.499H150.064V134.195Z" fill="#616161"/>
<path d="M152.368 134.195H150.064V136.499H152.368V134.195Z" fill="#616161"/>
<path d="M156.977 134.195H154.672V136.499H156.977V134.195Z" fill="#616161"/>
<path d="M159.281 134.195H156.977V136.499H159.281V134.195Z" fill="#616161"/>
<path d="M161.722 134.195H159.281V136.499H161.722V134.195Z" fill="#616161"/>
<path d="M164.026 134.195H161.722V136.499H164.026V134.195Z" fill="#616161"/>
<path d="M166.331 134.195H164.026V136.499H166.331V134.195Z" fill="#616161"/>
<path d="M168.635 134.195H166.331V136.499H168.635V134.195Z" fill="#616161"/>
<path d="M170.94 134.195H168.635V136.499H170.94V134.195Z" fill="#616161"/>
<path d="M173.246 134.195H170.941V136.499H173.246V134.195Z" fill="#616161"/>
<path d="M177.855 134.195H175.55V136.499H177.855V134.195Z" fill="#616161"/>
<path d="M180.295 134.195H177.855V136.499H180.295V134.195Z" fill="#616161"/>
<path d="M136.235 131.89H133.931V134.195H136.235V131.89Z" fill="#616161"/>
<path d="M138.54 131.89H136.235V134.195H138.54V131.89Z" fill="#616161"/>
<path d="M145.455 131.89H143.15V134.195H145.455V131.89Z" fill="#616161"/>
<path d="M147.759 131.89H145.455V134.195H147.759V131.89Z" fill="#616161"/>
<path d="M152.368 131.89H150.064V134.195H152.368V131.89Z" fill="#616161"/>
<path d="M159.281 131.89H156.977V134.195H159.281V131.89Z" fill="#616161"/>
<path d="M164.026 131.89H161.722V134.195H164.026V131.89Z" fill="#616161"/>
<path d="M166.331 131.89H164.026V134.195H166.331V131.89Z" fill="#616161"/>
<path d="M170.94 131.89H168.635V134.195H170.94V131.89Z" fill="#616161"/>
<path d="M173.246 131.89H170.941V134.195H173.246V131.89Z" fill="#616161"/>
<path d="M133.931 129.586H131.626V131.89H133.931V129.586Z" fill="#616161"/>
<path d="M138.54 129.586H136.235V131.89H138.54V129.586Z" fill="#616161"/>
<path d="M140.844 129.586H138.54V131.89H140.844V129.586Z" fill="#616161"/>
<path d="M143.15 129.586H140.846V131.89H143.15V129.586Z" fill="#616161"/>
<path d="M145.455 129.586H143.15V131.89H145.455V129.586Z" fill="#616161"/>
<path d="M150.064 129.586H147.759V131.89H150.064V129.586Z" fill="#616161"/>
<path d="M152.368 129.586H150.064V131.89H152.368V129.586Z" fill="#616161"/>
<path d="M154.673 129.586H152.368V131.89H154.673V129.586Z" fill="#616161"/>
<path d="M156.977 129.586H154.672V131.89H156.977V129.586Z" fill="#616161"/>
<path d="M159.281 129.586H156.977V131.89H159.281V129.586Z" fill="#616161"/>
<path d="M161.722 129.586H159.281V131.89H161.722V129.586Z" fill="#616161"/>
<path d="M173.246 129.586H170.941V131.89H173.246V129.586Z" fill="#616161"/>
<path d="M175.55 129.586H173.246V131.89H175.55V129.586Z" fill="#616161"/>
<path d="M180.295 129.586H177.855V131.89H180.295V129.586Z" fill="#616161"/>
<path d="M131.626 129.586H129.322V131.89H131.626V129.586Z" fill="#616161"/>
<path d="M133.931 127.281H131.626V129.586H133.931V127.281Z" fill="#616161"/>
<path d="M136.235 127.281H133.931V129.586H136.235V127.281Z" fill="#616161"/>
<path d="M138.54 127.281H136.235V129.586H138.54V127.281Z" fill="#616161"/>
<path d="M147.759 127.281H145.455V129.586H147.759V127.281Z" fill="#616161"/>
<path d="M150.064 127.281H147.759V129.586H150.064V127.281Z" fill="#616161"/>
<path d="M159.281 127.281H156.977V129.586H159.281V127.281Z" fill="#616161"/>
<path d="M166.331 127.281H164.026V129.586H166.331V127.281Z" fill="#616161"/>
<path d="M168.635 127.281H166.331V129.586H168.635V127.281Z" fill="#616161"/>
<path d="M173.246 127.281H170.941V129.586H173.246V127.281Z" fill="#616161"/>
<path d="M175.55 127.281H173.246V129.586H175.55V127.281Z" fill="#616161"/>
<path d="M177.855 127.281H175.55V129.586H177.855V127.281Z" fill="#616161"/>
<path d="M180.295 127.281H177.855V129.586H180.295V127.281Z" fill="#616161"/>
<path d="M131.626 127.281H129.322V129.586H131.626V127.281Z" fill="#616161"/>
<path d="M138.54 124.977H136.235V127.281H138.54V124.977Z" fill="#616161"/>
<path d="M140.844 124.977H138.54V127.281H140.844V124.977Z" fill="#616161"/>
<path d="M143.15 124.977H140.846V127.281H143.15V124.977Z" fill="#616161"/>
<path d="M145.455 124.977H143.15V127.281H145.455V124.977Z" fill="#616161"/>
<path d="M147.759 124.977H145.455V127.281H147.759V124.977Z" fill="#616161"/>
<path d="M150.064 124.977H147.759V127.281H150.064V124.977Z" fill="#616161"/>
<path d="M156.977 124.977H154.672V127.281H156.977V124.977Z" fill="#616161"/>
<path d="M164.026 124.977H161.722V127.281H164.026V124.977Z" fill="#616161"/>
<path d="M166.331 124.977H164.026V127.281H166.331V124.977Z" fill="#616161"/>
<path d="M175.55 124.977H173.246V127.281H175.55V124.977Z" fill="#616161"/>
<path d="M131.626 124.977H129.322V127.281H131.626V124.977Z" fill="#616161"/>
<path d="M133.931 122.672H131.626V124.977H133.931V122.672Z" fill="#616161"/>
<path d="M136.235 122.672H133.931V124.977H136.235V122.672Z" fill="#616161"/>
<path d="M138.54 122.672H136.235V124.977H138.54V122.672Z" fill="#616161"/>
<path d="M140.844 122.672H138.54V124.977H140.844V122.672Z" fill="#616161"/>
<path d="M145.455 122.672H143.15V124.977H145.455V122.672Z" fill="#616161"/>
<path d="M150.064 122.672H147.759V124.977H150.064V122.672Z" fill="#616161"/>
<path d="M152.368 122.672H150.064V124.977H152.368V122.672Z" fill="#616161"/>
<path d="M156.977 122.672H154.672V124.977H156.977V122.672Z" fill="#616161"/>
<path d="M159.281 122.672H156.977V124.977H159.281V122.672Z" fill="#616161"/>
<path d="M161.722 122.672H159.281V124.977H161.722V122.672Z" fill="#616161"/>
<path d="M164.026 122.672H161.722V124.977H164.026V122.672Z" fill="#616161"/>
<path d="M168.635 122.672H166.331V124.977H168.635V122.672Z" fill="#616161"/>
<path d="M170.94 122.672H168.635V124.977H170.94V122.672Z" fill="#616161"/>
<path d="M173.246 122.672H170.941V124.977H173.246V122.672Z" fill="#616161"/>
<path d="M175.55 122.672H173.246V124.977H175.55V122.672Z" fill="#616161"/>
<path d="M180.295 122.672H177.855V124.977H180.295V122.672Z" fill="#616161"/>
<path d="M133.931 120.367H131.626V122.671H133.931V120.367Z" fill="#616161"/>
<path d="M138.54 120.367H136.235V122.671H138.54V120.367Z" fill="#616161"/>
<path d="M143.15 120.367H140.846V122.671H143.15V120.367Z" fill="#616161"/>
<path d="M145.455 120.367H143.15V122.671H145.455V120.367Z" fill="#616161"/>
<path d="M152.368 120.367H150.064V122.671H152.368V120.367Z" fill="#616161"/>
<path d="M154.673 120.367H152.368V122.671H154.673V120.367Z" fill="#616161"/>
<path d="M156.977 120.367H154.672V122.671H156.977V120.367Z" fill="#616161"/>
<path d="M161.722 120.367H159.281V122.671H161.722V120.367Z" fill="#616161"/>
<path d="M164.026 120.367H161.722V122.671H164.026V120.367Z" fill="#616161"/>
<path d="M166.331 120.367H164.026V122.671H166.331V120.367Z" fill="#616161"/>
<path d="M170.94 120.367H168.635V122.671H170.94V120.367Z" fill="#616161"/>
<path d="M175.55 120.367H173.246V122.671H175.55V120.367Z" fill="#616161"/>
<path d="M177.855 120.367H175.55V122.671H177.855V120.367Z" fill="#616161"/>
<path d="M180.295 120.367H177.855V122.671H180.295V120.367Z" fill="#616161"/>
<path d="M131.626 120.367H129.322V122.671H131.626V120.367Z" fill="#616161"/>
<path d="M133.931 118.062H131.626V120.366H133.931V118.062Z" fill="#616161"/>
<path d="M143.15 118.062H140.846V120.366H143.15V118.062Z" fill="#616161"/>
<path d="M145.455 118.062H143.15V120.366H145.455V118.062Z" fill="#616161"/>
<path d="M150.064 118.062H147.759V120.366H150.064V118.062Z" fill="#616161"/>
<path d="M152.368 118.062H150.064V120.366H152.368V118.062Z" fill="#616161"/>
<path d="M156.977 118.062H154.672V120.366H156.977V118.062Z" fill="#616161"/>
<path d="M159.281 118.062H156.977V120.366H159.281V118.062Z" fill="#616161"/>
<path d="M164.026 118.062H161.722V120.366H164.026V118.062Z" fill="#616161"/>
<path d="M166.331 118.062H164.026V120.366H166.331V118.062Z" fill="#616161"/>
<path d="M168.635 118.062H166.331V120.366H168.635V118.062Z" fill="#616161"/>
<path d="M170.94 118.062H168.635V120.366H170.94V118.062Z" fill="#616161"/>
<path d="M173.246 118.062H170.941V120.366H173.246V118.062Z" fill="#616161"/>
<path d="M175.55 118.062H173.246V120.366H175.55V118.062Z" fill="#616161"/>
<path d="M131.626 118.062H129.322V120.366H131.626V118.062Z" fill="#616161"/>
<path d="M150.064 115.758H147.759V118.062H150.064V115.758Z" fill="#616161"/>
<path d="M154.673 115.758H152.368V118.062H154.673V115.758Z" fill="#616161"/>
<path d="M156.977 115.758H154.672V118.062H156.977V115.758Z" fill="#616161"/>
<path d="M161.722 115.758H159.281V118.062H161.722V115.758Z" fill="#616161"/>
<path d="M164.026 115.758H161.722V118.062H164.026V115.758Z" fill="#616161"/>
<path d="M166.331 115.758H164.026V118.062H166.331V115.758Z" fill="#616161"/>
<path d="M133.931 113.453H131.626V115.758H133.931V113.453Z" fill="#616161"/>
<path d="M136.235 113.453H133.931V115.758H136.235V113.453Z" fill="#616161"/>
<path d="M138.54 113.453H136.235V115.758H138.54V113.453Z" fill="#616161"/>
<path d="M140.844 113.453H138.54V115.758H140.844V113.453Z" fill="#616161"/>
<path d="M143.15 113.453H140.846V115.758H143.15V113.453Z" fill="#616161"/>
<path d="M147.759 113.453H145.455V115.758H147.759V113.453Z" fill="#616161"/>
<path d="M150.064 113.453H147.759V115.758H150.064V113.453Z" fill="#616161"/>
<path d="M156.977 113.453H154.672V115.758H156.977V113.453Z" fill="#616161"/>
<path d="M166.331 113.453H164.026V115.758H166.331V113.453Z" fill="#616161"/>
<path d="M168.635 113.453H166.331V115.758H168.635V113.453Z" fill="#616161"/>
<path d="M173.246 113.453H170.941V115.758H173.246V113.453Z" fill="#616161"/>
<path d="M180.295 113.453H177.855V115.758H180.295V113.453Z" fill="#616161"/>
<path d="M131.626 113.453H129.322V115.758H131.626V113.453Z" fill="#616161"/>
<path d="M143.15 111.149H140.846V113.453H143.15V111.149Z" fill="#616161"/>
<path d="M161.722 111.149H159.281V113.453H161.722V111.149Z" fill="#616161"/>
<path d="M164.026 111.149H161.722V113.453H164.026V111.149Z" fill="#616161"/>
<path d="M168.635 111.149H166.331V113.453H168.635V111.149Z" fill="#616161"/>
<path d="M170.94 111.149H168.635V113.453H170.94V111.149Z" fill="#616161"/>
<path d="M175.55 111.149H173.246V113.453H175.55V111.149Z" fill="#616161"/>
<path d="M177.855 111.149H175.55V113.453H177.855V111.149Z" fill="#616161"/>
<path d="M180.295 111.149H177.855V113.453H180.295V111.149Z" fill="#616161"/>
<path d="M131.626 111.149H129.322V113.453H131.626V111.149Z" fill="#616161"/>
<path d="M136.235 108.844H133.931V111.149H136.235V108.844Z" fill="#616161"/>
<path d="M138.54 108.844H136.235V111.149H138.54V108.844Z" fill="#616161"/>
<path d="M143.15 108.844H140.846V111.149H143.15V108.844Z" fill="#616161"/>
<path d="M147.759 108.844H145.455V111.149H147.759V108.844Z" fill="#616161"/>
<path d="M150.064 108.844H147.759V111.149H150.064V108.844Z" fill="#616161"/>
<path d="M154.673 108.844H152.368V111.149H154.673V108.844Z" fill="#616161"/>
<path d="M156.977 108.844H154.672V111.149H156.977V108.844Z" fill="#616161"/>
<path d="M161.722 108.844H159.281V111.149H161.722V108.844Z" fill="#616161"/>
<path d="M170.94 108.844H168.635V111.149H170.94V108.844Z" fill="#616161"/>
<path d="M173.246 108.844H170.941V111.149H173.246V108.844Z" fill="#616161"/>
<path d="M175.55 108.844H173.246V111.149H175.55V108.844Z" fill="#616161"/>
<path d="M131.626 108.844H129.322V111.149H131.626V108.844Z" fill="#616161"/>
<path d="M136.235 106.54H133.931V108.844H136.235V106.54Z" fill="#616161"/>
<path d="M138.54 106.54H136.235V108.844H138.54V106.54Z" fill="#616161"/>
<path d="M143.15 106.54H140.846V108.844H143.15V106.54Z" fill="#616161"/>
<path d="M147.759 106.54H145.455V108.844H147.759V106.54Z" fill="#616161"/>
<path d="M152.368 106.54H150.064V108.844H152.368V106.54Z" fill="#616161"/>
<path d="M154.673 106.54H152.368V108.844H154.673V106.54Z" fill="#616161"/>
<path d="M156.977 106.54H154.672V108.844H156.977V106.54Z" fill="#616161"/>
<path d="M159.281 106.54H156.977V108.844H159.281V106.54Z" fill="#616161"/>
<path d="M161.722 106.54H159.281V108.844H161.722V106.54Z" fill="#616161"/>
<path d="M166.331 106.54H164.026V108.844H166.331V106.54Z" fill="#616161"/>
<path d="M168.635 106.54H166.331V108.844H168.635V106.54Z" fill="#616161"/>
<path d="M170.94 106.54H168.635V108.844H170.94V106.54Z" fill="#616161"/>
<path d="M175.55 106.54H173.246V108.844H175.55V106.54Z" fill="#616161"/>
<path d="M177.855 106.54H175.55V108.844H177.855V106.54Z" fill="#616161"/>
<path d="M180.295 106.54H177.855V108.844H180.295V106.54Z" fill="#616161"/>
<path d="M131.626 106.54H129.322V108.844H131.626V106.54Z" fill="#616161"/>
<path d="M143.15 104.235H140.846V106.54H143.15V104.235Z" fill="#616161"/>
<path d="M152.368 104.235H150.064V106.54H152.368V104.235Z" fill="#616161"/>
<path d="M154.673 104.235H152.368V106.54H154.673V104.235Z" fill="#616161"/>
<path d="M159.281 104.235H156.977V106.54H159.281V104.235Z" fill="#616161"/>
<path d="M161.722 104.235H159.281V106.54H161.722V104.235Z" fill="#616161"/>
<path d="M164.026 104.235H161.722V106.54H164.026V104.235Z" fill="#616161"/>
<path d="M166.331 104.235H164.026V106.54H166.331V104.235Z" fill="#616161"/>
<path d="M177.855 104.235H175.55V106.54H177.855V104.235Z" fill="#616161"/>
<path d="M131.626 104.235H129.322V106.54H131.626V104.235Z" fill="#616161"/>
<path d="M133.931 101.931H131.626V104.235H133.931V101.931Z" fill="#616161"/>
<path d="M136.235 101.931H133.931V104.235H136.235V101.931Z" fill="#616161"/>
<path d="M138.54 101.931H136.235V104.235H138.54V101.931Z" fill="#616161"/>
<path d="M140.844 101.931H138.54V104.235H140.844V101.931Z" fill="#616161"/>
<path d="M143.15 101.931H140.846V104.235H143.15V101.931Z" fill="#616161"/>
<path d="M147.759 101.931H145.455V104.235H147.759V101.931Z" fill="#616161"/>
<path d="M150.064 101.931H147.759V104.235H150.064V101.931Z" fill="#616161"/>
<path d="M161.722 101.931H159.281V104.235H161.722V101.931Z" fill="#616161"/>
<path d="M166.331 101.931H164.026V104.235H166.331V101.931Z" fill="#616161"/>
<path d="M170.94 101.931H168.635V104.235H170.94V101.931Z" fill="#616161"/>
<path d="M173.246 101.931H170.941V104.235H173.246V101.931Z" fill="#616161"/>
<path d="M180.295 101.931H177.855V104.235H180.295V101.931Z" fill="#616161"/>
<path d="M131.626 101.931H129.322V104.235H131.626V101.931Z" fill="#616161"/>
<g opacity="0.8">
<path d="M121.62 106.469C121.168 106.469 120.801 106.102 120.801 105.65V94.4732C120.801 94.0207 121.168 93.6542 121.62 93.6542H132.898C133.351 93.6542 133.717 94.0207 133.717 94.4732C133.717 94.9258 133.351 95.2923 132.898 95.2923H122.441V105.65C122.441 106.102 122.074 106.469 121.621 106.469H121.62Z" fill="white"/>
<path d="M187.997 106.519C187.544 106.519 187.178 106.152 187.178 105.7V95.2423H176.82C176.368 95.2423 176.001 94.8758 176.001 94.4232C176.001 93.9707 176.368 93.6042 176.82 93.6042H187.997C188.449 93.6042 188.816 93.9707 188.816 94.4232V105.701C188.816 106.154 188.449 106.52 187.997 106.52V106.519Z" fill="white"/>
</g>
<g opacity="0.8">
<path d="M187.997 162.687H176.719C176.266 162.687 175.9 162.32 175.9 161.868C175.9 161.415 176.266 161.047 176.719 161.047H187.177V150.69C187.177 150.237 187.543 149.871 187.996 149.871C188.448 149.871 188.815 150.237 188.815 150.69V161.866C188.815 162.319 188.448 162.685 187.996 162.685L187.997 162.687Z" fill="white"/>
<path d="M132.797 162.737H121.62C121.168 162.737 120.801 162.37 120.801 161.918V150.64C120.801 150.187 121.168 149.821 121.62 149.821C122.073 149.821 122.439 150.187 122.439 150.64V161.097H132.797C133.249 161.097 133.616 161.464 133.616 161.916C133.616 162.369 133.249 162.735 132.797 162.735V162.737Z" fill="white"/>
</g>
<path d="M127.369 176.684H182.25C183.108 176.684 183.803 177.381 183.803 178.238V179.804C183.803 180.662 183.106 181.357 182.25 181.357H127.369C126.511 181.357 125.815 180.662 125.815 179.804V178.236C125.815 177.378 126.512 176.683 127.369 176.683V176.684Z" fill="white"/>
<path d="M166.331 176.684V181.358H127.367C126.512 181.358 125.814 180.659 125.814 179.805V178.238C125.814 177.383 126.514 176.684 127.367 176.684H166.331Z" fill="#616161"/>
<path d="M158.212 176.684L153.902 181.358H145.835L150.147 176.684H158.212Z" fill="#E0E0E0"/>
<path d="M166.331 176.684V181.358H158.855L163.167 176.684H166.331Z" fill="#E0E0E0"/>
<path d="M145.225 176.684L140.914 181.358H132.848L137.16 176.684H145.225Z" fill="#E0E0E0"/>
<path d="M132.239 176.684L127.927 181.359H127.335C126.48 181.359 125.782 180.659 125.782 179.805V178.238C125.782 177.383 126.482 176.684 127.335 176.684H132.237H132.239Z" fill="#E0E0E0"/>
<path d="M148.861 174.016L149.168 173.652C149.446 173.893 149.723 174.029 150.083 174.029C150.398 174.029 150.597 173.884 150.597 173.657C150.597 173.45 150.48 173.337 149.943 173.21C149.326 173.064 148.978 172.882 148.978 172.34C148.978 171.843 149.392 171.499 149.968 171.499C150.39 171.499 150.726 171.627 151.02 171.863L150.747 172.247C150.486 172.053 150.225 171.949 149.959 171.949C149.661 171.949 149.487 172.102 149.487 172.302C149.487 172.525 149.619 172.625 150.175 172.757C150.788 172.905 151.106 173.126 151.106 173.613C151.106 174.156 150.68 174.478 150.07 174.478C149.628 174.478 149.208 174.326 148.861 174.015V174.016Z" fill="white"/>
<path d="M151.578 172.989C151.578 172.164 152.196 171.49 153.073 171.49C153.608 171.49 153.93 171.676 154.207 171.941L153.88 172.317C153.648 172.102 153.399 171.956 153.068 171.956C152.512 171.956 152.111 172.411 152.111 172.987C152.111 173.564 152.512 174.019 153.068 174.019C153.424 174.019 153.652 173.874 153.901 173.643L154.228 173.974C153.926 174.29 153.595 174.488 153.052 174.488C152.207 174.488 151.578 173.83 151.578 172.989Z" fill="white"/>
<path d="M155.79 171.519H156.262L157.538 174.438H156.999L156.705 173.738H155.335L155.036 174.438H154.514L155.79 171.519ZM156.519 173.287L156.018 172.128L155.521 173.287H156.519Z" fill="white"/>
<path d="M158.035 171.539H158.507L160.06 173.544V171.539H160.561V174.438H160.135L158.537 172.375V174.438H158.036V171.539H158.035Z" fill="white"/>
<path d="M198.291 151.163C200.964 150.383 203.984 151.278 205.872 153.327C210.539 158.397 207.098 162.305 209.434 165.853C210.846 167.997 212.031 171.752 207.658 173.973C205.637 175 199.614 180.367 198.381 180.494C185.883 181.778 185.658 169.098 189.871 165.423C195.792 160.259 190.382 153.47 198.292 151.163H198.291Z" fill="#233862"/>
<path d="M204.822 170.765C204.822 170.765 216.228 176.29 218.364 176.197C220.501 176.104 233.856 171.401 233.856 171.401L233.521 173.665C233.521 173.665 223.361 179.508 219.81 179.84C216.313 180.166 204.354 176.701 203.201 175.969C202.046 175.238 201.468 171.503 204.824 170.763L204.822 170.765Z" fill="#ED985F"/>
<path d="M206.079 175.978C205.044 176.695 203.749 177.287 202.122 177.662C196.022 179.071 193.684 173.916 192.807 170.377C193.639 169.901 194.422 169.797 194.874 169.743C195.316 169.692 195.779 169.657 196.162 169.638C196.847 169.113 197.869 166.967 198.094 163.632L198.381 163.708L203.188 165.024C203.188 165.024 202.968 166.553 202.861 167.997C202.777 169.127 202.764 170.207 202.979 170.472C203.354 170.554 203.578 170.607 203.578 170.607C203.578 170.607 203.578 170.608 203.581 170.611C203.645 170.716 205.04 173.01 206.081 175.979L206.079 175.978Z" fill="#FFB27D"/>
<path d="M203.187 165.024C203.187 165.024 202.966 166.552 202.859 167.997C200.136 167.725 198.872 165.131 198.38 163.708L203.187 165.024Z" fill="#ED985F"/>
<path d="M204 166.458C204 166.458 197.535 166.102 197.82 162.08C198.105 158.058 197.462 155.303 201.6 155.361C205.74 155.419 206.433 157.01 206.664 158.376C206.896 159.742 205.69 166.449 204 166.46V166.458Z" fill="#FFB27D"/>
<path d="M206.632 156.125C205.722 154.843 204.949 155.054 204.499 155.387C201.109 153.194 198.629 155.9 198.629 155.9C197.991 158.754 195.79 160.259 195.79 160.259C195.79 160.259 196.936 161.175 199.677 160.567C203.186 159.789 204.39 156.746 204.554 156.28C204.924 156.662 205.4 156.905 205.765 157.735C206.199 158.719 206.471 159.291 206.48 160.908C206.48 160.908 207.999 158.046 206.632 156.125Z" fill="#233862"/>
<path d="M190.965 189.12C190.38 186.135 188.477 174.213 190.38 170.376C191.063 168.998 193.747 168.874 196.69 168.995C197.606 169.586 201.095 171.82 202.529 171.541C202.544 171.538 202.572 171.531 202.609 171.521C203.284 171.352 203.54 170.879 202.976 170.469C202.976 170.469 204.268 170.561 206.079 170.901C207.102 171.094 209.909 172.817 209.909 172.817C209.909 172.817 208.636 174.798 206.588 175.662C206.937 178.778 206.419 180.152 203.187 187.346C200.456 193.428 203.555 198.903 203.555 198.903C203.555 198.903 187.48 211.826 187.392 205.246C187.325 200.292 191.712 192.932 190.965 189.117V189.12Z" fill="#4CAF50"/>
<path d="M204.352 212.957C205.226 212.859 206.013 212.38 206.502 211.648C206.58 211.532 206.663 211.407 206.751 211.273C208.58 208.504 209.292 200.022 213.407 190.984C214.409 188.784 218.008 188.388 218.989 185.902C218.989 185.902 221.405 177.841 214.366 177.603C207.328 177.366 195.52 200.031 195.334 202.41C195.153 204.713 190.682 214.5 204.352 212.956V212.957Z" fill="#94B0ED"/>
<path d="M232.322 212.91H222.306C222.306 212.91 221.931 211.271 222.589 210.154C223.171 209.167 222.948 208.604 222.517 207.788C222.971 207.978 223.558 208.151 224.203 208.114C224.702 208.085 225.231 207.851 225.693 207.577C226.125 208.08 227.97 210.229 228.547 210.654C229.202 211.137 232.12 210.965 232.322 212.912V212.91Z" fill="#0D2644"/>
<path d="M219.218 179.934C219.821 184.456 222.177 198.727 226.332 205.69C227.671 207.935 222.957 209.192 222.932 209.187C222.3 209.022 221.246 208.014 220.761 207.577C217.387 204.536 210.54 195.929 210.54 189.028C210.54 185.663 210.482 179.237 212.928 177.603C214.434 176.597 218.979 178.139 219.218 179.935V179.934Z" fill="#94B0ED"/>
<path d="M191.358 175.971C191.358 175.971 193.39 180.106 202.879 183.027C212.367 185.949 206.939 178.608 206.939 178.608L193.675 173.973L191.358 175.971Z" fill="#388E3C"/>
<path d="M199.461 212.967C199.461 212.967 199.969 212.206 200.291 211.075C200.83 209.186 201.021 207.81 202.056 204.867C203.142 201.777 204.431 197.976 206.041 194.02C206.538 192.8 207.066 191.565 207.628 190.331C208.63 188.13 211.389 188.434 212.369 185.948C212.369 185.948 216.197 177.327 209.159 177.088C202.122 176.851 188.749 200.152 187.982 202.408C187.14 204.878 184.118 215.333 199.461 212.966V212.967Z" fill="#AEC3FF"/>
<path d="M224.968 212.91H214.952C214.952 212.91 214.577 211.271 215.235 210.154C215.817 209.167 215.595 208.604 215.163 207.788C215.617 207.978 216.204 208.151 216.85 208.114C217.348 208.085 217.877 207.851 218.339 207.577C218.771 208.08 220.616 210.229 221.194 210.654C221.847 211.137 224.767 210.965 224.968 212.912V212.91Z" fill="#163560"/>
<g opacity="0.5">
<path d="M202.054 204.868C203.141 201.778 204.429 197.977 206.04 194.022C205.619 191.026 204.711 188.404 203.186 187.347C203.186 187.347 199.485 198.814 202.053 204.868H202.054Z" fill="#94B0ED"/>
</g>
<path d="M213.371 179.613C213.973 184.135 214.823 198.727 218.978 205.69C220.318 207.935 215.603 209.192 215.578 209.187C214.947 209.022 213.893 208.014 213.407 207.577C210.034 204.536 203.187 195.929 203.187 189.028C203.187 185.663 207.136 179.506 209.582 177.874C211.089 176.867 213.131 177.82 213.371 179.616V179.613Z" fill="#AEC3FF"/>
<path d="M235.111 165.572L224.854 164.483C224.555 164.451 224.272 164.624 224.165 164.906L220.495 174.55C220.334 174.974 220.635 175.429 221.088 175.447L231.266 175.858C231.542 175.869 231.796 175.706 231.903 175.452L235.653 166.487C235.824 166.078 235.553 165.62 235.111 165.574V165.572Z" fill="#233862"/>
<path d="M236.003 165.665L225.745 164.576C225.447 164.544 225.163 164.717 225.057 164.999L221.386 174.643C221.225 175.067 221.526 175.522 221.979 175.54L232.157 175.951C232.434 175.962 232.688 175.8 232.795 175.544L236.544 166.579C236.715 166.169 236.444 165.711 236.003 165.665Z" fill="#2B478B"/>
<path d="M230.257 170.171C230.382 169.826 230.205 169.547 229.86 169.547C229.516 169.547 229.136 169.826 229.011 170.171C228.886 170.515 229.064 170.794 229.408 170.794C229.752 170.794 230.132 170.515 230.257 170.171Z" fill="#EBF3FA"/>
<path d="M235.637 166.579C235.698 166.41 235.612 166.272 235.442 166.272C235.273 166.272 235.086 166.41 235.025 166.579C234.964 166.749 235.051 166.886 235.219 166.886C235.387 166.886 235.576 166.749 235.637 166.579Z" fill="#EBF3FA"/>
<path d="M192.806 170.376C192.806 170.376 207.023 175.611 209.158 175.504C210.539 175.435 222.014 171.401 222.014 171.401L223.044 173.35C223.044 173.35 211.874 180.528 208.804 180.494C202.741 180.424 192.511 176.702 191.358 175.971C190.203 175.239 189.45 171.117 192.806 170.376Z" fill="#FFB27D"/>
<path d="M222.016 171.401C222.016 171.401 223.046 169.815 224.071 169.768C225.097 169.721 226.869 170.468 227.475 170.584C228.082 170.701 229.806 171.26 229.294 172.1C228.78 172.94 226.402 173.126 225.378 172.94C224.352 172.754 223.047 173.35 223.047 173.35L222.017 171.401H222.016Z" fill="#FFB27D"/>
<path d="M223.792 169.818C223.792 169.818 225.424 169.07 225.89 168.93C226.356 168.789 226.263 168.932 226.123 169.374C225.983 169.815 225.145 170.237 225.145 170.376C225.145 170.515 223.792 169.818 223.792 169.818Z" fill="#FFB27D"/>
<path d="M234.887 170.562C234.887 170.562 234.236 168.417 233.521 169.092C232.777 169.793 233.228 170.494 233.32 171.388C233.493 173.097 233.839 173.023 234.058 172.947C234.278 172.871 235.129 171.423 234.887 170.564V170.562Z" fill="#FFB27D"/>
<path d="M234.926 170.888C234.926 170.888 235.255 172.714 233.521 173.666L234.035 172.41L234.926 170.888Z" fill="#FFB27D"/>
<path d="M205.21 164.146C205.21 164.146 204.599 163.904 202.879 164.043C202.879 164.043 202.97 164.713 204.238 164.78C204.956 164.818 205.21 164.146 205.21 164.146Z" fill="white"/>
<path d="M200.13 172.958C200.13 172.958 198.858 176.983 194.492 177.899C194.492 177.899 187.282 175.678 190.872 170.765C190.872 170.765 194.422 168.127 200.131 172.958H200.13Z" fill="#4CAF50"/>
<path d="M234.926 171.147C234.926 171.147 235.226 170.142 235.243 169.968C235.259 169.794 235.238 169.707 235.084 169.829C234.93 169.951 234.694 170.273 234.764 170.577C234.833 170.883 234.926 171.147 234.926 171.147Z" fill="#FFB27D"/>
<path d="M141.25 80.8171C140.96 81.1503 140.922 81.521 141.066 81.918C141.066 81.9194 141.066 81.9222 141.069 81.9236C141.334 82.6579 142.212 83.477 143.231 84.2947C143.361 84.4002 143.476 84.496 143.578 84.5834C143.604 84.607 143.631 84.6306 143.656 84.6528C143.676 84.6709 143.696 84.6903 143.715 84.707C144.665 85.5829 144.308 85.7829 146.014 87.5612C147.96 89.5866 149.3 89.6227 149.682 89.4381C150.004 89.2812 149.349 88.2067 148.623 86.9989C148.588 86.9406 148.553 86.8823 148.517 86.8226C148.42 86.6616 148.324 86.4992 148.228 86.3381C147.377 84.8847 147.597 84.203 147.798 82.0416C147.962 80.2841 150.531 72.2254 150.531 72.2254L146.801 71.5826C146.801 71.5826 145.678 78.0004 144.44 78.9888C143.778 79.5164 143.038 79.5219 142.401 79.9134C142.356 79.9412 142.312 79.9689 142.269 79.9967C141.908 80.2369 141.538 80.484 141.248 80.8171H141.25Z" fill="#FFC49C"/>
<path d="M141.25 80.8172C140.96 81.1504 140.922 81.521 141.066 81.9181C141.066 81.9194 141.066 81.9222 141.069 81.9236C141.394 82.6566 142.249 83.4715 143.235 84.2878C143.364 84.3947 143.478 84.4932 143.578 84.5848C143.604 84.6084 143.631 84.632 143.656 84.6543C143.676 84.6723 143.696 84.6917 143.715 84.7084C144.665 85.5844 144.308 85.7843 146.014 87.5626C147.96 89.588 149.3 89.6241 149.682 89.4395C150.004 89.2826 149.349 88.2081 148.623 87.0004C148.244 86.8615 146.483 86.1466 145.153 84.4432C143.982 82.9481 143.2 81.0254 142.402 79.9135C142.358 79.9412 142.313 79.969 142.27 79.9967C141.909 80.2369 141.54 80.484 141.25 80.8172Z" fill="#233862"/>
<path d="M171.327 78.4863C171.558 79.6372 173.198 79.4456 175.032 78.9972C176.866 78.5488 176.43 79.0819 179.04 78.7931C181.65 78.5044 182.44 77.5312 182.52 77.1425C182.591 76.7982 181.302 76.6761 179.919 76.5178C179.745 76.4984 179.57 76.4762 179.396 76.4553C177.834 76.2596 176.69 75.2517 175.272 74.4244C173.929 73.64 171.924 70.4471 171.924 70.4471L168.345 70.7303C168.345 70.7303 170.223 73.5831 170.95 74.8228C171.377 75.5516 171.353 76.5164 171.301 77.2619C171.273 77.6673 171.247 78.081 171.329 78.4863H171.327Z" fill="#FFC49C"/>
<path d="M175.032 78.9986C176.866 78.5502 176.43 79.0833 179.04 78.7945C181.65 78.5058 182.44 77.5326 182.52 77.1439C182.591 76.7996 181.302 76.6775 179.919 76.5192L179.906 76.5456C179.906 76.5456 178.342 77.6548 176.169 77.7076C174.399 77.7506 172.524 77.2439 171.301 77.2633C171.273 77.6687 171.247 78.0824 171.329 78.4877C171.559 79.6386 173.2 79.447 175.034 78.9986H175.032Z" fill="#233862"/>
<path d="M157.611 55.6028L154.266 64.6054L149.898 76.361C149.898 76.361 148.713 76.4748 147.577 76.1486C146.532 75.8459 145.333 75.056 145.333 75.056C145.333 75.056 146.546 62.4342 148.809 55.1891C149.389 53.3288 150.039 51.8254 150.755 50.9786C154.263 46.8333 157.611 55.6028 157.611 55.6028Z" fill="#388E3C"/>
<path d="M154.21 41.3053C152.122 40.632 146.351 41.4233 140.382 42.5631C139.843 42.6658 139.296 42.4215 139.012 41.9522L138.172 40.5668L124.608 39.5076C124.608 39.5076 121.106 47.4621 122.595 54.0798C122.96 55.7013 124.942 57.8003 127.973 57.9891C136.469 58.518 142.201 55.5666 151.02 52.4667C152.554 51.9281 153.252 55.3362 154.847 58.6846C156.442 62.033 169.836 73.5137 169.836 73.5137C169.836 73.5137 171.895 73.5345 172.744 73.2152C173.659 72.8723 173.994 72.4267 173.994 72.4267C173.994 72.4267 159.152 42.899 154.21 41.3053Z" fill="#4CAF50"/>
<path d="M137.638 1.07025C135.899 0.158186 133.256 0.0346353 132.826 -0.0236704C127.687 -0.715009 124.592 6.75506 124.41 9.01788C124.075 13.1895 121.869 13.8253 118.762 16.438C112.534 21.6758 114.36 27.7632 117.765 30.0246C119.808 31.3809 123.41 30.0246 123.41 30.0246C123.461 30.0607 133.259 24.5466 138.089 21.8868C145.33 20.8581 142.063 3.39554 137.635 1.07025H137.638Z" fill="#233862"/>
<path d="M134.043 19.6226C134.064 19.6365 131.667 20.4555 130.063 19.7448C128.554 19.0784 127.412 16.5963 127.435 16.5949C128.121 16.5629 128.875 15.9632 129.455 12.0276L129.747 12.1317L134.66 13.8989C134.66 13.8989 134.304 15.4746 134.074 16.9766C133.88 18.2371 133.775 19.4435 134.045 19.6226H134.043Z" fill="#FFB27D"/>
<path d="M134.66 13.9003C134.66 13.9003 134.414 15.0192 134.142 16.549C131.32 16.0409 130.144 13.6587 129.747 12.1331L134.66 13.9003Z" fill="#ED975D"/>
<path d="M135.391 15.4648C135.391 15.4648 128.67 14.5625 129.297 10.3853C129.923 6.20811 129.478 3.27894 133.795 3.67875C138.112 4.07856 138.705 5.79719 138.836 7.24234C138.966 8.68749 137.156 15.5925 135.391 15.4662V15.4648Z" fill="#FFB27D"/>
<path d="M138.59 4.95172C138.59 4.95172 134.288 8.65969 131.361 8.95816C128.435 9.25663 127.327 8.31818 127.327 8.31818C127.327 8.31818 129.053 6.88553 130.09 4.57412C130.395 3.8925 131.042 3.42467 131.786 3.36081C133.875 3.18034 137.837 3.09843 138.59 4.95172Z" fill="#233862"/>
<path d="M135.901 4.61996C135.901 4.61996 137.34 6.01236 137.793 7.04381C138.23 8.04056 138.362 10.4228 138.014 11.3682C138.014 11.3682 140.256 7.00772 138.987 4.88928C137.64 2.64312 135.901 4.61996 135.901 4.61996Z" fill="#233862"/>
<path d="M139.703 29.5235C140.218 41.6552 139.403 40.9861 138.159 41.5775C137.731 41.7815 136.793 42.0731 135.466 42.1619C131.295 42.4382 123.961 41.751 123.682 40.9805C122.72 38.3123 123.398 37.4836 122.596 33.3994C122.513 32.9649 122.409 32.4943 122.288 31.9834C121.619 29.1778 120.966 28.2241 123.342 23.7179C125.495 19.6351 127.732 16.3228 127.934 16.4422C133.616 19.8156 134.074 16.9808 134.074 16.9808C134.074 16.9808 139.423 22.8947 139.705 29.5262L139.703 29.5235Z" fill="#E0E0E0"/>
<path d="M154.266 64.6054L149.898 76.3609C149.898 76.3609 148.713 76.4748 147.577 76.1485C146.532 75.8459 145.333 75.056 145.333 75.056C145.333 75.056 146.546 62.4342 148.809 55.189L154.266 64.6054Z" fill="#4CAF50"/>
<path d="M134.074 16.978C134.074 16.978 139.921 17.9692 140.607 20.486C141.294 23.0029 145.334 37.8014 145.334 37.8014C145.334 37.8014 142.362 38.3359 140.989 36.9629C139.616 35.59 136.21 24.2245 136.21 24.2245L134.074 16.978Z" fill="#CCCCCC"/>
<path d="M135.465 42.1605C131.293 42.4367 123.959 41.7496 123.68 40.9791C122.718 38.3109 123.397 37.4821 122.595 33.398L124.608 27.7326C124.608 27.7326 124.274 34.0421 126.136 35.7024C127.995 37.3614 133.755 38.9065 134.658 40.2919C135.094 40.9569 135.382 41.6246 135.465 42.1605Z" fill="#CCCCCC"/>
<path d="M130.685 39.5076C130.685 39.5076 134.801 38.5913 135.465 38.9564C136.129 39.3215 137.753 40.6515 137.955 41.1151C138.158 41.5774 136.477 40.7639 135.93 40.6168C135.576 40.5224 134.643 40.8458 134.182 40.9999C132.24 41.6468 131.049 41.315 131.049 41.315L130.685 39.5089V39.5076Z" fill="#FFB27D"/>
<path d="M127.93 16.4366C127.93 16.4366 122.403 16.7767 120.49 19.4449C117.797 23.2014 112.455 39.2091 115.516 41.3442C118.964 43.7486 131.209 41.9731 131.209 41.9731C131.209 41.9731 131.617 40.0684 131.049 39.1466C130.481 38.2249 121.269 36.7367 120.844 36.3119C120.419 35.8871 126.16 28.02 126.16 26.7442C126.16 25.4684 127.93 16.4352 127.93 16.4352V16.4366Z" fill="#E0E0E0"/>
<path d="M135.665 40.1017C135.665 40.1017 136.527 41.2137 136.81 41.347C137.093 41.4803 137.275 41.4469 137.275 41.4469L136.694 40.4016L135.663 40.1031L135.665 40.1017Z" fill="#FFB27D"/>
<path d="M135.465 38.9565L137.972 40.174C137.972 40.174 137.865 40.3489 137.557 40.335C137.249 40.3211 136.47 40.0365 136.47 40.0365L135.465 38.9579V38.9565Z" fill="#FFB27D"/>
<path d="M136.81 43.0504H156.644L162.609 28.2144H142.807L136.81 43.0504Z" fill="#2B478B"/>
<path d="M156.876 42.4729H130.685V43.0504H156.644L156.876 42.4729Z" fill="#2B478B"/>
<path d="M151.636 35.6331C151.786 35.1111 151.484 34.6891 150.963 34.6891C150.443 34.6891 149.898 35.1125 149.748 35.6331C149.599 36.1551 149.9 36.5771 150.422 36.5771C150.944 36.5771 151.488 36.1537 151.636 35.6331Z" fill="#EBF3FA"/>
<path d="M0.359552 212.732H299.766C299.965 212.732 300.126 212.893 300.126 213.092V213.263C300.126 213.461 299.965 213.622 299.766 213.622H0.359552C0.161035 213.622 0 213.461 0 213.263V213.092C0 212.893 0.161035 212.732 0.359552 212.732Z" fill="#616161"/>
</g>
<defs>
<clipPath id="clip0_168_3750">
<rect width="300" height="213.622" fill="white"/>
</clipPath>
</defs>
</svg>
