<svg width="323" height="230" viewBox="0 0 323 230" fill="none" xmlns="http://www.w3.org/2000/svg">
<g clip-path="url(#clip0_115_582)">
<path d="M254.032 106.065C229.924 31.9583 100.386 28.7365 90.4373 111.883C90.4373 111.883 82.7576 113.403 75.9838 112.366C39.0469 106.715 -25.5848 177.449 24.0189 231.501H301.025C330.996 179.881 309.468 127.063 254.031 106.064L254.032 106.065Z" fill="#F3F3F3"/>
<path d="M109.497 130.451C108.961 131.895 108.03 133.57 107.054 133.986C105.946 134.458 105.484 135.125 105.484 135.125L104.591 134.606L103.523 133.986C103.523 133.986 103.549 133.868 103.601 133.675C103.652 133.482 103.733 133.215 103.84 132.919C103.84 132.919 104.168 132.497 103.967 131.968C103.767 131.44 103.807 130.623 104.15 130.125C104.492 129.627 104.822 128.402 105.028 128.438C105.528 128.523 104.783 130.209 104.997 130.521C105.19 130.804 105.432 130.707 105.477 130.686C105.48 130.684 105.483 130.683 105.486 130.681C106.886 130.065 108.586 126.744 109.338 127.193C109.619 127.36 109.728 129.837 109.499 130.451H109.497Z" fill="#FFB27D"/>
<path d="M104.652 132.461L106.407 133.694C106.531 133.781 106.702 133.751 106.791 133.627L111.287 127.231C111.373 127.107 111.343 126.936 111.219 126.847L109.465 125.614C109.341 125.528 109.169 125.557 109.08 125.682L104.585 132.077C104.498 132.201 104.528 132.373 104.652 132.461Z" fill="#2B478B"/>
<path d="M106.259 133.59L107.287 134.313C107.381 134.379 107.513 134.357 107.578 134.262L112.149 127.759C112.215 127.665 112.192 127.533 112.098 127.468L111.07 126.744C110.976 126.678 110.844 126.701 110.778 126.795L106.208 133.3C106.142 133.394 106.164 133.526 106.259 133.591V133.59Z" fill="#233862"/>
<path d="M79.4772 123.283C79.4772 123.283 88.4063 138.857 91.6452 141.722L103.523 132.866C103.523 132.866 105.247 133.396 106.001 135.125C106.001 135.125 98.7882 149.82 91.6871 150.444C84.5859 151.067 74.618 132.829 74.618 132.829L79.4772 123.281V123.283Z" fill="#388E3C"/>
<path d="M59.2709 229.209H54.1113C53.4611 228.857 52.8827 228.05 52.7003 226.845C52.4477 225.183 50.5854 224.277 50.1818 222.917C49.7798 221.558 51.8439 219.645 51.8439 219.645L52.1892 219.2L52.5479 218.738L55.9721 219.543C55.9721 219.543 56.0573 220.359 56.1082 221.398C56.1455 222.147 56.165 223.014 56.1231 223.773C56.023 225.586 56.6298 227.538 58.241 227.891C59.4323 228.151 59.3785 228.858 59.2694 229.209H59.2709Z" fill="#233862"/>
<path d="M89.2134 229.209H77.4146C76.8466 228.517 77.0558 225.961 77.1425 225.127C77.1605 224.96 77.1724 224.861 77.1724 224.861C77.1724 224.861 81.202 221.639 81.7551 224.107C81.7715 224.184 81.7924 224.259 81.8148 224.334C82.5114 226.641 85.6397 227.691 87.4452 227.982C88.6185 228.172 89.0535 228.783 89.2134 229.209Z" fill="#233862"/>
<path d="M86.964 163.352C86.964 163.352 86.3526 170.985 85.6337 180.159C84.6562 192.623 83.4814 207.933 83.3648 210.832C83.1645 215.868 82.3574 223.924 82.3574 223.924C82.3574 223.924 80.4457 225.837 76.6179 225.032C76.6179 225.032 73.2071 213.532 72.2326 201.364C72.2176 201.165 72.2027 200.963 72.1877 200.763C71.282 188.377 69.8725 162.293 69.8725 162.293L86.9655 163.35L86.964 163.352Z" fill="#E0E0E0"/>
<path d="M86.964 163.352C86.964 163.352 86.3526 170.985 85.6337 180.159L72.2326 201.364C72.2176 201.165 72.2027 200.963 72.1877 200.763C71.282 188.377 69.8725 162.293 69.8725 162.293L86.9655 163.35L86.964 163.352Z" fill="#CCCCCC"/>
<path d="M84.1704 164.257C84.1704 164.257 73.1428 191.901 65.8922 204.891C58.6416 217.883 56.3757 221.507 56.3757 221.507C56.3757 221.507 52.222 219.845 51.8439 218.712C51.8439 218.712 54.6165 193.633 59.4726 187.519C62.2168 184.065 65.4393 173.698 65.5903 170.072C65.7412 166.447 66.5723 159.271 66.5723 159.271L84.1704 164.256V164.257Z" fill="#E0E0E0"/>
<path d="M81.4262 123.96C77.1171 125.32 69.6617 121.65 69.6617 121.65C69.6617 121.65 73.6346 118.669 73.4268 112.469L76.7584 115.153L79.0213 116.977C79.0213 116.977 79.0123 118.051 78.7642 119.936C78.6985 120.432 79.2575 121.525 79.7432 122.139C81.0496 123.797 81.4262 123.96 81.4262 123.96Z" fill="#FFB27D"/>
<path d="M79.0198 116.977C79.0198 116.977 79.0108 118.051 78.7627 119.936C76.2547 119.506 73.4103 115.452 73.4103 115.452C74.6868 115.083 75.8048 115.017 76.7569 115.153L79.0198 116.977Z" fill="#ED975D"/>
<path d="M80.3381 116.875C80.3381 116.875 73.2206 118.057 72.5524 113.614C71.8843 109.17 70.5152 106.33 75.0321 105.387C79.549 104.444 80.6879 106.007 81.2723 107.436C81.8567 108.865 82.1736 116.453 80.3381 116.876V116.875Z" fill="#FFB27D"/>
<path d="M87.4407 163.987C87.3107 164.094 87.1597 164.159 86.9878 164.159C85.3691 164.136 80.6505 165.036 76.6582 164.625C73.2923 164.302 70.3134 163.305 67.1133 161.87C66.6888 161.68 65.7113 161.157 65.7323 160.684C65.7472 160.163 65.798 159.41 65.8638 158.459C66.091 155.158 66.4856 149.477 66.0999 142.924C66.0312 141.704 65.9938 140.494 65.9893 139.302C65.9565 130.421 67.7172 122.61 71.2565 119.966C71.5585 119.749 73.4148 120.657 75.1187 121.498C76.6941 122.275 78.2695 122.36 79.7582 122.06L81.2469 123.375C83.0599 125.058 85.0448 127.347 85.9072 130.82C86.6411 133.777 87.073 139.107 87.3092 144.631C87.4168 147.134 87.5035 149.659 87.5259 152.055V152.14C87.5469 152.378 87.5469 152.638 87.5469 152.874C87.6335 159.023 87.5469 163.9 87.4392 163.987H87.4407Z" fill="#00B907"/>
<path d="M65.8638 158.461C66.091 155.159 66.4856 149.478 66.1 142.925C66.0312 141.706 65.9938 140.495 65.9894 139.304C67.4631 135.727 68.6678 133.134 68.6678 133.134H72.3835C72.3835 133.134 75.1083 151.741 65.8623 158.461H65.8638Z" fill="#388E3C"/>
<path d="M46.8308 179.549L62.6772 181.808C64.7398 182.102 66.6679 180.655 66.9609 178.593L67.9399 171.725C68.2343 169.662 66.7875 167.734 64.7249 167.441L48.8785 165.182C46.8158 164.888 44.8877 166.335 44.5948 168.397L43.6158 175.265C43.3213 177.328 44.7681 179.256 46.8308 179.549Z" fill="#233862"/>
<path d="M65.6187 169.487C65.1733 168.372 64.2122 167.492 62.9941 167.193C62.9941 167.193 62.9926 167.193 62.9911 167.193C62.8715 167.164 62.7504 167.139 62.6249 167.123L59.4696 166.674L59.6804 165.191C59.7282 164.861 59.643 164.531 59.4412 164.262C59.2395 163.994 58.945 163.819 58.6147 163.773L57.7911 163.655L54.4775 163.183L53.8796 163.097C53.1951 163 52.5583 163.477 52.4612 164.162L52.2504 165.644L46.8039 164.869C44.7338 164.574 42.7997 166.025 42.5037 168.096L41.5143 175.043C41.2198 177.113 42.6711 179.047 44.7412 179.343L60.5593 181.598C60.8388 181.639 61.1153 181.646 61.3843 181.624H61.3873C61.8207 181.591 62.2363 181.483 62.6219 181.311C63.7847 180.799 64.6681 179.714 64.8594 178.368L65.8489 171.423C65.9445 170.746 65.8548 170.083 65.6172 169.489L65.6187 169.487ZM53.2414 164.272C53.2713 164.064 53.4342 163.908 53.63 163.876C53.6763 163.869 53.7227 163.867 53.7705 163.875L54.4745 163.975L57.0827 164.347L58.5041 164.55C58.7597 164.586 58.9375 164.825 58.9017 165.079L58.6909 166.562L53.0306 165.755L53.2414 164.274V164.272Z" fill="#2B478B"/>
<path d="M58.8807 159.101C58.8807 159.101 58.0482 160.21 58.0153 160.652C57.7911 163.655 59.1632 164.069 55.6119 165.737C55.6119 165.737 54.0963 166.315 54.0694 165.138C54.044 163.961 55.1217 163.942 54.9244 162.293C54.6972 160.392 54.7196 160.374 55.9676 159.382L56.7942 158.016L58.8807 159.099V159.101Z" fill="#FFB27D"/>
<path d="M56.7643 159.95C58.1021 160.211 59.5534 160.105 59.5534 160.105C59.5534 160.105 63.5262 147.834 64.0374 146.713C64.5485 145.592 75.8362 132.325 75.8362 132.325L71.134 120.558C71.134 120.558 58.9256 140.951 57.685 143.816C55.6359 148.551 54.9259 159.168 54.9259 159.168C54.9259 159.168 55.7151 159.745 56.7658 159.95H56.7643Z" fill="#00B907"/>
<path d="M72.5464 113.186C72.5464 113.186 73.2773 113.064 73.1592 112.058C73.0411 111.052 73.0426 109.736 73.8602 109.982C74.6778 110.227 74.7182 110.881 75.0545 110.499C75.3908 110.116 75.3967 108.505 77.83 108.393C80.2633 108.281 81.2528 109.128 82.3843 108.63C83.5157 108.133 83.5755 106.42 83.5755 106.42C83.5755 106.42 83.2542 107.031 82.7669 107.225C82.7669 107.225 84.6547 104.643 82.4695 102.872C80.2828 101.1 78.0542 102.26 76.7883 102.336C74.0007 102.505 72.1997 102.673 71.2894 104.504C70.3792 106.335 70.7543 111.421 72.5434 113.185L72.5464 113.186Z" fill="#2B478B"/>
<path d="M57.5684 160.42C57.5684 160.42 58.3696 161.256 58.4204 161.603C58.5833 162.718 58.9555 163.201 58.7687 163.322C58.38 163.574 57.8674 162.748 57.6222 162.006C57.3771 161.265 57.5699 160.419 57.5699 160.419L57.5684 160.42Z" fill="#FFB27D"/>
<path d="M206.208 61.7594H128.88C124.021 61.7594 120.081 65.6989 120.081 70.5585V218.485C120.081 223.345 124.021 227.284 128.88 227.284H206.208C211.068 227.284 215.007 223.345 215.007 218.485V70.5585C215.007 65.6989 211.068 61.7594 206.208 61.7594Z" fill="#4CAF50"/>
<path d="M206.208 228.389H128.879C123.419 228.389 118.975 223.947 118.975 218.485V70.5584C118.975 65.0984 123.417 60.6548 128.879 60.6548H206.208C211.668 60.6548 216.11 65.0969 216.11 70.5584V218.485C216.11 223.945 211.668 228.389 206.208 228.389ZM128.88 62.8639C124.638 62.8639 121.186 66.3151 121.186 70.5584V218.485C121.186 222.728 124.637 226.18 128.88 226.18H206.21C210.451 226.18 213.904 222.728 213.904 218.485V70.5584C213.904 66.3166 210.453 62.8639 206.21 62.8639H128.88Z" fill="#616161"/>
<g opacity="0.9">
<path d="M197.895 105.969H135.46V168.404H197.895V105.969Z" fill="white"/>
</g>
<path d="M144.199 161.851H141.718V164.332H144.199V161.851Z" fill="#616161"/>
<path d="M146.68 161.851H144.199V164.332H146.68V161.851Z" fill="#616161"/>
<path d="M149.161 161.851H146.68V164.332H149.161V161.851Z" fill="#616161"/>
<path d="M151.642 161.851H149.161V164.332H151.642V161.851Z" fill="#616161"/>
<path d="M154.125 161.851H151.644V164.332H154.125V161.851Z" fill="#616161"/>
<path d="M159.087 161.851H156.606V164.332H159.087V161.851Z" fill="#616161"/>
<path d="M161.568 161.851H159.087V164.332H161.568V161.851Z" fill="#616161"/>
<path d="M169.012 161.851H166.531V164.332H169.012V161.851Z" fill="#616161"/>
<path d="M174.121 161.851H171.493V164.332H174.121V161.851Z" fill="#616161"/>
<path d="M176.602 161.851H174.121V164.332H176.602V161.851Z" fill="#616161"/>
<path d="M181.564 161.851H179.083V164.332H181.564V161.851Z" fill="#616161"/>
<path d="M184.045 161.851H181.564V164.332H184.045V161.851Z" fill="#616161"/>
<path d="M186.528 161.851H184.047V164.332H186.528V161.851Z" fill="#616161"/>
<path d="M189.009 161.851H186.528V164.332H189.009V161.851Z" fill="#616161"/>
<path d="M191.49 161.851H189.009V164.332H191.49V161.851Z" fill="#616161"/>
<path d="M194.118 161.851H191.49V164.332H194.118V161.851Z" fill="#616161"/>
<path d="M141.718 161.851H139.237V164.332H141.718V161.851Z" fill="#616161"/>
<path d="M154.125 159.37H151.644V161.851H154.125V159.37Z" fill="#616161"/>
<path d="M161.568 159.37H159.087V161.851H161.568V159.37Z" fill="#616161"/>
<path d="M166.531 159.37H164.05V161.851H166.531V159.37Z" fill="#616161"/>
<path d="M169.012 159.37H166.531V161.851H169.012V159.37Z" fill="#616161"/>
<path d="M171.493 159.37H169.012V161.851H171.493V159.37Z" fill="#616161"/>
<path d="M174.121 159.37H171.493V161.851H174.121V159.37Z" fill="#616161"/>
<path d="M181.564 159.37H179.083V161.851H181.564V159.37Z" fill="#616161"/>
<path d="M194.118 159.37H191.49V161.851H194.118V159.37Z" fill="#616161"/>
<path d="M141.718 159.37H139.237V161.851H141.718V159.37Z" fill="#616161"/>
<path d="M146.68 156.889H144.199V159.37H146.68V156.889Z" fill="#616161"/>
<path d="M149.161 156.889H146.68V159.37H149.161V156.889Z" fill="#616161"/>
<path d="M154.125 156.889H151.644V159.37H154.125V156.889Z" fill="#616161"/>
<path d="M159.087 156.889H156.606V159.37H159.087V156.889Z" fill="#616161"/>
<path d="M161.568 156.889H159.087V159.37H161.568V156.889Z" fill="#616161"/>
<path d="M164.05 156.889H161.568V159.37H164.05V156.889Z" fill="#616161"/>
<path d="M169.012 156.889H166.531V159.37H169.012V156.889Z" fill="#616161"/>
<path d="M171.493 156.889H169.012V159.37H171.493V156.889Z" fill="#616161"/>
<path d="M174.121 156.889H171.493V159.37H174.121V156.889Z" fill="#616161"/>
<path d="M176.602 156.889H174.121V159.37H176.602V156.889Z" fill="#616161"/>
<path d="M181.564 156.889H179.083V159.37H181.564V156.889Z" fill="#616161"/>
<path d="M186.528 156.889H184.047V159.37H186.528V156.889Z" fill="#616161"/>
<path d="M189.009 156.889H186.528V159.37H189.009V156.889Z" fill="#616161"/>
<path d="M194.118 156.889H191.49V159.37H194.118V156.889Z" fill="#616161"/>
<path d="M141.718 156.889H139.237V159.37H141.718V156.889Z" fill="#616161"/>
<path d="M146.68 154.407H144.199V156.889H146.68V154.407Z" fill="#616161"/>
<path d="M149.161 154.407H146.68V156.889H149.161V154.407Z" fill="#616161"/>
<path d="M154.125 154.407H151.644V156.889H154.125V154.407Z" fill="#616161"/>
<path d="M159.087 154.407H156.606V156.889H159.087V154.407Z" fill="#616161"/>
<path d="M164.05 154.407H161.568V156.889H164.05V154.407Z" fill="#616161"/>
<path d="M169.012 154.407H166.531V156.889H169.012V154.407Z" fill="#616161"/>
<path d="M181.564 154.407H179.083V156.889H181.564V154.407Z" fill="#616161"/>
<path d="M186.528 154.407H184.047V156.889H186.528V154.407Z" fill="#616161"/>
<path d="M189.009 154.407H186.528V156.889H189.009V154.407Z" fill="#616161"/>
<path d="M194.118 154.407H191.49V156.889H194.118V154.407Z" fill="#616161"/>
<path d="M141.718 154.407H139.237V156.889H141.718V154.407Z" fill="#616161"/>
<path d="M154.125 151.926H151.644V154.408H154.125V151.926Z" fill="#616161"/>
<path d="M159.087 151.926H156.606V154.408H159.087V151.926Z" fill="#616161"/>
<path d="M161.568 151.926H159.087V154.408H161.568V151.926Z" fill="#616161"/>
<path d="M164.05 151.926H161.568V154.408H164.05V151.926Z" fill="#616161"/>
<path d="M169.012 151.926H166.531V154.408H169.012V151.926Z" fill="#616161"/>
<path d="M171.493 151.926H169.012V154.408H171.493V151.926Z" fill="#616161"/>
<path d="M176.602 151.926H174.121V154.408H176.602V151.926Z" fill="#616161"/>
<path d="M181.564 151.926H179.083V154.408H181.564V151.926Z" fill="#616161"/>
<path d="M194.118 151.926H191.49V154.408H194.118V151.926Z" fill="#616161"/>
<path d="M141.718 151.926H139.237V154.408H141.718V151.926Z" fill="#616161"/>
<path d="M144.199 149.445H141.718V151.926H144.199V149.445Z" fill="#616161"/>
<path d="M146.68 149.445H144.199V151.926H146.68V149.445Z" fill="#616161"/>
<path d="M149.161 149.445H146.68V151.926H149.161V149.445Z" fill="#616161"/>
<path d="M151.642 149.445H149.161V151.926H151.642V149.445Z" fill="#616161"/>
<path d="M154.125 149.445H151.644V151.926H154.125V149.445Z" fill="#616161"/>
<path d="M159.087 149.445H156.606V151.926H159.087V149.445Z" fill="#616161"/>
<path d="M164.05 149.445H161.568V151.926H164.05V149.445Z" fill="#616161"/>
<path d="M166.531 149.445H164.05V151.926H166.531V149.445Z" fill="#616161"/>
<path d="M171.493 149.445H169.012V151.926H171.493V149.445Z" fill="#616161"/>
<path d="M181.564 149.445H179.083V151.926H181.564V149.445Z" fill="#616161"/>
<path d="M184.045 149.445H181.564V151.926H184.045V149.445Z" fill="#616161"/>
<path d="M186.528 149.445H184.047V151.926H186.528V149.445Z" fill="#616161"/>
<path d="M189.009 149.445H186.528V151.926H189.009V149.445Z" fill="#616161"/>
<path d="M191.49 149.445H189.009V151.926H191.49V149.445Z" fill="#616161"/>
<path d="M194.118 149.445H191.49V151.926H194.118V149.445Z" fill="#616161"/>
<path d="M141.718 149.445H139.237V151.926H141.718V149.445Z" fill="#616161"/>
<path d="M166.531 146.964H164.05V149.445H166.531V146.964Z" fill="#616161"/>
<path d="M169.012 146.964H166.531V149.445H169.012V146.964Z" fill="#616161"/>
<path d="M171.493 146.964H169.012V149.445H171.493V146.964Z" fill="#616161"/>
<path d="M176.602 146.964H174.121V149.445H176.602V146.964Z" fill="#616161"/>
<path d="M144.199 144.483H141.718V146.964H144.199V144.483Z" fill="#616161"/>
<path d="M146.68 144.483H144.199V146.964H146.68V144.483Z" fill="#616161"/>
<path d="M149.161 144.483H146.68V146.964H149.161V144.483Z" fill="#616161"/>
<path d="M151.642 144.483H149.161V146.964H151.642V144.483Z" fill="#616161"/>
<path d="M159.087 144.483H156.606V146.964H159.087V144.483Z" fill="#616161"/>
<path d="M161.568 144.483H159.087V146.964H161.568V144.483Z" fill="#616161"/>
<path d="M164.05 144.483H161.568V146.964H164.05V144.483Z" fill="#616161"/>
<path d="M169.012 144.483H166.531V146.964H169.012V144.483Z" fill="#616161"/>
<path d="M171.493 144.483H169.012V146.964H171.493V144.483Z" fill="#616161"/>
<path d="M174.121 144.483H171.493V146.964H174.121V144.483Z" fill="#616161"/>
<path d="M176.602 144.483H174.121V146.964H176.602V144.483Z" fill="#616161"/>
<path d="M179.083 144.483H176.602V146.964H179.083V144.483Z" fill="#616161"/>
<path d="M181.564 144.483H179.083V146.964H181.564V144.483Z" fill="#616161"/>
<path d="M184.045 144.483H181.564V146.964H184.045V144.483Z" fill="#616161"/>
<path d="M186.528 144.483H184.047V146.964H186.528V144.483Z" fill="#616161"/>
<path d="M191.49 144.483H189.009V146.964H191.49V144.483Z" fill="#616161"/>
<path d="M194.118 144.483H191.49V146.964H194.118V144.483Z" fill="#616161"/>
<path d="M146.68 142.002H144.199V144.483H146.68V142.002Z" fill="#616161"/>
<path d="M149.161 142.002H146.68V144.483H149.161V142.002Z" fill="#616161"/>
<path d="M156.606 142.002H154.125V144.483H156.606V142.002Z" fill="#616161"/>
<path d="M159.087 142.002H156.606V144.483H159.087V142.002Z" fill="#616161"/>
<path d="M164.05 142.002H161.568V144.483H164.05V142.002Z" fill="#616161"/>
<path d="M171.493 142.002H169.012V144.483H171.493V142.002Z" fill="#616161"/>
<path d="M176.602 142.002H174.121V144.483H176.602V142.002Z" fill="#616161"/>
<path d="M179.083 142.002H176.602V144.483H179.083V142.002Z" fill="#616161"/>
<path d="M184.045 142.002H181.564V144.483H184.045V142.002Z" fill="#616161"/>
<path d="M186.528 142.002H184.047V144.483H186.528V142.002Z" fill="#616161"/>
<path d="M144.199 139.521H141.718V142.002H144.199V139.521Z" fill="#616161"/>
<path d="M149.161 139.521H146.68V142.002H149.161V139.521Z" fill="#616161"/>
<path d="M151.642 139.521H149.161V142.002H151.642V139.521Z" fill="#616161"/>
<path d="M154.125 139.521H151.644V142.002H154.125V139.521Z" fill="#616161"/>
<path d="M156.606 139.521H154.125V142.002H156.606V139.521Z" fill="#616161"/>
<path d="M161.568 139.521H159.087V142.002H161.568V139.521Z" fill="#616161"/>
<path d="M164.05 139.521H161.568V142.002H164.05V139.521Z" fill="#616161"/>
<path d="M166.531 139.521H164.05V142.002H166.531V139.521Z" fill="#616161"/>
<path d="M169.012 139.521H166.531V142.002H169.012V139.521Z" fill="#616161"/>
<path d="M171.493 139.521H169.012V142.002H171.493V139.521Z" fill="#616161"/>
<path d="M174.121 139.521H171.493V142.002H174.121V139.521Z" fill="#616161"/>
<path d="M186.528 139.521H184.047V142.002H186.528V139.521Z" fill="#616161"/>
<path d="M189.009 139.521H186.528V142.002H189.009V139.521Z" fill="#616161"/>
<path d="M194.118 139.521H191.49V142.002H194.118V139.521Z" fill="#616161"/>
<path d="M141.718 139.521H139.237V142.002H141.718V139.521Z" fill="#616161"/>
<path d="M144.199 137.04H141.718V139.521H144.199V137.04Z" fill="#616161"/>
<path d="M146.68 137.04H144.199V139.521H146.68V137.04Z" fill="#616161"/>
<path d="M149.161 137.04H146.68V139.521H149.161V137.04Z" fill="#616161"/>
<path d="M159.087 137.04H156.606V139.521H159.087V137.04Z" fill="#616161"/>
<path d="M161.568 137.04H159.087V139.521H161.568V137.04Z" fill="#616161"/>
<path d="M171.493 137.04H169.012V139.521H171.493V137.04Z" fill="#616161"/>
<path d="M179.083 137.04H176.602V139.521H179.083V137.04Z" fill="#616161"/>
<path d="M181.564 137.04H179.083V139.521H181.564V137.04Z" fill="#616161"/>
<path d="M186.528 137.04H184.047V139.521H186.528V137.04Z" fill="#616161"/>
<path d="M189.009 137.04H186.528V139.521H189.009V137.04Z" fill="#616161"/>
<path d="M191.49 137.04H189.009V139.521H191.49V137.04Z" fill="#616161"/>
<path d="M194.118 137.04H191.49V139.521H194.118V137.04Z" fill="#616161"/>
<path d="M141.718 137.04H139.237V139.521H141.718V137.04Z" fill="#616161"/>
<path d="M149.161 134.558H146.68V137.04H149.161V134.558Z" fill="#616161"/>
<path d="M151.642 134.558H149.161V137.04H151.642V134.558Z" fill="#616161"/>
<path d="M154.125 134.558H151.644V137.04H154.125V134.558Z" fill="#616161"/>
<path d="M156.606 134.558H154.125V137.04H156.606V134.558Z" fill="#616161"/>
<path d="M159.087 134.558H156.606V137.04H159.087V134.558Z" fill="#616161"/>
<path d="M161.568 134.558H159.087V137.04H161.568V134.558Z" fill="#616161"/>
<path d="M169.012 134.558H166.531V137.04H169.012V134.558Z" fill="#616161"/>
<path d="M176.602 134.558H174.121V137.04H176.602V134.558Z" fill="#616161"/>
<path d="M179.083 134.558H176.602V137.04H179.083V134.558Z" fill="#616161"/>
<path d="M189.009 134.558H186.528V137.04H189.009V134.558Z" fill="#616161"/>
<path d="M141.718 134.558H139.237V137.04H141.718V134.558Z" fill="#616161"/>
<path d="M144.199 132.077H141.718V134.558H144.199V132.077Z" fill="#616161"/>
<path d="M146.68 132.077H144.199V134.558H146.68V132.077Z" fill="#616161"/>
<path d="M149.161 132.077H146.68V134.558H149.161V132.077Z" fill="#616161"/>
<path d="M151.642 132.077H149.161V134.558H151.642V132.077Z" fill="#616161"/>
<path d="M156.606 132.077H154.125V134.558H156.606V132.077Z" fill="#616161"/>
<path d="M161.568 132.077H159.087V134.558H161.568V132.077Z" fill="#616161"/>
<path d="M164.05 132.077H161.568V134.558H164.05V132.077Z" fill="#616161"/>
<path d="M169.012 132.077H166.531V134.558H169.012V132.077Z" fill="#616161"/>
<path d="M171.493 132.077H169.012V134.558H171.493V132.077Z" fill="#616161"/>
<path d="M174.121 132.077H171.493V134.558H174.121V132.077Z" fill="#616161"/>
<path d="M176.602 132.077H174.121V134.558H176.602V132.077Z" fill="#616161"/>
<path d="M181.564 132.077H179.083V134.558H181.564V132.077Z" fill="#616161"/>
<path d="M184.045 132.077H181.564V134.558H184.045V132.077Z" fill="#616161"/>
<path d="M186.528 132.077H184.047V134.558H186.528V132.077Z" fill="#616161"/>
<path d="M189.009 132.077H186.528V134.558H189.009V132.077Z" fill="#616161"/>
<path d="M194.118 132.077H191.49V134.558H194.118V132.077Z" fill="#616161"/>
<path d="M144.199 129.595H141.718V132.076H144.199V129.595Z" fill="#616161"/>
<path d="M149.161 129.595H146.68V132.076H149.161V129.595Z" fill="#616161"/>
<path d="M154.125 129.595H151.644V132.076H154.125V129.595Z" fill="#616161"/>
<path d="M156.606 129.595H154.125V132.076H156.606V129.595Z" fill="#616161"/>
<path d="M164.05 129.595H161.568V132.076H164.05V129.595Z" fill="#616161"/>
<path d="M166.531 129.595H164.05V132.076H166.531V129.595Z" fill="#616161"/>
<path d="M169.012 129.595H166.531V132.076H169.012V129.595Z" fill="#616161"/>
<path d="M174.121 129.595H171.493V132.076H174.121V129.595Z" fill="#616161"/>
<path d="M176.602 129.595H174.121V132.076H176.602V129.595Z" fill="#616161"/>
<path d="M179.083 129.595H176.602V132.076H179.083V129.595Z" fill="#616161"/>
<path d="M184.045 129.595H181.564V132.076H184.045V129.595Z" fill="#616161"/>
<path d="M189.009 129.595H186.528V132.076H189.009V129.595Z" fill="#616161"/>
<path d="M191.49 129.595H189.009V132.076H191.49V129.595Z" fill="#616161"/>
<path d="M194.118 129.595H191.49V132.076H194.118V129.595Z" fill="#616161"/>
<path d="M141.718 129.595H139.237V132.076H141.718V129.595Z" fill="#616161"/>
<path d="M144.199 127.114H141.718V129.595H144.199V127.114Z" fill="#616161"/>
<path d="M154.125 127.114H151.644V129.595H154.125V127.114Z" fill="#616161"/>
<path d="M156.606 127.114H154.125V129.595H156.606V127.114Z" fill="#616161"/>
<path d="M161.568 127.114H159.087V129.595H161.568V127.114Z" fill="#616161"/>
<path d="M164.05 127.114H161.568V129.595H164.05V127.114Z" fill="#616161"/>
<path d="M169.012 127.114H166.531V129.595H169.012V127.114Z" fill="#616161"/>
<path d="M171.493 127.114H169.012V129.595H171.493V127.114Z" fill="#616161"/>
<path d="M176.602 127.114H174.121V129.595H176.602V127.114Z" fill="#616161"/>
<path d="M179.083 127.114H176.602V129.595H179.083V127.114Z" fill="#616161"/>
<path d="M181.564 127.114H179.083V129.595H181.564V127.114Z" fill="#616161"/>
<path d="M184.045 127.114H181.564V129.595H184.045V127.114Z" fill="#616161"/>
<path d="M186.528 127.114H184.047V129.595H186.528V127.114Z" fill="#616161"/>
<path d="M189.009 127.114H186.528V129.595H189.009V127.114Z" fill="#616161"/>
<path d="M141.718 127.114H139.237V129.595H141.718V127.114Z" fill="#616161"/>
<path d="M161.568 124.632H159.087V127.113H161.568V124.632Z" fill="#616161"/>
<path d="M166.531 124.632H164.05V127.113H166.531V124.632Z" fill="#616161"/>
<path d="M169.012 124.632H166.531V127.113H169.012V124.632Z" fill="#616161"/>
<path d="M174.121 124.632H171.493V127.113H174.121V124.632Z" fill="#616161"/>
<path d="M176.602 124.632H174.121V127.113H176.602V124.632Z" fill="#616161"/>
<path d="M179.083 124.632H176.602V127.113H179.083V124.632Z" fill="#616161"/>
<path d="M144.199 122.151H141.718V124.632H144.199V122.151Z" fill="#616161"/>
<path d="M146.68 122.151H144.199V124.632H146.68V122.151Z" fill="#616161"/>
<path d="M149.161 122.151H146.68V124.632H149.161V122.151Z" fill="#616161"/>
<path d="M151.642 122.151H149.161V124.632H151.642V122.151Z" fill="#616161"/>
<path d="M154.125 122.151H151.644V124.632H154.125V122.151Z" fill="#616161"/>
<path d="M159.087 122.151H156.606V124.632H159.087V122.151Z" fill="#616161"/>
<path d="M161.568 122.151H159.087V124.632H161.568V122.151Z" fill="#616161"/>
<path d="M169.012 122.151H166.531V124.632H169.012V122.151Z" fill="#616161"/>
<path d="M179.083 122.151H176.602V124.632H179.083V122.151Z" fill="#616161"/>
<path d="M181.564 122.151H179.083V124.632H181.564V122.151Z" fill="#616161"/>
<path d="M186.528 122.151H184.047V124.632H186.528V122.151Z" fill="#616161"/>
<path d="M194.118 122.151H191.49V124.632H194.118V122.151Z" fill="#616161"/>
<path d="M141.718 122.151H139.237V124.632H141.718V122.151Z" fill="#616161"/>
<path d="M154.125 119.67H151.644V122.151H154.125V119.67Z" fill="#616161"/>
<path d="M174.121 119.67H171.493V122.151H174.121V119.67Z" fill="#616161"/>
<path d="M176.602 119.67H174.121V122.151H176.602V119.67Z" fill="#616161"/>
<path d="M181.564 119.67H179.083V122.151H181.564V119.67Z" fill="#616161"/>
<path d="M184.045 119.67H181.564V122.151H184.045V119.67Z" fill="#616161"/>
<path d="M189.009 119.67H186.528V122.151H189.009V119.67Z" fill="#616161"/>
<path d="M191.49 119.67H189.009V122.151H191.49V119.67Z" fill="#616161"/>
<path d="M194.118 119.67H191.49V122.151H194.118V119.67Z" fill="#616161"/>
<path d="M141.718 119.67H139.237V122.151H141.718V119.67Z" fill="#616161"/>
<path d="M146.68 117.189H144.199V119.67H146.68V117.189Z" fill="#616161"/>
<path d="M149.161 117.189H146.68V119.67H149.161V117.189Z" fill="#616161"/>
<path d="M154.125 117.189H151.644V119.67H154.125V117.189Z" fill="#616161"/>
<path d="M159.087 117.189H156.606V119.67H159.087V117.189Z" fill="#616161"/>
<path d="M161.568 117.189H159.087V119.67H161.568V117.189Z" fill="#616161"/>
<path d="M166.531 117.189H164.05V119.67H166.531V117.189Z" fill="#616161"/>
<path d="M169.012 117.189H166.531V119.67H169.012V117.189Z" fill="#616161"/>
<path d="M174.121 117.189H171.493V119.67H174.121V117.189Z" fill="#616161"/>
<path d="M184.045 117.189H181.564V119.67H184.045V117.189Z" fill="#616161"/>
<path d="M186.528 117.189H184.047V119.67H186.528V117.189Z" fill="#616161"/>
<path d="M189.009 117.189H186.528V119.67H189.009V117.189Z" fill="#616161"/>
<path d="M141.718 117.189H139.237V119.67H141.718V117.189Z" fill="#616161"/>
<path d="M146.68 114.708H144.199V117.189H146.68V114.708Z" fill="#616161"/>
<path d="M149.161 114.708H146.68V117.189H149.161V114.708Z" fill="#616161"/>
<path d="M154.125 114.708H151.644V117.189H154.125V114.708Z" fill="#616161"/>
<path d="M159.087 114.708H156.606V117.189H159.087V114.708Z" fill="#616161"/>
<path d="M164.05 114.708H161.568V117.189H164.05V114.708Z" fill="#616161"/>
<path d="M166.531 114.708H164.05V117.189H166.531V114.708Z" fill="#616161"/>
<path d="M169.012 114.708H166.531V117.189H169.012V114.708Z" fill="#616161"/>
<path d="M171.493 114.708H169.012V117.189H171.493V114.708Z" fill="#616161"/>
<path d="M174.121 114.708H171.493V117.189H174.121V114.708Z" fill="#616161"/>
<path d="M179.083 114.708H176.602V117.189H179.083V114.708Z" fill="#616161"/>
<path d="M181.564 114.708H179.083V117.189H181.564V114.708Z" fill="#616161"/>
<path d="M184.045 114.708H181.564V117.189H184.045V114.708Z" fill="#616161"/>
<path d="M189.009 114.708H186.528V117.189H189.009V114.708Z" fill="#616161"/>
<path d="M191.49 114.708H189.009V117.189H191.49V114.708Z" fill="#616161"/>
<path d="M194.118 114.708H191.49V117.189H194.118V114.708Z" fill="#616161"/>
<path d="M141.718 114.708H139.237V117.189H141.718V114.708Z" fill="#616161"/>
<path d="M154.125 112.227H151.644V114.708H154.125V112.227Z" fill="#616161"/>
<path d="M164.05 112.227H161.568V114.708H164.05V112.227Z" fill="#616161"/>
<path d="M166.531 112.227H164.05V114.708H166.531V112.227Z" fill="#616161"/>
<path d="M171.493 112.227H169.012V114.708H171.493V112.227Z" fill="#616161"/>
<path d="M174.121 112.227H171.493V114.708H174.121V112.227Z" fill="#616161"/>
<path d="M176.602 112.227H174.121V114.708H176.602V112.227Z" fill="#616161"/>
<path d="M179.083 112.227H176.602V114.708H179.083V112.227Z" fill="#616161"/>
<path d="M191.49 112.227H189.009V114.708H191.49V112.227Z" fill="#616161"/>
<path d="M141.718 112.227H139.237V114.708H141.718V112.227Z" fill="#616161"/>
<path d="M144.199 109.745H141.718V112.227H144.199V109.745Z" fill="#616161"/>
<path d="M146.68 109.745H144.199V112.227H146.68V109.745Z" fill="#616161"/>
<path d="M149.161 109.745H146.68V112.227H149.161V109.745Z" fill="#616161"/>
<path d="M151.642 109.745H149.161V112.227H151.642V109.745Z" fill="#616161"/>
<path d="M154.125 109.745H151.644V112.227H154.125V109.745Z" fill="#616161"/>
<path d="M159.087 109.745H156.606V112.227H159.087V109.745Z" fill="#616161"/>
<path d="M161.568 109.745H159.087V112.227H161.568V109.745Z" fill="#616161"/>
<path d="M174.121 109.745H171.493V112.227H174.121V109.745Z" fill="#616161"/>
<path d="M179.083 109.745H176.602V112.227H179.083V109.745Z" fill="#616161"/>
<path d="M184.045 109.745H181.564V112.227H184.045V109.745Z" fill="#616161"/>
<path d="M186.528 109.745H184.047V112.227H186.528V109.745Z" fill="#616161"/>
<path d="M194.118 109.745H191.49V112.227H194.118V109.745Z" fill="#616161"/>
<path d="M141.718 109.745H139.237V112.227H141.718V109.745Z" fill="#616161"/>
<g opacity="0.8">
<path d="M130.944 114.632C130.457 114.632 130.062 114.237 130.062 113.75V101.716C130.062 101.229 130.457 100.834 130.944 100.834H143.087C143.574 100.834 143.969 101.229 143.969 101.716C143.969 102.203 143.574 102.598 143.087 102.598H131.828V113.75C131.828 114.237 131.433 114.632 130.946 114.632H130.944Z" fill="white"/>
<path d="M202.41 114.685C201.923 114.685 201.528 114.291 201.528 113.804V102.544H190.377C189.889 102.544 189.495 102.15 189.495 101.662C189.495 101.175 189.889 100.781 190.377 100.781H202.41C202.897 100.781 203.292 101.175 203.292 101.662V113.805C203.292 114.292 202.897 114.687 202.41 114.687V114.685Z" fill="white"/>
</g>
<g opacity="0.8">
<path d="M202.41 175.159H190.267C189.78 175.159 189.386 174.765 189.386 174.278C189.386 173.79 189.78 173.394 190.267 173.394H201.527V162.243C201.527 161.755 201.921 161.361 202.409 161.361C202.896 161.361 203.29 161.755 203.29 162.243V174.276C203.29 174.763 202.896 175.158 202.409 175.158L202.41 175.159Z" fill="white"/>
<path d="M142.978 175.213H130.944C130.457 175.213 130.062 174.819 130.062 174.331V162.189C130.062 161.701 130.457 161.307 130.944 161.307C131.432 161.307 131.826 161.701 131.826 162.189V173.448H142.978C143.465 173.448 143.86 173.843 143.86 174.33C143.86 174.817 143.465 175.212 142.978 175.212V175.213Z" fill="white"/>
</g>
<path d="M137.134 190.23H196.222C197.146 190.23 197.895 190.98 197.895 191.903V193.589C197.895 194.512 197.144 195.261 196.222 195.261H137.134C136.21 195.261 135.461 194.512 135.461 193.589V191.901C135.461 190.977 136.212 190.229 137.134 190.229V190.23Z" fill="white"/>
<path d="M179.083 190.23V195.262H137.132C136.211 195.262 135.46 194.509 135.46 193.59V191.902C135.46 190.982 136.213 190.23 137.132 190.23H179.083Z" fill="#616161"/>
<path d="M170.342 190.23L165.701 195.262H157.016L161.658 190.23H170.342Z" fill="#E0E0E0"/>
<path d="M179.083 190.23V195.262H171.034L175.677 190.23H179.083Z" fill="#E0E0E0"/>
<path d="M156.36 190.23L151.717 195.262H143.033L147.676 190.23H156.36Z" fill="#E0E0E0"/>
<path d="M142.377 190.23L137.735 195.262H137.098C136.177 195.262 135.425 194.509 135.425 193.59V191.902C135.425 190.982 136.179 190.23 137.098 190.23H142.375H142.377Z" fill="#E0E0E0"/>
<path d="M160.274 187.357L160.604 186.966C160.903 187.224 161.202 187.371 161.589 187.371C161.929 187.371 162.142 187.215 162.142 186.97C162.142 186.747 162.017 186.626 161.438 186.489C160.775 186.332 160.4 186.136 160.4 185.553C160.4 185.018 160.845 184.647 161.465 184.647C161.92 184.647 162.281 184.785 162.598 185.039L162.304 185.453C162.023 185.244 161.742 185.132 161.456 185.132C161.135 185.132 160.948 185.296 160.948 185.511C160.948 185.752 161.09 185.86 161.688 186.002C162.349 186.162 162.691 186.399 162.691 186.924C162.691 187.508 162.232 187.855 161.576 187.855C161.099 187.855 160.648 187.691 160.274 187.356V187.357Z" fill="white"/>
<path d="M163.199 186.251C163.199 185.363 163.864 184.637 164.809 184.637C165.384 184.637 165.731 184.837 166.03 185.123L165.677 185.528C165.428 185.296 165.16 185.139 164.803 185.139C164.205 185.139 163.773 185.629 163.773 186.25C163.773 186.87 164.205 187.36 164.803 187.36C165.187 187.36 165.432 187.205 165.7 186.955L166.052 187.312C165.727 187.652 165.371 187.865 164.786 187.865C163.876 187.865 163.199 187.157 163.199 186.251Z" fill="white"/>
<path d="M167.734 184.668H168.242L169.616 187.812H169.036L168.719 187.058H167.244L166.922 187.812H166.36L167.734 184.668ZM168.519 186.573L167.979 185.324L167.444 186.573H168.519Z" fill="white"/>
<path d="M170.151 184.691H170.659L172.331 186.849V184.691H172.871V187.812H172.412L170.692 185.591V187.812H170.152V184.691H170.151Z" fill="white"/>
<path d="M213.493 162.752C216.372 161.912 219.623 162.876 221.655 165.082C226.68 170.541 222.975 174.748 225.491 178.569C227.011 180.876 228.287 184.919 223.579 187.311C221.403 188.417 214.917 194.195 213.59 194.331C200.134 195.714 199.892 182.062 204.428 178.105C210.803 172.545 204.978 165.236 213.494 162.752H213.493Z" fill="#233862"/>
<path d="M220.525 183.857C220.525 183.857 232.805 189.806 235.106 189.705C237.406 189.605 251.785 184.541 251.785 184.541L251.424 186.979C251.424 186.979 240.485 193.27 236.662 193.627C232.897 193.979 220.022 190.248 218.78 189.46C217.536 188.673 216.914 184.652 220.527 183.855L220.525 183.857Z" fill="#ED985F"/>
<path d="M221.878 189.469C220.764 190.242 219.37 190.879 217.618 191.282C211.051 192.799 208.534 187.25 207.589 183.44C208.484 182.927 209.327 182.815 209.815 182.757C210.29 182.701 210.789 182.664 211.202 182.643C211.939 182.078 213.039 179.767 213.281 176.177L213.59 176.259L218.766 177.676C218.766 177.676 218.528 179.322 218.413 180.876C218.324 182.093 218.309 183.256 218.54 183.541C218.944 183.63 219.186 183.686 219.186 183.686C219.186 183.686 219.186 183.688 219.189 183.691C219.258 183.805 220.76 186.274 221.881 189.471L221.878 189.469Z" fill="#FFB27D"/>
<path d="M218.765 177.676C218.765 177.676 218.527 179.32 218.412 180.876C215.479 180.583 214.119 177.791 213.589 176.259L218.765 177.676Z" fill="#ED985F"/>
<path d="M219.641 179.22C219.641 179.22 212.68 178.836 212.986 174.506C213.293 170.176 212.601 167.209 217.056 167.272C221.513 167.335 222.259 169.048 222.509 170.518C222.758 171.989 221.46 179.21 219.641 179.222V179.22Z" fill="#FFB27D"/>
<path d="M222.474 168.094C221.494 166.715 220.661 166.942 220.177 167.3C216.527 164.939 213.858 167.852 213.858 167.852C213.17 170.925 210.801 172.545 210.801 172.545C210.801 172.545 212.034 173.532 214.986 172.877C218.763 172.04 220.061 168.764 220.237 168.261C220.634 168.673 221.147 168.934 221.54 169.828C222.008 170.888 222.301 171.503 222.31 173.245C222.31 173.245 223.945 170.163 222.474 168.094Z" fill="#233862"/>
<path d="M205.606 203.619C204.976 200.406 202.927 187.57 204.976 183.438C205.712 181.954 208.601 181.821 211.77 181.951C212.756 182.588 216.512 184.993 218.056 184.692C218.073 184.689 218.103 184.682 218.143 184.671C218.869 184.489 219.144 183.979 218.537 183.538C218.537 183.538 219.929 183.637 221.878 184.003C222.98 184.211 226.002 186.066 226.002 186.066C226.002 186.066 224.631 188.199 222.427 189.13C222.802 192.484 222.244 193.964 218.765 201.709C215.825 208.257 219.161 214.152 219.161 214.152C219.161 214.152 201.854 228.066 201.758 220.981C201.687 215.648 206.41 207.724 205.606 203.616V203.619Z" fill="#4CAF50"/>
<path d="M220.019 229.284C220.96 229.178 221.808 228.662 222.334 227.875C222.418 227.749 222.507 227.615 222.601 227.471C224.571 224.489 225.338 215.357 229.768 205.627C230.847 203.258 234.722 202.832 235.778 200.155C235.778 200.155 238.379 191.475 230.801 191.22C223.223 190.964 210.51 215.367 210.309 217.928C210.115 220.407 205.301 230.945 220.019 229.283V229.284Z" fill="#94B0ED"/>
<path d="M250.133 229.233H239.349C239.349 229.233 238.946 227.468 239.654 226.266C240.28 225.204 240.041 224.597 239.576 223.718C240.065 223.923 240.697 224.11 241.392 224.069C241.929 224.038 242.498 223.787 242.996 223.491C243.461 224.033 245.447 226.347 246.069 226.804C246.775 227.325 249.916 227.139 250.133 229.235V229.233Z" fill="#0D2644"/>
<path d="M236.025 193.729C236.674 198.597 239.21 213.962 243.684 221.46C245.126 223.876 240.05 225.231 240.023 225.225C239.343 225.047 238.209 223.962 237.686 223.491C234.054 220.217 226.682 210.951 226.682 203.521C226.682 199.898 226.619 192.979 229.253 191.22C230.874 190.136 235.768 191.796 236.025 193.731V193.729Z" fill="#94B0ED"/>
<path d="M206.029 189.462C206.029 189.462 208.217 193.914 218.433 197.059C228.649 200.205 222.805 192.302 222.805 192.302L208.523 187.311L206.029 189.462Z" fill="#388E3C"/>
<path d="M214.753 229.295C214.753 229.295 215.3 228.475 215.647 227.257C216.227 225.223 216.433 223.742 217.546 220.573C218.717 217.246 220.104 213.154 221.838 208.895C222.373 207.582 222.941 206.251 223.546 204.923C224.625 202.554 227.595 202.881 228.65 200.204C228.65 200.204 232.773 190.922 225.195 190.665C217.618 190.409 203.22 215.497 202.394 217.926C201.488 220.585 198.234 231.841 214.753 229.293V229.295Z" fill="#AEC3FF"/>
<path d="M242.216 229.233H231.432C231.432 229.233 231.028 227.468 231.737 226.266C232.363 225.204 232.124 224.597 231.659 223.718C232.148 223.923 232.78 224.11 233.475 224.069C234.012 224.038 234.581 223.787 235.079 223.491C235.544 224.033 237.53 226.347 238.152 226.804C238.856 227.325 241.999 227.139 242.216 229.235V229.233Z" fill="#163560"/>
<g opacity="0.5">
<path d="M217.545 220.575C218.715 217.248 220.102 213.155 221.836 208.897C221.383 205.671 220.406 202.848 218.763 201.711C218.763 201.711 214.778 214.056 217.543 220.575H217.545Z" fill="#94B0ED"/>
</g>
<path d="M229.729 193.384C230.378 198.252 231.293 213.962 235.766 221.459C237.209 223.876 232.133 225.23 232.106 225.224C231.426 225.047 230.291 223.961 229.768 223.491C226.136 220.217 218.765 210.95 218.765 203.52C218.765 199.897 223.017 193.269 225.651 191.511C227.272 190.427 229.471 191.453 229.729 193.387V193.384Z" fill="#AEC3FF"/>
<path d="M253.137 178.266L242.093 177.093C241.771 177.059 241.466 177.245 241.351 177.549L237.4 187.932C237.226 188.388 237.55 188.878 238.038 188.898L248.997 189.34C249.294 189.352 249.568 189.177 249.683 188.904L253.72 179.251C253.904 178.81 253.612 178.317 253.137 178.268V178.266Z" fill="#233862"/>
<path d="M254.096 178.366L243.052 177.193C242.731 177.159 242.426 177.346 242.311 177.649L238.359 188.032C238.186 188.488 238.51 188.979 238.997 188.998L249.956 189.44C250.254 189.452 250.527 189.277 250.642 189.002L254.679 179.35C254.863 178.909 254.572 178.416 254.096 178.366Z" fill="#2B478B"/>
<path d="M247.911 183.217C248.045 182.846 247.854 182.546 247.483 182.546C247.112 182.546 246.703 182.846 246.568 183.217C246.434 183.588 246.625 183.888 246.996 183.888C247.367 183.888 247.776 183.588 247.911 183.217Z" fill="#EBF3FA"/>
<path d="M253.702 179.35C253.768 179.168 253.675 179.02 253.493 179.02C253.311 179.02 253.109 179.168 253.043 179.35C252.977 179.533 253.072 179.681 253.252 179.681C253.433 179.681 253.637 179.533 253.702 179.35Z" fill="#EBF3FA"/>
<path d="M207.588 183.438C207.588 183.438 222.894 189.075 225.193 188.96C226.68 188.885 239.035 184.541 239.035 184.541L240.144 186.64C240.144 186.64 228.118 194.369 224.812 194.331C218.285 194.257 207.271 190.249 206.029 189.462C204.785 188.674 203.975 184.236 207.588 183.438Z" fill="#FFB27D"/>
<path d="M239.037 184.541C239.037 184.541 240.146 182.834 241.25 182.784C242.355 182.733 244.262 183.537 244.915 183.663C245.568 183.788 247.425 184.39 246.873 185.295C246.32 186.199 243.76 186.399 242.657 186.199C241.552 185.999 240.147 186.64 240.147 186.64L239.038 184.541H239.037Z" fill="#FFB27D"/>
<path d="M240.95 182.837C240.95 182.837 242.706 182.032 243.208 181.881C243.711 181.73 243.61 181.884 243.459 182.359C243.308 182.834 242.406 183.289 242.406 183.438C242.406 183.588 240.95 182.837 240.95 182.837Z" fill="#FFB27D"/>
<path d="M252.895 183.639C252.895 183.639 252.194 181.329 251.425 182.056C250.623 182.81 251.109 183.565 251.208 184.528C251.395 186.368 251.767 186.289 252.003 186.206C252.239 186.124 253.155 184.565 252.895 183.64V183.639Z" fill="#FFB27D"/>
<path d="M252.937 183.99C252.937 183.99 253.291 185.955 251.424 186.981L251.978 185.628L252.937 183.99Z" fill="#FFB27D"/>
<path d="M220.942 176.73C220.942 176.73 220.285 176.47 218.433 176.62C218.433 176.62 218.531 177.341 219.896 177.413C220.669 177.454 220.942 176.73 220.942 176.73Z" fill="white"/>
<path d="M215.473 186.218C215.473 186.218 214.104 190.551 209.404 191.538C209.404 191.538 201.64 189.146 205.505 183.857C205.505 183.857 209.327 181.017 215.475 186.218H215.473Z" fill="#4CAF50"/>
<path d="M252.937 184.268C252.937 184.268 253.26 183.186 253.278 182.999C253.296 182.812 253.273 182.718 253.107 182.849C252.942 182.981 252.687 183.328 252.762 183.655C252.837 183.984 252.937 184.268 252.937 184.268Z" fill="#FFB27D"/>
<path d="M152.079 87.0132C151.766 87.3719 151.726 87.771 151.882 88.1984C151.882 88.1999 151.882 88.2029 151.885 88.2044C152.17 88.9951 153.115 89.8769 154.212 90.7573C154.352 90.8709 154.476 90.974 154.585 91.0682C154.614 91.0936 154.642 91.119 154.669 91.1429C154.692 91.1623 154.712 91.1833 154.733 91.2012C155.756 92.1443 155.372 92.3596 157.209 94.2742C159.304 96.4549 160.746 96.4938 161.157 96.295C161.504 96.1261 160.799 94.9693 160.017 93.6689C159.98 93.6061 159.942 93.5433 159.903 93.4791C159.799 93.3057 159.696 93.1308 159.593 92.9574C158.676 91.3925 158.912 90.6586 159.129 88.3315C159.306 86.4392 162.072 77.7627 162.072 77.7627L158.056 77.0707C158.056 77.0707 156.847 83.9805 155.514 85.0447C154.801 85.6127 154.004 85.6187 153.318 86.0401C153.27 86.07 153.222 86.0999 153.176 86.1298C152.787 86.3884 152.39 86.6544 152.077 87.0132H152.079Z" fill="#FFC49C"/>
<path d="M152.079 87.0131C151.766 87.3718 151.726 87.7709 151.882 88.1983C151.882 88.1998 151.882 88.2028 151.885 88.2043C152.234 88.9935 153.155 89.8708 154.216 90.7497C154.355 90.8648 154.478 90.9709 154.585 91.0696C154.614 91.095 154.642 91.1204 154.669 91.1443C154.692 91.1637 154.712 91.1847 154.733 91.2026C155.756 92.1457 155.372 92.361 157.209 94.2756C159.304 96.4563 160.746 96.4952 161.157 96.2964C161.504 96.1275 160.799 94.9706 160.017 93.6703C159.609 93.5208 157.714 92.7511 156.282 90.9171C155.02 89.3074 154.179 87.2373 153.319 86.04C153.272 86.0699 153.224 86.0998 153.177 86.1297C152.789 86.3883 152.391 86.6543 152.079 87.0131Z" fill="#233862"/>
<path d="M184.462 84.5036C184.71 85.7427 186.477 85.5364 188.451 85.0536C190.426 84.5709 189.957 85.1448 192.767 84.8339C195.577 84.523 196.427 83.4753 196.514 83.0568C196.59 82.6861 195.201 82.5546 193.713 82.3842C193.526 82.3633 193.338 82.3393 193.149 82.3169C191.468 82.1062 190.236 81.021 188.71 80.1302C187.263 79.2857 185.105 75.848 185.105 75.848L181.252 76.1529C181.252 76.1529 183.274 79.2245 184.056 80.5592C184.516 81.3439 184.491 82.3827 184.434 83.1853C184.404 83.6218 184.376 84.0672 184.464 84.5036H184.462Z" fill="#FFC49C"/>
<path d="M188.451 85.0551C190.426 84.5723 189.957 85.1463 192.767 84.8354C195.577 84.5245 196.427 83.4767 196.514 83.0582C196.59 82.6875 195.201 82.556 193.713 82.3856L193.699 82.414C193.699 82.414 192.015 83.6083 189.676 83.6651C187.77 83.7114 185.751 83.1658 184.434 83.1868C184.404 83.6232 184.376 84.0686 184.464 84.505C184.712 85.7441 186.479 85.5379 188.453 85.0551H188.451Z" fill="#233862"/>
<path d="M169.695 59.8655L166.093 69.5584L161.391 82.2152C161.391 82.2152 160.114 82.3378 158.892 81.9865C157.766 81.6607 156.475 80.8102 156.475 80.8102C156.475 80.8102 157.781 67.2208 160.217 59.4201C160.842 57.4173 161.542 55.7986 162.313 54.8868C166.09 50.4238 169.695 59.8655 169.695 59.8655Z" fill="#388E3C"/>
<path d="M166.033 44.4721C163.785 43.7472 157.572 44.5991 151.145 45.8263C150.565 45.9369 149.976 45.6738 149.669 45.1686L148.765 43.6769L134.161 42.5365C134.161 42.5365 130.391 51.1009 131.994 58.226C132.387 59.9717 134.521 62.2317 137.784 62.4349C146.931 63.0044 153.103 59.8268 162.598 56.4892C164.25 55.9092 165.002 59.5786 166.719 63.1838C168.436 66.7889 182.857 79.1497 182.857 79.1497C182.857 79.1497 185.074 79.1722 185.988 78.8284C186.973 78.4592 187.333 77.9794 187.333 77.9794C187.333 77.9794 171.354 46.188 166.033 44.4721Z" fill="#4CAF50"/>
<path d="M148.19 1.15226C146.318 0.170268 143.473 0.0372449 143.009 -0.0255309C137.476 -0.769872 134.144 7.2729 133.949 9.7092C133.587 14.2007 131.212 14.8852 127.867 17.6982C121.162 23.3375 123.127 29.8916 126.794 32.3264C128.994 33.7867 132.871 32.3264 132.871 32.3264C132.926 32.3653 143.476 26.4285 148.676 23.5647C156.472 22.4572 152.955 3.65582 148.187 1.15226H148.19Z" fill="#233862"/>
<path d="M144.32 21.1269C144.342 21.1418 141.761 22.0237 140.035 21.2584C138.41 20.541 137.18 17.8685 137.205 17.867C137.944 17.8326 138.755 17.187 139.38 12.9496L139.694 13.0617L144.984 14.9644C144.984 14.9644 144.601 16.6608 144.353 18.2781C144.144 19.6352 144.032 20.9341 144.322 21.1269H144.32Z" fill="#FFB27D"/>
<path d="M144.984 14.9659C144.984 14.9659 144.719 16.1706 144.426 17.8178C141.388 17.2707 140.122 14.7059 139.694 13.0632L144.984 14.9659Z" fill="#ED975D"/>
<path d="M145.771 16.6505C145.771 16.6505 138.534 15.6789 139.21 11.1815C139.884 6.68406 139.404 3.53032 144.053 3.96078C148.701 4.39124 149.339 6.24164 149.48 7.79758C149.62 9.35352 147.671 16.788 145.771 16.652V16.6505Z" fill="#FFB27D"/>
<path d="M149.215 5.33139C149.215 5.33139 144.583 9.32364 141.432 9.64499C138.282 9.96634 137.089 8.95595 137.089 8.95595C137.089 8.95595 138.947 7.41346 140.063 4.92485C140.392 4.19097 141.089 3.68727 141.89 3.61851C144.139 3.4242 148.405 3.33602 149.215 5.33139Z" fill="#233862"/>
<path d="M146.32 4.97408C146.32 4.97408 147.87 6.47322 148.357 7.58376C148.828 8.65692 148.97 11.2218 148.595 12.2396C148.595 12.2396 151.009 7.5449 149.643 5.26404C148.193 2.84568 146.32 4.97408 146.32 4.97408Z" fill="#233862"/>
<path d="M150.414 31.7869C150.968 44.8488 150.091 44.1283 148.752 44.7651C148.29 44.9848 147.281 45.2986 145.852 45.3943C141.361 45.6917 133.464 44.9519 133.164 44.1224C132.128 41.2496 132.859 40.3573 131.995 35.96C131.905 35.4922 131.793 34.9855 131.663 34.4354C130.943 31.4147 130.24 30.3879 132.798 25.5362C135.116 21.1404 137.525 17.5742 137.742 17.7027C143.86 21.3347 144.353 18.2826 144.353 18.2826C144.353 18.2826 150.112 24.6499 150.415 31.7899L150.414 31.7869Z" fill="#E0E0E0"/>
<path d="M166.093 69.5585L161.391 82.2153C161.391 82.2153 160.114 82.3378 158.892 81.9866C157.766 81.6607 156.475 80.8103 156.475 80.8103C156.475 80.8103 157.781 67.2208 160.217 59.4202L166.093 69.5585Z" fill="#4CAF50"/>
<path d="M144.353 18.2795C144.353 18.2795 150.648 19.3467 151.387 22.0566C152.127 24.7664 156.476 40.6995 156.476 40.6995C156.476 40.6995 153.276 41.2749 151.798 39.7967C150.32 38.3185 146.653 26.0817 146.653 26.0817L144.353 18.2795Z" fill="#CCCCCC"/>
<path d="M145.851 45.3928C141.359 45.6902 133.463 44.9504 133.162 44.1208C132.127 41.2481 132.858 40.3558 131.994 35.9585L134.161 29.8588C134.161 29.8588 133.802 36.652 135.806 38.4396C137.808 40.2257 144.009 41.8893 144.982 43.381C145.452 44.0969 145.761 44.8159 145.851 45.3928Z" fill="#CCCCCC"/>
<path d="M140.704 42.5365C140.704 42.5365 145.136 41.55 145.851 41.9431C146.565 42.3362 148.314 43.7681 148.532 44.2673C148.75 44.765 146.94 43.8892 146.351 43.7307C145.97 43.6291 144.966 43.9774 144.47 44.1433C142.378 44.8398 141.096 44.4826 141.096 44.4826L140.704 42.538V42.5365Z" fill="#FFB27D"/>
<path d="M137.738 17.6967C137.738 17.6967 131.787 18.0629 129.728 20.9356C126.828 24.9802 121.077 42.2151 124.372 44.5139C128.085 47.1027 141.268 45.191 141.268 45.191C141.268 45.191 141.707 43.1403 141.096 42.1479C140.485 41.1554 130.566 39.5531 130.109 39.0958C129.651 38.6384 135.832 30.1681 135.832 28.7946C135.832 27.421 137.738 17.6952 137.738 17.6952V17.6967Z" fill="#E0E0E0"/>
<path d="M146.066 43.1761C146.066 43.1761 146.994 44.3734 147.299 44.5169C147.604 44.6603 147.8 44.6245 147.8 44.6245L147.173 43.499L146.064 43.1776L146.066 43.1761Z" fill="#FFB27D"/>
<path d="M145.851 41.9431L148.55 43.2539C148.55 43.2539 148.435 43.4423 148.103 43.4273C147.771 43.4124 146.933 43.106 146.933 43.106L145.851 41.9446V41.9431Z" fill="#FFB27D"/>
<path d="M147.299 46.3509H168.653L175.076 30.3774H153.756L147.299 46.3509Z" fill="#2B478B"/>
<path d="M168.903 45.7291H140.704V46.3509H168.653L168.903 45.7291Z" fill="#2B478B"/>
<path d="M163.262 38.3649C163.423 37.8029 163.097 37.3485 162.537 37.3485C161.976 37.3485 161.391 37.8044 161.229 38.3649C161.068 38.9269 161.392 39.3813 161.954 39.3813C162.516 39.3813 163.102 38.9254 163.262 38.3649Z" fill="#EBF3FA"/>
<path d="M0.387117 229.042H322.748C322.962 229.042 323.135 229.215 323.135 229.429V229.613C323.135 229.827 322.962 230 322.748 230H0.387117C0.173381 230 0 229.827 0 229.613V229.429C0 229.215 0.173381 229.042 0.387117 229.042Z" fill="#616161"/>
</g>
<defs>
<clipPath id="clip0_115_582">
<rect width="323" height="230" fill="white"/>
</clipPath>
</defs>
</svg>
