<svg width="300" height="230" viewBox="0 0 300 230" fill="none" xmlns="http://www.w3.org/2000/svg">
<g clip-path="url(#clip0_168_3191)">
<path d="M15.9656 228H286.784C292.779 228 297.747 223.376 298.156 217.422C299.282 201.031 299.29 184.808 298.129 168.285C296.956 151.586 294.467 134.5 286.177 119.934C275.446 101.083 255.431 88.2241 234.012 84.3509C212.592 80.4788 190.059 85.1542 170.937 95.5112C154.303 104.521 139.562 117.856 121.121 122.147C99.322 127.221 76.5075 118.671 54.2412 120.991C30.3809 123.477 7.6744 140.588 2.41938 163.885C-2.38309 185.176 5.71896 208.708 15.9645 227.999L15.9656 228Z" fill="#A4A4A4" fill-opacity="0.2"/>
<path d="M225.397 56.4738L215.575 62.739C215.575 62.739 210.498 50.9623 211.39 49.6092C211.928 48.7998 212.563 49.2137 212.563 49.2137C212.563 49.2137 211.91 48.083 212.325 47.4281C212.746 46.7731 213.498 47.0326 213.498 47.0326C213.498 47.0326 213.07 45.9761 214.066 45.661C215.153 45.3211 217.884 47.8915 220.388 50.6163" fill="#FFB78F"/>
<path d="M216.937 51.1168C215.226 48.7503 213.302 47.3663 213.284 47.3478L213.724 46.7175C213.809 46.7793 215.764 48.1942 217.554 50.6596L216.937 51.1168Z" fill="black"/>
<path d="M215.049 52.7851C213.883 51.1168 212.307 49.498 212.294 49.4856L212.838 48.9419C212.905 49.0099 214.475 50.6163 215.678 52.3402L215.055 52.7851H215.049Z" fill="black"/>
<path d="M198.96 47.6876L203.547 58.2533L229.966 46.0873L225.531 33.9276L198.96 47.6876Z" fill="#4CAF50"/>
<g opacity="0.4">
<path d="M218.782 47.7309C220.663 42.2998 212.545 39.68 211.005 45.1049C209.564 50.1777 217.065 52.6677 218.782 47.7309Z" fill="white"/>
</g>
<path d="M219.716 56.3688C219.27 54.9106 219.692 53.2176 220.767 52.1487L221.304 52.6986C220.431 53.5698 220.083 54.9538 220.449 56.1402L219.722 56.3688H219.716Z" fill="black"/>
<path d="M220.394 50.6164C220.046 48.8122 220.498 46.1738 222.141 46.489C223.858 46.8226 223.119 48.9172 223.546 50.9068C223.974 52.8963 225.403 56.4676 225.403 56.4676" fill="#FFB78F"/>
<path d="M256.111 14.6931C256.673 17.7639 255.579 20.8718 254.07 23.4607C252.562 26.0496 250.625 28.3296 249.238 30.9988C247.846 33.668 247.027 36.9427 247.986 39.9085C248.945 42.8743 251.609 45.0307 254.443 45.5806C257.277 46.1305 260.191 45.2223 262.537 43.5231C264.882 41.824 266.697 39.3895 268.163 36.7697C271.73 38.438 275.487 40.0445 279.158 38.957C282.829 37.8696 285.987 34.3291 285.957 30.1461C285.926 26.5439 283.617 23.2692 280.819 21.2425C278.022 19.2159 274.76 18.184 271.602 16.9915C268.444 15.799 265.237 14.347 262.891 11.7211" fill="black"/>
<path d="M287.441 205.635L290.135 224.598H254.48C254.388 222.009 255.885 219.667 257.833 218.357C259.782 217.047 262.042 216.565 264.241 216.022C266.44 215.478 268.7 214.804 270.478 213.216C272.402 211.493 273.587 208.731 273.611 205.926" fill="black"/>
<path d="M263.459 197.016L271.321 214.446L237.107 224.598C236.301 222.139 237.083 219.463 238.585 217.659C240.088 215.849 242.128 214.743 244.089 213.593C246.05 212.444 248.029 211.159 249.293 209.126C250.662 206.926 251.028 203.936 250.271 201.242" fill="black"/>
<path d="M274.815 41.41L273.385 47.4652L258.261 46.7176L260.008 42.0093L261.132 31.0235L271.492 23.9797L274.815 41.41Z" fill="#FFB78F"/>
<path d="M267.21 30.9061C266.067 34.1561 263.502 36.8253 260.393 38.2217L261.095 31.3572L264.186 29.244C265.2 29.8001 266.177 30.3438 267.21 30.9061Z" fill="black"/>
<path d="M256.263 33.1923C263.105 38.1723 268.602 31.1965 268.602 31.1965L271.962 18.6475L272.145 17.9802C272.145 17.9802 272.145 17.9678 272.145 17.9431C272.139 17.8875 272.127 17.7701 272.096 17.6094C272.078 17.492 272.054 17.3438 272.029 17.1831L271.999 17.0101L271.98 16.9236C271.644 15.1874 270.698 11.6964 268.248 9.15691C266.373 7.2106 263.618 5.80802 259.574 6.17257C259.531 6.17257 259.482 6.17875 259.44 6.18493C258.963 6.22818 258.517 6.32086 258.09 6.45061C257.925 6.50004 257.76 6.55565 257.607 6.61744C257.412 6.69158 257.216 6.77809 257.033 6.87077C256.63 7.06849 256.245 7.30946 255.885 7.5875C254.302 8.79236 253.178 10.6769 252.458 12.8951C252.39 13.1051 252.323 13.3152 252.262 13.5315C252.213 13.6983 252.171 13.8589 252.128 14.0319C252.067 14.2667 252.012 14.5077 251.957 14.7487C251.945 14.8105 251.932 14.8784 251.92 14.9402L251.902 15.0329C251.859 15.2368 251.822 15.4469 251.786 15.6631C250.668 22.2991 252.47 30.4551 256.269 33.2232L256.263 33.1923Z" fill="#FFB78F"/>
<path d="M258.487 26.167C258.139 26.167 257.796 26.0373 257.534 25.8025C257.235 25.5368 257.063 25.1475 257.057 24.7459L256.972 19.8523L257.735 19.84L257.821 24.7335C257.821 24.9251 257.906 25.0981 258.047 25.2278C258.187 25.3576 258.371 25.4132 258.554 25.3947L258.627 26.1608C258.578 26.1608 258.536 26.167 258.487 26.167Z" fill="black"/>
<path d="M260.973 19.9635C261.01 20.3342 261.248 20.6123 261.51 20.5814C261.773 20.5567 261.95 20.2354 261.92 19.8708C261.883 19.5001 261.645 19.2221 261.382 19.253C261.119 19.2838 260.942 19.599 260.973 19.9635Z" fill="black"/>
<path d="M253.814 20.6679C253.85 21.0387 254.089 21.3167 254.351 21.2858C254.614 21.2549 254.791 20.9398 254.761 20.5753C254.73 20.2107 254.486 19.9265 254.223 19.9574C253.96 19.9883 253.783 20.3034 253.814 20.6679Z" fill="black"/>
<path d="M262.292 16.6826C262.5 16.7135 262.708 16.7629 262.885 16.8494C263.056 16.9359 263.184 17.078 263.172 17.2201C263.148 17.4549 262.781 17.5909 262.445 17.6527C261.73 17.7824 260.955 17.7762 260.222 17.6279C259.965 17.5785 259.684 17.492 259.586 17.319C259.366 16.9236 260.112 16.7197 260.423 16.6702C261.022 16.5714 261.688 16.5899 262.292 16.6826Z" fill="black"/>
<path d="M254.754 17.2264C254.938 17.2264 255.127 17.2326 255.28 17.2882C255.439 17.3438 255.567 17.455 255.567 17.5847C255.573 17.801 255.268 17.9802 254.987 18.0852C254.382 18.3077 253.71 18.4189 253.069 18.3942C252.843 18.388 252.586 18.3447 252.488 18.2088C252.25 17.8813 252.873 17.5847 253.136 17.4982C253.643 17.3252 254.217 17.2387 254.748 17.2326L254.754 17.2264Z" fill="black"/>
<path d="M252.452 12.8641C252.977 12.7529 253.49 12.5675 253.966 12.3204C255.402 11.5728 256.666 10.232 257.167 8.68111C258.847 13.9145 265.799 17.8566 272.017 17.1707L271.986 16.9977L271.968 16.9112C271.632 15.175 270.685 11.684 268.236 9.14452C266.361 7.19821 263.606 5.79563 259.562 6.16018C259.519 6.16018 259.47 6.16636 259.427 6.17254C258.951 6.21579 258.505 6.30847 258.077 6.43822C257.913 6.48765 257.748 6.54326 257.595 6.60505C257.399 6.67919 257.204 6.7657 257.021 6.85838C256.618 7.0561 256.233 7.29707 255.872 7.57511C254.29 8.77997 253.166 10.6645 252.445 12.8827L252.452 12.8641Z" fill="black"/>
<path d="M269.341 18.1161C269.714 17.3438 270.569 16.868 271.418 16.8433C272.267 16.8186 273.098 17.2017 273.733 17.7763C275.181 19.0862 275.548 21.4588 274.57 23.158C273.593 24.8571 271.376 25.7036 269.531 25.0796" fill="#FFB78F"/>
<path d="M271.803 22.4783C271.779 21.4588 271.308 20.4579 270.545 19.7967L270.765 19.1171L272.652 18.9811L272.707 19.7535L271.626 19.8338C272.2 20.5814 272.542 21.5144 272.567 22.4598L271.803 22.4783Z" fill="black"/>
<path d="M262.744 5.71537C261.706 6.47536 260.197 6.48771 259.14 5.75244C258.09 5.01717 257.57 3.57752 257.9 2.32941C258.236 1.0813 259.397 0.105062 260.674 0.00620172C263.826 -0.23477 265.292 3.84321 262.738 5.70919L262.744 5.71537Z" fill="black"/>
<path d="M280.013 76.0913C280.013 76.0913 266.367 93.707 240.112 97.2845C216.076 100.559 212.3 61.4044 212.3 61.4044L227.792 54.7438L236.099 70.1474L236.105 70.1721C236.105 70.1721 236.105 70.1659 236.111 70.1474C236.288 69.5975 239.257 60.1687 242.11 53.2547C243.545 49.7822 244.95 46.94 245.958 46.1738C248.67 44.1163 260.063 41.8981 260.063 41.8981C265.921 51.0921 274.619 41.342 274.619 41.342L280.013 76.0913Z" fill="#1D1D1D"/>
<path d="M280.477 83.4193L247.357 85.7549C247.357 85.7549 225.171 133.282 226.1 148.401C227.022 163.515 238.885 205.746 238.885 205.746L259.434 200.711L263.49 199.716L263.997 208.545H294.191C294.191 208.545 296.042 122.994 280.477 83.4131V83.4193ZM261.04 170.472L256.288 151.67L257.253 149.143L260.136 141.598L260.154 141.555L262.036 174.383L261.046 170.472H261.04Z" fill="#E0E0E0"/>
<path d="M285.101 98.3719C270.777 102.827 253.056 101.653 253.056 101.653L249.544 85.6004L280.477 83.4193C282.23 87.8804 283.764 92.9284 285.101 98.3719Z" fill="black"/>
<path d="M275.853 67.3669L286.396 83.8271L249.538 85.6004L248.585 81.2382L274.931 72.6683L275.853 67.3669Z" fill="black"/>
<path d="M229.783 99.3296L226.179 89.3015L244.437 87.9792L229.783 99.3296Z" fill="#E6E6E6"/>
<path d="M242.122 53.2361L239.153 68.5162L236.111 70.1474C236.289 69.5975 239.257 60.1687 242.11 53.2547V53.2361H242.122Z" fill="black"/>
<path d="M244.773 66.2547L233.418 65.1735L231.078 94.436L243.741 96.4318L244.773 66.2547Z" fill="#4CAF50"/>
<g opacity="0.4">
<path d="M235.097 83.753C238.872 88.0596 245.085 82.1527 241.145 78.155C237.461 74.4169 231.664 79.8356 235.097 83.753Z" fill="white"/>
</g>
<path d="M228.335 66.2671L218.525 72.1431L233.625 97.2165L245.03 91.3096L228.335 66.2671Z" fill="#4CAF50"/>
<g opacity="0.4">
<path d="M230.669 86.1812C236.221 87.4231 237.822 78.9582 232.312 78.0561C227.162 77.2158 225.611 85.0505 230.669 86.1812Z" fill="white"/>
</g>
<path d="M245.842 87.6086C243.551 87.8495 242.22 87.0957 242.263 85.8847C242.299 84.8899 245.793 84.7169 248.774 85.0259C250.778 85.2298 253.093 85.1494 253.093 85.1494" fill="#FFB78F"/>
<path d="M229.783 99.3297L229.6 86.5705L246.007 85.8414L247.052 98.3411L229.783 99.3297Z" fill="white"/>
<path d="M253.093 85.1494L255.097 96.716C255.097 96.716 242.403 97.0003 241.499 95.6471C240.961 94.8377 241.585 94.399 241.585 94.399C241.585 94.399 240.302 94.5844 239.862 93.9418C239.422 93.2992 239.947 92.6937 239.947 92.6937C239.947 92.6937 238.817 92.6937 238.909 91.6433C239.007 90.5002 242.397 88.9185 245.842 87.6086" fill="#FFB78F"/>
<path d="M240.155 93.0211L239.746 92.3662C239.831 92.3106 241.872 91.013 244.804 90.2778L244.987 91.0254C242.177 91.7298 240.173 93.0026 240.155 93.015V93.0211Z" fill="black"/>
<path d="M241.731 94.7574L241.438 94.0407C241.523 94.0036 243.588 93.1448 245.622 92.6752L245.793 93.429C243.82 93.8862 241.749 94.7451 241.725 94.7574H241.731Z" fill="black"/>
<path d="M275.853 67.3669L277.24 74.3798L250.277 82.3257L254.59 99.4656C254.59 99.4656 288.638 100.559 297.263 86.5334C305.889 72.5077 291.717 45.5498 287.252 43.2142C282.786 40.8786 274.619 41.342 274.619 41.342" fill="#1D1D1D"/>
<path d="M260.136 141.605L257.253 149.149L257.98 111.156L260.136 141.605Z" fill="#616161"/>
<path d="M262.03 174.383L263.483 199.722L259.427 200.711L261.04 170.472L262.03 174.383Z" fill="#616161"/>
<path d="M262.443 188.061L236.111 195.343L236.312 196.088L262.645 188.806L262.443 188.061Z" fill="black"/>
<path d="M236.093 70.1474L236.099 70.1538L236.093 70.1602V70.1474Z" fill="#999999"/>
<path d="M262.188 25.8519C262.408 26.5995 261.987 27.3904 261.242 27.6128C260.503 27.8352 259.721 27.4089 259.501 26.6551" fill="white"/>
<path d="M256.216 80.7194L255.484 80.9385L260.895 99.442L261.628 99.2229L256.216 80.7194Z" fill="white"/>
<path d="M230.217 59.4553L213.142 66.4686L213.429 67.1842L230.504 60.1709L230.217 59.4553Z" fill="white"/>
<path d="M294.173 198.184H263.38V198.956H294.173V198.184Z" fill="black"/>
<path d="M287.221 208.28L286.861 172.381L287.239 171.992H293.733V172.764H287.624L287.985 208.273L287.221 208.28Z" fill="white"/>
<mask id="mask0_168_3191" style="mask-type:luminance" maskUnits="userSpaceOnUse" x="254" y="205" width="37" height="20">
<path d="M287.441 205.635L290.135 224.598H254.48C254.388 222.009 255.885 219.667 257.833 218.357C259.782 217.047 262.042 216.565 264.241 216.022C266.44 215.478 268.7 214.804 270.478 213.216C272.402 211.493 273.587 208.731 273.611 205.926" fill="white"/>
</mask>
<g mask="url(#mask0_168_3191)">
<path d="M279.152 227.829L278.388 227.792C278.614 223.183 280.966 219.445 285.181 216.992C288.339 215.15 291.387 214.687 291.509 214.662L291.619 215.428C291.619 215.428 288.571 215.898 285.535 217.671C281.51 220.019 279.359 223.436 279.146 227.829H279.152Z" fill="white"/>
</g>
<path d="M171.74 163.879H98.3711V224.598H171.74V163.879Z" fill="#616161"/>
<path d="M152.327 92.9099L162.724 115.376L181.471 131.422L174.08 144.367C174.08 144.367 149.383 140.9 141.271 118.478" fill="#E6E6E6"/>
<path d="M181.459 91.8286C183.047 90.1418 183.267 88.6095 182.289 87.9113C181.489 87.3367 179.223 90.0306 177.647 92.6072C176.584 94.3434 175.106 96.1414 175.106 96.1414" fill="#FFB78F"/>
<path d="M172.1 86.3851L177.085 76.0048L203.028 89.1779L198.141 101.159L172.1 86.3851Z" fill="#4CAF50"/>
<g opacity="0.4">
<path d="M191.91 87.108C193.59 92.6071 185.374 94.9118 184.043 89.4312C182.796 84.309 190.383 82.1094 191.91 87.108Z" fill="white"/>
</g>
<path d="M175.106 96.1414L182.949 104.804C182.949 104.804 190.915 94.8006 190.408 93.2559C190.102 92.3291 189.381 92.5639 189.381 92.5639C189.381 92.5639 190.31 91.6494 190.072 90.908C189.84 90.1665 189.045 90.216 189.045 90.216C189.045 90.216 189.73 89.3077 188.856 88.7392C187.897 88.1214 184.592 89.8761 181.465 91.8348" fill="#FFB78F"/>
<path d="M184.666 93.2312L184.189 92.6257C186.553 90.7226 188.813 89.8823 188.911 89.8452L189.174 90.5681C189.174 90.5681 186.932 91.4084 184.666 93.225V93.2312Z" fill="black"/>
<path d="M186.046 95.3443L185.564 94.7512C187.176 93.4104 189.107 92.2797 189.186 92.2302L189.565 92.8975C189.565 92.8975 187.604 94.0468 186.046 95.3443Z" fill="black"/>
<path d="M200.395 194.767L210.138 210.189L243.539 201.137C242.88 198.635 240.571 196.905 238.078 196.311C235.586 195.718 232.984 196.033 230.43 196.256C227.877 196.478 225.232 196.608 222.831 195.687C220.241 194.693 218.146 192.456 217.303 189.787" fill="black"/>
<path d="M170.909 159.177L198.941 200.501L228.158 189.774C228.158 189.774 200.175 137.972 190.139 132.299C180.103 126.627 145.596 134.159 145.596 134.159" fill="#388E3C"/>
<path d="M152.449 98.6006L144.686 101.276L135.944 93.7317L144.826 72.8599L151.264 79.638L154.661 83.2093L153.201 89.2768L152.327 92.9099L152.449 98.6006Z" fill="#FFB78F"/>
<path d="M151.264 79.6379L154.661 83.2154L153.201 89.283C150.409 87.2625 148.412 84.0805 147.96 80.6265C149.09 80.2991 150.153 79.9716 151.258 79.6441L151.264 79.6379Z" fill="black"/>
<path d="M159.67 83.1969C153.433 88.9308 147.19 82.6346 147.19 82.6346L142.835 71.5809L142.651 71.1175L142.432 70.5614L142.181 69.9188C142.181 69.9188 142.181 69.8879 142.181 69.8199V69.7828C142.181 69.7211 142.181 69.6407 142.187 69.5357C142.193 69.3998 142.199 69.2268 142.212 69.0229C142.322 67.3361 142.835 63.6041 145.058 60.6939C146.72 58.519 149.34 56.8013 153.47 56.7271C155.913 56.6901 157.88 57.8331 159.389 59.6682C159.621 59.9463 159.835 60.2428 160.048 60.5518C160.073 60.5827 160.097 60.6197 160.116 60.6568C160.5 61.25 160.849 61.8864 161.154 62.5661C161.166 62.5784 161.166 62.5908 161.172 62.6093C161.221 62.7082 161.264 62.807 161.307 62.9121C161.533 63.4373 161.734 63.981 161.918 64.5433C164.05 71.0989 163.249 79.9036 159.658 83.2031L159.67 83.1969Z" fill="#FFB78F"/>
<path d="M156.536 76.4868L156.524 75.7144C156.713 75.7144 156.884 75.6341 157.013 75.492C157.141 75.3499 157.196 75.1645 157.177 74.9791L156.713 70.1103L157.471 70.0361L157.935 74.905C157.972 75.3066 157.843 75.7082 157.581 76.0048C157.318 76.3076 156.933 76.4806 156.536 76.4868Z" fill="black"/>
<path d="M153.5 70.5984C153.5 70.9691 153.299 71.2719 153.036 71.2781C152.773 71.2781 152.559 70.9877 152.553 70.617C152.547 70.2462 152.755 69.9435 153.018 69.9373C153.28 69.9311 153.494 70.2277 153.5 70.5984Z" fill="black"/>
<path d="M160.69 70.4748C160.696 70.8456 160.488 71.1483 160.226 71.1545C159.963 71.1545 159.749 70.8641 159.743 70.4934C159.737 70.1227 159.945 69.8199 160.207 69.8137C160.47 69.8137 160.684 70.1041 160.69 70.4748Z" fill="black"/>
<path d="M151.771 67.2804C151.57 67.3484 151.374 67.4349 151.222 67.5832C151.069 67.7253 150.971 67.9415 151.02 68.1454C151.093 68.4791 151.49 68.6274 151.833 68.6768C152.572 68.7818 153.341 68.6892 154.025 68.4049C154.27 68.3061 154.526 68.1516 154.587 67.8983C154.722 67.3113 153.94 67.1074 153.622 67.0703C153.005 67.0024 152.352 67.0889 151.771 67.2928V67.2804Z" fill="black"/>
<path d="M159.377 66.99C159.193 67.0209 159.01 67.0641 158.857 67.1692C158.705 67.2742 158.589 67.441 158.601 67.6202C158.613 67.9168 158.937 68.1083 159.224 68.201C159.847 68.4049 160.525 68.4358 161.166 68.2937C161.392 68.2443 161.637 68.1454 161.728 67.9353C161.93 67.4472 161.282 67.1506 161.014 67.0703C160.494 66.9159 159.914 66.8973 159.383 66.9838L159.377 66.99Z" fill="black"/>
<path d="M158.662 60.3108C156.725 61.1944 151.961 61.7875 148.4 60.7248C147.355 64.3146 145.15 67.5461 142.206 69.8075H142.187V69.7767C142.187 69.7149 142.187 69.6345 142.193 69.5295C142.199 69.3936 142.206 69.2206 142.218 69.0167C142.328 67.3299 142.841 63.5979 145.064 60.6877C146.726 58.5128 149.365 56.9248 153.476 56.5603C155.663 56.3626 157.727 56.5479 158.949 57.4747C160.617 58.7352 159.578 59.8968 158.656 60.317L158.662 60.3108Z" fill="black"/>
<path d="M144.991 69.4616C144.533 68.7386 143.629 68.3679 142.786 68.4421C141.937 68.5162 141.155 68.992 140.593 69.6346C139.304 71.1051 139.206 73.5025 140.367 75.078C141.528 76.6536 143.83 77.2344 145.59 76.4065" fill="#FFB78F"/>
<path d="M142.505 74.2192C142.132 73.3541 142.047 72.3594 142.254 71.4387L141.24 71.8342L140.966 71.1113L142.731 70.4254L143.213 70.9444C142.798 71.8712 142.792 72.9772 143.195 73.9102L142.499 74.2192H142.505Z" fill="black"/>
<path d="M184.898 205.635L187.06 224.598H224.255C224.359 222.009 222.654 219.667 220.443 218.357C218.232 217.047 215.654 216.565 213.15 216.022C210.645 215.478 208.079 214.804 206.058 213.216C203.871 211.493 202.521 208.731 202.496 205.925" fill="black"/>
<path d="M113.691 131.787C113.691 131.787 100.894 157.496 115.676 163.879H160.201L179.131 210.195H210.138C210.138 210.195 193.193 149.297 184.543 141.636C175.888 133.98 142.364 133.795 142.364 133.795" fill="#00B907"/>
<path d="M154.135 113.176C154.111 118.787 153.757 125.589 152.81 133.609C152.81 133.609 150.507 134.277 146.982 135.012C137.869 136.915 120.582 139.281 113.697 131.787C113.697 131.787 123.257 90.3457 138.033 88.6404C138.033 88.6404 147.105 96.0116 152.333 92.9099C152.333 92.9099 154.203 99.5212 154.142 113.176H154.135Z" fill="white"/>
<path d="M154.135 113.176C154.111 118.787 153.757 125.589 152.81 133.609C152.81 133.609 150.507 134.277 146.982 135.012C132.621 129.167 129.023 106.169 129.023 106.169L154.142 113.176H154.135Z" fill="#E6E6E6"/>
<path d="M128.474 104.804C128.474 104.804 137.38 134.301 154.972 133.795C172.565 133.288 185.075 104.983 185.075 104.983L174.08 93.6761L156.414 105.712L149.566 96.2279" fill="white"/>
<path d="M154.881 78.6864C154.447 78.6864 154.007 78.5258 153.69 78.223C153.274 77.8337 153.073 77.222 153.164 76.6412L153.916 76.7648C153.861 77.0923 153.977 77.4445 154.203 77.6607C154.496 77.9388 154.985 78.0006 155.333 77.8028L155.699 78.4763C155.449 78.6184 155.162 78.6864 154.875 78.6864H154.881Z" fill="black"/>
<path d="M145.828 131.441L145.278 130.903C145.468 130.705 149.957 126.102 155.65 126.275C158.808 126.374 161.692 127.937 164.227 130.922L163.646 131.422C161.258 128.611 158.564 127.14 155.632 127.047C150.281 126.881 145.865 131.397 145.822 131.441H145.828Z" fill="black"/>
<path d="M186.15 210.244L163.695 158.176H118.7L118.425 158.059C115.383 154.901 114.534 149.878 115.97 143.532C117.045 138.787 119.036 134.913 119.054 134.876L119.732 135.234C119.714 135.271 117.759 139.071 116.715 143.724C115.768 147.913 115.383 153.672 118.865 157.41H163.946L164.294 157.645L186.853 209.942L186.15 210.251V210.244Z" fill="white"/>
<path d="M193.144 221.632C191.244 221.632 189.699 220.069 189.699 218.147C189.699 216.225 191.244 214.662 193.144 214.662C195.044 214.662 196.589 216.225 196.589 218.147C196.589 220.069 195.044 221.632 193.144 221.632ZM193.144 215.435C191.666 215.435 190.463 216.652 190.463 218.147C190.463 219.642 191.666 220.86 193.144 220.86C194.622 220.86 195.826 219.642 195.826 218.147C195.826 216.652 194.622 215.435 193.144 215.435Z" fill="white"/>
<path d="M214.414 206.5C212.514 206.5 210.969 204.937 210.969 203.015C210.969 201.094 212.514 199.53 214.414 199.53C216.314 199.53 217.859 201.094 217.859 203.015C217.859 204.937 216.314 206.5 214.414 206.5ZM214.414 200.297C212.936 200.297 211.732 201.514 211.732 203.009C211.732 204.504 212.936 205.722 214.414 205.722C215.892 205.722 217.096 204.504 217.096 203.009C217.096 201.514 215.892 200.297 214.414 200.297Z" fill="white"/>
<path d="M64.304 205.635L66.4664 224.598H103.661C103.765 222.009 102.061 219.667 99.8493 218.357C97.638 217.047 95.0603 216.565 92.5558 216.022C90.0513 215.478 87.4857 214.804 85.4638 213.216C83.277 211.493 81.927 208.731 81.9026 205.925" fill="black"/>
<path d="M13.9457 190.682L2.82212 206.259L39.1004 224.598C40.3343 222.33 39.8457 219.463 38.4468 217.294C37.048 215.126 34.9528 213.525 32.9553 211.907C30.9578 210.288 28.9542 208.527 27.8486 206.185C26.6513 203.658 26.6635 200.575 27.8791 198.054" fill="black"/>
<path d="M104.357 90.7968L99.44 101.437C99.44 101.437 111.626 105.057 112.842 103.995C113.569 103.358 113.08 102.765 113.08 102.765C113.08 102.765 114.271 103.284 114.858 102.777C115.45 102.271 115.096 101.548 115.096 101.548C115.096 101.548 116.19 101.844 116.373 100.806C116.574 99.6756 113.703 97.2597 110.722 95.0786" fill="#B0614E"/>
<path d="M114.821 101.813C114.821 101.813 113.196 100.04 110.667 98.619L111.04 97.9456C113.679 99.4285 115.316 101.22 115.383 101.294L114.821 101.813Z" fill="black"/>
<path d="M112.848 103.074C112.848 103.074 111.052 101.678 109.269 100.72L109.629 100.04C111.474 101.035 113.245 102.407 113.319 102.462L112.854 103.074H112.848Z" fill="black"/>
<path d="M105.848 96.5492C105.622 96.5492 105.396 96.5306 105.17 96.4874L105.304 95.7274C106.514 95.9436 107.827 95.4246 108.572 94.436L109.177 94.9056C108.401 95.9313 107.125 96.5492 105.848 96.5492Z" fill="black"/>
<path d="M110.722 95.0848C112.537 95.2084 115.066 94.4237 114.552 92.8172C114.015 91.1366 112.048 92.1437 110.044 91.9645C108.035 91.7854 104.357 90.7968 104.357 90.7968" fill="#B0614E"/>
<path d="M61.3353 46.7052L53.8341 51.7779L43.7429 46.217L48.1715 23.9426L55.856 29.2255L59.9059 32.0183L59.7166 38.2526L59.6066 41.9969L61.3353 46.7052Z" fill="#B0614E"/>
<path d="M55.856 29.2255L59.912 32.0121L59.7227 38.2526C56.5768 36.8562 53.9746 34.1623 52.8323 30.8752C53.8707 30.3191 54.8481 29.7754 55.8621 29.2255H55.856Z" fill="black"/>
<path d="M65.2997 31.215C59.8448 37.7088 52.8506 32.2777 52.8506 32.2777L47.127 21.8789L46.8887 21.4402L46.6016 20.915L46.2657 20.3095C46.2657 20.3095 46.2657 20.2786 46.2535 20.2168V20.1797C46.2412 20.1179 46.2351 20.0376 46.229 19.9326C46.2168 19.7966 46.2046 19.6236 46.1924 19.4197C46.1863 19.2961 46.1802 19.1664 46.174 19.0243C46.1069 17.1954 46.2535 13.7353 47.9577 10.788C49.3321 8.41536 51.7083 6.37019 55.7949 5.7585C58.2139 5.40013 60.3091 6.27751 62.0439 7.9087C62.1966 8.05699 62.3493 8.20528 62.4959 8.35975C62.5998 8.47097 62.7036 8.58219 62.8075 8.69958C62.838 8.73048 62.8624 8.76137 62.8869 8.79844C63.345 9.336 63.7665 9.92298 64.1635 10.5594C64.1758 10.5717 64.1819 10.5841 64.188 10.5965C64.2491 10.6891 64.304 10.7818 64.359 10.8807C64.6461 11.3688 64.921 11.8878 65.1714 12.4192C68.1157 18.6412 68.4395 27.4768 65.3058 31.215H65.2997Z" fill="#B0614E"/>
<path d="M61.3414 24.9683L61.2315 24.2021C61.4147 24.1774 61.5797 24.0724 61.6835 23.9179C61.7873 23.7634 61.824 23.5719 61.7812 23.3865L60.7 18.6165L61.4453 18.4435L62.5204 23.2135C62.612 23.6028 62.5326 24.023 62.3066 24.3566C62.0806 24.6903 61.7263 24.9127 61.3353 24.9683H61.3414Z" fill="black"/>
<path d="M57.5847 19.5248C57.6397 19.8894 57.4686 20.2169 57.2121 20.2601C56.9555 20.3034 56.699 20.0315 56.6501 19.6669C56.5951 19.3024 56.7662 18.9749 57.0227 18.9317C57.2793 18.8946 57.5358 19.1603 57.5847 19.5248Z" fill="black"/>
<path d="M64.7011 18.4683C64.7561 18.8328 64.585 19.1603 64.3285 19.2035C64.0719 19.2468 63.8154 18.9749 63.7665 18.6104C63.7115 18.2458 63.8826 17.9183 64.1391 17.8751C64.3957 17.838 64.6522 18.1037 64.7011 18.4683Z" fill="black"/>
<path d="M55.4467 16.4602C55.2574 16.5528 55.0741 16.6641 54.9397 16.8309C54.8053 16.9977 54.7381 17.2202 54.8115 17.4117C54.9275 17.733 55.3368 17.8257 55.685 17.8318C56.4302 17.8442 57.1815 17.6465 57.829 17.2758C58.0612 17.146 58.2933 16.9545 58.3177 16.7011C58.3788 16.1018 57.5725 15.9968 57.2548 16.0029C56.6379 16.0153 56.0026 16.1883 55.4467 16.4663V16.4602Z" fill="black"/>
<path d="M62.9541 15.1812C62.7769 15.2368 62.5998 15.3048 62.4593 15.4222C62.3188 15.5457 62.2272 15.7249 62.2638 15.9041C62.3188 16.2007 62.6547 16.3428 62.9541 16.3984C63.5954 16.5158 64.2735 16.4602 64.8905 16.2378C65.1104 16.1574 65.3425 16.0339 65.3975 15.8114C65.5379 15.2986 64.8538 15.0947 64.5789 15.0514C64.0414 14.9649 63.4672 15.0267 62.948 15.1812H62.9541Z" fill="black"/>
<path d="M60.4313 25.3699C60.4679 26.1485 59.8693 26.8158 59.0996 26.8528C58.3299 26.8899 57.6702 26.2844 57.6336 25.5059" fill="white"/>
<path d="M107.65 88.1708L99.4401 104.773C99.4401 104.773 88.6586 102.129 77.816 98.0074C76.7287 97.5934 75.6475 97.1671 74.5724 96.7284C71.1517 95.332 67.8347 93.7935 64.9699 92.1561H35.753L44.6469 41.3482C44.6469 41.3482 55.3368 52.124 59.6066 41.9908C59.6066 41.9908 68.7449 42.8435 71.3716 45.4941C73.9982 48.1448 83.3564 71.0618 83.3564 71.0618L107.65 88.1646V88.1708Z" fill="#E0E0E0"/>
<path d="M89.7581 208.551H57.2549L54.1456 171.386L51.3479 137.866L46.5772 126.065L30.9884 87.5096H73.3446L89.7581 208.551Z" fill="#4CAF50"/>
<path d="M59.0752 155.674C57.6152 160.882 55.6728 166.635 54.1456 171.386L51.3418 137.867L46.5711 126.059L46.2718 122.302L57.0899 106.621C57.0899 106.621 62.1355 144.731 59.0752 155.668V155.674Z" fill="#388E3C"/>
<path d="M57.0899 106.627C57.0899 106.627 59.3867 142.902 55.4467 156.397C51.5068 169.885 35.0933 206 35.0933 206L6.52386 193.086L24.4156 143.804L30.9822 87.5096" fill="#4CAF50"/>
<path d="M32.094 87.5096L30.5119 91.5814L30.9884 87.5096H32.094Z" fill="#999999"/>
<path d="M63.8887 87.5096C54.4022 95.3258 40.0839 104.266 29.7789 97.9023L30.5119 91.5814L32.094 87.5096H63.8887Z" fill="#388E3C"/>
<path d="M73.8577 78.1798C73.8577 78.1798 69.82 82.6223 63.8948 87.5035H32.1001L41.2323 63.9563L43.3947 66.1436L63.5832 60.49L73.8577 78.1736V78.1798Z" fill="#616161"/>
<path d="M62.16 67.6203C62.16 67.6203 63.4244 74.0029 64.5056 74.0029C65.5868 74.0029 67.5721 68.1702 67.5721 68.1702" fill="#DF7474"/>
<path d="M85.4089 67.6203C85.4089 67.6203 84.1444 74.0029 83.0632 74.0029C81.982 74.0029 79.9967 68.1702 79.9967 68.1702" fill="#DF7474"/>
<path d="M73.7844 71.4264C83.5915 71.4264 91.5418 66.4581 91.5418 60.3293C91.5418 54.2006 83.5915 49.2323 73.7844 49.2323C63.9773 49.2323 56.027 54.2006 56.027 60.3293C56.027 66.4581 63.9773 71.4264 73.7844 71.4264Z" fill="#F37E79"/>
<path d="M91.3891 63.7091C90.3445 63.7091 89.4954 62.1953 89.4954 60.3294C89.4954 58.4634 90.3445 56.9496 91.3891 56.9496C92.4336 56.9496 93.2827 58.4634 93.2827 60.3294C93.2827 62.1953 92.4336 63.7091 91.3891 63.7091Z" fill="#DF7474"/>
<path d="M86.7039 58.3212C86.4778 58.3212 86.2946 57.9937 86.2946 57.5921C86.2946 57.1905 86.4778 56.863 86.7039 56.863C86.9299 56.863 87.1131 57.1905 87.1131 57.5921C87.1131 57.9937 86.9299 58.3212 86.7039 58.3212Z" fill="black"/>
<path d="M57.3892 59.6744C55.8377 59.5199 54.39 58.5313 53.6264 57.1597C52.5391 57.2647 51.409 56.9805 50.505 56.3688L50.9326 55.7262C51.6228 56.1958 52.4658 56.4306 53.2965 56.412C53.0766 55.7571 53.0644 55.1516 53.2538 54.6449C53.5103 53.9776 54.2678 53.3968 55.0558 53.6192C55.4467 53.7304 55.7522 54.0208 55.9232 54.4348C56.1187 54.9168 56.0942 55.4914 55.8499 55.9301C55.575 56.4244 55.068 56.8013 54.4266 57.0052C55.0985 58.0494 56.2469 58.7847 57.4686 58.9082L57.3953 59.6744H57.3892ZM54.7076 54.336C54.39 54.336 54.0784 54.614 53.9624 54.9168C53.7852 55.3802 53.9196 55.9177 54.0662 56.3008C54.4449 56.2019 54.9336 55.9857 55.1841 55.547C55.3123 55.3122 55.3307 54.9909 55.2207 54.7252C55.178 54.614 55.068 54.4225 54.8542 54.3607C54.8053 54.3483 54.7626 54.3421 54.7137 54.3421L54.7076 54.336Z" fill="black"/>
<path d="M84.8896 54.0394C84.8896 54.0394 82.941 49.8069 82.1897 49.9923C81.4383 50.1777 81.0291 54.5831 81.0291 54.5831" fill="#DF7474"/>
<path d="M88.8663 54.5028C88.8663 54.5028 88.5364 49.8502 87.7667 49.7513C86.9971 49.6525 85.0668 53.6254 85.0668 53.6254" fill="#F37E79"/>
<path d="M76.8753 51.9386H70.6874V53.2176H76.8753V51.9386Z" fill="#DF7474"/>
<path d="M69.9849 63.0974C71.9824 61.9481 72.636 60.5456 71.903 59.5879C71.2983 58.8032 68.3601 60.7186 66.1183 62.7267C64.6095 64.0736 62.6792 65.3712 62.6792 65.3712" fill="#B0614E"/>
<path d="M28.6732 114.091C28.4045 114.091 28.1357 114.078 27.8608 114.047L27.9402 113.281C29.7789 113.479 31.4831 112.923 32.9919 111.632C39.7662 105.836 40.9635 87.2131 40.9757 87.0277L41.7393 87.0771C41.7393 87.1266 41.44 91.8966 40.2916 97.3339C38.74 104.68 36.4493 109.691 33.4867 112.225C32.0329 113.467 30.4142 114.097 28.6671 114.097L28.6732 114.091Z" fill="black"/>
<path d="M62.667 65.3712L67.7004 75.9554C67.7004 75.9554 78.1825 68.7077 78.1398 67.0765C78.1153 66.1003 77.3518 66.1127 77.3518 66.1127C77.3518 66.1127 78.5002 65.5071 78.4879 64.7286C78.4757 63.9501 77.6999 63.7647 77.6999 63.7647C77.6999 63.7647 78.6162 63.0974 77.9382 62.3004C77.1991 61.4292 73.534 62.1459 69.9788 63.1036" fill="#B0614E"/>
<path d="M72.6482 65.3774L72.3672 64.6607C75.1771 63.53 77.5778 63.3817 77.6816 63.3755L77.7244 64.1478C77.7244 64.1478 75.336 64.2961 72.6482 65.3774Z" fill="black"/>
<path d="M73.369 67.7995L73.0758 67.0889C75 66.2733 77.1746 65.7543 77.2662 65.7358L77.4434 66.4896C77.4434 66.4896 75.2382 67.0148 73.3751 67.8057L73.369 67.7995Z" fill="black"/>
<path d="M41.33 63.9315L42.8083 68.0837L62.502 62.1212L71.5304 77.7287C71.5304 77.7287 44.6103 107.436 26.7185 93.8243C8.82676 80.2064 28.5266 46.6681 32.1368 45.006C35.7469 43.3439 44.6469 41.3544 44.6469 41.3544" fill="#E0E0E0"/>
<path d="M77.816 98.0136C76.7287 97.5996 75.6475 97.1732 74.5724 96.7346L72.41 81.2815L77.816 98.0136Z" fill="#616161"/>
<path d="M77.6328 50.1035C79.5142 44.6724 71.396 42.0526 69.8567 47.4775C68.415 52.5503 75.9163 55.0403 77.6328 50.1035Z" fill="#F9C158"/>
<path d="M76.3194 49.603C77.5595 46.0317 72.2145 44.3016 71.2005 47.873C70.2537 51.2095 75.1894 52.853 76.3194 49.603Z" fill="#FBC343"/>
<path d="M62.4959 8.35983C61.0604 8.50194 59.5516 8.0756 58.4399 7.16733C57.4992 8.71202 55.9049 9.7933 54.109 9.7933C52.9972 13.8589 49.9857 17.3314 46.1802 19.0182C46.113 17.1893 46.2596 13.7292 47.9638 10.7819C49.3382 8.40926 51.7144 6.36409 55.801 5.75239C58.22 5.39403 60.3152 6.27141 62.05 7.9026C62.2027 8.05089 62.3554 8.19918 62.502 8.35365L62.4959 8.35983Z" fill="black"/>
<path d="M49.0023 19.5001C48.4525 18.8452 47.5179 18.5919 46.6872 18.771C45.8564 18.9564 45.1417 19.5248 44.6653 20.2354C43.5718 21.8604 43.7795 24.2516 45.1295 25.6604C46.4795 27.0691 48.8374 27.3533 50.4744 26.2968" fill="#B0614E"/>
<path d="M47.1392 24.542C46.6566 23.7326 46.4489 22.7563 46.5406 21.8172L45.5876 22.3362L45.2272 21.6565L46.8948 20.7482L47.4385 21.1993C47.1453 22.1693 47.2797 23.2692 47.7989 24.1404L47.1453 24.5358L47.1392 24.542Z" fill="black"/>
<path d="M10.3922 182.679L10.0773 183.383L39.097 196.673L39.4119 195.97L10.3922 182.679Z" fill="black"/>
<path d="M88.4203 199.66H56.6806V200.433H88.4203V199.66Z" fill="black"/>
<path d="M57.3991 63.8302L56.6678 64.0525L62.9418 85.1651L63.673 84.9428L57.3991 63.8302Z" fill="white"/>
<path d="M102.428 84.5399L89.6768 101.906L90.2898 102.367L103.041 85.0003L102.428 84.5399Z" fill="white"/>
<mask id="mask1_168_3191" style="mask-type:luminance" maskUnits="userSpaceOnUse" x="64" y="205" width="40" height="20">
<path d="M64.304 205.635L66.4664 224.598H103.661C103.765 222.009 102.061 219.667 99.8493 218.357C97.638 217.047 95.0603 216.565 92.5558 216.022C90.0513 215.478 87.4857 214.804 85.4638 213.216C83.277 211.493 81.927 208.731 81.9026 205.925" fill="white"/>
</mask>
<g mask="url(#mask1_168_3191)">
<path d="M121.492 220.767H62.1844V221.539H121.492V220.767Z" fill="white"/>
</g>
<mask id="mask2_168_3191" style="mask-type:luminance" maskUnits="userSpaceOnUse" x="2" y="190" width="38" height="35">
<path d="M13.9457 190.682L2.82212 206.259L39.1004 224.598C40.3343 222.33 39.8457 219.463 38.4468 217.294C37.048 215.126 34.9528 213.525 32.9553 211.907C30.9578 210.288 28.9542 208.527 27.8486 206.185C26.6513 203.658 26.6635 200.575 27.8791 198.054" fill="white"/>
</mask>
<g mask="url(#mask2_168_3191)">
<path d="M0.345467 200.569L0.00178909 201.258L44.3489 223.868L44.6926 223.178L0.345467 200.569Z" fill="white"/>
</g>
<path d="M98.1817 124.86C100.063 119.429 91.9449 116.809 90.4056 122.234C88.964 127.307 96.4652 129.797 98.1817 124.86Z" fill="#F9C158"/>
<path d="M96.8745 124.36C98.1145 120.788 92.7696 119.058 91.7556 122.63C90.8088 125.966 95.7444 127.61 96.8745 124.36Z" fill="#FBC343"/>
<path d="M28.2395 32.0492C30.1209 26.6181 22.0028 23.9983 20.4634 29.4232C19.0218 34.496 26.5231 36.986 28.2395 32.0492Z" fill="#F9C158"/>
<path d="M26.9323 31.5487C28.1723 27.9774 22.8274 26.2473 21.8134 29.8186C20.8666 33.1552 25.8023 34.7987 26.9323 31.5487Z" fill="#FBC343"/>
<path d="M237.932 22.4968C239.813 17.0657 231.695 14.4459 230.156 19.8708C228.714 24.9436 236.215 27.4336 237.932 22.4968Z" fill="#F9C158"/>
<path d="M236.618 21.9963C237.858 18.425 232.513 16.695 231.499 20.2663C230.553 23.6028 235.488 25.2463 236.618 21.9963Z" fill="#FBC343"/>
<path d="M212.698 123.513C214.579 118.082 206.461 115.462 204.921 120.887C203.48 125.96 210.981 128.45 212.698 123.513Z" fill="#F9C158"/>
<path d="M211.384 123.013C212.624 119.441 207.279 117.711 206.265 121.283C205.318 124.619 210.254 126.263 211.384 123.013Z" fill="#FBC343"/>
<path d="M124.546 70.4501C126.427 65.019 118.309 62.3992 116.77 67.8242C115.328 72.8969 122.829 75.3869 124.546 70.4501Z" fill="#F9C158"/>
<path d="M123.233 69.9496C124.473 66.3783 119.128 64.6483 118.114 68.2196C117.167 71.5561 122.103 73.1997 123.233 69.9496Z" fill="#FBC343"/>
<path d="M324.697 228.23H-26V228.92H324.697V228.23Z" fill="#373660"/>
</g>
<defs>
<clipPath id="clip0_168_3191">
<rect width="300" height="229.236" fill="white"/>
</clipPath>
</defs>
</svg>
