<svg width="301" height="230" viewBox="0 0 301 230" fill="none" xmlns="http://www.w3.org/2000/svg">
<g clip-path="url(#clip0_115_66)">
<path d="M16.9656 229H287.784C293.779 229 298.747 224.376 299.156 218.422C300.282 202.031 300.29 185.808 299.129 169.285C297.956 152.586 295.467 135.5 287.177 120.934C276.446 102.083 256.431 89.2241 235.012 85.3509C213.592 81.4788 191.059 86.1542 171.937 96.5112C155.303 105.521 140.562 118.856 122.121 123.147C100.322 128.221 77.5075 119.671 55.2412 121.991C31.3809 124.477 8.6744 141.588 3.41938 164.885C-1.38309 186.176 6.71896 209.708 16.9645 228.999L16.9656 229Z" fill="#F3F3F3"/>
<path d="M226.148 56.662L216.293 62.9482C216.293 62.9482 211.2 51.1322 212.095 49.7746C212.634 48.9625 213.272 49.3778 213.272 49.3778C213.272 49.3778 212.616 48.2433 213.033 47.5862C213.456 46.9291 214.209 47.1894 214.209 47.1894C214.209 47.1894 213.78 46.1293 214.779 45.8132C215.87 45.4722 218.61 48.0511 221.123 50.7851" fill="#FFB78F"/>
<path d="M217.66 51.2872C215.944 48.9129 214.013 47.5242 213.995 47.5056L214.436 46.8733C214.522 46.9353 216.483 48.3549 218.279 50.8285L217.66 51.2872Z" fill="black"/>
<path d="M215.766 52.961C214.596 51.2872 213.014 49.663 213.002 49.6506L213.547 49.105C213.615 49.1732 215.19 50.7851 216.397 52.5147L215.772 52.961H215.766Z" fill="black"/>
<path d="M199.623 47.8466L204.226 58.4475L230.733 46.2409L226.283 34.0406L199.623 47.8466Z" fill="#4CAF50"/>
<g opacity="0.4">
<path d="M219.511 47.89C221.399 42.4407 213.253 39.8122 211.709 45.2553C210.262 50.3449 217.789 52.8433 219.511 47.89Z" fill="white"/>
</g>
<path d="M220.449 56.5567C220.001 55.0936 220.424 53.395 221.503 52.3225L222.042 52.8743C221.166 53.7484 220.816 55.137 221.184 56.3273L220.455 56.5567H220.449Z" fill="black"/>
<path d="M221.129 50.7851C220.78 48.9748 221.233 46.3277 222.882 46.6439C224.604 46.9787 223.862 49.0802 224.291 51.0764C224.72 53.0726 226.155 56.6558 226.155 56.6558" fill="#FFB78F"/>
<path d="M256.964 14.7421C257.528 17.8231 256.431 20.9414 254.917 23.5389C253.403 26.1365 251.461 28.424 250.069 31.1021C248.672 33.7802 247.851 37.0659 248.813 40.0416C249.775 43.0173 252.447 45.1809 255.291 45.7326C258.135 46.2843 261.058 45.373 263.412 43.6682C265.765 41.9634 267.586 39.5208 269.056 36.8923C272.636 38.5661 276.405 40.178 280.088 39.0869C283.772 37.9958 286.94 34.4436 286.91 30.2466C286.879 26.6324 284.562 23.3467 281.755 21.3134C278.948 19.28 275.676 18.2447 272.507 17.0482C269.338 15.8517 266.121 14.3949 263.767 11.7602" fill="black"/>
<path d="M288.399 206.321L291.102 225.346H255.328C255.236 222.749 256.737 220.399 258.693 219.085C260.648 217.771 262.915 217.287 265.122 216.742C267.328 216.196 269.596 215.52 271.379 213.927C273.31 212.198 274.499 209.426 274.523 206.612" fill="black"/>
<path d="M264.337 197.672L272.225 215.161L237.897 225.346C237.088 222.879 237.873 220.195 239.381 218.384C240.888 216.568 242.935 215.458 244.903 214.305C246.87 213.152 248.856 211.863 250.124 209.823C251.497 207.616 251.865 204.616 251.105 201.913" fill="black"/>
<path d="M275.731 41.5481L274.297 47.6234L259.122 46.8733L260.874 42.1494L262.002 31.1269L272.397 24.0597L275.731 41.5481Z" fill="#FFB78F"/>
<path d="M268.1 31.0091C266.954 34.27 264.38 36.9481 261.261 38.3492L261.965 31.4617L265.067 29.3415C266.084 29.8995 267.065 30.445 268.1 31.0091Z" fill="black"/>
<path d="M257.117 33.3029C263.982 38.2996 269.498 31.3005 269.498 31.3005L272.869 18.7096L273.052 18.0401C273.052 18.0401 273.052 18.0277 273.052 18.0029C273.046 17.9471 273.034 17.8293 273.003 17.6681C272.985 17.5504 272.961 17.4016 272.936 17.2404L272.905 17.0668L272.887 16.98C272.55 15.238 271.6 11.7354 269.142 9.18743C267.261 7.23464 264.497 5.82739 260.439 6.19315C260.396 6.19315 260.347 6.19935 260.304 6.20555C259.826 6.24894 259.379 6.34193 258.95 6.47212C258.785 6.52171 258.619 6.57751 258.466 6.6395C258.27 6.71389 258.074 6.80068 257.89 6.89367C257.485 7.09205 257.099 7.33383 256.737 7.6128C255.15 8.82167 254.022 10.7125 253.299 12.938C253.232 13.1488 253.164 13.3596 253.103 13.5766C253.054 13.744 253.011 13.9051 252.968 14.0787C252.907 14.3143 252.852 14.5561 252.797 14.7978C252.784 14.8598 252.772 14.928 252.76 14.99L252.741 15.083C252.699 15.2876 252.662 15.4984 252.625 15.7153C251.503 22.3734 253.311 30.5566 257.124 33.3339L257.117 33.3029Z" fill="#FFB78F"/>
<path d="M259.348 26.2543C258.999 26.2543 258.656 26.1241 258.392 25.8885C258.092 25.6219 257.92 25.2314 257.914 24.8284L257.828 19.9185L258.595 19.9061L258.68 24.816C258.68 25.0082 258.766 25.1818 258.907 25.312C259.048 25.4421 259.232 25.4979 259.416 25.4793L259.489 26.2481C259.44 26.2481 259.397 26.2543 259.348 26.2543Z" fill="black"/>
<path d="M261.843 20.0301C261.88 20.4021 262.119 20.681 262.382 20.65C262.646 20.6252 262.823 20.3029 262.793 19.9371C262.756 19.5651 262.517 19.2862 262.253 19.3172C261.99 19.3482 261.812 19.6643 261.843 20.0301Z" fill="black"/>
<path d="M254.66 20.7368C254.697 21.1088 254.936 21.3878 255.199 21.3568C255.463 21.3258 255.64 21.0096 255.61 20.6438C255.579 20.2781 255.334 19.9929 255.07 20.0239C254.807 20.0549 254.629 20.3711 254.66 20.7368Z" fill="black"/>
<path d="M263.167 16.7382C263.375 16.7692 263.583 16.8188 263.761 16.9056C263.933 16.9924 264.061 17.135 264.049 17.2776C264.025 17.5132 263.657 17.6496 263.32 17.7115C262.603 17.8417 261.824 17.8355 261.089 17.6867C260.832 17.6372 260.55 17.5504 260.452 17.3768C260.231 16.98 260.979 16.7754 261.291 16.7258C261.892 16.6267 262.56 16.6453 263.167 16.7382Z" fill="black"/>
<path d="M255.604 17.2838C255.788 17.2838 255.978 17.29 256.131 17.3458C256.29 17.4016 256.419 17.5132 256.419 17.6433C256.425 17.8603 256.118 18.0401 255.837 18.1455C255.23 18.3687 254.556 18.4803 253.912 18.4555C253.685 18.4493 253.428 18.4059 253.33 18.2695C253.091 17.9409 253.716 17.6433 253.98 17.5566C254.488 17.383 255.064 17.2962 255.598 17.29L255.604 17.2838Z" fill="black"/>
<path d="M253.293 12.9071C253.82 12.7955 254.335 12.6095 254.813 12.3615C256.253 11.6114 257.522 10.2661 258.025 8.71009C259.71 13.9609 266.685 17.9161 272.924 17.228L272.893 17.0544L272.875 16.9676C272.538 15.2256 271.588 11.723 269.13 9.17504C267.248 7.22225 264.484 5.815 260.427 6.18076C260.384 6.18076 260.335 6.18696 260.292 6.19316C259.814 6.23655 259.367 6.32954 258.938 6.45973C258.772 6.50932 258.607 6.56512 258.454 6.62711C258.257 6.7015 258.061 6.78829 257.877 6.88128C257.473 7.07966 257.087 7.32144 256.725 7.60041C255.138 8.80928 254.01 10.7001 253.287 12.9256L253.293 12.9071Z" fill="black"/>
<path d="M270.239 18.1765C270.613 17.4016 271.471 16.9242 272.323 16.8994C273.175 16.8746 274.009 17.259 274.646 17.8355C276.098 19.1498 276.466 21.5303 275.486 23.2352C274.505 24.94 272.28 25.7893 270.429 25.1632" fill="#FFB78F"/>
<path d="M272.709 22.5532C272.685 21.5303 272.213 20.526 271.447 19.8627L271.667 19.1808L273.561 19.0444L273.616 19.8193L272.532 19.8999C273.108 20.65 273.451 21.5861 273.475 22.5346L272.709 22.5532Z" fill="black"/>
<path d="M263.62 5.73443C262.578 6.49695 261.064 6.50935 260.004 5.77163C258.95 5.03391 258.429 3.58946 258.76 2.33719C259.097 1.08492 260.262 0.105425 261.542 0.00623582C264.705 -0.235539 266.176 3.85603 263.614 5.72823L263.62 5.73443Z" fill="black"/>
<path d="M280.946 76.345C280.946 76.345 267.255 94.0193 240.913 97.6088C216.796 100.894 213.008 61.6091 213.008 61.6091L228.551 54.9262L236.886 70.3812L236.892 70.406C236.892 70.406 236.892 70.3998 236.898 70.3812C237.076 69.8295 240.055 60.3693 242.917 53.4322C244.357 49.9482 245.767 47.0965 246.778 46.3277C249.499 44.2634 260.93 42.0378 260.93 42.0378C266.807 51.2624 275.535 41.4799 275.535 41.4799L280.946 76.345Z" fill="#616161"/>
<path d="M281.412 83.6974L248.182 86.0408C248.182 86.0408 225.922 133.726 226.853 148.896C227.779 164.06 239.681 206.432 239.681 206.432L260.298 201.38L264.368 200.382L264.877 209.24H295.171C295.171 209.24 297.029 123.404 281.412 83.6912V83.6974ZM261.91 171.04L257.142 152.175L258.11 149.64L261.003 142.07L261.022 142.027L262.909 174.964L261.916 171.04H261.91Z" fill="#E0E0E0"/>
<path d="M286.052 98.6999C271.68 103.17 253.9 101.992 253.9 101.992L250.376 85.8858L281.412 83.6974C283.171 88.1733 284.71 93.2382 286.052 98.6999Z" fill="black"/>
<path d="M276.773 67.5915L287.351 84.1066L250.37 85.8858L249.414 81.509L275.847 72.9105L276.773 67.5915Z" fill="black"/>
<path d="M230.549 99.6607L226.933 89.5992L245.252 88.2725L230.549 99.6607Z" fill="#E6E6E6"/>
<path d="M242.929 53.4136L239.951 68.7446L236.898 70.3812C237.076 69.8295 240.055 60.3693 242.917 53.4322V53.4136H242.929Z" fill="black"/>
<path d="M245.589 66.4756L234.196 65.3907L231.848 94.7509L244.553 96.7533L245.589 66.4756Z" fill="#4CAF50"/>
<g opacity="0.4">
<path d="M235.881 84.0322C239.669 88.3531 245.902 82.4265 241.949 78.4156C238.253 74.6649 232.437 80.1018 235.881 84.0322Z" fill="white"/>
</g>
<path d="M229.096 66.488L219.253 72.3836L234.404 97.5406L245.847 91.614L229.096 66.488Z" fill="#4CAF50"/>
<g opacity="0.4">
<path d="M231.438 86.4685C237.009 87.7146 238.614 79.2215 233.086 78.3164C227.92 77.4733 226.363 85.3341 231.438 86.4685Z" fill="white"/>
</g>
<path d="M246.662 87.9006C244.363 88.1423 243.027 87.386 243.07 86.171C243.107 85.1729 246.613 84.9993 249.604 85.3092C251.614 85.5138 253.937 85.4332 253.937 85.4332" fill="#FFB78F"/>
<path d="M230.549 99.6607L230.365 86.8591L246.827 86.1276L247.875 98.6689L230.549 99.6607Z" fill="white"/>
<path d="M253.937 85.4332L255.947 97.0384C255.947 97.0384 243.211 97.3236 242.304 95.9659C241.765 95.1538 242.39 94.7137 242.39 94.7137C242.39 94.7137 241.103 94.8996 240.661 94.2549C240.22 93.6102 240.747 93.0026 240.747 93.0026C240.747 93.0026 239.613 93.0026 239.705 91.9487C239.803 90.8019 243.205 89.2148 246.662 87.9006" fill="#FFB78F"/>
<path d="M240.956 93.3312L240.545 92.6741C240.631 92.6183 242.678 91.3164 245.62 90.5787L245.804 91.3288C242.984 92.0356 240.974 93.3126 240.956 93.325V93.3312Z" fill="black"/>
<path d="M242.537 95.0732L242.243 94.3541C242.329 94.3169 244.4 93.4552 246.441 92.984L246.613 93.7404C244.633 94.1991 242.555 95.0608 242.531 95.0732H242.537Z" fill="black"/>
<path d="M276.773 67.5915L278.164 74.6278L251.111 82.6001L255.438 99.7971C255.438 99.7971 289.6 100.894 298.254 86.8219C306.908 72.7494 292.689 45.7016 288.209 43.3582C283.729 41.0149 275.535 41.4798 275.535 41.4798" fill="#616161"/>
<path d="M261.003 142.077L258.11 149.646L258.84 111.526L261.003 142.077Z" fill="#616161"/>
<path d="M262.903 174.964L264.362 200.388L260.292 201.38L261.91 171.04L262.903 174.964Z" fill="#616161"/>
<path d="M263.318 188.688L236.898 195.994L237.1 196.742L263.52 189.436L263.318 188.688Z" fill="black"/>
<path d="M236.88 70.3812L236.886 70.3876L236.88 70.3941V70.3812Z" fill="#999999"/>
<path d="M263.062 25.9381C263.283 26.6882 262.86 27.4817 262.112 27.7049C261.371 27.9281 260.586 27.5003 260.366 26.744" fill="white"/>
<path d="M257.07 80.9885L256.335 81.2083L261.765 99.7735L262.5 99.5537L257.07 80.9885Z" fill="white"/>
<path d="M230.984 59.6535L213.852 66.6902L214.14 67.4082L231.273 60.3715L230.984 59.6535Z" fill="white"/>
<path d="M295.153 198.844H264.258V199.619H295.153V198.844Z" fill="black"/>
<path d="M288.178 208.974L287.817 172.956L288.197 172.565H294.712V173.34H288.583L288.945 208.968L288.178 208.974Z" fill="white"/>
<mask id="mask0_115_66" style="mask-type:luminance" maskUnits="userSpaceOnUse" x="255" y="206" width="37" height="20">
<path d="M288.399 206.321L291.102 225.346H255.328C255.236 222.749 256.737 220.399 258.693 219.085C260.648 217.771 262.915 217.287 265.122 216.742C267.328 216.196 269.596 215.52 271.379 213.927C273.31 212.198 274.499 209.426 274.523 206.612" fill="white"/>
</mask>
<g mask="url(#mask0_115_66)">
<path d="M280.082 228.589L279.316 228.551C279.543 223.927 281.903 220.176 286.131 217.715C289.3 215.868 292.358 215.403 292.481 215.378L292.591 216.147C292.591 216.147 289.533 216.618 286.487 218.397C282.448 220.753 280.291 224.181 280.076 228.589H280.082Z" fill="white"/>
</g>
<path d="M172.313 164.425H98.699V225.346H172.313V164.425Z" fill="#616161"/>
<path d="M152.835 93.2196L163.266 115.76L182.076 131.86L174.66 144.848C174.66 144.848 149.881 141.37 141.742 118.873" fill="#E6E6E6"/>
<path d="M182.064 92.1347C183.657 90.4423 183.878 88.9049 182.897 88.2044C182.094 87.6278 179.82 90.3307 178.239 92.9159C177.173 94.6579 175.69 96.4619 175.69 96.4619" fill="#FFB78F"/>
<path d="M172.674 86.6731L177.675 76.2582L203.705 89.4752L198.801 101.496L172.674 86.6731Z" fill="#4CAF50"/>
<g opacity="0.4">
<path d="M192.55 87.3984C194.235 92.9159 185.992 95.2282 184.656 89.7294C183.406 84.5901 191.018 82.3832 192.55 87.3984Z" fill="white"/>
</g>
<path d="M175.69 96.4619L183.559 105.153C183.559 105.153 191.551 95.1166 191.042 93.5668C190.736 92.6369 190.013 92.8725 190.013 92.8725C190.013 92.8725 190.944 91.955 190.705 91.211C190.472 90.4671 189.676 90.5167 189.676 90.5167C189.676 90.5167 190.362 89.6054 189.486 89.0351C188.523 88.4151 185.208 90.1758 182.07 92.1409" fill="#FFB78F"/>
<path d="M185.281 93.542L184.803 92.9345C187.175 91.0251 189.443 90.1819 189.541 90.1447L189.804 90.8701C189.804 90.8701 187.555 91.7132 185.281 93.5358V93.542Z" fill="black"/>
<path d="M186.666 95.6622L186.182 95.067C187.8 93.7218 189.737 92.5873 189.817 92.5377L190.197 93.2072C190.197 93.2072 188.229 94.3603 186.666 95.6622Z" fill="black"/>
<path d="M201.063 195.416L210.839 210.889L244.351 201.807C243.689 199.297 241.372 197.561 238.872 196.966C236.371 196.371 233.76 196.687 231.199 196.91C228.637 197.133 225.983 197.263 223.574 196.34C220.976 195.342 218.873 193.097 218.028 190.419" fill="black"/>
<path d="M171.479 159.708L199.604 201.169L228.919 190.407C228.919 190.407 200.842 138.431 190.773 132.74C180.703 127.049 146.081 134.606 146.081 134.606" fill="#388E3C"/>
<path d="M152.958 98.9292L145.168 101.614L136.398 94.0441L145.309 73.1027L151.769 79.9034L155.176 83.4866L153.712 89.5744L152.835 93.2196L152.958 98.9292Z" fill="#FFB78F"/>
<path d="M151.769 79.9034L155.176 83.4928L153.712 89.5806C150.911 87.5534 148.907 84.3607 148.453 80.8953C149.587 80.5667 150.653 80.2382 151.763 79.9096L151.769 79.9034Z" fill="black"/>
<path d="M160.202 83.4742C153.944 89.2272 147.681 82.9101 147.681 82.9101L143.311 71.8195L143.127 71.3545L142.906 70.7966L142.655 70.1518C142.655 70.1518 142.655 70.1208 142.655 70.0526V70.0155C142.655 69.9535 142.655 69.8729 142.661 69.7675C142.667 69.6311 142.673 69.4575 142.686 69.2529C142.796 67.5605 143.311 63.8161 145.542 60.8962C147.209 58.714 149.838 56.9906 153.981 56.9162C156.433 56.879 158.406 58.0259 159.92 59.8671C160.153 60.1461 160.367 60.4437 160.582 60.7536C160.606 60.7846 160.631 60.8218 160.649 60.859C161.036 61.4541 161.385 62.0927 161.691 62.7746C161.704 62.787 161.704 62.7994 161.71 62.818C161.759 62.9172 161.802 63.0164 161.845 63.1218C162.071 63.6487 162.274 64.1943 162.457 64.7584C164.596 71.3359 163.793 80.17 160.19 83.4804L160.202 83.4742Z" fill="#FFB78F"/>
<path d="M157.058 76.7417L157.046 75.9668C157.236 75.9668 157.407 75.8862 157.536 75.7436C157.665 75.6011 157.72 75.4151 157.701 75.2291L157.236 70.344L157.996 70.2696L158.461 75.1547C158.498 75.5577 158.369 75.9606 158.106 76.2582C157.842 76.562 157.456 76.7355 157.058 76.7417Z" fill="black"/>
<path d="M154.012 70.8338C154.012 71.2057 153.81 71.5095 153.546 71.5157C153.283 71.5157 153.068 71.2243 153.062 70.8524C153.056 70.4804 153.264 70.1766 153.528 70.1704C153.791 70.1642 154.006 70.4618 154.012 70.8338Z" fill="black"/>
<path d="M161.225 70.7098C161.232 71.0817 161.023 71.3855 160.76 71.3917C160.496 71.3917 160.282 71.1003 160.276 70.7284C160.269 70.3564 160.478 70.0526 160.741 70.0464C161.005 70.0464 161.219 70.3378 161.225 70.7098Z" fill="black"/>
<path d="M152.277 67.5047C152.075 67.5729 151.879 67.6597 151.726 67.8085C151.573 67.9511 151.474 68.168 151.524 68.3726C151.597 68.7074 151.995 68.8562 152.339 68.9058C153.08 69.0112 153.852 68.9182 154.539 68.633C154.784 68.5338 155.041 68.3788 155.103 68.1247C155.238 67.5357 154.453 67.3311 154.134 67.2939C153.515 67.2257 152.86 67.3125 152.277 67.5171V67.5047Z" fill="black"/>
<path d="M159.908 67.2134C159.724 67.2444 159.54 67.2878 159.387 67.3931C159.234 67.4985 159.117 67.6659 159.129 67.8457C159.142 68.1433 159.467 68.3354 159.755 68.4284C160.38 68.633 161.06 68.664 161.704 68.5214C161.93 68.4718 162.176 68.3726 162.267 68.1619C162.47 67.6721 161.82 67.3745 161.55 67.294C161.029 67.139 160.447 67.1204 159.914 67.2072L159.908 67.2134Z" fill="black"/>
<path d="M159.191 60.5119C157.248 61.3984 152.467 61.9935 148.894 60.9272C147.846 64.529 145.634 67.7713 142.68 70.0403H142.661V70.0093C142.661 69.9473 142.661 69.8667 142.667 69.7613C142.674 69.6249 142.68 69.4513 142.692 69.2467C142.802 67.5543 143.317 63.8099 145.548 60.89C147.215 58.7079 149.863 57.1146 153.987 56.7489C156.181 56.5505 158.253 56.7365 159.479 57.6664C161.152 58.931 160.11 60.0965 159.185 60.5181L159.191 60.5119Z" fill="black"/>
<path d="M145.474 69.6931C145.015 68.9678 144.108 68.5958 143.262 68.6702C142.41 68.7446 141.625 69.222 141.062 69.8667C139.768 71.3421 139.67 73.7475 140.835 75.3283C141.999 76.9092 144.31 77.4919 146.075 76.6612" fill="#FFB78F"/>
<path d="M142.98 74.4666C142.606 73.5987 142.52 72.6006 142.729 71.6769L141.711 72.0736L141.435 71.3483L143.207 70.6602L143.691 71.1809C143.274 72.1108 143.268 73.2205 143.673 74.1566L142.974 74.4666H142.98Z" fill="black"/>
<path d="M185.514 206.321L187.684 225.346H225.002C225.106 222.749 223.397 220.399 221.178 219.085C218.959 217.771 216.373 217.287 213.86 216.742C211.347 216.196 208.773 215.52 206.744 213.927C204.55 212.198 203.196 209.426 203.171 206.612" fill="black"/>
<path d="M114.07 132.226C114.07 132.226 101.23 158.021 116.062 164.425H160.735L179.729 210.896H210.839C210.839 210.896 193.837 149.795 185.159 142.108C176.474 134.427 142.839 134.241 142.839 134.241" fill="#00B907"/>
<path d="M154.649 113.553C154.625 119.183 154.269 126.008 153.319 134.055C153.319 134.055 151.009 134.724 147.472 135.462C138.328 137.371 120.984 139.746 114.076 132.226C114.076 132.226 123.668 90.6469 138.494 88.9359C138.494 88.9359 147.595 96.3317 152.841 93.2196C152.841 93.2196 154.717 99.8529 154.655 113.553H154.649Z" fill="white"/>
<path d="M154.649 113.553C154.625 119.183 154.269 126.008 153.319 134.055C153.319 134.055 151.009 134.724 147.472 135.462C133.063 129.597 129.454 106.523 129.454 106.523L154.655 113.553H154.649Z" fill="#E6E6E6"/>
<path d="M128.902 105.153C128.902 105.153 137.838 134.749 155.489 134.241C173.14 133.732 185.692 105.333 185.692 105.333L174.66 93.9883L156.935 106.065L150.065 96.5487" fill="white"/>
<path d="M155.397 78.9487C154.962 78.9487 154.521 78.7875 154.202 78.4838C153.785 78.0932 153.583 77.4795 153.675 76.8967L154.429 77.0207C154.373 77.3493 154.49 77.7026 154.717 77.9196C155.011 78.1986 155.501 78.2606 155.85 78.0622L156.218 78.7379C155.967 78.8805 155.679 78.9487 155.391 78.9487H155.397Z" fill="black"/>
<path d="M146.314 131.879L145.762 131.339C145.952 131.141 150.457 126.523 156.169 126.696C159.338 126.795 162.231 128.364 164.774 131.358L164.192 131.86C161.795 129.039 159.093 127.564 156.151 127.471C150.782 127.304 146.351 131.835 146.308 131.879H146.314Z" fill="black"/>
<path d="M186.771 210.945L164.241 158.703H119.096L118.82 158.586C115.768 155.418 114.916 150.378 116.356 144.011C117.435 139.25 119.433 135.363 119.451 135.326L120.132 135.685C120.113 135.722 118.152 139.535 117.104 144.203C116.154 148.406 115.768 154.184 119.261 157.935H164.492L164.841 158.17L187.475 210.642L186.771 210.951V210.945Z" fill="white"/>
<path d="M193.788 222.371C191.882 222.371 190.331 220.802 190.331 218.874C190.331 216.946 191.882 215.378 193.788 215.378C195.694 215.378 197.245 216.946 197.245 218.874C197.245 220.802 195.694 222.371 193.788 222.371ZM193.788 216.153C192.305 216.153 191.097 217.374 191.097 218.874C191.097 220.374 192.305 221.596 193.788 221.596C195.271 221.596 196.479 220.374 196.479 218.874C196.479 217.374 195.271 216.153 193.788 216.153Z" fill="white"/>
<path d="M215.129 207.188C213.223 207.188 211.672 205.62 211.672 203.692C211.672 201.764 213.223 200.196 215.129 200.196C217.035 200.196 218.585 201.764 218.585 203.692C218.585 205.62 217.035 207.188 215.129 207.188ZM215.129 200.964C213.646 200.964 212.438 202.186 212.438 203.686C212.438 205.186 213.646 206.407 215.129 206.407C216.612 206.407 217.819 205.186 217.819 203.686C217.819 202.186 216.612 200.964 215.129 200.964Z" fill="white"/>
<path d="M64.5184 206.321L66.688 225.346H104.007C104.111 222.749 102.401 220.399 100.182 219.085C97.9635 217.771 95.3771 217.287 92.8643 216.742C90.3515 216.196 87.7774 215.52 85.7487 213.927C83.5546 212.198 82.2001 209.426 82.1756 206.612" fill="black"/>
<path d="M13.9922 191.318L2.83154 206.947L39.2308 225.346C40.4688 223.071 39.9785 220.195 38.575 218.019C37.1715 215.843 35.0693 214.237 33.0652 212.613C31.061 210.989 29.0508 209.222 27.9414 206.872C26.7402 204.337 26.7524 201.243 27.9721 198.714" fill="black"/>
<path d="M104.705 91.0995L99.7715 101.775C99.7715 101.775 111.999 105.408 113.218 104.341C113.948 103.703 113.457 103.108 113.457 103.108C113.457 103.108 114.652 103.628 115.241 103.12C115.835 102.612 115.48 101.886 115.48 101.886C115.48 101.886 116.577 102.184 116.761 101.142C116.963 100.008 114.082 97.584 111.092 95.3956" fill="#B0614E"/>
<path d="M115.204 102.153C115.204 102.153 113.574 100.374 111.036 98.9478L111.41 98.2721C114.058 99.7599 115.7 101.558 115.768 101.632L115.204 102.153Z" fill="black"/>
<path d="M113.224 103.418C113.224 103.418 111.422 102.017 109.633 101.056L109.994 100.374C111.845 101.372 113.623 102.748 113.696 102.804L113.231 103.418H113.224Z" fill="black"/>
<path d="M106.201 96.8711C105.974 96.8711 105.747 96.8525 105.52 96.8091L105.655 96.0465C106.869 96.2635 108.186 95.7428 108.934 94.7509L109.541 95.222C108.763 96.2511 107.482 96.8711 106.201 96.8711Z" fill="black"/>
<path d="M111.092 95.4018C112.912 95.5258 115.449 94.7385 114.934 93.1266C114.395 91.4404 112.421 92.4509 110.411 92.2711C108.395 92.0914 104.705 91.0995 104.705 91.0995" fill="#B0614E"/>
<path d="M61.5398 46.8609L54.0135 51.9506L43.8887 46.3711L48.3321 24.0225L56.0422 29.3229L60.1056 32.125L59.9156 38.3802L59.8053 42.137L61.5398 46.8609Z" fill="#B0614E"/>
<path d="M56.0422 29.3229L60.1118 32.1188L59.9218 38.3802C56.7654 36.9791 54.1545 34.2762 53.0084 30.9782C54.0503 30.4202 55.0309 29.8747 56.0483 29.3229H56.0422Z" fill="black"/>
<path d="M65.5174 31.3191C60.0444 37.8346 53.0268 32.3854 53.0268 32.3854L47.2841 21.9518L47.0451 21.5117L46.757 20.9847L46.4199 20.3772C46.4199 20.3772 46.4199 20.3462 46.4077 20.2842V20.247C46.3954 20.185 46.3893 20.1044 46.3832 19.9991C46.3709 19.8627 46.3587 19.6891 46.3464 19.4845C46.3403 19.3605 46.3341 19.2303 46.328 19.0877C46.2606 17.2527 46.4077 13.7811 48.1176 10.824C49.4966 8.44346 51.8807 6.39148 55.9809 5.77774C58.408 5.41818 60.5102 6.29849 62.2508 7.93512C62.404 8.0839 62.5572 8.23269 62.7043 8.38767C62.8085 8.49926 62.9127 8.61085 63.0169 8.72863C63.0475 8.75963 63.072 8.79063 63.0965 8.82782C63.5562 9.36717 63.9791 9.95611 64.3775 10.5946C64.3897 10.607 64.3959 10.6194 64.402 10.6318C64.4633 10.7248 64.5184 10.8178 64.5736 10.917C64.8616 11.4068 65.1374 11.9275 65.3887 12.4606C68.3428 18.7034 68.6677 27.5685 65.5236 31.3191H65.5174Z" fill="#B0614E"/>
<path d="M61.5459 25.0516L61.4356 24.2829C61.6195 24.2581 61.785 24.1527 61.8891 23.9977C61.9933 23.8427 62.0301 23.6505 61.9872 23.4645L60.9024 18.6786L61.6501 18.5051L62.7288 23.291C62.8207 23.6815 62.7411 24.1031 62.5143 24.4378C62.2875 24.7726 61.9321 24.9958 61.5398 25.0516H61.5459Z" fill="black"/>
<path d="M57.7767 19.59C57.8318 19.9557 57.6602 20.2843 57.4028 20.3277C57.1454 20.3711 56.888 20.0983 56.8389 19.7326C56.7838 19.3668 56.9554 19.0382 57.2128 18.9948C57.4702 18.9576 57.7276 19.2242 57.7767 19.59Z" fill="black"/>
<path d="M64.9168 18.5299C64.972 18.8956 64.8003 19.2242 64.5429 19.2676C64.2855 19.311 64.0281 19.0382 63.9791 18.6725C63.9239 18.3067 64.0955 17.9781 64.3529 17.9347C64.6104 17.8975 64.8678 18.1641 64.9168 18.5299Z" fill="black"/>
<path d="M55.6316 16.5151C55.4416 16.6081 55.2577 16.7197 55.1229 16.8871C54.988 17.0544 54.9206 17.2776 54.9942 17.4698C55.1106 17.7922 55.5212 17.8852 55.8706 17.8914C56.6183 17.9037 57.3722 17.7054 58.0218 17.3334C58.2547 17.2032 58.4876 17.011 58.5121 16.7569C58.5734 16.1555 57.7644 16.0501 57.4457 16.0563C56.8267 16.0687 56.1893 16.2423 55.6316 16.5213V16.5151Z" fill="black"/>
<path d="M63.1639 15.2318C62.9862 15.2876 62.8085 15.3558 62.6675 15.4736C62.5265 15.5976 62.4346 15.7773 62.4714 15.9571C62.5265 16.2547 62.8636 16.3973 63.1639 16.4531C63.8075 16.5709 64.4878 16.5151 65.1068 16.2919C65.3274 16.2113 65.5603 16.0873 65.6155 15.8641C65.7564 15.3496 65.07 15.145 64.7942 15.1016C64.2549 15.0148 63.6788 15.0768 63.1578 15.2318H63.1639Z" fill="black"/>
<path d="M60.6327 25.4545C60.6695 26.2356 60.0688 26.9052 59.2966 26.9424C58.5244 26.9796 57.8625 26.372 57.8257 25.5909" fill="white"/>
<path d="M108.009 88.4647L99.7716 105.122C99.7716 105.122 88.9541 102.469 78.0754 98.3341C76.9845 97.9187 75.8997 97.491 74.821 97.0508C71.3889 95.6498 68.0609 94.1061 65.1865 92.4633H35.8722L44.7958 41.4861C44.7958 41.4861 55.5213 52.2977 59.8053 42.1308C59.8053 42.1308 68.9741 42.9863 71.6095 45.6458C74.2449 48.3053 83.6343 71.2987 83.6343 71.2987L108.009 88.4585V88.4647Z" fill="#E0E0E0"/>
<path d="M90.0573 209.247H57.4457L54.3261 171.958L51.5191 138.326L46.7325 126.485L31.0917 87.8014H73.5891L90.0573 209.247Z" fill="#4CAF50"/>
<path d="M59.2721 156.193C57.8073 161.419 55.8583 167.19 54.3261 171.958L51.513 138.326L46.7263 126.479L46.426 122.71L57.2802 106.976C57.2802 106.976 62.3426 145.214 59.2721 156.186V156.193Z" fill="#388E3C"/>
<path d="M57.2803 106.982C57.2803 106.982 59.5847 143.379 55.6316 156.918C51.6785 170.451 35.2103 206.686 35.2103 206.686L6.54565 193.73L24.4971 144.284L31.0856 87.8014" fill="#4CAF50"/>
<path d="M32.201 87.8014L30.6136 91.8868L31.0916 87.8014H32.201Z" fill="#999999"/>
<path d="M64.1017 87.8014C54.5836 95.6436 40.2175 104.614 29.8782 98.2287L30.6136 91.8868L32.201 87.8014H64.1017Z" fill="#388E3C"/>
<path d="M74.1039 78.4404C74.1039 78.4404 70.0527 82.8977 64.1077 87.7952H32.2071L41.3697 64.1695L43.5393 66.3641L63.7952 60.6917L74.1039 78.4342V78.4404Z" fill="#616161"/>
<path d="M62.3672 67.8457C62.3672 67.8457 63.6359 74.2496 64.7207 74.2496C65.8055 74.2496 67.7973 68.3974 67.7973 68.3974" fill="#DF7474"/>
<path d="M85.6936 67.8457C85.6936 67.8457 84.4249 74.2496 83.3401 74.2496C82.2553 74.2496 80.2634 68.3974 80.2634 68.3974" fill="#DF7474"/>
<path d="M74.0304 71.6645C83.8702 71.6645 91.8469 66.6796 91.8469 60.5305C91.8469 54.3813 83.8702 49.3964 74.0304 49.3964C64.1906 49.3964 56.2138 54.3813 56.2138 60.5305C56.2138 66.6796 64.1906 71.6645 74.0304 71.6645Z" fill="#F37E79"/>
<path d="M91.6937 63.9215C90.6457 63.9215 89.7938 62.4027 89.7938 60.5304C89.7938 58.6582 90.6457 57.1394 91.6937 57.1394C92.7417 57.1394 93.5937 58.6582 93.5937 60.5304C93.5937 62.4027 92.7417 63.9215 91.6937 63.9215Z" fill="#DF7474"/>
<path d="M86.9929 58.5157C86.7661 58.5157 86.5823 58.1871 86.5823 57.7841C86.5823 57.3812 86.7661 57.0526 86.9929 57.0526C87.2197 57.0526 87.4035 57.3812 87.4035 57.7841C87.4035 58.1871 87.2197 58.5157 86.9929 58.5157Z" fill="black"/>
<path d="M57.5805 59.8733C56.0238 59.7183 54.5713 58.7264 53.8052 57.3502C52.7142 57.4556 51.5804 57.1704 50.6733 56.5567L51.1024 55.9119C51.7949 56.3831 52.6407 56.6187 53.4742 56.6001C53.2536 55.9429 53.2413 55.3354 53.4313 54.827C53.6887 54.1575 54.4487 53.5748 55.2393 53.7979C55.6316 53.9095 55.938 54.2009 56.1096 54.6163C56.3058 55.0998 56.2812 55.6763 56.0361 56.1165C55.7603 56.6124 55.2516 56.9906 54.6081 57.1952C55.2822 58.2429 56.4345 58.9806 57.6602 59.1046L57.5867 59.8733H57.5805ZM54.89 54.5171C54.5713 54.5171 54.2587 54.796 54.1423 55.0998C53.9645 55.5648 54.0994 56.1041 54.2465 56.4885C54.6264 56.3893 55.1168 56.1723 55.368 55.7321C55.4967 55.4966 55.5151 55.1742 55.4048 54.9076C55.3619 54.796 55.2516 54.6039 55.0371 54.5419C54.9881 54.5295 54.9451 54.5233 54.8961 54.5233L54.89 54.5171Z" fill="black"/>
<path d="M85.1726 54.2195C85.1726 54.2195 83.2175 49.973 82.4637 50.159C81.7098 50.3449 81.2992 54.7651 81.2992 54.7651" fill="#DF7474"/>
<path d="M89.1625 54.6845C89.1625 54.6845 88.8315 50.0164 88.0593 49.9172C87.2871 49.818 85.3503 53.8042 85.3503 53.8042" fill="#F37E79"/>
<path d="M77.1316 52.1117H70.923V53.395H77.1316V52.1117Z" fill="#DF7474"/>
<path d="M70.2182 63.3078C72.2224 62.1547 72.8781 60.7474 72.1427 59.7865C71.5359 58.9992 68.5879 60.921 66.3387 62.9358C64.8248 64.2873 62.8881 65.5891 62.8881 65.5891" fill="#B0614E"/>
<path d="M28.7688 114.471C28.4991 114.471 28.2295 114.459 27.9537 114.428L28.0334 113.659C29.8781 113.857 31.5881 113.299 33.1019 112.004C39.8988 106.189 41.1001 87.5039 41.1123 87.3179L41.8784 87.3675C41.8784 87.4171 41.5781 92.203 40.4259 97.6584C38.8692 105.029 36.5708 110.057 33.5983 112.599C32.1397 113.845 30.5155 114.477 28.7627 114.477L28.7688 114.471Z" fill="black"/>
<path d="M62.8759 65.5891L67.926 76.2086C67.926 76.2086 78.4431 68.9368 78.4002 67.3002C78.3757 66.3207 77.6096 66.3331 77.6096 66.3331C77.6096 66.3331 78.7618 65.7255 78.7496 64.9444C78.7373 64.1633 77.959 63.9773 77.959 63.9773C77.959 63.9773 78.8783 63.3078 78.198 62.5081C77.4564 61.634 73.7791 62.3531 70.2121 63.314" fill="#B0614E"/>
<path d="M72.8904 65.5953L72.6085 64.8762C75.4277 63.7417 77.8364 63.593 77.9406 63.5868L77.9835 64.3617C77.9835 64.3617 75.5871 64.5105 72.8904 65.5953Z" fill="black"/>
<path d="M73.6136 68.0255L73.3194 67.3126C75.25 66.4942 77.4319 65.9735 77.5238 65.9549L77.7015 66.7112C77.7015 66.7112 75.489 67.2382 73.6197 68.0317L73.6136 68.0255Z" fill="black"/>
<path d="M41.4678 64.1447L42.951 68.3106L62.7104 62.3283L71.7688 77.9878C71.7688 77.9878 44.759 107.794 26.8076 94.1371C8.85621 80.4738 28.6217 46.8237 32.2439 45.1561C35.866 43.4884 44.7958 41.4922 44.7958 41.4922" fill="#E0E0E0"/>
<path d="M78.0754 98.3403C76.9845 97.9249 75.8997 97.4972 74.821 97.057L72.6514 81.5525L78.0754 98.3403Z" fill="#616161"/>
<path d="M77.8915 50.2705C79.7792 44.8213 71.634 42.1928 70.0895 47.6358C68.6431 52.7255 76.1693 55.2238 77.8915 50.2705Z" fill="#F9C158"/>
<path d="M76.5738 49.7684C77.818 46.1852 72.4552 44.4493 71.4378 48.0326C70.4879 51.3802 75.44 53.0292 76.5738 49.7684Z" fill="#FBC343"/>
<path d="M62.7043 8.38773C61.264 8.53032 59.7502 8.10256 58.6347 7.19126C57.6909 8.7411 56.0912 9.82598 54.2894 9.82598C53.1739 13.9052 50.1524 17.3892 46.3341 19.0816C46.2667 17.2466 46.4138 13.775 48.1237 10.8179C49.5027 8.43733 51.8868 6.38534 55.987 5.77161C58.4141 5.41205 60.5163 6.29235 62.2569 7.92898C62.4101 8.07777 62.5633 8.22655 62.7104 8.38154L62.7043 8.38773Z" fill="black"/>
<path d="M49.1657 19.5652C48.6141 18.908 47.6763 18.6539 46.8428 18.8336C46.0093 19.0196 45.2922 19.59 44.8142 20.3029C43.7171 21.9333 43.9255 24.3325 45.28 25.7459C46.6344 27.1594 49.0002 27.4445 50.6427 26.3844" fill="#B0614E"/>
<path d="M47.2963 24.6238C46.8121 23.8117 46.6038 22.8322 46.6957 21.8899L45.7396 22.4107L45.378 21.7287L47.0512 20.8174L47.5966 21.27C47.3025 22.2433 47.4373 23.3468 47.9582 24.2209L47.3024 24.6176L47.2963 24.6238Z" fill="black"/>
<path d="M10.4268 183.288L10.1108 183.994L39.2273 197.329L39.5433 196.623L10.4268 183.288Z" fill="black"/>
<path d="M88.7151 200.326H56.8696V201.101H88.7151V200.326Z" fill="black"/>
<path d="M57.5904 64.043L56.8567 64.266L63.1516 85.449L63.8853 85.226L57.5904 64.043Z" fill="white"/>
<path d="M102.769 84.8217L89.9758 102.246L90.5908 102.708L103.384 85.2837L102.769 84.8217Z" fill="white"/>
<mask id="mask1_115_66" style="mask-type:luminance" maskUnits="userSpaceOnUse" x="64" y="206" width="41" height="20">
<path d="M64.5184 206.321L66.688 225.346H104.007C104.111 222.749 102.401 220.399 100.182 219.085C97.9635 217.771 95.3771 217.287 92.8643 216.742C90.3515 216.196 87.7774 215.52 85.7487 213.927C83.5546 212.198 82.2001 209.426 82.1756 206.612" fill="white"/>
</mask>
<g mask="url(#mask1_115_66)">
<path d="M121.897 221.503H62.3917V222.278H121.897V221.503Z" fill="white"/>
</g>
<mask id="mask2_115_66" style="mask-type:luminance" maskUnits="userSpaceOnUse" x="2" y="191" width="38" height="35">
<path d="M13.9922 191.318L2.83154 206.947L39.2308 225.346C40.4688 223.071 39.9785 220.195 38.575 218.019C37.1715 215.843 35.0693 214.237 33.0652 212.613C31.061 210.989 29.0508 209.222 27.9414 206.872C26.7402 204.337 26.7524 201.243 27.9721 198.714" fill="white"/>
</mask>
<g mask="url(#mask2_115_66)">
<path d="M0.346654 201.237L0.00183105 201.929L44.4968 224.614L44.8416 223.922L0.346654 201.237Z" fill="white"/>
</g>
<path d="M98.509 125.276C100.397 119.827 92.2514 117.199 90.7069 122.642C89.2605 127.731 96.7868 130.23 98.509 125.276Z" fill="#F9C158"/>
<path d="M97.1974 124.774C98.4416 121.191 93.0788 119.455 92.0614 123.038C91.1115 126.386 96.0636 128.035 97.1974 124.774Z" fill="#FBC343"/>
<path d="M28.3337 32.156C30.2214 26.7068 22.0761 24.0783 20.5316 29.5213C19.0852 34.611 26.6115 37.1093 28.3337 32.156Z" fill="#F9C158"/>
<path d="M27.0221 31.6539C28.2663 28.0707 22.9035 26.3348 21.8861 29.9181C20.9362 33.2657 25.8883 34.9147 27.0221 31.6539Z" fill="#FBC343"/>
<path d="M238.725 22.5718C240.612 17.1226 232.467 14.4941 230.923 19.9371C229.476 25.0268 237.003 27.5251 238.725 22.5718Z" fill="#F9C158"/>
<path d="M237.407 22.0697C238.651 18.4865 233.289 16.7506 232.271 20.3339C231.321 23.6815 236.273 25.3305 237.407 22.0697Z" fill="#FBC343"/>
<path d="M213.406 123.925C215.294 118.476 207.149 115.847 205.604 121.29C204.158 126.38 211.684 128.878 213.406 123.925Z" fill="#F9C158"/>
<path d="M212.089 123.423C213.333 119.84 207.97 118.104 206.953 121.687C206.003 125.035 210.955 126.684 212.089 123.423Z" fill="#FBC343"/>
<path d="M124.961 70.685C126.849 65.2357 118.704 62.6072 117.159 68.0502C115.713 73.1399 123.239 75.6382 124.961 70.685Z" fill="#F9C158"/>
<path d="M123.643 70.1828C124.888 66.5996 119.525 64.8638 118.507 68.447C117.557 71.7946 122.51 73.4437 123.643 70.1828Z" fill="#FBC343"/>
<path d="M325.697 228.991H-25V229.683H325.697V228.991Z" fill="#373660"/>
</g>
<defs>
<clipPath id="clip0_115_66">
<rect width="301" height="230" fill="white"/>
</clipPath>
</defs>
</svg>
