<svg width="265" height="203" viewBox="0 0 265 203" fill="none" xmlns="http://www.w3.org/2000/svg">
<path fill-rule="evenodd" clip-rule="evenodd" d="M42.595 201.977C19.1645 201.977 0 183.467 0 160.849C0 138.225 19.1704 119.72 42.595 119.72C52.5001 119.72 60.6036 111.895 60.6036 102.331C60.6036 92.7675 52.5001 84.9429 42.595 84.9429H40.4533C30.1551 84.9429 21.7288 76.8067 21.7288 66.8631C21.7288 56.9194 30.1551 48.7832 40.4533 48.7832H47.0253C51.0331 48.7832 54.3132 45.616 54.3132 41.7462C54.3132 37.8764 51.0331 34.7092 47.0253 34.7092H42.196C39.4264 34.7092 37.1672 32.5222 37.1672 29.8535C37.1672 27.1792 39.4323 24.9979 42.196 24.9979H74.6748C79.0229 24.9979 82.5789 21.5643 82.5789 17.3659C82.5789 13.1675 79.0229 9.73398 74.6748 9.73398H64.9635C62.1938 9.73398 59.9347 7.54695 59.9347 4.87832C59.9347 2.20403 62.1997 0.0226635 64.9635 0.0226635H203.082C206.691 0.0226635 209.648 2.87827 209.648 6.36278C209.648 9.8473 206.691 12.7029 203.082 12.7029H193.124C187.45 12.7029 182.808 17.1846 182.808 22.6635C182.808 28.1424 187.45 32.6241 193.124 32.6241H235.772C239.381 32.6241 242.338 35.4797 242.338 38.9643C242.338 42.4488 239.387 45.3044 235.772 45.3044H229.47C224.236 45.3044 219.958 49.4405 219.958 54.4888C219.958 59.5427 224.236 63.6732 229.47 63.6732H238.049C251.486 63.6732 262.483 74.291 262.483 87.2659C262.483 100.241 251.486 110.859 238.049 110.859H235.25C222.323 110.859 211.749 121.069 211.749 133.551C211.749 146.032 222.323 156.242 235.25 156.242H241.305C254.338 156.242 265 166.537 265 179.121C265 191.705 254.338 202 241.305 202H42.595V201.977ZM219.882 12.6802C223.508 12.6802 226.448 9.84164 226.448 6.34012C226.448 2.83861 223.508 0 219.882 0C216.255 0 213.316 2.83861 213.316 6.34012C213.316 9.84164 216.255 12.6802 219.882 12.6802ZM28.0779 34.6979C30.8593 34.6979 33.1067 32.5222 33.1067 29.8422C33.1067 27.1622 30.8534 24.9865 28.0779 24.9865C25.3024 24.9865 23.0491 27.1622 23.0491 29.8422C23.0491 32.5222 25.3024 34.6979 28.0779 34.6979Z" fill="#C1DBF2"/>
<path fill-rule="evenodd" clip-rule="evenodd" d="M133.424 39.9218H54.0727C54.2311 40.4997 54.3191 41.1116 54.3191 41.7405C54.3191 45.6103 51.0389 48.7776 47.0312 48.7776H40.4591C30.161 48.7776 21.7347 56.9138 21.7347 66.8574C21.7347 66.9084 21.7347 66.9651 21.7347 67.016H133.43C141.146 67.016 147.46 60.9196 147.46 53.4689C147.46 46.0183 141.146 39.9218 133.43 39.9218H133.424Z" fill="#DCE9F7"/>
<path fill-rule="evenodd" clip-rule="evenodd" d="M23.4481 59.3104H147.454V201.977H42.595C19.1645 201.977 0 183.467 0 160.849C0 138.225 19.1704 119.72 42.595 119.72C52.5 119.72 60.6036 111.895 60.6036 102.331C60.6036 92.7675 52.5 84.9429 42.595 84.9429H40.4533C30.1551 84.9429 21.7288 76.8067 21.7288 66.8631C21.7288 64.1718 22.3449 61.6165 23.4481 59.3161V59.3104Z" fill="#CDE0F3"/>
<path fill-rule="evenodd" clip-rule="evenodd" d="M22.1982 70.8688H137.356C140.653 70.8688 143.353 73.9567 143.353 77.7359V201.977H42.595C19.1645 201.977 0 183.467 0 160.849C0 138.225 19.1704 119.72 42.595 119.72C52.5001 119.72 60.6036 111.895 60.6036 102.331C60.6036 92.7675 52.5001 84.9429 42.595 84.9429H40.4533C31.581 84.9429 24.0994 78.9031 22.1982 70.8745V70.8688Z" fill="#C1DBF2"/>
<path fill-rule="evenodd" clip-rule="evenodd" d="M59.5944 96.6033H143.347V108.292H59.5063C60.2164 106.428 60.6036 104.422 60.6036 102.331C60.6036 100.326 60.2457 98.3994 59.5944 96.6089V96.6033Z" fill="#CDE0F3"/>
<path fill-rule="evenodd" clip-rule="evenodd" d="M149.226 91.6286H56.7719C59.1718 94.5862 60.6095 98.303 60.6095 102.326C60.6095 102.66 60.5977 102.989 60.5801 103.317H149.232C151.409 103.317 153.181 101.601 153.181 99.5042V95.4474C153.181 93.3511 151.403 91.6343 149.232 91.6343L149.226 91.6286Z" fill="#DCE9F7"/>
<path fill-rule="evenodd" clip-rule="evenodd" d="M1.66648 149.483H143.353V161.172H0C0 161.064 0 160.956 0 160.849C0 156.911 0.580922 153.098 1.66648 149.483Z" fill="#CDE0F3"/>
<path fill-rule="evenodd" clip-rule="evenodd" d="M149.226 144.514H3.52663C1.87775 148.168 0.762853 152.095 0.275818 156.203H149.226C151.403 156.203 153.176 154.486 153.176 152.39V148.333C153.176 146.236 151.398 144.52 149.226 144.52V144.514Z" fill="#DCE9F7"/>
<path fill-rule="evenodd" clip-rule="evenodd" d="M149.226 197.394H23.1136C28.9581 200.323 35.5829 201.977 42.5951 201.977H153.176V201.207C153.176 199.11 151.398 197.388 149.226 197.388V197.394Z" fill="white"/>
<path fill-rule="evenodd" clip-rule="evenodd" d="M149.226 53.4689H27.9018C24.5278 56.4265 22.2628 60.5456 21.811 65.1576H149.226C151.403 65.1576 153.176 63.4409 153.176 61.3445V57.2877C153.176 55.1913 151.398 53.4689 149.226 53.4689Z" fill="#DCE9F7"/>
<path fill-rule="evenodd" clip-rule="evenodd" d="M32.7839 50.534H136.411C139.216 50.534 141.51 48.041 141.51 44.9984C141.51 43.8143 141.164 42.7207 140.577 41.8199C144.632 43.8596 147.46 48.3243 147.46 53.4689H27.9019C29.3454 52.2734 30.9884 51.2819 32.7839 50.5397V50.534Z" fill="#CDE0F3"/>
<path d="M121.084 114.989H138.406C139.222 114.989 139.885 115.629 139.885 116.417V143.086C139.885 143.874 139.222 144.514 138.406 144.514H121.09C120.274 144.514 119.611 143.874 119.611 143.086V116.417C119.611 115.629 120.274 114.989 121.09 114.989H121.084Z" fill="#EAEAE6"/>
<path d="M108.48 114.989H117.276C117.692 114.989 118.027 115.312 118.027 115.714V143.789C118.027 144.191 117.692 144.514 117.276 144.514H108.48C108.063 144.514 107.729 144.191 107.729 143.789V115.714C107.729 115.312 108.063 114.989 108.48 114.989Z" fill="#E7E9E3"/>
<path d="M99.6251 109.425H109.865C110.346 109.425 110.739 109.805 110.739 110.269V143.67C110.739 144.134 110.346 144.514 109.865 144.514H99.6251C99.1439 144.514 98.7508 144.134 98.7508 143.67V110.269C98.7508 109.805 99.1439 109.425 99.6251 109.425Z" fill="#B3CEEB"/>
<path d="M95.8814 130.842H113.614C114.183 130.842 114.647 131.29 114.647 131.839V143.517C114.647 144.066 114.183 144.514 113.614 144.514H95.8814C95.3122 144.514 94.8486 144.066 94.8486 143.517V131.839C94.8486 131.29 95.3122 130.842 95.8814 130.842Z" fill="#B8D3EE"/>
<path d="M91.8267 119.465H83.0307C82.6159 119.465 82.2796 119.79 82.2796 120.19V143.789C82.2796 144.189 82.6159 144.514 83.0307 144.514H91.8267C92.2415 144.514 92.5778 144.189 92.5778 143.789V120.19C92.5778 119.79 92.2415 119.465 91.8267 119.465Z" fill="#B8D3EE"/>
<path d="M124.464 121.607H135.038C135.584 121.607 136.03 122.037 136.03 122.564V128.157C136.03 128.689 135.584 129.114 135.038 129.114H124.464C123.918 129.114 123.472 128.683 123.472 128.157V122.564C123.472 122.037 123.918 121.607 124.464 121.607Z" fill="#E3E2DC"/>
<path d="M124.305 130.837H135.19C135.654 130.837 136.03 131.199 136.03 131.647V132.417C136.03 132.865 135.654 133.228 135.19 133.228H124.305C123.842 133.228 123.466 132.865 123.466 132.417V131.641C123.466 131.193 123.842 130.837 124.3 130.837H124.305Z" fill="#E3E2DC"/>
<path d="M124.305 135.466H135.19C135.654 135.466 136.03 135.828 136.03 136.276V137.046C136.03 137.494 135.654 137.857 135.19 137.857H124.305C123.842 137.857 123.466 137.494 123.466 137.046V136.27C123.466 135.822 123.842 135.466 124.3 135.466H124.305Z" fill="#E3E2DC"/>
<path fill-rule="evenodd" clip-rule="evenodd" d="M87.4258 129.511C86.2287 129.511 85.2605 130.621 85.2605 131.992C85.2605 133.364 86.2287 134.474 87.4258 134.474C88.6228 134.474 89.591 133.364 89.591 131.992C89.591 130.621 88.6228 129.511 87.4258 129.511Z" fill="#B3CEEB"/>
<path d="M87.4257 87.1243H92.079C92.4076 87.1243 92.6775 87.3792 92.6775 87.7022V91.0621C92.6775 91.3793 92.4134 91.6343 92.0848 91.6343H87.4257C87.0971 91.6343 86.8331 91.3793 86.8331 91.0621V87.7022C86.8331 87.3849 87.0971 87.1243 87.4316 87.1243H87.4257Z" fill="#DCE9F7"/>
<path d="M84.6209 79.8436H71.8465C71.3539 79.8436 70.9546 80.2292 70.9546 80.7048V90.7731C70.9546 91.2488 71.3539 91.6343 71.8465 91.6343H84.6209C85.1135 91.6343 85.5128 91.2488 85.5128 90.7731V80.7048C85.5128 80.2292 85.1135 79.8436 84.6209 79.8436Z" fill="#B8D3EE"/>
<path d="M69.7868 83.6001H78.4889C78.8234 83.6001 79.0933 83.8607 79.0933 84.1837V91.0451C79.0933 91.368 78.8234 91.6287 78.4889 91.6287H69.7868C69.4524 91.6287 69.1824 91.368 69.1824 91.0451V84.1837C69.1824 83.8607 69.4524 83.6001 69.7868 83.6001Z" fill="#B3CEEB"/>
<path d="M64.893 72.614H72.4333C72.7912 72.614 73.0787 72.8916 73.0787 73.2372V91.0111C73.0787 91.3567 72.7912 91.6343 72.4333 91.6343H64.893C64.5351 91.6343 64.2476 91.3567 64.2476 91.0111V73.2372C64.2476 72.8916 64.5351 72.614 64.893 72.614Z" fill="#DCE9F7"/>
<path fill-rule="evenodd" clip-rule="evenodd" d="M119.699 78.4385H119.212V77.5546H119.376C119.682 77.5546 119.928 77.2713 119.928 76.92C119.928 76.5687 119.682 76.2854 119.376 76.2854H118.772V72.546C118.772 72.1947 118.52 71.9114 118.22 71.9114C117.915 71.9114 117.669 72.1947 117.669 72.546V76.2854H117.064C116.759 76.2854 116.507 76.5687 116.507 76.92C116.507 77.2713 116.759 77.5546 117.064 77.5546H117.235V78.4385H116.742C116.401 78.4385 116.126 78.7558 116.126 79.1467V90.9204C116.126 91.3114 116.401 91.6286 116.742 91.6286H119.705C120.045 91.6286 120.327 91.3114 120.327 90.9204V79.1467C120.327 78.7558 120.051 78.4385 119.705 78.4385H119.699Z" fill="#B3CEEB"/>
<path fill-rule="evenodd" clip-rule="evenodd" d="M124.493 79.821H124.053V79.0277H124.206C124.476 79.0277 124.705 78.7728 124.705 78.4612C124.705 78.1495 124.482 77.8946 124.206 77.8946H123.666V74.5517C123.666 74.2401 123.443 73.9851 123.167 73.9851C122.891 73.9851 122.668 74.2401 122.668 74.5517V77.8946H122.129C121.853 77.8946 121.63 78.1495 121.63 78.4612C121.63 78.7728 121.853 79.0277 122.129 79.0277H122.275V79.821H121.835C121.53 79.821 121.278 80.1043 121.278 80.4555V90.9941C121.278 91.3454 121.53 91.6287 121.835 91.6287H124.487C124.793 91.6287 125.039 91.3454 125.039 90.9941V80.4555C125.039 80.1043 124.793 79.821 124.487 79.821H124.493Z" fill="#B3CEEB"/>
<path d="M125.379 79.1637H132.691C133.037 79.1637 133.313 79.4357 133.313 79.7643V91.0281C133.313 91.3624 133.031 91.6287 132.691 91.6287H125.379C125.033 91.6287 124.757 91.3567 124.757 91.0281V79.7643C124.757 79.43 125.039 79.1581 125.385 79.1581L125.379 79.1637Z" fill="#DCE9F7"/>
<path d="M126.805 81.957H131.271C131.5 81.957 131.687 82.1383 131.687 82.3593V84.7219C131.687 84.9429 131.5 85.1299 131.265 85.1299H126.799C126.57 85.1299 126.377 84.9486 126.377 84.7219V82.3593C126.377 82.1383 126.565 81.9513 126.799 81.9513L126.805 81.957Z" fill="#F5F6F5"/>
<path d="M126.735 85.8551H131.329C131.523 85.8551 131.681 86.0081 131.681 86.1951V86.5237C131.681 86.7107 131.523 86.8636 131.329 86.8636H126.735C126.541 86.8636 126.383 86.7107 126.383 86.5237V86.1951C126.383 86.0081 126.541 85.8551 126.735 85.8551Z" fill="#F5F6F5"/>
<path d="M126.735 87.8098H131.329C131.523 87.8098 131.681 87.9628 131.681 88.1498V88.4784C131.681 88.6654 131.523 88.8184 131.329 88.8184H126.735C126.541 88.8184 126.383 88.6654 126.383 88.4784V88.1498C126.383 87.9628 126.541 87.8098 126.735 87.8098Z" fill="#F5F6F5"/>
<path d="M119.153 83.9684H123.648C123.859 83.9684 124.03 84.1327 124.03 84.3367V91.2547C124.03 91.4587 123.859 91.623 123.648 91.623H119.153C118.942 91.623 118.772 91.4587 118.772 91.2547V84.3367C118.772 84.1327 118.942 83.9684 119.153 83.9684Z" fill="#B8D3EE"/>
<path d="M114.113 72.9029H98.874C98.1546 72.9029 97.5714 73.466 97.5714 74.1607V90.3765C97.5714 91.0711 98.1546 91.6343 98.874 91.6343H114.113C114.832 91.6343 115.416 91.0711 115.416 90.3765V74.1607C115.416 73.466 114.832 72.9029 114.113 72.9029Z" fill="#B8D3EE"/>
<path d="M117.023 83.9684H112.523C112.312 83.9684 112.141 84.1333 112.141 84.3367V91.2604C112.141 91.4638 112.312 91.6287 112.523 91.6287H117.023C117.234 91.6287 117.405 91.4638 117.405 91.2604V84.3367C117.405 84.1333 117.234 83.9684 117.023 83.9684Z" fill="#DCE9F7"/>
<path fill-rule="evenodd" clip-rule="evenodd" d="M45.9808 79.8436H58.7611C59.2482 79.8436 59.653 80.2289 59.653 80.7048V90.7731C59.653 91.2433 59.254 91.6343 58.7611 91.6343H56.7719C53.9553 88.1668 49.8067 85.7474 45.0948 85.1072V80.6991C45.0948 80.2289 45.4938 79.8379 45.9867 79.8379L45.9808 79.8436Z" fill="#B3CEEB"/>
<path fill-rule="evenodd" clip-rule="evenodd" d="M52.1187 83.6001H60.8208C61.1552 83.6001 61.4252 83.8607 61.4252 84.1837V91.045C61.4252 91.368 61.1552 91.6286 60.8208 91.6286H56.7719C55.3343 89.8552 53.5446 88.3594 51.5143 87.2319V84.1837C51.5143 83.8607 51.7842 83.6001 52.1187 83.6001Z" fill="#B8D3EE"/>
<path fill-rule="evenodd" clip-rule="evenodd" d="M49.7422 85.9797H52.6351C52.77 85.9797 52.8815 86.0874 52.8815 86.2177V88.0761C51.8312 87.3622 50.6928 86.756 49.4957 86.2744V86.2234C49.4957 86.093 49.6072 85.9854 49.7422 85.9854V85.9797Z" fill="#F0F1EE"/>
<path fill-rule="evenodd" clip-rule="evenodd" d="M30.9179 75.2429H23.8765C25.6427 78.4725 28.3947 81.1354 31.7336 82.8409V76.0305C31.7336 75.5942 31.3639 75.2372 30.9121 75.2372L30.9179 75.2429Z" fill="#EAEAE6"/>
<path fill-rule="evenodd" clip-rule="evenodd" d="M29.0461 78.9144H26.5346C27.45 79.9003 28.4827 80.7898 29.5976 81.566V79.447C29.5976 79.1524 29.3512 78.9144 29.0461 78.9144Z" fill="#E3E2DC"/>
<path fill-rule="evenodd" clip-rule="evenodd" d="M36.5863 123.743H35.8118V122.349H36.0758C36.557 122.349 36.9501 121.901 36.9501 121.346C36.9501 120.797 36.557 120.343 36.0758 120.343H35.178C33.9575 120.553 32.7546 120.814 31.5751 121.125C31.5634 121.199 31.5517 121.273 31.5517 121.346C31.5517 121.896 31.9448 122.349 32.426 122.349H32.69V123.743H31.9155C31.3815 123.743 30.9414 124.247 30.9414 124.859V143.392C30.9414 144.004 31.3815 144.508 31.9155 144.508H36.5863C37.1203 144.508 37.5604 144.004 37.5604 143.392V124.859C37.5604 124.247 37.1203 123.743 36.5863 123.743Z" fill="#B3CEEB"/>
<path fill-rule="evenodd" clip-rule="evenodd" d="M44.1324 125.924H43.44V124.678H43.6747C44.1031 124.678 44.4551 124.275 44.4551 123.782C44.4551 123.29 44.1031 122.887 43.6747 122.887H42.818V119.72C42.7417 119.72 42.6654 119.72 42.5892 119.72C42.1432 119.72 41.7031 119.731 41.2571 119.743V122.887H40.4004C39.9721 122.887 39.62 123.29 39.62 123.782C39.62 124.275 39.9721 124.678 40.4004 124.678H40.6351V125.924H39.9427C39.4616 125.924 39.0684 126.372 39.0684 126.921V143.511C39.0684 144.061 39.4616 144.508 39.9427 144.508H44.1207C44.6018 144.508 44.995 144.061 44.995 143.511V126.921C44.995 126.372 44.6018 125.924 44.1207 125.924H44.1324Z" fill="#DEDED7"/>
<path d="M45.529 124.887H57.0418C57.5816 124.887 58.0217 125.312 58.0217 125.834V143.562C58.0217 144.083 57.5816 144.508 57.0418 144.508H45.529C44.9891 144.508 44.5432 144.083 44.5432 143.556V125.828C44.5432 125.307 44.9832 124.882 45.5231 124.882L45.529 124.887Z" fill="#F9F9FA"/>
<path d="M47.7705 129.284H54.8002C55.164 129.284 55.4574 129.567 55.4574 129.919V133.635C55.4574 133.987 55.164 134.276 54.7944 134.276H47.7646C47.4008 134.276 47.1074 133.992 47.1074 133.641V129.924C47.1074 129.573 47.4008 129.284 47.7705 129.284Z" fill="#F5F6F5"/>
<path d="M54.9059 135.42H47.6708C47.3629 135.42 47.1133 135.661 47.1133 135.958V136.468C47.1133 136.766 47.3629 137.007 47.6708 137.007H54.9059C55.2138 137.007 55.4634 136.766 55.4634 136.468V135.958C55.4634 135.661 55.2138 135.42 54.9059 135.42Z" fill="#F5F6F5"/>
<path d="M54.9059 138.497H47.6708C47.3629 138.497 47.1133 138.738 47.1133 139.035V139.545C47.1133 139.842 47.3629 140.083 47.6708 140.083H54.9059C55.2138 140.083 55.4634 139.842 55.4634 139.545V139.035C55.4634 138.738 55.2138 138.497 54.9059 138.497Z" fill="#F5F6F5"/>
<path d="M35.7296 132.451H42.8063C43.1407 132.451 43.4107 132.712 43.4107 133.035V143.93C43.4107 144.253 43.1407 144.514 42.8063 144.514H35.7296C35.3951 144.514 35.1252 144.253 35.1252 143.93V133.035C35.1252 132.712 35.3951 132.451 35.7296 132.451Z" fill="#EAEAE6"/>
<path fill-rule="evenodd" clip-rule="evenodd" d="M3.53833 144.497C3.62635 144.508 3.71437 144.514 3.80239 144.514H27.7962C28.9228 144.514 29.8441 143.624 29.8441 142.537V121.618C18.0555 125.216 8.44389 133.658 3.53833 144.497Z" fill="#C1DBF2"/>
<path d="M32.3731 132.451H25.3023C24.9685 132.451 24.6979 132.713 24.6979 133.035V143.93C24.6979 144.253 24.9685 144.514 25.3023 144.514H32.3731C32.7069 144.514 32.9775 144.253 32.9775 143.93V133.035C32.9775 132.713 32.7069 132.451 32.3731 132.451Z" fill="#C1DBF2"/>
<path d="M62.1234 190.861H68.8773C69.3526 190.861 69.7399 191.235 69.7399 191.694V196.561C69.7399 197.02 69.3526 197.394 68.8773 197.394H62.1234C61.6481 197.394 61.2608 197.02 61.2608 196.561V191.694C61.2608 191.235 61.6481 190.861 62.1234 190.861Z" fill="#EAEAE6"/>
<path d="M72.9379 180.3H91.4629C92.1729 180.3 92.7538 180.861 92.7538 181.546V196.147C92.7538 196.833 92.1729 197.394 91.4629 197.394H72.9379C72.2279 197.394 71.647 196.833 71.647 196.147V181.546C71.647 180.861 72.2279 180.3 72.9379 180.3Z" fill="#EAEAE6"/>
<path d="M81.8337 185.75H94.4496C94.9367 185.75 95.3298 186.13 95.3298 186.6V196.544C95.3298 197.014 94.9367 197.394 94.4496 197.394H81.8337C81.3466 197.394 80.9535 197.014 80.9535 196.544V186.6C80.9535 186.13 81.3466 185.75 81.8337 185.75Z" fill="#E1E1D9"/>
<path d="M101.55 169.829H90.6179C90.1026 169.829 89.6849 170.232 89.6849 170.73V196.493C89.6849 196.99 90.1026 197.394 90.6179 197.394H101.55C102.065 197.394 102.483 196.99 102.483 196.493V170.73C102.483 170.232 102.065 169.829 101.55 169.829Z" fill="#B8D3EE"/>
<path fill-rule="evenodd" clip-rule="evenodd" d="M22.0927 178.266H22.8027V176.979H22.5621C22.122 176.979 21.7582 176.566 21.7582 176.062C21.7582 175.552 22.122 175.138 22.5621 175.138H23.4423V169.721C23.4423 169.217 23.8061 168.798 24.2462 168.798C24.6863 168.798 25.0501 169.212 25.0501 169.721V175.138H25.9303C26.3704 175.138 26.7342 175.552 26.7342 176.062C26.7342 176.572 26.3704 176.979 25.9303 176.979H25.6897V178.266H26.3997C26.8926 178.266 27.2975 178.73 27.2975 179.291V196.362C27.2975 196.929 26.8926 197.394 26.3997 197.394H23.1254C22.4741 197.071 21.8345 196.725 21.2066 196.368V179.297C21.2066 178.73 21.6115 178.271 22.1044 178.271L22.0927 178.266Z" fill="#DEDED7"/>
<path fill-rule="evenodd" clip-rule="evenodd" d="M15.1392 180.271H15.7729V179.121H15.5558C15.1626 179.121 14.834 178.747 14.834 178.294C14.834 177.841 15.1568 177.467 15.5558 177.467H16.3421V172.617C16.3421 172.163 16.6648 171.795 17.0638 171.795C17.457 171.795 17.7856 172.163 17.7856 172.617V177.467H18.5719C18.965 177.467 19.2936 177.835 19.2936 178.294C19.2936 178.747 18.9709 179.121 18.5719 179.121H18.3548V180.271H18.9885C19.4286 180.271 19.7924 180.685 19.7924 181.189V195.535C17.8619 194.345 16.0428 193.008 14.3353 191.546V181.189C14.3353 180.685 14.6932 180.271 15.1392 180.271Z" fill="#DEDED7"/>
<path fill-rule="evenodd" clip-rule="evenodd" d="M4.56525 179.319H13.8541C14.3529 179.319 14.7578 179.71 14.7578 180.192V191.92C10.5681 188.413 7.09431 184.135 4.56525 179.319Z" fill="#F9F9FA"/>
<path fill-rule="evenodd" clip-rule="evenodd" d="M7.00043 183.365H11.7886C12.1231 183.365 12.3989 183.631 12.3989 183.954V187.376C12.3989 187.699 12.1231 187.966 11.7886 187.966H10.6385C9.31825 186.521 8.10359 184.985 7.00043 183.365Z" fill="#F5F6F5"/>
<path fill-rule="evenodd" clip-rule="evenodd" d="M11.6361 189.019H11.8825C12.1642 189.019 12.393 189.24 12.393 189.512V189.779C12.1348 189.529 11.8825 189.274 11.6302 189.019H11.6361Z" fill="#F5F6F5"/>
<path fill-rule="evenodd" clip-rule="evenodd" d="M16.3597 186.289H22.8731C23.1782 186.289 23.4305 186.532 23.4305 186.827V196.861C23.4305 197.093 23.2721 197.297 23.055 197.365C20.4731 196.068 18.0438 194.521 15.8022 192.765V186.827C15.8022 186.532 16.0487 186.289 16.3597 186.289Z" fill="#EAEAE6"/>
<path d="M52.2888 170.237H30.1904C29.1501 170.237 28.3068 171.051 28.3068 172.056V195.575C28.3068 196.579 29.1501 197.394 30.1904 197.394H52.2888C53.3291 197.394 54.1724 196.579 54.1724 195.575V172.056C54.1724 171.051 53.3291 170.237 52.2888 170.237Z" fill="#EAEAE6"/>
<path d="M25.9713 186.289H32.4906C32.7957 186.289 33.048 186.527 33.048 186.827V196.861C33.048 197.156 32.8015 197.399 32.4906 197.399H25.9772C25.6721 197.399 25.4197 197.156 25.4197 196.861V186.827C25.4197 186.532 25.6662 186.289 25.9772 186.289H25.9713Z" fill="#F9F9FA"/>
<path d="M133.031 190.861H139.779C140.254 190.861 140.642 191.235 140.642 191.694V196.561C140.642 197.02 140.254 197.394 139.779 197.394H133.025C132.55 197.394 132.163 197.02 132.163 196.561V191.694C132.163 191.235 132.55 190.861 133.025 190.861H133.031Z" fill="#EAEAE6"/>
<path d="M110.44 180.3H128.965C129.675 180.3 130.256 180.861 130.256 181.546V196.147C130.256 196.833 129.675 197.394 128.965 197.394H110.44C109.73 197.394 109.149 196.833 109.149 196.147V181.546C109.149 180.861 109.73 180.3 110.44 180.3Z" fill="#EAEAE6"/>
<path d="M107.453 185.75H120.069C120.556 185.75 120.949 186.13 120.949 186.6V196.544C120.949 197.014 120.556 197.394 120.069 197.394H107.453C106.966 197.394 106.573 197.014 106.573 196.544V186.6C106.573 186.13 106.966 185.75 107.453 185.75Z" fill="#E1E1D9"/>
<path d="M119.318 189.201H123.513C123.713 189.201 123.871 189.354 123.871 189.546V197.048C123.871 197.241 123.713 197.394 123.513 197.394H119.318C119.118 197.394 118.96 197.241 118.96 197.048V189.546C118.96 189.354 119.118 189.201 119.318 189.201Z" fill="#F0F1EE"/>
<path fill-rule="evenodd" clip-rule="evenodd" d="M26.1121 133.992H10.4038C5.63905 139.307 2.25327 145.8 0.798035 152.945C1.34375 153.239 1.97161 153.404 2.63469 153.404H26.1121C28.207 153.404 29.9204 151.749 29.9204 149.727V137.67C29.9204 135.647 28.207 133.992 26.1121 133.992Z" fill="#331C38"/>
<path d="M16.3069 133.992H39.7843C41.885 133.992 43.5926 135.641 43.5926 137.67V149.727C43.5926 151.755 41.885 153.404 39.7843 153.404H16.3127C14.212 153.404 12.5045 151.755 12.5045 149.727V137.67C12.5045 135.641 14.212 133.992 16.3127 133.992H16.3069Z" fill="#4F3F55"/>
<path d="M34.5443 133.086H38.5403C39.0567 133.086 39.4792 133.494 39.4792 133.992V136.344C39.4792 136.842 39.0567 137.25 38.5403 137.25H34.5443C34.0279 137.25 33.6054 136.842 33.6054 136.344V133.992C33.6054 133.494 34.0279 133.086 34.5443 133.086Z" fill="#331C38"/>
<path d="M35.3834 133.086H38.5344C39.0508 133.086 39.4733 133.494 39.4733 133.992V136.344C39.4733 136.842 39.0508 137.25 38.5344 137.25H35.3834C34.867 137.25 34.4445 136.842 34.4445 136.344V133.992C34.4445 133.494 34.867 133.086 35.3834 133.086Z" fill="#4F3F55"/>
<path fill-rule="evenodd" clip-rule="evenodd" d="M38.0064 134.865C37.8186 134.865 37.6602 135.012 37.6602 135.194V136.718H36.4103V135.194C36.4103 135.012 36.2577 134.865 36.0641 134.865C35.8763 134.865 35.7238 135.012 35.7238 135.194V139.256C35.7238 139.556 35.9819 139.806 36.2929 139.806H37.7775C38.0885 139.806 38.3467 139.556 38.3467 139.256V135.194C38.3467 135.012 38.1941 134.865 38.0064 134.865Z" fill="#3F2C44"/>
<path d="M17.8853 133.086H21.8814C22.3977 133.086 22.8202 133.494 22.8202 133.992V136.344C22.8202 136.842 22.3977 137.25 21.8814 137.25H17.8853C17.369 137.25 16.9465 136.842 16.9465 136.344V133.992C16.9465 133.494 17.369 133.086 17.8853 133.086Z" fill="#331C38"/>
<path d="M18.7303 133.086H21.8814C22.3977 133.086 22.8202 133.494 22.8202 133.992V136.344C22.8202 136.842 22.3977 137.25 21.8814 137.25H18.7303C18.2139 137.25 17.7914 136.842 17.7914 136.344V133.992C17.7914 133.494 18.2139 133.086 18.7303 133.086Z" fill="#4F3F55"/>
<path fill-rule="evenodd" clip-rule="evenodd" d="M21.3533 134.865C21.1655 134.865 21.0071 135.012 21.0071 135.194V136.718H19.7572V135.194C19.7572 135.012 19.6047 134.865 19.411 134.865C19.2232 134.865 19.0707 135.012 19.0707 135.194V139.256C19.0707 139.556 19.3289 139.806 19.6399 139.806H21.1244C21.4354 139.806 21.6936 139.556 21.6936 139.256V135.194C21.6936 135.012 21.5411 134.865 21.3533 134.865Z" fill="#5A4A60"/>
<path fill-rule="evenodd" clip-rule="evenodd" d="M40.6293 141.284H15.4678C15.0922 141.284 14.7812 141.585 14.7812 141.947C14.7812 142.31 15.0922 142.61 15.4678 142.61H40.6293C41.0049 142.61 41.3159 142.31 41.3159 141.947C41.3159 141.585 41.0049 141.284 40.6293 141.284Z" fill="#331C38"/>
<path fill-rule="evenodd" clip-rule="evenodd" d="M40.6293 144.089H15.4678C15.0922 144.089 14.7812 144.389 14.7812 144.752C14.7812 145.115 15.0922 145.415 15.4678 145.415H40.6293C41.0049 145.415 41.3159 145.115 41.3159 144.752C41.3159 144.389 41.0049 144.089 40.6293 144.089Z" fill="#331C38"/>
<path d="M40.6293 146.888H15.4678C15.0886 146.888 14.7812 147.185 14.7812 147.551C14.7812 147.917 15.0886 148.214 15.4678 148.214H40.6293C41.0085 148.214 41.3159 147.917 41.3159 147.551C41.3159 147.185 41.0085 146.888 40.6293 146.888Z" fill="#331C38"/>
<path d="M40.6293 149.693H15.4678C15.0886 149.693 14.7812 149.989 14.7812 150.355C14.7812 150.722 15.0886 151.018 15.4678 151.018H40.6293C41.0085 151.018 41.3159 150.722 41.3159 150.355C41.3159 149.989 41.0085 149.693 40.6293 149.693Z" fill="#331C38"/>
<path d="M15.2037 153.149H45.6287C48.3514 153.149 50.5636 155.285 50.5636 157.914V173.54C50.5636 176.169 48.3514 178.305 45.6287 178.305H15.2037C12.481 178.305 10.2688 176.169 10.2688 173.54V157.914C10.2688 155.285 12.481 153.149 15.2037 153.149Z" fill="#331C38"/>
<path fill-rule="evenodd" clip-rule="evenodd" d="M0.756958 153.149H27.9136C30.6304 153.149 32.8485 155.296 32.8485 157.914V173.54C32.8485 176.164 30.6304 178.305 27.9136 178.305H4.05472C1.45524 172.996 0 167.076 0 160.843C0 158.214 0.264055 155.642 0.756958 153.143V153.149Z" fill="#4F3F55"/>
<path fill-rule="evenodd" clip-rule="evenodd" d="M1.0093 151.976H4.28359C4.95253 151.976 5.49824 152.503 5.49824 153.149V156.197C5.49824 156.843 4.95253 157.37 4.28359 157.37H0.152588C0.316889 155.534 0.598548 153.738 1.00343 151.976H1.0093Z" fill="#331C38"/>
<path fill-rule="evenodd" clip-rule="evenodd" d="M1.0093 151.976H3.19216C3.8611 151.976 4.40681 152.503 4.40681 153.149V156.197C4.40681 156.843 3.8611 157.37 3.19216 157.37H0.152588C0.316889 155.534 0.598548 153.738 1.00343 151.976H1.0093Z" fill="#4F3F55"/>
<path fill-rule="evenodd" clip-rule="evenodd" d="M0.234716 156.543V156.684H1.85425V154.713C1.85425 154.475 2.05376 154.282 2.30021 154.282C2.54667 154.282 2.74617 154.475 2.74617 154.713V159.976C2.74617 160.367 2.4117 160.69 2.00682 160.69H0.0821505C0.0821505 160.69 0.0293395 160.69 0 160.69C0.00586789 159.296 0.0821505 157.914 0.234716 156.548V156.543Z" fill="#3F2C44"/>
<path d="M20.6843 151.976H25.8657C26.5346 151.976 27.0803 152.503 27.0803 153.149V156.197C27.0803 156.843 26.5346 157.37 25.8657 157.37H20.6843C20.0154 157.37 19.4697 156.843 19.4697 156.197V153.149C19.4697 152.503 20.0154 151.976 20.6843 151.976Z" fill="#331C38"/>
<path d="M20.6843 151.976H24.7684C25.4373 151.976 25.983 152.503 25.983 153.149V156.197C25.983 156.843 25.4373 157.37 24.7684 157.37H20.6843C20.0154 157.37 19.4697 156.843 19.4697 156.197V153.149C19.4697 152.503 20.0154 151.976 20.6843 151.976Z" fill="#4F3F55"/>
<path fill-rule="evenodd" clip-rule="evenodd" d="M21.3767 154.282C21.6232 154.282 21.8227 154.475 21.8227 154.713V156.684H23.4422V154.713C23.4422 154.475 23.6417 154.282 23.8882 154.282C24.1346 154.282 24.3342 154.475 24.3342 154.713V159.976C24.3342 160.367 23.9997 160.69 23.5948 160.69H21.676C21.2711 160.69 20.9366 160.367 20.9366 159.976V154.713C20.9366 154.475 21.1362 154.282 21.3826 154.282H21.3767Z" fill="#3F2C44"/>
<path fill-rule="evenodd" clip-rule="evenodd" d="M0.0410767 162.599H29.005C29.492 162.599 29.8969 162.985 29.8969 163.461C29.8969 163.937 29.4979 164.322 29.005 164.322H0.152567C0.0997556 163.75 0.0645482 163.177 0.0410767 162.599Z" fill="#331C38"/>
<path fill-rule="evenodd" clip-rule="evenodd" d="M0.369698 166.237H29.005C29.4921 166.237 29.8969 166.622 29.8969 167.098C29.8969 167.574 29.4979 167.959 29.005 167.959H0.639622C0.534 167.393 0.445981 166.815 0.363831 166.243L0.369698 166.237Z" fill="#331C38"/>
<path fill-rule="evenodd" clip-rule="evenodd" d="M1.03864 169.869H28.9992C29.4862 169.869 29.8911 170.254 29.8911 170.73C29.8911 171.2 29.4921 171.591 28.9992 171.591H1.4846C1.32616 171.025 1.1736 170.452 1.03864 169.874V169.869Z" fill="#331C38"/>
<path fill-rule="evenodd" clip-rule="evenodd" d="M2.07721 173.501H29.005C29.492 173.501 29.8969 173.886 29.8969 174.362C29.8969 174.838 29.4979 175.223 29.005 175.223H2.69921C2.47623 174.656 2.27085 174.084 2.07721 173.506V173.501Z" fill="#331C38"/>
<path fill-rule="evenodd" clip-rule="evenodd" d="M75.0915 166.996C75.0915 166.996 77.0161 173.178 77.9609 180.662H35.9819C35.8294 175.433 36.2812 171.274 37.7599 169.404C43.9153 161.602 70.714 162.18 75.0915 166.996Z" fill="#05304B"/>
<path fill-rule="evenodd" clip-rule="evenodd" d="M70.7199 148.945C70.6788 152.248 70.7375 155.188 70.984 156.588C68.1791 155.398 65.0339 157.444 65.1571 159.699C65.3156 162.645 64.9459 164.571 68.8363 170.254C70.6612 172.917 72.2749 173.71 73.4778 173.801C71.6412 175.155 69.5404 176.356 67.9385 176.645C67.9385 176.645 67.6275 176.781 67.1816 176.147C66.7356 175.512 64.9459 168.713 63.7371 167.087C63.3498 166.571 63.6608 161.937 64.2652 155.857C57.9807 157.829 47.6297 157.432 42.9178 155.874C42.4895 155.154 42.2665 154.707 42.3134 154.622C42.4836 154.276 45.8107 149.5 49.7832 144.066C53.2629 149.364 56.279 153.772 56.279 153.772L70.7199 148.945Z" fill="#004268"/>
<path fill-rule="evenodd" clip-rule="evenodd" d="M42.1902 152.276C42.3369 151.755 42.4425 151.296 42.5012 150.899C42.5775 150.395 42.6068 149.812 42.6068 149.171C43.0821 143.987 42.4014 139.137 40.1482 133.652C36.3575 124.44 30.7595 109.233 30.7537 109.227C30.9884 108.995 31.229 108.774 31.4695 108.564C32.027 107.952 32.8192 107.425 33.6876 106.983C35.36 106.031 37.1731 105.487 39.2093 105.136H39.2445C39.2445 105.136 39.2738 105.125 39.3267 105.113C43.5281 104.417 48.6801 104.541 55.4927 103.697C55.9093 103.708 56.1734 103.759 56.5607 103.765C61.3899 103.827 74.7277 119.89 72.6152 128.14C72.6152 128.14 71.5473 132.508 71.1248 138.695C70.7023 144.888 70.4324 155.755 71.1658 157.279C71.8993 158.803 80.1379 174.005 80.5721 175.042C82.4674 179.58 48.8092 181.314 37.7893 172.05C38.3761 167.908 39.1448 163.767 40.1423 160.531C41.046 157.585 41.7442 154.871 42.1902 152.282V152.276Z" fill="white"/>
<path fill-rule="evenodd" clip-rule="evenodd" d="M42.1902 152.276C42.3369 151.761 42.4425 151.296 42.5012 150.899C42.5775 150.395 42.6068 149.812 42.6068 149.166C43.0821 143.981 42.4014 139.137 40.1482 133.652C36.3575 124.44 30.7595 109.238 30.7537 109.227C30.9884 108.995 31.229 108.774 31.4695 108.564C32.027 107.952 32.8192 107.425 33.6876 106.983C35.36 106.031 37.1731 105.487 39.2093 105.136H39.2445C39.2445 105.136 39.2738 105.125 39.3267 105.113C40.3711 104.938 41.6679 104.224 42.8415 104.128C44.5021 103.986 46.1041 104.485 48.0757 104.36C48.0757 104.36 36.8445 112.609 48.3397 133.528C53.8966 143.636 48.7857 150.101 41.9261 153.676C42.02 153.205 42.108 152.741 42.1902 152.276Z" fill="#FDF1EF"/>
<path fill-rule="evenodd" clip-rule="evenodd" d="M43.1994 90.5181L43.4752 94.0536C43.4752 94.0536 43.7158 101.306 43.751 102.411C43.7686 102.875 43.3872 103.414 42.6948 103.901C41.9672 104.411 45.3236 105.975 43.9916 106.235C43.9681 106.235 49.5368 106.213 53.1749 106.162C55.4633 106.128 56.678 108.269 56.2379 103.544C56.2379 103.516 56.1851 103.521 56.1616 103.51C55.346 103.176 55.7157 103.51 55.0115 102.921C54.9118 102.836 54.8003 102.734 54.6829 102.62C53.3861 101.34 53.2453 95.4418 54.4482 93.861C55.6511 92.2802 43.1994 90.5181 43.1994 90.5181Z" fill="#E8685B"/>
<path fill-rule="evenodd" clip-rule="evenodd" d="M86.2756 117.227L89.4443 116.711C89.4443 116.711 91.7856 120.513 87.8365 127.675C87.8365 127.675 86.1642 125.392 85.9822 124.134C85.8062 122.876 86.2756 117.233 86.2756 117.233V117.227Z" fill="#F8CFBE"/>
<path fill-rule="evenodd" clip-rule="evenodd" d="M61.2725 105.017C70.2152 108.371 82.1212 114.196 91.1518 118.185C93.6926 119.306 95.9342 120.281 96.4388 118.258C97.5772 113.72 98.3107 104.179 98.6393 98.1784C98.7214 96.6656 96.9904 95.0905 96.5562 94.2293C96.3273 93.7703 99.4725 92.6031 99.9361 92.7221C101.597 93.1301 103.762 91.6513 104.548 92.8015C104.402 93.47 103.944 95.3228 104.008 97.6288C104.155 102.654 105.024 111.34 102.442 124.536C102.406 124.638 102.935 122.746 102.342 124.848C101.878 126.485 99.7777 128.009 97.9351 128.259C94.52 128.723 73.7183 122.088 70.0802 120.326C67.9737 119.306 66.0959 118.207 64.4001 117.08C65.7908 113.709 60.1224 108.105 61.2608 105.011L61.2725 105.017Z" fill="#F4AD85"/>
<path fill-rule="evenodd" clip-rule="evenodd" d="M103.269 92.6938C103.962 92.6938 104.349 92.5352 104.666 92.9941C104.519 93.6627 103.944 95.3228 104.008 97.6288C104.155 102.654 105.024 111.34 102.442 124.536C102.407 124.638 102.935 122.746 102.342 124.848C101.878 126.485 99.7777 128.009 97.9352 128.259C96.2922 128.48 90.6414 127.069 84.8028 125.341C84.439 122.785 84.2219 121.052 84.2219 121.052L87.7192 118.394C87.7192 118.394 89.462 123.216 90.9231 124.383C92.3842 125.55 97.589 126.196 99.1322 125.573C100.676 124.955 102.665 110.864 102.571 104.745C102.477 98.626 102.025 96.6543 101.468 95.4871C101.098 94.7052 102.242 94.065 103.263 92.6882L103.269 92.6938Z" fill="#EF8871"/>
<path fill-rule="evenodd" clip-rule="evenodd" d="M59.8584 105.272L60.897 104.796C60.897 104.796 72.6035 108.706 89.4502 116.711C88.4996 117.794 85.9881 124.134 87.8424 127.675L75.9188 126.349L59.8701 105.272H59.8584Z" fill="white"/>
<path fill-rule="evenodd" clip-rule="evenodd" d="M59.8584 105.272L60.897 104.796H60.9029H60.9146L60.9263 104.807L60.9498 104.819H60.9615L60.9733 104.83L61.0026 104.841H61.0144L61.0378 104.853L61.0789 104.87H61.0906L61.1258 104.887L61.1787 104.904L61.2315 104.921L61.2843 104.938H61.2901L61.3547 104.966L61.4075 104.983H61.4251L61.5014 105.017L61.5483 105.034L61.5835 105.045L61.6657 105.074L61.7009 105.085L61.7537 105.102L61.8476 105.136L61.8711 105.147L61.9474 105.176L62.053 105.21H62.0647L62.1586 105.249L62.2642 105.289H62.2701L62.3874 105.334L62.4813 105.368L62.5107 105.38L62.6339 105.425L62.716 105.453L62.763 105.47L62.898 105.516L62.9625 105.538L63.0388 105.567L63.1796 105.618L63.2266 105.635L63.3263 105.669L63.4789 105.725H63.5023L63.6373 105.782L63.7957 105.839L63.96 105.901L64.1009 105.952L64.1302 105.963L64.3004 106.026L64.4177 106.071L64.4764 106.094L64.6583 106.162L64.7522 106.196L64.8402 106.23L64.8637 106.241L65.2216 106.377L65.4211 106.451L65.4622 106.468L65.6265 106.53L65.8319 106.609H65.8378L66.0373 106.689L66.225 106.762L66.2485 106.774L66.4656 106.859L66.6241 106.921L66.6886 106.944L66.9116 107.028L67.0407 107.079L67.1404 107.119L67.3752 107.21L67.469 107.249L67.6099 107.306L67.8505 107.397L68.0324 107.465L68.0969 107.487L68.3434 107.584L68.3668 107.595L68.5957 107.686L68.8304 107.782H68.848L69.1062 107.89L69.3116 107.969L69.3702 107.992L69.6343 108.094L69.7986 108.162L69.9042 108.201L70.1741 108.309C71.1482 111.074 72.7032 114.218 75.2029 117.085C79.6332 122.168 84.9554 121.38 87.7954 120.423C87.1147 122.763 86.7568 125.681 87.8072 127.698L67.7038 125.426L59.829 105.295L59.8584 105.272Z" fill="#FDF1EF"/>
<path fill-rule="evenodd" clip-rule="evenodd" d="M20.8017 136.202L19.7572 136.718C19.7572 136.718 19.8628 137.919 23.2075 140.117C26.5522 142.316 29.1869 143.25 29.1869 143.25L29.2925 140.667L20.7958 136.191L20.8017 136.202Z" fill="#F8CFBE"/>
<path fill-rule="evenodd" clip-rule="evenodd" d="M57.3704 103.861C69.0534 115.193 53.1279 121.199 45.6522 112.128C40.9873 106.473 38.8631 105.193 38.8631 105.193C38.8631 105.193 38.6929 105.045 38.3702 105.091C38.0533 105.136 35.401 106.043 35.1076 106.15C34.8201 106.252 34.7908 106.417 34.7908 106.417C34.7908 106.417 49.3901 117.346 38.2998 130.718C38.2998 130.718 47.2718 141.925 38.4406 160.339C38.4406 160.339 31.4167 174.872 35.1018 178.232C38.7868 181.592 82.0508 176.056 82.0508 176.056C82.0508 176.056 75.1854 163.495 73.6069 160.401C72.0226 157.308 70.7492 154.14 71.2891 146.015C71.8289 137.891 73.4602 128.74 73.1081 123.584C72.756 118.434 62.0002 106.082 61.4603 105.227C60.9205 104.371 57.8927 103.635 57.3587 103.856L57.3704 103.861Z" fill="#4CAF50"/>
<path fill-rule="evenodd" clip-rule="evenodd" d="M42.4366 121.239C41.797 125.851 39.7315 129.273 38.3056 130.718C38.3056 130.718 47.2776 141.925 38.4523 160.339C38.4523 160.339 32.3028 172.628 34.0221 177.659C35.7413 182.685 39.4733 176.832 42.1726 176.809C42.5481 161.444 44.8953 131.21 71.9345 139.171C72.3394 135.483 72.7912 131.862 73.0201 128.751C62.8334 132.553 43.9447 136.44 42.4425 121.239H42.4366Z" fill="#388E3C"/>
<path fill-rule="evenodd" clip-rule="evenodd" d="M30.2431 109.839C28.8583 112.15 16.3773 145.557 17.6624 152.231C18.9474 158.911 28.6529 171.07 33.6876 174.356C33.6876 174.356 34.2568 174.69 34.5678 173.903C34.8846 173.115 36.0172 173.274 37.179 172.605C31.9155 163.778 29.1987 160.747 25.9244 150.979C24.1288 145.636 35.8822 131.363 37.936 127.975C42.8356 119.918 33.2768 104.779 30.2431 109.839Z" fill="#F4AD85"/>
<path fill-rule="evenodd" clip-rule="evenodd" d="M43.7804 175.217C43.8332 173.189 42.1608 171.489 40.0601 171.438L36.4044 171.348C34.3037 171.297 32.5434 172.911 32.4905 174.94C32.4905 175.036 32.4905 175.127 32.4905 175.223H43.7745L43.7804 175.217Z" fill="#F4AD85"/>
<path fill-rule="evenodd" clip-rule="evenodd" d="M22.8495 63.9848C18.3489 65.186 15.7083 69.679 16.9523 74.0248C18.1963 78.3705 22.8496 80.9201 27.3502 79.719C31.8509 78.5178 34.4915 74.0248 33.2475 69.679C32.0035 65.3333 27.3502 62.7836 22.8495 63.9848Z" fill="#3F2C44"/>
<path fill-rule="evenodd" clip-rule="evenodd" d="M36.2929 60.3813C36.2929 60.3813 29.9028 57.707 26.4876 64.0471C23.7884 69.0671 21.8755 75.9002 24.3693 83.8494C24.739 84.9599 29.3512 98.0198 41.4977 96.592C54.1782 95.1018 60.0344 84.8863 60.0344 84.8863C73.1491 75.6225 50.9098 45.5594 36.2929 60.3813Z" fill="#3F2C44"/>
<path fill-rule="evenodd" clip-rule="evenodd" d="M24.1639 69.713C22.9962 73.7925 22.7146 78.5631 24.3576 83.8267C24.6568 84.7333 29.2455 98.0368 41.4977 96.592C39.9897 88.9317 38.6166 83.3848 38.6166 83.3848L51.2795 76.2911L50.8277 65.9395C33.758 87.6115 24.1698 69.7244 24.1639 69.7187V69.713Z" fill="#331C38"/>
<path fill-rule="evenodd" clip-rule="evenodd" d="M59.6941 85.4245C56.3963 79.8606 37.9476 84.8409 37.9476 84.8409L34.1276 82.2063C34.1276 82.2063 27.3268 83.804 29.7854 92.5295C32.4846 95.1585 36.2988 97.2039 41.5036 96.5919C52.4296 95.3058 58.2858 87.5549 59.6999 85.4245H59.6941Z" fill="#331C38"/>
<path fill-rule="evenodd" clip-rule="evenodd" d="M32.0152 83.0845C29.891 83.3734 28.4123 85.2715 28.7116 87.3226C29.0108 89.3736 30.9766 90.8014 33.1008 90.5125C35.2249 90.2235 36.7037 88.3254 36.4044 86.2744C36.1051 84.2233 34.1394 82.7955 32.0152 83.0845Z" fill="#E8685B"/>
<path fill-rule="evenodd" clip-rule="evenodd" d="M43.3226 62.3983C36.0816 63.3842 30.9883 69.9113 32.0093 76.903L33.6934 88.4614C34.7144 95.4531 41.4742 100.371 48.7152 99.3852C55.9562 98.3994 61.0495 91.8723 60.0285 84.8806L58.3444 73.3222C57.3234 66.3305 50.5636 61.4125 43.3226 62.3927V62.3983Z" fill="#F4AD85"/>
<path fill-rule="evenodd" clip-rule="evenodd" d="M32.4964 71.2655C31.9155 73.0332 31.7218 74.9539 32.0094 76.903L33.6934 88.4614C34.7144 95.4531 41.4743 100.371 48.7152 99.3852C49.1436 99.3286 49.5661 99.2492 49.9827 99.1529C35.6005 98.796 32.6079 82.9202 38.5344 81.4244C45.8517 79.5773 51.7666 72.9766 51.7666 72.9766C53.1925 74.835 56.5313 75.8492 58.7904 76.3478L58.3503 73.3222C57.4349 67.0444 51.8956 62.438 45.529 62.2737C43.4224 62.8063 41.5447 63.4409 40.5882 63.5712C38.0768 63.9111 34.9257 68.3532 32.9776 70.7499C32.8602 70.8972 32.6959 71.0672 32.5023 71.2598L32.4964 71.2655Z" fill="#EF8871"/>
<path fill-rule="evenodd" clip-rule="evenodd" d="M46.5558 90.7391C46.8258 92.5862 48.592 93.8667 50.4991 93.6061C52.412 93.3454 53.7382 91.64 53.4741 89.7986H53.4682C53.4213 89.4813 53.1162 89.2603 52.7876 89.3056L47.0781 90.0819C46.7495 90.1272 46.5206 90.4218 46.5676 90.7391H46.5558Z" fill="white"/>
<path fill-rule="evenodd" clip-rule="evenodd" d="M56.8775 85.7361C55.8271 85.8778 55.0937 86.8183 55.2404 87.8325C55.3871 88.8467 56.3611 89.5549 57.4115 89.4133C58.4618 89.2716 59.1953 88.3311 59.0486 87.3169C58.9019 86.3027 57.9279 85.5945 56.8775 85.7361Z" fill="#E8685B"/>
<path fill-rule="evenodd" clip-rule="evenodd" d="M40.4885 87.9628C39.4381 88.1044 38.7046 89.045 38.8513 90.0592C38.998 91.0734 39.9721 91.7816 41.0224 91.64C42.0728 91.4983 42.8063 90.5578 42.6596 89.5436C42.5129 88.5294 41.5388 87.8212 40.4885 87.9628Z" fill="#E8685B"/>
<path fill-rule="evenodd" clip-rule="evenodd" d="M31.2172 83.2771L33.8753 81.753C33.8753 81.753 35.8763 84.8579 33.3883 86.365L33.1594 84.7842C33.0421 83.991 32.5022 83.1071 31.2172 83.2828V83.2771Z" fill="#331C38"/>
<path fill-rule="evenodd" clip-rule="evenodd" d="M50.8218 65.9339C50.8218 65.9339 50.8042 75.6452 32.0093 83.0845L30.2137 69.2994L39.1975 61.1519L49.1142 61.0952C49.1142 61.0952 54.765 65.6902 55.3635 66.3361C55.9562 66.9821 60.3454 73.4978 60.3454 73.4978L58.632 75.2769C58.632 75.2769 54.1665 74.0191 50.8218 65.9395V65.9339Z" fill="#3F2C44"/>
<path fill-rule="evenodd" clip-rule="evenodd" d="M50.8218 65.9339C50.8218 65.9339 50.8042 75.6452 32.0093 83.0845L31.0822 75.9511C35.6122 77.7189 42.2782 76.7784 50.8218 65.9339Z" fill="#331C38"/>
<path fill-rule="evenodd" clip-rule="evenodd" d="M25.1145 66.9537V66.9707L25.1028 66.9877C24.9502 67.3617 24.8094 67.7413 24.6686 68.1266C35.8528 78.3875 46.5969 69.9566 51.6726 57.9903C49.8771 57.0781 47.9876 56.5058 46.0805 56.3755C43.8038 68.3645 32.3086 74.0021 25.1204 66.9537H25.1145Z" fill="#4F3F55"/>
<path fill-rule="evenodd" clip-rule="evenodd" d="M42.9941 85.2149C43.0293 85.4755 43.2816 85.6511 43.5456 85.6171C43.8156 85.5831 43.9975 85.3395 43.9623 85.0845C43.8742 84.4613 43.528 83.9344 43.0469 83.5831C42.5598 83.2318 41.9437 83.0562 41.2982 83.1468C40.6528 83.2318 40.1071 83.5661 39.7433 84.0307C39.3794 84.501 39.1975 85.0959 39.2914 85.7191C39.3266 85.9797 39.579 86.1554 39.843 86.1214C40.1129 86.0874 40.2948 85.8438 40.2596 85.5888C40.2068 85.2205 40.3124 84.8749 40.5237 84.5973C40.7408 84.3253 41.0577 84.1327 41.4391 84.0817C41.8146 84.0307 42.1784 84.1327 42.4601 84.3367C42.7417 84.5463 42.9413 84.8522 42.9999 85.2205L42.9941 85.2149Z" fill="#331C38"/>
<path fill-rule="evenodd" clip-rule="evenodd" d="M56.4198 83.3905C56.455 83.6511 56.7073 83.8267 56.9714 83.7927C57.2413 83.7587 57.4232 83.5151 57.388 83.2601C57.3 82.6369 56.9538 82.11 56.4726 81.7587C55.9856 81.4074 55.3636 81.2318 54.724 81.3224C54.0785 81.4074 53.5328 81.7417 53.169 82.2063C52.8052 82.6766 52.6233 83.2715 52.7171 83.8947C52.7524 84.1554 53.0047 84.331 53.2687 84.297C53.5386 84.263 53.7206 84.0194 53.6853 83.7644C53.6325 83.4018 53.7382 83.0505 53.9494 82.7785C54.1665 82.5066 54.4834 82.3139 54.8648 82.2573C55.2403 82.2063 55.6041 82.3083 55.8858 82.5122C56.1675 82.7219 56.367 83.0278 56.4198 83.3961V83.3905Z" fill="#331C38"/>
<path fill-rule="evenodd" clip-rule="evenodd" d="M36.0641 84.8522L31.9742 85.4075C31.6338 85.4528 31.317 85.2262 31.27 84.8976C31.2231 84.5689 31.4578 84.263 31.7981 84.2177L35.888 83.6624L35.8176 83.1978C35.759 82.8918 35.6064 81.5717 37.2905 81.3451L44.9187 80.3082C46.6908 80.0702 46.8551 81.5264 46.8669 81.7417L46.9021 81.9966L46.949 82.3196L50.1236 81.889L50.0766 81.566L50.0414 81.3167C49.9945 81.1071 49.7363 79.6623 51.5084 79.4243L58.3093 78.5008C59.9934 78.2742 60.2222 79.583 60.2574 79.8946L61.0378 85.2545C61.3195 87.1923 59.4946 87.6115 59.078 87.6795L59.0134 87.6909L55.0702 88.2291C51.7959 88.6767 50.7866 85.6511 50.3172 83.0845L47.1075 83.5208C47.395 86.1157 47.2894 89.2886 44.0151 89.7362L42.818 89.9005L39.2386 90.3878H39.1741C38.7574 90.4388 36.8797 90.5238 36.5981 88.5861L36.0582 84.8749L36.0641 84.8522ZM39.0684 89.1753L43.8449 88.5237C46.5676 88.1555 46.0102 84.3876 45.6816 82.1553L45.6464 81.9003C45.6405 81.872 45.6346 81.838 45.6346 81.804C45.6346 81.804 45.6229 81.4187 45.0948 81.4924L37.4665 82.5292C37.0147 82.5916 37.0264 82.8692 37.0382 82.9542C37.044 82.9825 37.0499 83.0052 37.0558 83.0335L37.2083 84.0874L37.8362 88.3934C37.9594 89.2546 38.8337 89.2036 39.0156 89.181L39.0684 89.1696V89.1753ZM58.8961 86.4784C59.078 86.45 59.9347 86.263 59.8056 85.4018L59.0252 80.0476C59.0252 80.0476 59.0193 79.9909 59.0193 79.9683C59.0076 79.8889 58.9371 79.617 58.4853 79.6793L51.6844 80.6028C51.1563 80.6765 51.2561 81.0448 51.2561 81.0448C51.2619 81.0788 51.2678 81.1071 51.2737 81.1354L51.3089 81.3904C51.6316 83.6227 52.1715 87.3906 54.8942 87.0223L58.8374 86.484H58.8902L58.8961 86.4784Z" fill="#331C38"/>
<path d="M86.8683 143.403H84.7324V151.715H86.8683V143.403Z" fill="#331C38"/>
<path d="M92.5191 138.661H79.0816C78.3589 138.661 77.7731 139.227 77.7731 139.925V143.902C77.7731 144.6 78.3589 145.166 79.0816 145.166H92.5191C93.2418 145.166 93.8276 144.6 93.8276 143.902V139.925C93.8276 139.227 93.2418 138.661 92.5191 138.661Z" fill="#331C38"/>
<path d="M79.0758 139.607H92.5191C92.701 139.607 92.8477 139.749 92.8477 139.925V143.908C92.8477 144.083 92.701 144.225 92.5191 144.225H79.0758C78.8939 144.225 78.7472 144.083 78.7472 143.908V139.925C78.7472 139.749 78.8939 139.607 79.0758 139.607Z" fill="white"/>
<path d="M70.8138 150.322H87.2204C88.793 150.322 90.0663 151.551 90.0663 153.069V174.843C90.0663 176.362 88.793 177.591 87.2204 177.591H70.8138C69.2412 177.591 67.9678 176.362 67.9678 174.843V153.069C67.9678 151.551 69.2412 150.322 70.8138 150.322Z" fill="#4F3F55"/>
<path fill-rule="evenodd" clip-rule="evenodd" d="M60.5626 164.095V178.039C60.5626 179.971 62.1997 181.552 64.2007 181.552H93.8335C95.8345 181.552 97.4716 179.971 97.4716 178.039V164.095C97.4716 163.234 96.744 162.537 95.8579 162.537H62.1821C61.2902 162.537 60.5684 163.24 60.5684 164.095H60.5626Z" fill="#3F2C44"/>
<path fill-rule="evenodd" clip-rule="evenodd" d="M64.5527 160.14V174.084C64.5527 176.016 66.1899 177.597 68.1908 177.597H89.8492C91.8502 177.597 93.4873 176.016 93.4873 174.084V160.14C93.4873 159.279 92.7597 158.582 91.8678 158.582H66.1664C65.2745 158.582 64.5527 159.285 64.5527 160.14Z" fill="#3F2C44"/>
<path fill-rule="evenodd" clip-rule="evenodd" d="M93.4873 172.237V160.14C93.4873 159.279 92.7597 158.582 91.8678 158.582H67.9678V168.736C67.9678 170.668 69.605 172.248 71.6059 172.248H93.2643C93.3347 172.248 93.411 172.248 93.4814 172.243L93.4873 172.237Z" fill="#4F3F55"/>
<path fill-rule="evenodd" clip-rule="evenodd" d="M71.5883 150.322V153.341C71.5883 154.854 72.8675 156.089 74.4343 156.089H90.0663V158.577H67.9678V153.069C67.9678 151.557 69.247 150.322 70.8138 150.322H71.5825H71.5883Z" fill="#3F2C44"/>
<path fill-rule="evenodd" clip-rule="evenodd" d="M94.7137 162.537V172.322C94.7137 173.183 95.4413 173.88 96.3274 173.88H97.4716V175.217H93.2878C93.4169 174.86 93.4814 174.481 93.4814 174.084V162.537H94.7078H94.7137Z" fill="#331C38"/>
<path fill-rule="evenodd" clip-rule="evenodd" d="M63.3261 162.537V172.322C63.3261 173.183 62.5985 173.88 61.7066 173.88H60.5682V175.217H64.752C64.623 174.86 64.5584 174.481 64.5584 174.084V162.537H63.332H63.3261Z" fill="#331C38"/>
<path fill-rule="evenodd" clip-rule="evenodd" d="M91.4512 160.106H79.1932C78.7883 160.106 78.4538 160.429 78.4538 160.82C78.4538 161.211 78.7883 161.534 79.1932 161.534H91.4512C91.8561 161.534 92.1905 161.211 92.1905 160.82C92.1905 160.424 91.8561 160.106 91.4512 160.106Z" fill="#3F2C44"/>
<path fill-rule="evenodd" clip-rule="evenodd" d="M76.0186 160.106H76.6875C77.0924 160.106 77.4269 160.429 77.4269 160.82C77.4269 161.211 77.0924 161.534 76.6875 161.534H76.0186C75.6137 161.534 75.2792 161.211 75.2792 160.82C75.2792 160.424 75.6137 160.106 76.0186 160.106Z" fill="white"/>
<path d="M86.1583 163.631H91.1167C91.592 163.631 91.9734 164.005 91.9734 164.458V169.67C91.9734 170.129 91.5861 170.498 91.1167 170.498H86.1583C85.683 170.498 85.3016 170.129 85.3016 169.67V164.452C85.3016 163.993 85.6889 163.625 86.1583 163.625V163.631Z" fill="white"/>
<path fill-rule="evenodd" clip-rule="evenodd" d="M83.6293 163.631H70.6202C70.4206 163.631 70.2563 163.789 70.2563 163.982C70.2563 164.175 70.4206 164.333 70.6202 164.333H83.6293C83.8288 164.333 83.9931 164.175 83.9931 163.982C83.9931 163.789 83.8288 163.631 83.6293 163.631Z" fill="#3F2C44"/>
<path fill-rule="evenodd" clip-rule="evenodd" d="M83.6293 165.687H70.6202C70.4206 165.687 70.2563 165.846 70.2563 166.039C70.2563 166.231 70.4206 166.39 70.6202 166.39H83.6293C83.8288 166.39 83.9931 166.231 83.9931 166.039C83.9931 165.846 83.8288 165.687 83.6293 165.687Z" fill="#3F2C44"/>
<path fill-rule="evenodd" clip-rule="evenodd" d="M83.6293 167.75H70.6202C70.4206 167.75 70.2563 167.908 70.2563 168.101C70.2563 168.294 70.4206 168.452 70.6202 168.452H83.6293C83.8288 168.452 83.9931 168.294 83.9931 168.101C83.9931 167.908 83.8288 167.75 83.6293 167.75Z" fill="#3F2C44"/>
<path d="M70.6202 169.806H83.6293C83.8288 169.806 83.9931 169.965 83.9931 170.158C83.9931 170.35 83.8288 170.509 83.6293 170.509H70.6202C70.4206 170.509 70.2563 170.35 70.2563 170.158C70.2563 169.965 70.4206 169.806 70.6202 169.806Z" fill="#3F2C44"/>
<path fill-rule="evenodd" clip-rule="evenodd" d="M166.595 184.94H8.13287C15.8961 195.246 28.471 201.977 42.595 201.977H166.59C167.992 201.977 169.142 200.867 169.142 199.513V187.405C169.142 186.051 167.992 184.94 166.59 184.94H166.595Z" fill="#E8685B"/>
<path fill-rule="evenodd" clip-rule="evenodd" d="M131.376 201.977H125.919V189.365H131.376V201.977ZM42.595 201.977C40.4532 201.977 38.3467 201.819 36.2929 201.524V189.365H43.2816V201.977H42.595ZM86.6042 201.977H46.773V189.365H86.6042V201.977ZM104.713 201.977H97.7239V189.365H104.713V201.977ZM116.149 201.977H112.018V189.365H116.149V201.977Z" fill="#EF8871"/>
<path fill-rule="evenodd" clip-rule="evenodd" d="M166.595 184.94H8.13287C10.2747 187.784 12.7802 190.357 15.5851 192.589H169.148V187.405C169.148 186.051 167.998 184.94 166.595 184.94Z" fill="#331C38"/>
<path fill-rule="evenodd" clip-rule="evenodd" d="M192.884 175.217H2.69922C4.8234 180.679 8.12702 185.603 12.2991 189.688H192.884C194.104 189.688 195.102 188.725 195.102 187.552V177.359C195.102 176.181 194.104 175.217 192.884 175.217Z" fill="#F4C6B3"/>
<path fill-rule="evenodd" clip-rule="evenodd" d="M60.9088 175.217H55.1054V189.688H60.9088V175.217ZM180.373 175.217H170.55V189.688H180.373V175.217ZM165.639 175.217H87.5197V189.688H165.639V175.217ZM80.9946 175.217H71.1717V189.688H80.9946V175.217Z" fill="#F3BBA2"/>
<path fill-rule="evenodd" clip-rule="evenodd" d="M165.134 196.317C164.448 196.317 163.89 196.855 163.89 197.513C163.89 198.17 164.448 198.708 165.134 198.708C165.821 198.708 166.372 198.17 166.372 197.513C166.372 196.855 165.815 196.317 165.134 196.317Z" fill="#331C38"/>
<path fill-rule="evenodd" clip-rule="evenodd" d="M4.50063 179.184H45.8869L50.5753 181.795C50.634 181.829 50.7044 181.846 50.7748 181.846H195.107V181.082H50.8687L46.2155 178.487C46.151 178.441 46.0688 178.419 45.9866 178.419H4.10748C4.23658 178.674 4.36567 178.934 4.49476 179.184H4.50063Z" fill="white"/>
<path fill-rule="evenodd" clip-rule="evenodd" d="M112.411 110.139C112.411 110.139 109.953 111.278 107.647 117.012C105.346 122.746 98.1934 156.611 98.4164 161.285C98.6335 165.954 113.608 192.425 113.608 192.425C113.608 192.425 116.607 187.665 116.777 185.388C116.947 183.11 114.846 179.75 114.846 179.75C114.846 179.75 109.906 163.648 108.75 157.466C107.6 151.285 116.736 138.191 116.736 138.191L123.707 120.519C123.707 120.519 117.499 107.516 112.411 110.139Z" fill="#97B2BC"/>
<path fill-rule="evenodd" clip-rule="evenodd" d="M108.756 157.466C107.605 151.285 116.742 138.191 116.742 138.191L119.118 132.174C118.438 127.732 117.687 124.275 117.287 125.307C116.542 127.222 109.771 146.327 108.761 149.489C107.752 152.656 108.761 157.466 108.761 157.466H108.756Z" fill="#7D939D"/>
<path fill-rule="evenodd" clip-rule="evenodd" d="M110.78 187.32C112.458 190.374 113.614 192.425 113.614 192.425C113.614 192.425 116.613 187.665 116.783 185.388C116.953 183.11 114.852 179.75 114.852 179.75C114.852 179.75 110.369 165.155 108.949 158.424C109.782 162.577 113.063 178.957 113.409 180.305C113.743 181.609 113.262 184.566 110.78 187.325V187.32Z" fill="#7D939D"/>
<path fill-rule="evenodd" clip-rule="evenodd" d="M160.575 116.298L167.605 111.448C168.814 112.932 169.735 114.626 170.421 116.168C171.888 120.1 173.778 126.015 174.981 132.967C177.181 145.709 179.376 163.228 178.719 168.957C178.061 174.69 162.887 189.767 161.127 189.977C159.366 190.187 158.709 185.201 158.709 185.201C158.709 185.201 167.288 172.883 168.385 167.999C169.482 163.115 160.686 136.145 160.686 136.145L160.575 116.292V116.298Z" fill="#7D939D"/>
<path fill-rule="evenodd" clip-rule="evenodd" d="M115.351 182.997C115.351 182.997 113.151 190.697 112.934 201.977H162.852C162.852 201.977 164.389 192.923 161.584 186.238L115.345 182.997H115.351Z" fill="#331C38" stroke="#05304B" stroke-width="0.22" stroke-linecap="round" stroke-linejoin="round"/>
<path fill-rule="evenodd" clip-rule="evenodd" d="M116.947 170.203C116.947 170.203 115.052 180.764 114.665 183.048C114.277 185.331 114.031 188.198 122.61 191.065C131.189 193.932 152.025 194.833 159.061 191.541C159.061 191.541 162.881 189.96 162.552 186.668C162.224 183.376 159.448 173.28 159.448 173.28L116.947 170.197V170.203Z" fill="white"/>
<path fill-rule="evenodd" clip-rule="evenodd" d="M116.947 170.203C116.947 170.203 115.052 180.764 114.665 183.048C114.324 185.076 114.09 187.563 120.034 190.102C119.324 187.971 118.954 185.473 119.418 183.286C120.368 178.747 123.531 176.056 126.776 176.283C130.021 176.509 143.347 176.815 153.375 176.815C156.814 176.815 159.167 177.489 160.78 178.373C160.082 175.597 159.442 173.28 159.442 173.28L116.941 170.197L116.947 170.203Z" fill="#E6E4EB"/>
<path fill-rule="evenodd" clip-rule="evenodd" d="M159.143 168.265C159.143 168.265 160.023 169.331 160.188 173.308C160.188 173.308 159.941 174.424 158.732 174.685C157.524 174.951 133.524 177.756 116.701 172.237C116.701 172.237 115.245 171.654 114.888 170.673C114.53 169.693 116.261 165.92 116.261 165.92L159.143 168.265Z" fill="#5F6879"/>
<path fill-rule="evenodd" clip-rule="evenodd" d="M112.411 110.139C112.411 110.139 137.995 93.8043 164.671 108.785C166.331 109.827 167.663 111.363 168.714 112.989C169.371 116.451 170.327 124.122 168.485 133.709C165.956 146.877 160.786 161.421 160.458 167.897C160.458 167.897 160.24 170.39 157.488 170.707C154.736 171.025 123.73 172.532 116.143 166.69C116.143 166.69 115.292 165.857 115.51 164.724C118.127 151.109 115.287 149.642 115.38 140.236C115.38 140.236 121.213 116.156 112.4 110.139H112.411Z" fill="#97B2BC"/>
<path fill-rule="evenodd" clip-rule="evenodd" d="M112.411 110.139C112.411 110.139 137.995 93.8043 164.671 108.785C166.331 109.827 167.663 111.363 168.714 112.989C169.212 115.612 169.881 120.649 169.377 127.108C165.258 126.627 158.322 127.426 148.07 133.556C132.163 143.069 119.429 145.607 121.154 168.906C119.054 168.322 117.323 167.597 116.149 166.696C116.149 166.696 115.298 165.863 115.515 164.73C118.132 151.115 115.292 149.647 115.386 140.242C115.386 140.242 121.219 116.162 112.405 110.145L112.411 110.139Z" fill="#8EA7B0"/>
<path fill-rule="evenodd" clip-rule="evenodd" d="M118.989 168.197C117.857 167.761 116.888 167.262 116.155 166.696C116.155 166.696 115.304 165.863 115.521 164.73C118.138 151.115 115.298 149.647 115.392 140.242C115.392 140.242 117.17 132.899 117.282 125.312C118.027 123.397 119.975 136.927 120.45 143.579C120.838 149.03 118.303 161.217 118.989 168.209V168.197Z" fill="#7D939D"/>
<path fill-rule="evenodd" clip-rule="evenodd" d="M144.82 58.6419C144.82 58.6419 135.472 54.6871 129.317 61.7978C123.161 68.9141 127.339 78.1495 126.348 86.3254C125.356 94.5012 109.741 108.196 127.556 116.264C127.556 116.264 130.414 116.898 131.183 121.256C131.951 125.607 139.21 135.8 152.624 128.157C166.038 120.513 171.096 105.436 161.643 91.7419C152.184 78.0475 164.724 58.6419 144.82 58.6419Z" fill="#4F3F55"/>
<path fill-rule="evenodd" clip-rule="evenodd" d="M130.79 60.3473C130.285 60.7722 129.786 61.2538 129.311 61.8034C125.174 66.5798 125.702 72.3193 126.195 78.0475C129.739 83.2431 134.786 87.5945 141.815 88.0025C149.326 88.4387 154.807 87.0166 158.656 85.1922C158.328 83.9797 158.087 82.7502 157.911 81.5264C150.195 84.0647 131.84 87.2206 130.784 60.353L130.79 60.3473Z" fill="#56455B"/>
<path fill-rule="evenodd" clip-rule="evenodd" d="M126.465 84.9656C126.441 85.4245 126.4 85.8778 126.348 86.331C125.356 94.5069 109.741 108.201 127.556 116.27C127.556 116.27 130.414 116.904 131.183 121.261C131.951 125.613 139.21 135.806 152.624 128.162C166.038 120.519 171.096 105.442 161.643 91.7476C161.502 91.5437 161.367 91.3397 161.238 91.1357C159.096 111.414 128.214 106.768 126.465 84.9656Z" fill="#3F2C44"/>
<path fill-rule="evenodd" clip-rule="evenodd" d="M126.418 85.6171C126.394 85.8551 126.371 86.0931 126.348 86.331C125.356 94.5069 109.741 108.201 127.556 116.27C127.556 116.27 130.414 116.904 131.183 121.261C131.951 125.613 139.21 135.806 152.624 128.162C166.038 120.519 171.096 105.442 161.643 91.7476C161.643 91.7476 168.103 101.765 159.237 111.703C150.558 121.425 127.404 116.762 126.418 85.6228V85.6171Z" fill="#331C38"/>
<path fill-rule="evenodd" clip-rule="evenodd" d="M112.059 110.36L112.071 110.422C113.11 111.261 120.656 118.168 115.985 139.324C115.662 139.823 115.251 140.463 114.788 141.211C114.87 140.865 114.946 140.52 115.028 140.163C120.28 117.709 111.942 111.238 111.514 110.921C111.49 110.904 111.467 110.887 111.449 110.864C111.69 110.638 111.901 110.473 112.059 110.366V110.36Z" fill="#526675"/>
<path fill-rule="evenodd" clip-rule="evenodd" d="M236.136 104.932C236.136 104.298 234.698 95.0735 234.698 95.0735C234.698 95.0735 243.06 98.6713 247.901 107.589C252.742 116.508 258.24 143.902 256.04 153.67C253.839 163.438 241.083 172.141 241.083 172.141L236.136 104.932Z" fill="#4CAF50"/>
<path fill-rule="evenodd" clip-rule="evenodd" d="M236.136 104.932C236.136 104.298 234.698 95.0735 234.698 95.0735C234.698 95.0735 243.06 98.6713 247.901 107.589C248.388 108.485 248.875 109.567 249.368 110.791C247.214 111.629 245.46 113.323 244.967 116.434C243.541 125.454 245.442 149.914 248.611 155.262C250.242 158.021 252.636 158.299 254.825 157.126C250.952 165.398 241.083 172.141 241.083 172.141L236.136 104.932Z" fill="#388E3C"/>
<path fill-rule="evenodd" clip-rule="evenodd" d="M179.892 192.787C179.892 192.787 178.848 194.872 179.892 201.977H236.247C236.247 201.977 239.821 199.581 239.598 190.663L179.892 192.787Z" fill="#331C38"/>
<path fill-rule="evenodd" clip-rule="evenodd" d="M179.786 188.753C179.786 188.753 178.302 192.26 178.742 193.637C179.182 195.02 183.471 199.479 198.423 200.006C213.374 200.538 228.883 199.156 234.598 195.864C240.314 192.572 241.358 190.765 240.813 186.147C240.261 181.529 179.786 188.748 179.786 188.748V188.753Z" fill="white"/>
<path fill-rule="evenodd" clip-rule="evenodd" d="M190.284 100.79L182.697 98.2407C182.697 98.2407 174.893 105.459 169.394 117.777C163.896 130.094 157.741 146.015 157.301 150.899C156.861 155.783 165.216 174.679 181.054 180.838C196.886 186.997 186.112 170.435 186.112 170.435C186.112 170.435 174.676 153.659 174.235 150.69C173.795 147.715 181.054 142.304 181.054 142.304C181.054 142.304 203.927 132.644 203.047 129.669C202.167 126.695 190.29 100.79 190.29 100.79H190.284Z" fill="#4CAF50"/>
<path fill-rule="evenodd" clip-rule="evenodd" d="M157.289 151.585C157.565 157.342 165.874 174.94 181.048 180.844C184.029 182.005 186.065 182.356 187.409 182.169C186.669 178.356 186.212 174.334 185.983 170.26C185.197 169.098 180.749 162.514 177.551 157.211C175.99 164.464 168.784 167.234 163.984 162.605C159.002 157.795 157.342 151.795 157.289 151.591V151.585ZM174.229 150.69C173.789 147.715 181.048 142.304 181.048 142.304C181.048 142.304 184.158 140.99 188.037 139.182C189.674 123.969 188.747 115.947 187.655 120.513C186.388 125.822 181.482 132.48 176.97 141.885C172.457 151.285 174.235 150.69 174.235 150.69H174.229Z" fill="#388E3C"/>
<path fill-rule="evenodd" clip-rule="evenodd" d="M206.773 45.8993C212.025 45.8993 216.32 50.0354 216.32 55.095V73.4468C216.32 78.5065 212.025 82.6426 206.773 82.6426C201.521 82.6426 197.226 78.5065 197.226 73.4468V55.095C197.226 50.0354 201.521 45.8993 206.773 45.8993Z" fill="#F4AD85"/>
<path d="M206.262 71.7697H217.441C218.315 71.7697 219.031 72.4553 219.031 73.3052V94.2689C219.031 95.1131 218.321 95.8044 217.441 95.8044H206.262C205.388 95.8044 204.672 95.1188 204.672 94.2689V73.3052C204.672 72.461 205.382 71.7697 206.262 71.7697Z" fill="#F09576"/>
<path fill-rule="evenodd" clip-rule="evenodd" d="M195.307 59.5937C195.307 59.5937 188.993 58.7042 187.614 52.7154C186.235 46.7265 189.797 38.188 202.431 42.0692H212.934C220.023 42.0692 225.885 43.4347 229.335 47.9617C234.921 55.2877 233.513 71.6677 226.665 78.1722C218.861 85.5888 206.198 81.7757 206.268 71.7697C207.148 70.9198 207.694 69.747 207.694 68.4495C207.694 66.9764 206.99 65.6562 205.887 64.795C204.567 63.7695 202.824 64.0245 202.824 68.5232V72.4836C202.824 72.4836 200.013 71.8717 200.013 68.9368C200.013 66.0019 200.013 59.2368 195.307 59.5994V59.5937Z" fill="#3F2C44"/>
<path fill-rule="evenodd" clip-rule="evenodd" d="M200.923 41.6612C201.41 41.7802 201.908 41.9162 202.425 42.0749H210.082C211.843 56.1602 224.594 59.2935 232.774 59.8374C232.797 60.8403 232.774 61.8544 232.697 62.8686C212.43 64.2454 204.038 49.8541 200.923 41.6612Z" fill="#4F3F55"/>
<path fill-rule="evenodd" clip-rule="evenodd" d="M195.307 59.5937C195.307 59.5937 188.993 58.7042 187.614 52.7154C187.115 50.5453 187.262 48.0353 188.26 45.9106C188.225 46.075 186.611 54.0129 192.49 54.0129C198.37 54.0129 207.612 54.7778 209.114 60.2057C210.546 65.3729 215.141 79.6963 231.031 71.0105C230.004 73.8774 228.537 76.3987 226.665 78.1778C218.861 85.5945 206.198 81.7813 206.268 71.7754C207.148 70.9255 207.694 69.7527 207.694 68.4552C207.694 66.9821 206.99 65.6619 205.887 64.8007C204.567 63.7752 202.824 64.0301 202.824 68.5288V72.4893C202.824 72.4893 200.013 71.8774 200.013 68.9425C200.013 66.0075 200.013 59.2425 195.307 59.6051V59.5937Z" fill="#331C38"/>
<path fill-rule="evenodd" clip-rule="evenodd" d="M195.066 92.6145C195.066 92.6145 186.546 94.6316 182.697 98.2407C182.697 98.2407 194.902 120.644 181.048 142.304C181.048 142.304 177.31 179.036 177.527 183.076C177.744 187.11 178.519 189.127 181.048 191.359C183.577 193.592 199.632 197.728 218.761 195.394C237.89 193.059 241.523 187.433 241.963 185.093C242.403 182.759 244.492 167.999 242.954 144.004C241.417 120.009 244.087 96.8299 232.691 94.3539C221.296 91.8779 195.072 92.6202 195.072 92.6202L195.066 92.6145Z" fill="#4CAF50"/>
<path fill-rule="evenodd" clip-rule="evenodd" d="M195.066 92.6145C195.066 92.6145 190.325 93.7364 186.317 95.8044C186.458 95.7534 191.088 94.014 192.96 97.8498C194.861 101.748 192.379 124.049 219.348 124.049C219.348 124.049 210.534 102.649 210.534 99.2266C210.534 97.5042 207.418 94.7902 204.314 92.5069C198.922 92.5069 195.072 92.6088 195.072 92.6088L195.066 92.6145Z" fill="#388E3C"/>
<path fill-rule="evenodd" clip-rule="evenodd" d="M187.655 120.519C187.514 127.233 185.842 134.808 181.048 142.304C181.048 142.304 177.31 179.036 177.527 183.076C177.744 187.11 178.519 189.127 181.048 191.359C182.157 192.34 185.877 193.688 191.317 194.691C185.285 181.971 184.815 162.265 187.022 147.16C189.973 126.916 188.923 115.21 187.655 120.519Z" fill="#388E3C"/>
<path fill-rule="evenodd" clip-rule="evenodd" d="M195.066 92.6145C195.066 92.6145 197.32 92.5069 198.64 94.6316C199.96 96.7563 199.796 122.026 216.179 124.043C226.601 125.324 232.304 114.411 233.607 104.519C234.681 96.354 232.058 85.6908 219.23 86.1044C219.16 86.1044 219.031 86.0931 219.031 86.1611V87.9118C218.157 91.6287 212.447 90.7844 209.689 89.1583C205.171 86.4954 199.174 84.246 195.066 92.6088V92.6145Z" fill="white"/>
<path fill-rule="evenodd" clip-rule="evenodd" d="M220.322 86.0988C219.964 86.0931 219.6 86.0987 219.23 86.1044C219.16 86.1044 219.031 86.0931 219.031 86.1611V87.9118C218.25 91.2094 213.662 90.9147 210.716 89.6682C224.195 98.1501 225.908 86.739 220.322 86.0931V86.0988Z" fill="#F8CFBE"/>
<path fill-rule="evenodd" clip-rule="evenodd" d="M33.4059 108.19L31.939 108.105C31.939 108.105 30.161 109.221 29.6857 110.428C29.2104 111.629 22.9141 126.547 19.7572 136.723C19.7572 136.723 27.4441 137.641 29.1869 143.262C29.1869 143.262 39.2093 130.247 39.755 128.089C40.3007 125.93 41.9554 116.094 33.4001 108.196L33.4059 108.19Z" fill="white"/>
<path fill-rule="evenodd" clip-rule="evenodd" d="M33.4059 108.19L31.9389 108.105C31.9389 108.105 31.1878 108.575 30.5306 109.238C40.6293 112.706 34.5971 129.641 30.9414 134.865C29.269 137.256 27.3092 138.355 25.6192 138.831C27.1566 139.811 28.559 141.228 29.1869 143.256C29.1869 143.256 39.2092 130.242 39.755 128.083C40.3007 125.924 41.9554 116.088 33.4 108.19H33.4059Z" fill="#FDF1EF"/>
<path fill-rule="evenodd" clip-rule="evenodd" d="M86.7157 115.425C85.237 117.397 82.4145 122.1 84.3686 127.284L85.2077 127.38C83.0776 122.264 85.9998 117.573 87.4023 115.743L86.7216 115.425H86.7157ZM88.1005 116.077L88.7753 116.394C87.3318 118.383 84.8556 122.774 86.7509 127.556L85.9235 127.465C84.1808 122.598 86.5984 118.179 88.1005 116.077Z" fill="#3F2C44"/>
<path fill-rule="evenodd" clip-rule="evenodd" d="M20.7372 133.709C23.0432 133.975 28.829 135.143 31.4871 140.231L30.9884 140.894C28.5062 135.698 22.609 134.627 20.5024 134.406C20.5787 134.174 20.655 133.941 20.7372 133.709ZM20.2677 135.114C20.1914 135.347 20.1152 135.579 20.0447 135.811C22.4036 136.117 27.6906 137.341 30.0554 142.123L30.5541 141.466C28.0133 136.752 22.7674 135.466 20.2677 135.114Z" fill="#3F2C44"/>
<path fill-rule="evenodd" clip-rule="evenodd" d="M53.1749 106.156C53.0047 118.083 35.9115 103.425 43.399 103.261C43.399 103.261 45.5642 105.759 53.1749 106.156Z" fill="#3F2C44"/>
<path fill-rule="evenodd" clip-rule="evenodd" d="M54.988 102.921C54.988 102.921 56.2144 105.391 53.1749 106.156C53.1749 106.156 54.2956 109.431 56.4902 108.904C58.6848 108.377 57.9455 102.224 54.988 102.921Z" fill="#3F2C44"/>
<path fill-rule="evenodd" clip-rule="evenodd" d="M47.2777 121.68L52.3006 121.239C52.6292 121.21 52.8991 121.448 52.8991 121.765V123.329C52.8991 123.647 52.6292 123.93 52.3006 123.964L47.2777 124.4C46.9491 124.428 46.685 124.19 46.685 123.873V122.309C46.685 121.992 46.9549 121.709 47.2777 121.675V121.68Z" fill="white"/>
<path fill-rule="evenodd" clip-rule="evenodd" d="M107.195 35.4004H78.7002C76.3237 35.4004 74.3755 37.2815 74.3755 39.5762V69.0218C74.3755 69.2144 74.487 69.3787 74.6748 69.4524C74.8567 69.526 75.0621 69.4864 75.2029 69.3504L82.573 62.234H107.201C109.577 62.234 111.525 60.353 111.525 58.0583V39.5705C111.525 37.2758 109.577 35.3948 107.201 35.3948L107.195 35.4004Z" fill="white"/>
<path fill-rule="evenodd" clip-rule="evenodd" d="M143.54 19.4453H172.035C174.411 19.4453 176.36 21.3264 176.36 23.6211V53.0667C176.36 53.2593 176.248 53.4236 176.06 53.4973C175.878 53.5709 175.679 53.5312 175.532 53.3953L168.168 46.2846H143.54C141.164 46.2846 139.216 44.4035 139.216 42.1088V23.6211C139.216 21.3264 141.164 19.4453 143.54 19.4453Z" fill="white"/>
<path fill-rule="evenodd" clip-rule="evenodd" d="M156.579 36.8962C156.321 36.5563 155.664 30.0065 155.353 26.7373C155.259 25.7571 155.182 24.8562 155.335 24.1423C155.81 21.9836 159.701 21.9213 160.229 24.0687C160.405 24.7939 160.328 25.7231 160.229 26.7373C159.918 30.0065 159.261 36.5563 159.002 36.8962C158.515 37.5421 157.066 37.5421 156.573 36.8962H156.579ZM157.794 38.9813C158.633 38.9813 159.313 39.6385 159.313 40.4487C159.313 41.2589 158.633 41.9162 157.794 41.9162C156.954 41.9162 156.274 41.2589 156.274 40.4487C156.274 39.6385 156.954 38.9813 157.794 38.9813Z" fill="#4CAF50"/>
<path fill-rule="evenodd" clip-rule="evenodd" d="M63.9835 31.7573C63.9835 31.525 63.7899 31.338 63.5493 31.338C63.3087 31.338 63.1151 31.525 63.1151 31.7573V32.7375H62.0999C61.8594 32.7375 61.6657 32.9244 61.6657 33.1567C61.6657 33.389 61.8594 33.576 62.0999 33.576H63.1151V34.5562C63.1151 34.7885 63.3087 34.9755 63.5493 34.9755C63.7899 34.9755 63.9835 34.7885 63.9835 34.5562V33.576H64.9987C65.2393 33.576 65.4329 33.389 65.4329 33.1567C65.4329 32.9244 65.2393 32.7375 64.9987 32.7375H63.9835V31.7573Z" fill="white"/>
<path fill-rule="evenodd" clip-rule="evenodd" d="M178.736 80.0646C178.736 79.8323 178.542 79.6453 178.302 79.6453C178.061 79.6453 177.868 79.8323 177.868 80.0646V81.0448H176.853C176.612 81.0448 176.418 81.2318 176.418 81.4641C176.418 81.6964 176.612 81.8833 176.853 81.8833H177.868V82.8635C177.868 83.0958 178.061 83.2828 178.302 83.2828C178.542 83.2828 178.736 83.0958 178.736 82.8635V81.8833H179.751C179.992 81.8833 180.185 81.6964 180.185 81.4641C180.185 81.2318 179.992 81.0448 179.751 81.0448H178.736V80.0646Z" fill="white"/>
<path fill-rule="evenodd" clip-rule="evenodd" d="M166.384 7.60362C166.384 7.37132 166.191 7.18434 165.95 7.18434C165.709 7.18434 165.516 7.37132 165.516 7.60362V8.58381H164.501C164.26 8.58381 164.066 8.77079 164.066 9.00309C164.066 9.23539 164.26 9.42236 164.501 9.42236H165.516V10.4026C165.516 10.6349 165.709 10.8218 165.95 10.8218C166.191 10.8218 166.384 10.6349 166.384 10.4026V9.42236H167.399C167.64 9.42236 167.834 9.23539 167.834 9.00309C167.834 8.77079 167.64 8.58381 167.399 8.58381H166.384V7.60362Z" fill="white"/>
<path fill-rule="evenodd" clip-rule="evenodd" d="M108.756 15.8588C108.756 15.6265 108.562 15.4395 108.321 15.4395C108.081 15.4395 107.887 15.6265 107.887 15.8588V16.839H106.872C106.631 16.839 106.438 17.026 106.438 17.2583C106.438 17.4906 106.631 17.6776 106.872 17.6776H107.887V18.6578C107.887 18.8901 108.081 19.077 108.321 19.077C108.562 19.077 108.756 18.8901 108.756 18.6578V17.6776H109.771C110.011 17.6776 110.205 17.4906 110.205 17.2583C110.205 17.026 110.011 16.839 109.771 16.839H108.756V15.8588Z" fill="white"/>
<path fill-rule="evenodd" clip-rule="evenodd" d="M242.062 85.8778C242.062 85.6455 241.869 85.4585 241.628 85.4585C241.388 85.4585 241.194 85.6455 241.194 85.8778V86.858H240.179C239.938 86.858 239.745 87.0449 239.745 87.2772C239.745 87.5095 239.938 87.6965 240.179 87.6965H241.194V88.6767C241.194 88.909 241.388 89.096 241.628 89.096C241.869 89.096 242.062 88.909 242.062 88.6767V87.6965H243.078C243.318 87.6965 243.512 87.5095 243.512 87.2772C243.512 87.0449 243.318 86.858 243.078 86.858H242.062V85.8778Z" fill="white"/>
<path fill-rule="evenodd" clip-rule="evenodd" d="M81.8395 106.473C81.8395 106.241 81.6459 106.054 81.4053 106.054C81.1647 106.054 80.9711 106.241 80.9711 106.473V107.453H79.9559C79.7154 107.453 79.5217 107.64 79.5217 107.873C79.5217 108.105 79.7154 108.292 79.9559 108.292H80.9711V109.272C80.9711 109.504 81.1647 109.691 81.4053 109.691C81.6459 109.691 81.8395 109.504 81.8395 109.272V108.292H82.8547C83.0953 108.292 83.2889 108.105 83.2889 107.873C83.2889 107.64 83.0953 107.453 82.8547 107.453H81.8395V106.473Z" fill="white"/>
<path fill-rule="evenodd" clip-rule="evenodd" d="M125.855 27.0886C125.855 26.8563 125.661 26.6693 125.42 26.6693C125.18 26.6693 124.986 26.8563 124.986 27.0886V28.0688H123.971C123.73 28.0688 123.537 28.2558 123.537 28.4881C123.537 28.7204 123.73 28.9073 123.971 28.9073H124.986V29.8875C124.986 30.1198 125.18 30.3068 125.42 30.3068C125.661 30.3068 125.855 30.1198 125.855 29.8875V28.9073H126.87C127.11 28.9073 127.304 28.7204 127.304 28.4881C127.304 28.2558 127.11 28.0688 126.87 28.0688H125.855V27.0886Z" fill="#719FD4"/>
<path fill-rule="evenodd" clip-rule="evenodd" d="M168.285 69.2824C168.285 69.0501 168.092 68.8631 167.851 68.8631C167.611 68.8631 167.417 69.0501 167.417 69.2824V70.2626H166.402C166.161 70.2626 165.968 70.4496 165.968 70.6819C165.968 70.9142 166.161 71.1012 166.402 71.1012H167.417V72.0813C167.417 72.3137 167.611 72.5006 167.851 72.5006C168.092 72.5006 168.285 72.3137 168.285 72.0813V71.1012H169.3C169.541 71.1012 169.735 70.9142 169.735 70.6819C169.735 70.4496 169.541 70.2626 169.3 70.2626H168.285V69.2824Z" fill="#719FD4"/>
<path fill-rule="evenodd" clip-rule="evenodd" d="M81.2058 78.8577C81.2058 78.6254 81.0122 78.4385 80.7716 78.4385C80.531 78.4385 80.3374 78.6254 80.3374 78.8577V79.8379H79.3222C79.0816 79.8379 78.888 80.0249 78.888 80.2572C78.888 80.4895 79.0816 80.6765 79.3222 80.6765H80.3374V81.6567C80.3374 81.889 80.531 82.076 80.7716 82.076C81.0122 82.076 81.2058 81.889 81.2058 81.6567V80.6765H82.221C82.4615 80.6765 82.6552 80.4895 82.6552 80.2572C82.6552 80.0249 82.4615 79.8379 82.221 79.8379H81.2058V78.8577Z" fill="#719FD4"/>
<path fill-rule="evenodd" clip-rule="evenodd" d="M98.2462 134.712C98.2462 134.48 98.0525 134.293 97.8119 134.293C97.5714 134.293 97.3777 134.48 97.3777 134.712V135.692H96.3626C96.122 135.692 95.9283 135.879 95.9283 136.111C95.9283 136.344 96.122 136.531 96.3626 136.531H97.3777V137.511C97.3777 137.743 97.5714 137.93 97.8119 137.93C98.0525 137.93 98.2462 137.743 98.2462 137.511V136.531H99.2613C99.5019 136.531 99.6955 136.344 99.6955 136.111C99.6955 135.879 99.5019 135.692 99.2613 135.692H98.2462V134.712Z" fill="#719FD4"/>
<path fill-rule="evenodd" clip-rule="evenodd" d="M102.377 99.9405C102.401 96.9886 103.709 95.7251 104.331 94.4842C104.771 93.6004 105.106 90.0875 105.088 89.2433C105.07 88.4444 104.396 82.3536 103.058 85.8721C103.058 85.8721 103.081 84.178 102.53 83.1695C101.978 82.1666 101.198 84.28 101.198 84.28C101.198 84.28 101.086 82.0873 100.048 82.1156C99.009 82.1383 99.3024 85.6681 99.1263 84.6766C98.9444 83.6851 98.6804 82.1723 97.5596 82.3366C97.495 82.3763 97.4305 82.4103 97.3659 82.4499C97.143 82.5916 96.9317 89.6909 96.9845 90.7618C95.7582 89.1697 94.8369 88.926 94.2149 88.6711C93.7572 88.4841 93.1645 88.6994 93.0824 88.9487C93.012 89.164 94.209 90.5805 94.3029 91.0111C95.0481 94.3993 97.407 94.9092 98.6862 97.2945C98.6158 97.7251 98.9738 98.983 98.874 99.5156C100.875 99.8328 100.922 99.6459 102.371 99.9348L102.377 99.9405Z" fill="#F4AD85"/>
</svg>
