<svg width="148" height="208" viewBox="0 0 148 208" fill="none" xmlns="http://www.w3.org/2000/svg">
<path d="M132.892 104C125.279 97.6593 115.601 94.2936 105.67 94.5332H41.836C38.9255 94.6062 36.0301 94.0949 33.3231 93.03C30.6162 91.9651 28.1533 90.3683 26.0819 88.3354C24.0106 86.3025 22.3733 83.8752 21.2682 81.1989C20.1631 78.5225 19.6129 75.6521 19.6504 72.7594C19.5795 71.6335 19.5795 70.5043 19.6504 69.3784C20.5087 64.2096 23.2364 59.5299 27.3214 56.2179C31.4063 52.906 36.5676 51.1898 41.836 51.3914H104.718C109.847 51.3869 114.811 53.1929 118.725 56.4873C122.639 59.7817 125.248 64.3503 126.087 69.3784H146.503C145.648 58.9505 140.875 49.224 133.133 42.1327C125.391 35.0415 115.247 31.1048 104.718 31.1053H83.2127V0H66.1993V31.1053H41.836C31.3065 31.1048 21.1623 35.0415 13.4203 42.1327C5.67836 49.224 0.905593 58.9505 0.0509232 69.3784C-0.0169744 70.5044 -0.0169744 71.6334 0.0509232 72.7594C0.0509232 78.2118 1.13172 83.6107 3.23162 88.648C5.33152 93.6853 8.40938 98.2623 12.2895 102.118C20.1257 109.904 30.7539 114.278 41.836 114.278H106.351C109.238 114.206 112.111 114.709 114.8 115.757C117.489 116.805 119.939 118.378 122.007 120.382C124.074 122.386 125.717 124.781 126.839 127.426C127.96 130.07 128.538 132.912 128.537 135.782C128.678 137.311 128.678 138.85 128.537 140.38C127.456 145.138 124.779 149.39 120.945 152.438C117.112 155.485 112.349 157.146 107.44 157.15H43.4693C38.5599 157.146 33.7974 155.485 29.9638 152.438C26.1302 149.39 23.4533 145.138 22.3726 140.38H1.82032C2.99001 150.541 7.88123 159.92 15.562 166.728C23.2427 173.537 33.1761 177.3 43.4693 177.3H66.1993V208H83.2127V177.3H106.351C116.644 177.3 126.578 173.537 134.258 166.728C141.939 159.92 146.83 150.541 148 140.38V135.782C147.984 129.707 146.622 123.711 144.01 118.218C141.399 112.725 137.603 107.871 132.892 104Z" fill="white"/>
</svg>
