<svg width="40" height="40" viewBox="0 0 40 40" fill="none" xmlns="http://www.w3.org/2000/svg">
<rect width="40" height="40" rx="20" fill="#00B907"/>
<path d="M12.5 16.6667L17.0416 19.6944C18.1108 20.4072 18.6454 20.7636 19.2232 20.9021C19.7338 21.0244 20.2662 21.0244 20.7768 20.9021C21.3546 20.7636 21.8893 20.4072 22.9584 19.6944L27.5 16.6667M15.1667 25.8334H24.8333C25.7667 25.8334 26.2335 25.8334 26.59 25.6517C26.9036 25.4919 27.1586 25.2369 27.3183 24.9234C27.5 24.5669 27.5 24.1001 27.5 23.1667V16.8334C27.5 15.8999 27.5 15.4332 27.3183 15.0767C27.1586 14.7631 26.9036 14.5081 26.59 14.3483C26.2335 14.1667 25.7667 14.1667 24.8333 14.1667H15.1667C14.2332 14.1667 13.7665 14.1667 13.41 14.3483C13.0964 14.5081 12.8414 14.7631 12.6817 15.0767C12.5 15.4332 12.5 15.8999 12.5 16.8334V23.1667C12.5 24.1001 12.5 24.5669 12.6817 24.9234C12.8414 25.2369 13.0964 25.4919 13.41 25.6517C13.7665 25.8334 14.2332 25.8334 15.1667 25.8334Z" stroke="white" stroke-width="2" stroke-linecap="round" stroke-linejoin="round"/>
</svg>
