<svg width="378" height="230" viewBox="0 0 378 230" fill="none" xmlns="http://www.w3.org/2000/svg">
<g clip-path="url(#clip0_115_433)">
<path d="M302.299 129.923C302.108 129.923 301.914 129.894 301.721 129.834L297.574 128.551C297.056 128.39 296.63 128.031 296.375 127.539C296.119 127.048 296.065 126.483 296.22 125.951L297.632 121.091C295.878 120.126 294.27 118.916 292.844 117.486L288.802 120.314C287.879 120.959 286.621 120.708 285.996 119.755L283.572 116.054C283.269 115.592 283.159 115.037 283.261 114.489C283.363 113.941 283.665 113.466 284.112 113.154L288.108 110.36C287.261 108.295 286.731 106.108 286.53 103.851L281.79 103.289C281.253 103.225 280.772 102.948 280.437 102.511C280.102 102.075 279.952 101.529 280.014 100.976L280.509 96.5345C280.636 95.3897 281.64 94.566 282.748 94.6978L287.426 95.2539C288.054 93.2188 288.963 91.2972 290.136 89.5349L286.906 86.0639C286.532 85.6618 286.331 85.1331 286.341 84.5757C286.353 84.017 286.572 83.4974 286.962 83.1097L290.084 80.0107C290.887 79.2118 292.169 79.2379 292.94 80.0681L296.142 83.5079C297.959 82.3017 299.933 81.397 302.016 80.8161L301.718 76.0749C301.647 74.9262 302.492 73.9288 303.603 73.8544L307.923 73.5633C309.048 73.4863 309.998 74.3622 310.071 75.511L310.37 80.2535C312.508 80.5498 314.577 81.1817 316.528 82.1333L319.273 78.2915C319.934 77.3646 321.202 77.1675 322.098 77.8503L325.58 80.5041C326.015 80.8357 326.298 81.3213 326.379 81.8735C326.46 82.4257 326.327 82.9766 326.006 83.4256L323.238 87.3014C324.62 88.8927 325.763 90.6759 326.64 92.6092L331.209 91.4291C332.291 91.1523 333.39 91.8325 333.659 92.9499L334.706 97.2877C334.836 97.8282 334.757 98.3895 334.48 98.8673C334.201 99.3464 333.759 99.6845 333.235 99.8202L328.605 101.015C328.69 103.28 328.438 105.518 327.856 107.68L332.166 109.914C332.649 110.164 333.009 110.594 333.179 111.124C333.349 111.652 333.309 112.219 333.067 112.718L331.127 116.713C330.627 117.742 329.411 118.16 328.414 117.644L324.051 115.385C322.817 116.993 321.373 118.409 319.754 119.601L321.764 124.231C321.984 124.74 322.001 125.307 321.809 125.828C321.618 126.35 321.24 126.764 320.746 126.992L316.797 128.821C315.78 129.291 314.583 128.821 314.127 127.77L312.107 123.116C311.054 123.358 309.975 123.517 308.898 123.589C307.821 123.662 306.731 123.649 305.655 123.551L304.236 128.436C303.974 129.339 303.169 129.925 302.299 129.925V129.923ZM292.925 116.597L293.119 116.797C294.611 118.331 296.314 119.613 298.184 120.609L298.431 120.741L296.859 126.15C296.755 126.508 296.792 126.885 296.962 127.213C297.133 127.542 297.419 127.783 297.766 127.89L301.912 129.174C302.629 129.394 303.385 128.974 303.598 128.235L305.176 122.807L305.449 122.836C306.577 122.953 307.724 122.974 308.855 122.898C309.988 122.821 311.12 122.647 312.223 122.379L312.49 122.314L314.734 127.484C315.039 128.188 315.842 128.503 316.523 128.188L320.472 126.359C320.804 126.206 321.056 125.93 321.184 125.578C321.313 125.23 321.301 124.851 321.154 124.511L318.919 119.358L319.147 119.195C320.878 117.955 322.408 116.455 323.693 114.734L323.86 114.51L328.713 117.023C329.382 117.37 330.197 117.089 330.531 116.399L332.471 112.403C332.632 112.07 332.66 111.692 332.547 111.338C332.433 110.983 332.193 110.696 331.869 110.527L327.061 108.036L327.139 107.76C327.78 105.497 328.046 103.142 327.928 100.763L327.914 100.478L333.075 99.1466C333.426 99.0566 333.722 98.8294 333.909 98.5083C334.094 98.1885 334.148 97.8138 334.061 97.4522L333.014 93.1144C332.834 92.3664 332.098 91.9095 331.372 92.0975L326.266 93.4159L326.151 93.1535C325.251 91.1014 324.046 89.2177 322.564 87.5559L322.376 87.3458L325.472 83.0131C325.686 82.7129 325.776 82.3435 325.721 81.9753C325.667 81.6059 325.478 81.2809 325.187 81.0589L321.704 78.4051C321.103 77.9469 320.253 78.08 319.811 78.7001L316.738 83.0014L316.488 82.8761C314.447 81.8474 312.27 81.183 310.015 80.901L309.741 80.867L309.407 75.5541C309.358 74.7852 308.711 74.2016 307.968 74.2499L303.649 74.5411C302.904 74.592 302.337 75.2577 302.385 76.0279L302.719 81.3396L302.45 81.4101C300.25 81.991 298.174 82.9426 296.278 84.2376L296.046 84.3956L292.46 80.5433C291.942 79.9872 291.083 79.9702 290.545 80.5055L287.424 83.6045C287.163 83.863 287.015 84.2115 287.008 84.5848C287 84.9582 287.135 85.312 287.385 85.5809L290.997 89.4618L290.837 89.6955C289.576 91.54 288.614 93.57 287.979 95.7265L287.899 96.0019L282.67 95.3819C281.926 95.2866 281.253 95.8453 281.169 96.6115L280.674 101.053C280.632 101.423 280.733 101.787 280.957 102.079C281.183 102.372 281.504 102.558 281.865 102.599L287.148 103.226L287.169 103.509C287.352 105.885 287.91 108.184 288.827 110.343L288.939 110.607L284.484 113.721C284.184 113.932 283.981 114.249 283.913 114.616C283.845 114.981 283.92 115.353 284.121 115.663L286.545 119.363C286.965 120.002 287.808 120.17 288.427 119.737L292.921 116.593L292.925 116.597ZM307.531 114.54C301.203 114.54 295.861 109.446 295.445 102.83C295.011 95.9393 300.087 89.9657 306.758 89.5167C309.99 89.2987 313.109 90.3939 315.543 92.5987C317.977 94.8049 319.433 97.8595 319.643 101.197C319.854 104.537 318.791 107.76 316.654 110.275C314.517 112.789 311.561 114.295 308.33 114.513C308.062 114.531 307.795 114.54 307.531 114.54ZM307.565 90.1798C307.311 90.1798 307.057 90.1889 306.801 90.2059C300.496 90.6315 295.701 96.2748 296.109 102.786C296.518 109.299 301.985 114.249 308.284 113.825C311.338 113.618 314.132 112.197 316.152 109.821C318.171 107.445 319.174 104.4 318.975 101.244C318.777 98.0906 317.402 95.2043 315.102 93.1196C312.995 91.2085 310.342 90.1798 307.563 90.1798H307.565Z" fill="#D1D1D1"/>
<path d="M51.2992 153.752C51.1077 153.752 50.9136 153.723 50.7209 153.663L46.5742 152.38C46.0563 152.219 45.6305 151.86 45.3747 151.368C45.1189 150.877 45.0647 150.312 45.2197 149.779L46.6322 144.919C44.8782 143.955 43.2705 142.744 41.8442 141.315L37.8021 144.143C36.8785 144.787 35.621 144.537 34.9961 143.584L32.5718 139.883C32.2694 139.421 32.1585 138.866 32.2606 138.318C32.3627 137.77 32.6651 137.294 33.1124 136.982L37.1078 134.189C36.2611 132.124 35.7306 129.937 35.5303 127.68L30.7902 127.117C30.2534 127.054 29.7721 126.777 29.4369 126.339C29.1018 125.903 28.9518 125.358 29.0136 124.804L29.5088 120.363C29.636 119.218 30.6402 118.395 31.7478 118.527L36.4262 119.083C37.0536 117.048 37.9634 115.126 39.1364 113.364L35.9058 109.893C35.5316 109.491 35.3312 108.962 35.3413 108.405C35.3526 107.846 35.5719 107.326 35.9625 106.939L39.0835 103.839C39.8874 103.041 41.1688 103.067 41.9399 103.897L45.1416 107.337C46.9585 106.13 48.9329 105.226 51.0157 104.645L50.7184 99.9037C50.6465 98.7549 51.492 97.7576 52.6033 97.6832L56.9226 97.3921C58.0478 97.3151 58.9978 98.191 59.0709 99.3398L59.3695 104.082C61.5077 104.379 63.5766 105.01 65.5284 105.962L68.2727 102.12C68.9342 101.193 70.2017 100.996 71.0976 101.679L74.5802 104.333C75.0149 104.665 75.2984 105.15 75.3791 105.702C75.4597 106.254 75.3274 106.805 75.0061 107.254L72.2379 111.13C73.6201 112.721 74.7629 114.505 75.6399 116.438L80.2086 115.258C81.291 114.981 82.3897 115.661 82.6594 116.779L83.7064 121.117C83.8362 121.657 83.7568 122.218 83.4796 122.696C83.2012 123.175 82.7589 123.513 82.2347 123.649L77.6055 124.843C77.6899 127.108 77.4379 129.347 76.8558 131.509L81.1663 133.742C81.6488 133.993 82.0092 134.423 82.1793 134.953C82.3494 135.481 82.3091 136.048 82.0671 136.546L80.1267 140.542C79.6265 141.571 78.4106 141.989 77.414 141.473L73.0506 139.213C71.817 140.822 70.3731 142.238 68.754 143.43L70.7637 148.06C70.9842 148.569 71.0006 149.136 70.809 149.657C70.6175 150.179 70.2395 150.593 69.7456 150.821L65.7968 152.65C64.7799 153.12 63.5829 152.65 63.1268 151.599L61.107 146.945C60.0537 147.187 58.9751 147.346 57.8978 147.418C56.8205 147.491 55.7306 147.478 54.6546 147.38L53.2358 152.265C52.9737 153.168 52.1686 153.754 51.2992 153.754V153.752ZM41.9248 140.426L42.1189 140.626C43.6107 142.16 45.3142 143.442 47.184 144.438L47.431 144.569L45.8585 149.979C45.7552 150.337 45.7918 150.714 45.9619 151.042C46.1332 151.371 46.4192 151.612 46.7657 151.719L50.9124 153.002C51.6293 153.223 52.3853 152.803 52.5983 152.064L54.1758 146.636L54.4492 146.665C55.5769 146.782 56.7235 146.803 57.855 146.727C58.9877 146.65 60.1205 146.475 61.223 146.208L61.4901 146.142L63.7341 151.313C64.0391 152.017 64.8417 152.331 65.5234 152.017L69.4722 150.188C69.8036 150.035 70.0556 149.758 70.1841 149.407C70.3126 149.059 70.3013 148.68 70.1539 148.339L67.9186 143.187L68.1467 143.024C69.8779 141.784 71.4075 140.284 72.6927 138.563L72.8603 138.339L77.7126 140.852C78.3816 141.199 79.1969 140.918 79.5308 140.228L81.4712 136.232C81.6324 135.899 81.6602 135.52 81.5468 135.167C81.4334 134.812 81.1927 134.524 80.8689 134.356L76.0607 131.865L76.1389 131.589C76.7802 129.326 77.046 126.971 76.9276 124.592L76.9137 124.307L82.0747 122.975C82.4262 122.885 82.7223 122.658 82.9088 122.337C83.094 122.017 83.1482 121.643 83.0613 121.281L82.0142 116.943C81.8341 116.195 81.0982 115.738 80.3724 115.926L75.2657 117.245L75.151 116.982C74.2514 114.93 73.0455 113.047 71.5638 111.385L71.376 111.175L74.4719 106.842C74.6861 106.542 74.7755 106.172 74.7214 105.804C74.6672 105.435 74.4782 105.11 74.1871 104.888L70.7045 102.234C70.1035 101.776 69.2529 101.909 68.8107 102.529L65.7375 106.83L65.4881 106.705C63.4469 105.676 61.2696 105.012 59.0154 104.73L58.7408 104.696L58.4069 99.3828C58.3577 98.614 57.7113 98.0304 56.9679 98.0787L52.6487 98.3699C51.904 98.4208 51.337 99.0865 51.3849 99.8567L51.7188 105.168L51.4504 105.239C49.2505 105.82 47.174 106.771 45.2777 108.066L45.0458 108.224L41.4599 104.372C40.942 103.816 40.0827 103.799 39.5447 104.334L36.4236 107.433C36.1628 107.692 36.0154 108.04 36.0079 108.414C36.0003 108.787 36.1351 109.141 36.3846 109.41L39.997 113.291L39.837 113.524C38.5757 115.369 37.6143 117.399 36.9793 119.555L36.8987 119.831L31.6697 119.211C30.9263 119.115 30.2534 119.674 30.169 120.44L29.6738 124.881C29.6322 125.252 29.733 125.616 29.9573 125.907C30.1829 126.201 30.5042 126.386 30.8645 126.428L36.1477 127.055L36.1691 127.338C36.3518 129.714 36.91 132.013 37.8273 134.172L37.9394 134.436L33.4841 137.55C33.1842 137.76 32.9813 138.078 32.9133 138.444C32.8452 138.81 32.9196 139.182 33.1212 139.491L35.5454 143.192C35.965 143.831 36.8079 143.999 37.4266 143.566L41.921 140.422L41.9248 140.426ZM56.5307 138.369C50.203 138.369 44.8606 133.275 44.4448 126.659C44.0114 119.768 49.0867 113.795 55.7584 113.345C58.9903 113.127 62.1087 114.223 64.5431 116.428C66.9774 118.634 68.4327 121.688 68.6431 125.026C68.8535 128.365 67.7913 131.589 65.6544 134.104C63.5174 136.618 60.5615 138.123 57.3296 138.341C57.0624 138.36 56.7953 138.369 56.5307 138.369ZM56.5647 114.009C56.3115 114.009 56.057 114.018 55.8012 114.035C49.4961 114.46 44.7006 120.104 45.1088 126.615C45.5183 133.128 50.9855 138.078 57.2842 137.653C60.3384 137.447 63.1319 136.026 65.1516 133.65C67.1714 131.274 68.1744 128.228 67.9753 125.073C67.7775 121.919 66.4016 119.033 64.1021 116.948C61.9953 115.037 59.3418 114.009 56.5635 114.009H56.5647Z" fill="#D1D1D1"/>
<path d="M292.508 100.131C268.4 23.3537 138.862 20.0158 128.913 106.158C128.913 106.158 121.233 107.734 114.46 106.659C77.5228 100.805 12.8911 174.088 62.4947 230.087H339.501C369.472 176.607 347.944 121.886 292.506 100.13L292.508 100.131Z" fill="#F3F3F3"/>
<path d="M92.1261 174.812C85.4406 167.934 76.7025 165.805 76.6155 165.783L76.7642 165.11C76.8537 165.131 85.7707 167.3 92.5961 174.323L92.1261 174.812Z" fill="#D1D1D1"/>
<path d="M126.299 88.4814C126.108 88.4814 125.914 88.4527 125.721 88.3926L121.574 87.1094C121.056 86.9489 120.63 86.5899 120.375 86.0977C120.119 85.6069 120.065 85.0417 120.22 84.5091L121.632 79.649C119.878 78.6843 118.27 77.4742 116.844 76.0448L112.802 78.8723C111.879 79.5172 110.621 79.2666 109.996 78.3136L107.572 74.6128C107.269 74.1507 107.159 73.5959 107.261 73.0476C107.363 72.4993 107.665 72.0242 108.112 71.7122L112.108 68.9186C111.261 66.8535 110.731 64.6669 110.53 62.4099L105.79 61.8472C105.253 61.7833 104.772 61.5065 104.437 61.0692C104.102 60.6332 103.952 60.0875 104.014 59.534L104.509 55.0931C104.636 53.9482 105.64 53.1245 106.748 53.2564L111.426 53.8125C112.054 51.7773 112.963 49.8558 114.136 48.0935L110.906 44.6224C110.532 44.2203 110.331 43.6916 110.341 43.1342C110.353 42.5755 110.572 42.056 110.962 41.6683L114.084 38.5692C114.887 37.7703 116.169 37.7964 116.94 38.6267L120.142 42.0664C121.959 40.8602 123.933 39.9556 126.016 39.3747L125.718 34.6334C125.647 33.4847 126.492 32.4874 127.603 32.4129L131.923 32.1218C133.048 32.0448 133.998 32.9207 134.071 34.0695L134.37 38.812C136.508 39.1084 138.577 39.7402 140.528 40.6918L143.273 36.85C143.934 35.9232 145.202 35.7261 146.098 36.4088L149.58 39.0627C150.015 39.3943 150.298 39.8799 150.379 40.432C150.46 40.9842 150.327 41.5351 150.006 41.9842L147.238 45.8599C148.62 47.4512 149.763 49.2344 150.64 51.1677L155.209 49.9876C156.291 49.7109 157.39 50.391 157.659 51.5084L158.706 55.8463C158.836 56.3867 158.757 56.948 158.48 57.4258C158.201 57.9049 157.759 58.243 157.235 58.3788L152.605 59.5732C152.69 61.8381 152.438 64.0769 151.856 66.2386L156.166 68.4722C156.649 68.7228 157.009 69.1523 157.179 69.6823C157.349 70.211 157.309 70.7775 157.067 71.2762L155.127 75.272C154.627 76.3007 153.411 76.7184 152.414 76.2028L148.051 73.9431C146.817 75.5514 145.373 76.9677 143.754 78.1596L145.764 82.7898C145.984 83.2989 146.001 83.8655 145.809 84.3863C145.618 84.9085 145.24 85.3223 144.746 85.5508L140.797 87.3796C139.78 87.8496 138.583 87.3796 138.127 86.3288L136.107 81.675C135.054 81.9165 133.975 82.0758 132.898 82.1476C131.821 82.2207 130.731 82.2076 129.655 82.1097L128.236 86.9946C127.974 87.8979 127.169 88.484 126.299 88.484V88.4814ZM116.925 75.1558L117.119 75.3556C118.611 76.8894 120.314 78.1713 122.184 79.1673L122.431 79.2992L120.859 84.7088C120.755 85.0665 120.792 85.4437 120.962 85.7714C121.133 86.1004 121.419 86.3419 121.766 86.4489L125.912 87.7321C126.629 87.9527 127.385 87.5324 127.598 86.7935L129.176 81.3656L129.449 81.3944C130.577 81.5118 131.724 81.5327 132.855 81.457C133.988 81.38 135.12 81.2051 136.223 80.9375L136.49 80.8722L138.734 86.0429C139.039 86.7465 139.842 87.0611 140.523 86.7465L144.472 84.9176C144.804 84.7649 145.056 84.4882 145.184 84.137C145.313 83.7885 145.301 83.4099 145.154 83.0692L142.919 77.9168L143.147 77.7536C144.878 76.5134 146.408 75.0135 147.693 73.293L147.86 73.0685L152.713 75.5814C153.382 75.9286 154.197 75.648 154.531 74.9574L156.471 70.9616C156.632 70.6287 156.66 70.2501 156.547 69.8963C156.433 69.5413 156.193 69.2541 155.869 69.0857L151.061 66.595L151.139 66.3182C151.78 64.056 152.046 61.701 151.928 59.3213L151.914 59.0367L157.075 57.7052C157.426 57.6151 157.722 57.388 157.909 57.0668C158.094 56.747 158.148 56.3724 158.061 56.0108L157.014 51.6729C156.834 50.9249 156.098 50.468 155.372 50.656L150.266 51.9744L150.151 51.7121C149.251 49.66 148.046 47.7763 146.564 46.1145L146.376 45.9043L149.472 41.5717C149.686 41.2714 149.776 40.902 149.721 40.5339C149.667 40.1644 149.478 39.8394 149.187 39.6175L145.704 36.9636C145.103 36.5054 144.253 36.6385 143.811 37.2586L140.738 41.5599L140.488 41.4346C138.447 40.4059 136.27 39.7415 134.015 39.4595L133.741 39.4256L133.407 34.1126C133.358 33.3437 132.711 32.7602 131.968 32.8085L127.649 33.0996C126.904 33.1505 126.337 33.8163 126.385 34.5864L126.719 39.8981L126.45 39.9686C124.25 40.5495 122.174 41.5012 120.278 42.7961L120.046 42.9541L116.46 39.1018C115.942 38.5457 115.083 38.5288 114.545 39.064L111.424 42.163C111.163 42.4215 111.015 42.77 111.008 43.1434C111 43.5167 111.135 43.8705 111.385 44.1394L114.997 48.0204L114.837 48.254C113.576 50.0986 112.614 52.1285 111.979 54.285L111.899 54.5605L106.67 53.9404C105.926 53.8451 105.253 54.4038 105.169 55.1701L104.674 59.6111C104.632 59.9818 104.733 60.346 104.957 60.6371C105.183 60.9308 105.504 61.1162 105.865 61.158L111.148 61.7846L111.169 62.0678C111.352 64.4437 111.91 66.7425 112.827 68.9016L112.939 69.1653L108.484 72.28C108.184 72.4902 107.981 72.8074 107.913 73.1742C107.845 73.5397 107.92 73.9118 108.121 74.2212L110.545 77.922C110.965 78.5603 111.808 78.7287 112.427 78.2953L116.921 75.1519L116.925 75.1558ZM131.531 73.0985C125.203 73.0985 119.861 68.0048 119.445 61.389C119.011 54.4978 124.087 48.5243 130.758 48.0752C133.99 47.8572 137.109 48.9524 139.543 51.1573C141.977 53.3634 143.433 56.418 143.643 59.756C143.854 63.0952 142.791 66.3182 140.654 68.8338C138.517 71.348 135.561 72.8531 132.33 73.0711C132.062 73.0894 131.795 73.0985 131.531 73.0985ZM131.565 48.7383C131.311 48.7383 131.057 48.7475 130.801 48.7645C124.496 49.19 119.701 54.8333 120.109 61.3446C120.518 67.8573 125.985 72.8074 132.284 72.3832C135.338 72.1769 138.132 70.7553 140.152 68.3795C142.171 66.0036 143.174 62.9581 142.975 59.803C142.777 56.6491 141.402 53.7629 139.102 51.6781C136.995 49.767 134.342 48.7383 131.563 48.7383H131.565Z" fill="#D1D1D1"/>
<path d="M206.481 66.7128H107.326C103.894 66.7128 101.112 69.5947 101.112 73.1497V223.305C101.112 226.86 103.894 229.742 107.326 229.742H206.481C209.913 229.742 212.694 226.86 212.694 223.305V73.1497C212.694 69.5947 209.913 66.7128 206.481 66.7128Z" fill="#388E3C"/>
<path d="M176.568 73.886H137.239V80.7263H176.568V73.886Z" fill="#D3DFFF"/>
<path d="M201.563 91.1526H112.242V111.676H201.563V91.1526Z" fill="#D1D1D1"/>
<path d="M197.655 93.9592H116.151V108.868H197.655V93.9592Z" fill="white"/>
<path d="M178.269 121.195H172.2C170.379 121.195 168.902 122.725 168.902 124.613V126.066C168.902 127.953 170.379 129.483 172.2 129.483H178.269C180.09 129.483 181.567 127.953 181.567 126.066V124.613C181.567 122.725 180.09 121.195 178.269 121.195Z" fill="#4CAF50"/>
<path d="M198.266 121.195H192.198C190.376 121.195 188.899 122.725 188.899 124.613V126.066C188.899 127.953 190.376 129.483 192.198 129.483H198.266C200.088 129.483 201.565 127.953 201.565 126.066V124.613C201.565 122.725 200.088 121.195 198.266 121.195Z" fill="#4CAF50"/>
<path d="M199.99 139.497H187.802C186.934 139.497 186.231 140.226 186.231 141.125V148.69C186.231 149.589 186.934 150.317 187.802 150.317H199.99C200.857 150.317 201.561 149.589 201.561 148.69V141.125C201.561 140.226 200.857 139.497 199.99 139.497Z" fill="#4CAF50"/>
<path d="M175.531 139.497H163.343C162.475 139.497 161.771 140.226 161.771 141.125V148.69C161.771 149.589 162.475 150.317 163.343 150.317H175.531C176.398 150.317 177.102 149.589 177.102 148.69V141.125C177.102 140.226 176.398 139.497 175.531 139.497Z" fill="#4CAF50"/>
<path d="M151.073 139.497H138.885C138.017 139.497 137.314 140.226 137.314 141.125V148.69C137.314 149.589 138.017 150.317 138.885 150.317H151.073C151.94 150.317 152.644 149.589 152.644 148.69V141.125C152.644 140.226 151.94 139.497 151.073 139.497Z" fill="#4CAF50"/>
<path d="M126.614 139.497H114.426C113.558 139.497 112.854 140.226 112.854 141.125V148.69C112.854 149.589 113.558 150.317 114.426 150.317H126.614C127.481 150.317 128.185 149.589 128.185 148.69V141.125C128.185 140.226 127.481 139.497 126.614 139.497Z" fill="#4CAF50"/>
<path d="M199.99 159.066H187.802C186.934 159.066 186.231 159.795 186.231 160.694V168.259C186.231 169.158 186.934 169.887 187.802 169.887H199.99C200.857 169.887 201.561 169.158 201.561 168.259V160.694C201.561 159.795 200.857 159.066 199.99 159.066Z" fill="#4CAF50"/>
<path d="M175.531 159.066H163.343C162.475 159.066 161.771 159.795 161.771 160.694V168.259C161.771 169.158 162.475 169.887 163.343 169.887H175.531C176.398 169.887 177.102 169.158 177.102 168.259V160.694C177.102 159.795 176.398 159.066 175.531 159.066Z" fill="#D3DFFF"/>
<path d="M151.073 159.066H138.885C138.017 159.066 137.314 159.795 137.314 160.694V168.259C137.314 169.158 138.017 169.887 138.885 169.887H151.073C151.94 169.887 152.644 169.158 152.644 168.259V160.694C152.644 159.795 151.94 159.066 151.073 159.066Z" fill="#D3DFFF"/>
<path d="M126.614 159.066H114.426C113.558 159.066 112.854 159.795 112.854 160.694V168.259C112.854 169.158 113.558 169.887 114.426 169.887H126.614C127.481 169.887 128.185 169.158 128.185 168.259V160.694C128.185 159.795 127.481 159.066 126.614 159.066Z" fill="#D3DFFF"/>
<path d="M199.99 178.634H187.802C186.934 178.634 186.231 179.363 186.231 180.262V187.827C186.231 188.726 186.934 189.455 187.802 189.455H199.99C200.857 189.455 201.561 188.726 201.561 187.827V180.262C201.561 179.363 200.857 178.634 199.99 178.634Z" fill="#1F3C88"/>
<path d="M175.531 178.634H163.343C162.475 178.634 161.771 179.363 161.771 180.262V187.827C161.771 188.726 162.475 189.455 163.343 189.455H175.531C176.398 189.455 177.102 188.726 177.102 187.827V180.262C177.102 179.363 176.398 178.634 175.531 178.634Z" fill="#D3DFFF"/>
<path d="M151.073 178.634H138.885C138.017 178.634 137.314 179.363 137.314 180.262V187.827C137.314 188.726 138.017 189.455 138.885 189.455H151.073C151.94 189.455 152.644 188.726 152.644 187.827V180.262C152.644 179.363 151.94 178.634 151.073 178.634Z" fill="#D3DFFF"/>
<path d="M126.614 178.634H114.426C113.558 178.634 112.854 179.363 112.854 180.262V187.827C112.854 188.726 113.558 189.455 114.426 189.455H126.614C127.481 189.455 128.185 188.726 128.185 187.827V180.262C128.185 179.363 127.481 178.634 126.614 178.634Z" fill="#D3DFFF"/>
<path d="M199.99 198.893H187.802C186.934 198.893 186.231 199.622 186.231 200.521V208.086C186.231 208.985 186.934 209.713 187.802 209.713H199.99C200.857 209.713 201.561 208.985 201.561 208.086V200.521C201.561 199.622 200.857 198.893 199.99 198.893Z" fill="#FBC343"/>
<path d="M175.531 198.893H163.343C162.475 198.893 161.771 199.622 161.771 200.521V208.086C161.771 208.985 162.475 209.713 163.343 209.713H175.531C176.398 209.713 177.102 208.985 177.102 208.086V200.521C177.102 199.622 176.398 198.893 175.531 198.893Z" fill="#D3DFFF"/>
<path d="M151.073 198.893H138.885C138.017 198.893 137.314 199.622 137.314 200.521V208.086C137.314 208.985 138.017 209.713 138.885 209.713H151.073C151.94 209.713 152.644 208.985 152.644 208.086V200.521C152.644 199.622 151.94 198.893 151.073 198.893Z" fill="#D3DFFF"/>
<path d="M126.614 198.893H114.426C113.558 198.893 112.854 199.622 112.854 200.521V208.086C112.854 208.985 113.558 209.713 114.426 209.713H126.614C127.481 209.713 128.185 208.985 128.185 208.086V200.521C128.185 199.622 127.481 198.893 126.614 198.893Z" fill="#D3DFFF"/>
<path d="M179.908 104.794C180.143 104.82 180.417 104.794 180.787 104.755C181.419 104.666 182.015 104.396 182.472 103.947C183.005 103.446 183.389 102.715 183.538 101.726H183.501C183.054 102.29 182.41 102.625 181.606 102.625C180.156 102.625 179.227 101.495 179.227 100.07C179.227 98.4903 180.33 97.1039 181.978 97.1039C183.626 97.1039 184.642 98.4903 184.642 100.621C184.642 102.456 184.047 103.741 183.254 104.537C182.634 105.166 181.779 105.551 180.913 105.654C180.516 105.718 180.17 105.731 179.909 105.718V104.794H179.908ZM180.305 99.9928C180.305 101.032 180.912 101.764 181.853 101.764C182.584 101.764 183.155 101.392 183.44 100.891C183.503 100.789 183.538 100.66 183.538 100.48C183.538 99.0555 183.03 97.9642 181.89 97.9642C180.961 97.9642 180.303 98.8114 180.303 99.9928H180.305Z" fill="#3A6BEA"/>
<path d="M186.268 104.794C186.504 104.82 186.777 104.794 187.148 104.755C187.779 104.666 188.375 104.396 188.832 103.947C189.365 103.446 189.75 102.715 189.898 101.726H189.862C189.415 102.29 188.771 102.625 187.967 102.625C186.517 102.625 185.588 101.495 185.588 100.07C185.588 98.4903 186.69 97.1039 188.339 97.1039C189.987 97.1039 191.002 98.4903 191.002 100.621C191.002 102.456 190.407 103.741 189.615 104.537C188.995 105.166 188.139 105.551 187.274 105.654C186.877 105.718 186.53 105.731 186.27 105.718V104.794H186.268ZM186.665 99.9928C186.665 101.032 187.273 101.764 188.214 101.764C188.945 101.764 189.515 101.392 189.8 100.891C189.863 100.789 189.898 100.66 189.898 100.48C189.898 99.0555 189.391 97.9642 188.25 97.9642C187.322 97.9642 186.664 98.8114 186.664 99.9928H186.665Z" fill="#3A6BEA"/>
<path d="M302.893 183.821H242.015V230.087H302.893V183.821Z" fill="#FBC343"/>
<path d="M302.895 194.295H286.675V194.986H302.895V194.295Z" fill="#E49B31"/>
<path d="M302.894 219.619H274.676V220.309H302.894V219.619Z" fill="#E49B31"/>
<path d="M272.363 200.585C272.363 205.909 271.589 211.262 270.017 216.462C267.624 224.364 260.564 229.737 252.58 229.737H242.015V183.823H269.745C271.477 189.224 272.364 194.888 272.364 200.585H272.363Z" fill="#E49B31"/>
<path d="M163.471 218.885H213.657C215.328 218.885 216.683 220.29 216.683 222.021V226.953C216.683 228.684 215.328 230.088 213.657 230.088H163.47C161.799 230.088 160.443 228.684 160.443 226.953V222.021C160.443 220.29 161.799 218.885 163.47 218.885H163.471Z" fill="#FBC343"/>
<path d="M210.465 210.811V215.75C210.465 217.483 209.106 218.885 207.439 218.885H157.252C155.579 218.885 154.225 217.483 154.225 215.75V210.811C154.225 209.084 155.579 207.676 157.252 207.676H207.439C209.106 207.676 210.465 209.084 210.465 210.811Z" fill="#FBC343"/>
<path d="M216.685 222.021V226.953C216.685 228.686 215.331 230.088 213.658 230.088H177.67C175.184 226.911 173.665 222.816 172.751 218.886C171.698 214.383 171.424 210.109 171.365 207.677H207.44C209.107 207.677 210.467 209.085 210.467 210.812V215.751C210.467 217.484 209.107 218.886 207.44 218.886H213.659C215.333 218.886 216.686 220.288 216.686 222.022L216.685 222.021Z" fill="#E49B31"/>
<path d="M243.06 130.15L239.008 143.045L238.708 143.998L236.828 149.986L236.815 150.028L230.755 149.889L207.504 149.344L205.805 144.302L205.519 143.46L201.019 130.152C214.977 135.159 226.483 124.212 243.06 130.152V130.15Z" fill="#FBC343"/>
<path d="M238.708 143.998L236.828 149.986L230.756 149.889L207.506 149.344L205.806 144.302C213.798 144.157 227.55 143.964 238.708 143.998Z" fill="#E49B31"/>
<path d="M264.684 216.813C263.491 220.764 261.125 224.079 258.066 226.413C254.999 228.747 251.24 230.088 247.247 230.088H194.588C186.976 230.088 180.297 224.818 178.27 217.208C177.103 212.808 176.477 208.347 176.377 203.906C176.371 203.477 176.363 203.049 176.363 202.621C176.363 202.115 176.37 201.609 176.384 201.104C176.813 185.009 184.405 170.019 196.588 160.023L209.185 149.689L238.014 150.38L253.861 166.091C256.09 168.301 258.076 170.77 259.67 173.508C261.58 176.788 263.126 180.25 264.298 183.827C267.758 194.367 267.984 205.915 264.684 216.812V216.813Z" fill="#FBC343"/>
<path d="M217.794 215.659V209.887C213.861 209.704 210.05 208.61 207.818 207.274L209.581 200.16C212.047 201.556 215.505 202.834 219.322 202.834C222.666 202.834 224.954 201.497 224.954 199.066C224.954 196.636 223.077 195.294 218.733 193.774C212.456 191.587 208.17 188.548 208.17 182.651C208.17 177.3 211.81 173.107 218.088 171.83V166.054H223.835V171.405C227.768 171.588 230.409 172.44 232.344 173.41L230.643 180.28C229.118 179.612 226.42 178.211 222.191 178.211C218.378 178.211 217.146 179.914 217.146 181.617C217.146 183.622 219.2 184.899 224.188 186.844C231.168 189.399 233.987 192.739 233.987 198.214C233.987 203.689 230.289 208.243 223.543 209.461V215.659H217.791H217.794Z" fill="white"/>
<path d="M242.786 147.558H202.004C200.311 147.558 198.938 148.98 198.938 150.735V152.088C198.938 153.842 200.311 155.265 202.004 155.265H242.786C244.479 155.265 245.852 153.842 245.852 152.088V150.735C245.852 148.98 244.479 147.558 242.786 147.558Z" fill="#ED7545"/>
<path opacity="0.4" d="M264.684 216.813C263.491 220.764 261.125 224.079 258.066 226.413C254.999 228.748 251.24 230.088 247.247 230.088H194.588C186.976 230.088 180.297 224.818 178.27 217.208C177.103 212.808 176.477 208.347 176.377 203.906C185.089 212.511 195.354 223.762 219.351 224.107C249.15 224.535 261.992 210.066 264.298 183.828C267.758 194.368 267.984 205.916 264.684 216.813Z" fill="#E49B31"/>
<path d="M60.1499 220.534L54.8176 218.461L42.4305 229.742H57.0894L60.1499 220.534Z" fill="#102048"/>
<path d="M60.1499 220.534H71.9271L70.594 229.281L57.0894 229.742L60.1499 220.534Z" fill="#F9B384"/>
<path d="M107.419 171.495L106.985 174.555L106.726 176.399L104.86 189.653L104.147 194.716L103.513 199.232L101.853 211L100.701 219.164C99.8336 225.304 94.7546 229.856 88.762 229.856H62.7052L62.738 229.51L63.5847 220.531L63.7044 219.268L81.8685 215.641L84.3079 197.283C83.1084 191.944 83.402 186.806 83.9211 183.201C84.3608 180.128 84.9744 178.172 84.9744 178.172L93.08 175.762L107.418 171.494L107.419 171.495Z" fill="#E0E0E0"/>
<path d="M101.853 211L100.7 219.164C99.8336 225.304 94.7545 229.856 88.762 229.856H87.4289C99.3674 227.642 97.0339 211.844 101.853 211Z" fill="#616161"/>
<path d="M53.4236 225.303L50.8683 229.561L51.4343 229.926L53.9897 225.668L53.4236 225.303Z" fill="white"/>
<path d="M104.86 189.652L103.513 199.231C99.7606 198.119 94.8113 192.562 94.8113 192.562L104.859 189.652H104.86Z" fill="#616161"/>
<path d="M132.468 214.088C132.468 214.088 126.135 217.454 114.804 215.297L124.22 208.822L132.469 214.088H132.468Z" fill="#102048"/>
<path d="M128.982 218.729L118.857 218.963L118.798 216.697L118.638 210.489L127.637 211.179L128.063 213.576L128.982 218.729Z" fill="#F9B384"/>
<path d="M128.063 213.576L118.798 216.697L118.638 210.489L127.637 211.179L128.063 213.576Z" fill="#E28B6D"/>
<path d="M140.467 229.828L129.302 220.505L128.985 218.731L118.856 218.963L119.137 229.828H140.467Z" fill="#102048"/>
<path d="M132.845 223.133L128.845 225.721L129.198 226.307L133.198 223.719L132.845 223.133Z" fill="white"/>
<path d="M84.9745 178.173L121.206 172.212C122.9 171.932 124.637 172.169 126.204 172.89C129.32 174.325 131.368 177.483 131.472 181.014L132.466 214.086C132.466 214.086 122.134 211.842 114.802 215.295L114.136 192.676C109.706 194.766 102.032 195.209 94.2556 194.404L84.9732 178.173H84.9745Z" fill="#E0E0E0"/>
<path d="M127.363 213.051H126.697C126.697 207.328 126.83 202.578 126.948 198.386C127.234 188.179 127.391 182.558 124.882 180.179C122.851 178.253 118.793 178.313 112.905 179.035C106.595 179.797 104.079 172.837 104.053 172.766L104.68 172.531C104.773 172.799 107.041 179.072 112.826 178.35C119.057 177.587 123.103 177.557 125.331 179.671C128.066 182.263 127.914 187.659 127.613 198.409C127.496 202.595 127.362 207.34 127.362 213.053L127.363 213.051Z" fill="#616161"/>
<path d="M114.816 211.13L114.579 210.483C114.664 210.451 123.116 207.191 132.442 209.608L132.281 210.277C123.165 207.914 114.898 211.096 114.816 211.128V211.13Z" fill="#616161"/>
<path d="M66.4071 229.954C65.3689 227.802 66.9754 218.89 67.0447 218.512L67.6999 218.641C67.2425 221.154 66.2244 228.031 67.0043 229.646L66.4084 229.955L66.4071 229.954Z" fill="#616161"/>
<path d="M103.813 175.411C103.813 175.411 101.254 181.053 95.4803 184.852C93.521 186.136 91.5945 186.724 89.8683 186.73C87.2626 186.737 85.0954 185.425 83.9224 183.2C84.3621 180.128 84.9757 178.172 84.9757 178.172L93.0813 175.762L101.26 175.493L103.813 175.411Z" fill="#616161"/>
<path d="M97.306 141.404V149.397H104.861V142.484L97.306 141.404Z" fill="#4CAF50"/>
<path d="M104.861 137.54H97.306V141.404L104.861 142.484V137.54Z" fill="#F9B384"/>
<path d="M99.5338 138.634C99.7001 138.634 101.356 141.324 104.861 142.484L104.811 138.289L99.5338 138.635V138.634Z" fill="#102048"/>
<path d="M105.749 127.987C105.749 127.987 109.915 139.613 104.527 140.361C99.1394 141.109 98.3052 138.577 98.3052 138.577L96.6382 132.418L100.36 127.238L105.748 127.986L105.749 127.987Z" fill="#F9B384"/>
<path d="M108.304 133.591C108.316 132.923 107.803 132.372 107.159 132.36C106.514 132.347 105.983 132.878 105.971 133.546C105.959 134.213 106.471 134.765 107.116 134.777C107.76 134.789 108.292 134.258 108.304 133.591Z" fill="#F9B384"/>
<path d="M100.083 133.512C100.083 133.512 100.36 127.295 105.749 127.986C105.749 127.986 102.123 123.161 97.3451 125.032C94.9184 125.982 93.2955 128.383 93.0573 131.059C92.7499 134.518 94.7004 138.46 97.422 139.151C97.422 139.151 98.3103 137.022 99.8046 134.317L100.082 133.512H100.083Z" fill="#102048"/>
<path d="M101.372 133.22C101.822 134.213 101.523 135.34 100.704 135.74C99.8853 136.139 98.8558 135.658 98.406 134.666C97.9562 133.673 98.2548 132.546 99.0738 132.146C99.8928 131.747 100.922 132.228 101.372 133.22Z" fill="#F9B384"/>
<path opacity="0.4" d="M105.452 134.287C105.464 133.413 104.79 132.695 103.946 132.682C103.103 132.67 102.41 133.368 102.398 134.241C102.386 135.115 103.059 135.834 103.903 135.846C104.746 135.859 105.44 135.16 105.452 134.287Z" fill="#EB5D60"/>
<path d="M100.228 134.606C100.136 134.606 100.062 134.528 100.062 134.433C100.062 134.393 100.043 133.429 99.0108 133.281C98.9201 133.267 98.8559 133.18 98.8685 133.085C98.8811 132.991 98.9655 132.929 99.0562 132.937C100.378 133.129 100.394 134.419 100.394 134.432C100.394 134.527 100.32 134.604 100.228 134.604V134.606Z" fill="#102048"/>
<path d="M125.47 130.001C125.47 130.001 131.297 130.462 134.469 134.318L127.253 136.16L125.47 130.001Z" fill="#388E3C"/>
<path d="M135.795 126.692C135.822 127.244 134.355 130 133.275 131.954C132.642 133.08 132.149 133.936 132.149 133.936L128.263 135.109L125.49 130.779L125.356 130.565C125.356 130.565 125.397 130.379 125.47 130.047V130.041C125.476 130.034 125.476 130.02 125.483 129.999C125.95 127.948 127.603 120.958 128.557 120.724C129.397 120.524 128.903 124.35 128.903 124.35C128.903 124.35 130.976 118.127 132.203 118.383C133.183 118.583 131.263 124.551 131.263 124.551C131.263 124.551 131.95 123.806 132.643 124.041C133.382 124.297 133.476 125.015 133.476 125.015C133.476 125.015 133.968 124.656 134.462 124.96C134.955 125.271 134.908 126.238 134.908 126.238C134.908 126.238 135.741 125.831 135.795 126.694V126.692Z" fill="#F9B384"/>
<path d="M95.5408 146.59L92.9011 157.282L88.8086 173.858C86.0291 175.136 83.0958 175.606 80.7698 175.205C78.0697 174.742 76.1834 173.112 76.3107 170.233C76.6446 162.463 95.5408 146.592 95.5408 146.592V146.59Z" fill="#00B907"/>
<path d="M95.0343 149.627L92.9011 157.282L88.8086 173.858C86.0291 175.136 83.0958 175.606 80.7698 175.205C86.7019 157.57 95.0343 149.628 95.0343 149.628V149.627Z" fill="#388E3C"/>
<path d="M111.531 173.816C106.033 174.202 88.7015 189.051 84.5347 179.472C84.5347 179.472 85.1143 143.738 102.919 144.401C106.072 144.519 108.839 146.695 109.791 149.81C110.219 151.218 110.644 153.056 110.978 155.418C111.319 157.814 111.572 160.757 111.659 164.341C111.732 167.104 111.699 170.247 111.531 173.817V173.816Z" fill="#00B907"/>
<path d="M111.659 164.34C108.906 162.496 106.033 156.936 106.033 156.936L110.978 155.416C111.319 157.813 111.572 160.755 111.659 164.34Z" fill="#388E3C"/>
<path d="M133.275 131.956C132.642 133.081 132.149 133.937 132.149 133.937L128.263 135.111L125.49 130.781L125.47 130.048V130H125.483L133.275 131.954V131.956Z" fill="#E28B6D"/>
<path d="M102.921 144.401C102.921 144.401 111.471 145.023 116.637 146.059L125.47 130.001C128.167 132.238 131.166 133.68 134.469 134.318L126.738 153.188C125.034 156.771 121.565 159.094 117.711 159.231L104.472 159.699L102.921 144.401Z" fill="#00B907"/>
<path d="M116.637 146.318C116.622 146.318 116.607 146.318 116.592 146.314C116.429 146.282 100.285 143.215 97.5328 145.735C97.4295 145.829 97.272 145.82 97.1801 145.712C97.0893 145.605 97.0981 145.442 97.2015 145.346C100.133 142.661 116.008 145.674 116.682 145.805C116.818 145.831 116.908 145.967 116.883 146.106C116.86 146.232 116.755 146.318 116.637 146.318Z" fill="#388E3C"/>
<path d="M293.564 215.008L294.674 229.742H276.177L285.508 223.065L285.342 213.857L293.564 215.008Z" fill="#102048"/>
<path d="M320.838 208.734L325.836 221.339L313.172 232.39L315.005 219.958L312.505 211.67L320.838 208.734Z" fill="#102048"/>
<path d="M298.454 137.654C298.287 138.137 298.134 138.759 297.988 139.49C297.741 140.768 297.528 142.398 297.347 144.318C296.76 150.589 296.515 159.906 296.448 169.803C296.308 192.09 297.121 217.313 297.121 217.313L293.735 217.259L285.403 217.127L282.457 217.078C277.991 181.772 279.264 151.957 279.937 141.576C279.957 141.217 279.983 140.886 279.997 140.575C280.137 138.669 280.23 137.654 280.23 137.654H298.455H298.454Z" fill="#00B907"/>
<path d="M324.003 212.015L322.309 212.45L313.43 214.75L308.004 216.158C308.004 216.158 301.578 191.453 296.447 169.802C293.981 159.36 291.807 149.628 290.807 143.723C290.46 141.637 290.254 140.027 290.227 139.034L297.986 139.489L307.785 140.069C307.785 140.069 308.025 141.526 308.492 144.144C310.358 154.58 315.832 183.476 324.004 212.014L324.003 212.015Z" fill="#00B907"/>
<path d="M308.492 144.145C304.546 144.484 300.786 144.498 297.347 144.318C295.008 144.194 292.815 143.98 290.808 143.724C285.849 143.082 282.022 142.15 279.937 141.576C278.796 141.259 278.177 141.052 278.177 141.052L279.996 140.575L291.221 137.654H298.454C298.287 138.137 298.134 138.759 297.987 139.49L307.787 140.07C307.787 140.07 308.026 141.527 308.493 144.145H308.492Z" fill="#388E3C"/>
<path d="M296.793 172.499C296.254 170.157 293.707 159.068 293.376 157.189L288.224 155.188L288.458 154.542L294.007 156.697V156.936C294.045 157.448 296.082 166.429 297.442 172.338L296.794 172.499H296.793Z" fill="#388E3C"/>
<path d="M283.713 182.607C281.289 182.607 279.749 181.984 279.663 181.947L279.91 181.306C279.937 181.318 282.656 182.409 286.5 181.634L286.627 182.312C285.56 182.527 284.58 182.607 283.713 182.607Z" fill="#388E3C"/>
<path d="M303.011 182.121C301.459 182.121 300.157 181.87 300.055 181.851L300.18 181.172C300.225 181.181 304.734 182.045 306.815 180.538L307.197 181.103C306.088 181.907 304.444 182.121 303.011 182.121Z" fill="#388E3C"/>
<path d="M285.717 222.815L285.311 223.363L287.922 225.435L288.327 224.887L285.717 222.815Z" fill="white"/>
<path d="M315.113 219.613L314.862 220.253L318.417 221.749L318.668 221.109L315.113 219.613Z" fill="white"/>
<path d="M288.675 99.9001C288.675 99.9001 277.232 101.396 274.344 114.749L277.787 130.635L276.232 141.224C276.232 141.224 291.786 142.835 307.784 140.073L302.924 113.079L288.676 99.9001H288.675Z" fill="#E0E0E0"/>
<path d="M295.785 133.741C295.785 133.741 292.341 131.123 296.841 119.64L299.841 130.949L295.786 133.74L295.785 133.741Z" fill="#616161"/>
<path d="M295.341 110.973L295.486 111.258C295.676 111.628 295.539 112.088 295.181 112.284L282.378 119.308L281.546 117.68L294.35 110.657C294.707 110.461 295.151 110.602 295.341 110.973Z" fill="#102048"/>
<path d="M298.673 130.001L298.333 129.808L293.914 127.336L286.508 123.185C286.374 122.259 286.475 121.472 287.008 120.933L286.641 120.781C286.041 120.519 285.602 119.959 285.482 119.289L285.468 119.207C285.275 118.537 285.369 117.916 285.428 117.57L285.602 117.335C286.035 116.748 286.228 116.451 286.789 115.988L285.842 116.043C285.842 116.043 283.509 116.706 284.596 115.152C285.343 114.075 287.015 113.163 287.969 112.707C288.369 112.514 288.856 112.596 289.162 112.928C292.369 116.374 298.008 120.505 298.008 120.505L298.068 121.347L298.615 129.102L298.675 130L298.673 130.001Z" fill="#F9B384"/>
<path d="M289.935 116.804L287.918 115.783C287.707 115.676 287.473 115.642 287.242 115.684L285.094 116.071L285.037 115.731L287.186 115.343C287.487 115.288 287.79 115.334 288.065 115.472L290.082 116.493L289.935 116.804Z" fill="#E28B6D"/>
<path d="M289.559 118.767L287.14 117.806C287.033 117.763 286.92 117.742 286.804 117.742H285.427V117.398H286.804C286.96 117.398 287.114 117.426 287.26 117.485L289.679 118.446L289.559 118.768V118.767Z" fill="#E28B6D"/>
<path d="M289.227 120.724L287.029 119.864C286.858 119.796 286.669 119.771 286.484 119.793L285.584 119.899L285.546 119.556L286.447 119.45C286.683 119.422 286.926 119.454 287.149 119.541L289.346 120.401L289.228 120.724H289.227Z" fill="#E28B6D"/>
<path d="M298.614 129.103L298.333 129.808L293.914 127.336L296.84 119.642L298.067 121.347L298.614 129.103Z" fill="#E28B6D"/>
<path d="M295.785 133.741C295.785 133.741 302.396 140.245 307.783 140.073L306.227 132.418L295.784 133.741H295.785Z" fill="#616161"/>
<path d="M288.675 99.9001C288.675 99.9001 289.489 99.8126 290.846 99.8609C304.189 100.333 314.41 112.23 313.759 126.046C313.489 131.757 312.058 137.428 307.45 137.541L295.785 133.743C296.885 129.468 297.706 125.034 296.841 119.642L302.256 122.318L288.675 99.9001Z" fill="#E0E0E0"/>
<path d="M292.481 133.213L276.176 133.626L275.73 132.197L274.09 126.975L269.344 111.872L285.648 111.457L292.481 133.213Z" fill="#D3DFFF"/>
<path opacity="0.3" d="M277.549 125.166C277.549 125.166 277.523 129.834 275.73 132.197L274.09 126.976L277.55 125.166H277.549Z" fill="#1F3C88"/>
<path d="M269.641 124.802C270.155 123.084 271.09 121.498 272.12 120.067C272.447 119.612 273.159 118.493 273.843 118.663C275.232 119.009 273.843 121.54 273.843 121.54C273.843 121.54 275.176 119.468 275.677 120.503C276.177 121.54 275.455 122.69 275.455 122.69C275.455 122.69 277.565 121.251 276.788 124.128C276.788 124.128 278.51 123.899 277.455 125.855C276.701 127.252 276.213 128.808 275.27 130.093C274.32 131.385 272.533 132.111 271.049 131.373C269.304 130.507 269.081 128.195 269.296 126.435C269.364 125.878 269.483 125.333 269.641 124.801V124.802Z" fill="#F9B384"/>
<path d="M272.635 124.346C272.612 124.346 272.59 124.341 272.567 124.332C272.483 124.293 272.445 124.191 272.483 124.104L274.065 120.391C274.102 120.304 274.201 120.264 274.284 120.302C274.369 120.341 274.407 120.443 274.369 120.531L272.786 124.243C272.759 124.307 272.698 124.346 272.634 124.346H272.635Z" fill="#E28B6D"/>
<path d="M274.26 125.727C274.236 125.727 274.213 125.722 274.19 125.711C274.107 125.67 274.07 125.567 274.109 125.481L275.609 122.157C275.649 122.071 275.748 122.034 275.83 122.074C275.914 122.114 275.95 122.217 275.911 122.303L274.412 125.627C274.384 125.69 274.323 125.727 274.26 125.727Z" fill="#E28B6D"/>
<path d="M275.509 126.85C275.483 126.85 275.456 126.844 275.431 126.831C275.35 126.786 275.318 126.682 275.362 126.597L276.653 124.05C276.697 123.966 276.797 123.934 276.879 123.978C276.959 124.023 276.992 124.127 276.948 124.212L275.657 126.759C275.626 126.817 275.568 126.851 275.509 126.851V126.85Z" fill="#E28B6D"/>
<path d="M280.898 112.965H275.066L274.065 110.893H279.898L280.898 112.965Z" fill="#102048"/>
<path d="M288.516 106.645C286.786 106.645 285.65 105.759 285.633 105.746C285.524 105.658 285.505 105.496 285.588 105.383C285.672 105.271 285.829 105.248 285.938 105.336C286.034 105.41 288.296 107.154 291.323 105.261C291.441 105.187 291.596 105.227 291.666 105.349C291.737 105.472 291.699 105.631 291.58 105.704C290.45 106.41 289.404 106.645 288.516 106.645Z" fill="#616161"/>
<path d="M295.785 134.001C295.762 134.001 295.738 133.997 295.714 133.991C295.582 133.95 295.507 133.805 295.546 133.668C297.942 125.26 296.613 119.762 296.599 119.707L296.502 119.321L306.825 121.113C306.961 121.136 307.053 121.27 307.031 121.411C307.008 121.553 306.872 121.648 306.743 121.623L297.162 119.959C297.418 121.365 298.101 126.536 296.027 133.814C295.994 133.927 295.895 134 295.788 134L295.785 134.001Z" fill="#616161"/>
<path d="M303.34 120.937C303.34 120.937 303.33 120.937 303.325 120.937C303.188 120.928 303.082 120.805 303.09 120.663C303.093 120.606 303.37 115.036 299.633 109.312C299.556 109.193 299.586 109.033 299.7 108.953C299.815 108.873 299.969 108.904 300.048 109.022C303.883 114.898 303.593 120.636 303.589 120.694C303.581 120.831 303.471 120.937 303.34 120.937Z" fill="#616161"/>
<path d="M293.257 93.5441V100.209C293.257 102.359 291.64 104.102 289.643 104.102C287.645 104.102 286.028 102.359 286.028 100.209V93.5441H293.256H293.257Z" fill="#F9B384"/>
<path d="M289.842 94.433C289.842 94.433 289.466 98.5516 286.029 99.7421V93.8926L289.842 94.433Z" fill="#102048"/>
<path d="M283.3 85.9466C283.3 85.9466 282.178 95.2959 285.696 96.4042C289.214 97.5138 292.426 94.2921 292.426 94.2921L291.763 86.581L286.563 83.4115L283.301 85.9466H283.3Z" fill="#F9B384"/>
<path d="M303.312 104.115L296.373 104.592C295.495 103.59 294.999 102.182 294.674 100.593C294.38 102.229 294.612 103.588 295.387 104.661L293.507 104.793C291.84 102.209 290.44 96.4917 292.093 91.6016L292.286 90.4476C292.286 90.4476 291.099 86.7246 289.379 86.5667C289.379 86.5667 283.48 90.6904 280.854 86.0902C278.895 82.6648 280.548 78.1612 285.26 81.4834C285.26 81.4834 296.585 75.9785 296.559 87.2638C296.552 89.2871 297.286 91.2766 298.732 92.6303C298.852 92.7543 298.985 92.8718 299.125 92.9827C301.665 95.0688 304.405 99.2265 303.311 104.117L303.312 104.115Z" fill="#102048"/>
<path d="M294.074 91.052C294.409 89.9747 293.959 88.8606 293.07 88.5636C292.18 88.2667 291.187 88.8993 290.852 89.9767C290.517 91.054 290.967 92.1681 291.856 92.465C292.746 92.762 293.738 92.1294 294.074 91.052Z" fill="#F9B384"/>
<path d="M292.229 91.1526C292.137 91.1526 292.063 91.0755 292.063 90.9802C292.063 90.2349 292.631 89.5769 293.304 89.5417H293.313C293.401 89.5417 293.474 89.6135 293.479 89.7062C293.484 89.8015 293.412 89.8824 293.32 89.8876C292.874 89.9111 292.396 90.3563 292.396 90.9816C292.396 91.0768 292.321 91.1539 292.229 91.1539V91.1526Z" fill="#102048"/>
<path d="M284.536 89.5117C284.536 89.7506 284.349 89.9438 284.119 89.9438C283.888 89.9438 283.702 89.7506 283.702 89.5117C283.702 89.2728 283.888 89.0796 284.119 89.0796C284.349 89.0796 284.536 89.2728 284.536 89.5117Z" fill="#102048"/>
<path d="M287.049 89.2963C287.049 89.5352 286.863 89.7284 286.632 89.7284C286.402 89.7284 286.215 89.5352 286.215 89.2963C286.215 89.0574 286.402 88.8642 286.632 88.8642C286.863 88.8642 287.049 89.0574 287.049 89.2963Z" fill="#102048"/>
<path d="M285.134 92.4044C285.093 92.4044 285.05 92.3887 285.018 92.3548C284.679 92.0115 284.541 91.6864 284.606 91.3862C284.673 91.082 284.933 90.9058 285.088 90.8249L285.051 89.9724C285.047 89.8771 285.119 89.7962 285.21 89.7923C285.301 89.7923 285.38 89.8628 285.384 89.9568L285.43 91.0572L285.313 91.099C285.221 91.1316 284.973 91.2622 284.93 91.4632C284.884 91.6799 285.078 91.9332 285.25 92.1068C285.316 92.1734 285.317 92.283 285.253 92.3509C285.22 92.3861 285.177 92.4031 285.133 92.4031L285.134 92.4044Z" fill="#102048"/>
<path d="M285.471 93.6472C285.332 93.6472 285.244 93.6341 285.233 93.6315C285.142 93.6171 285.08 93.5284 285.095 93.4344C285.109 93.3404 285.202 93.2777 285.285 93.2908C285.294 93.2921 286.138 93.4174 286.879 92.749C286.947 92.6864 287.053 92.6929 287.114 92.766C287.174 92.8378 287.168 92.9475 287.097 93.0101C286.484 93.5649 285.817 93.6485 285.471 93.6485V93.6472Z" fill="#102048"/>
<path opacity="0.4" d="M288.706 92.4044C289.31 92.4044 289.8 91.8971 289.8 91.2713C289.8 90.6455 289.31 90.1382 288.706 90.1382C288.102 90.1382 287.613 90.6455 287.613 91.2713C287.613 91.8971 288.102 92.4044 288.706 92.4044Z" fill="#EB5D60"/>
<path d="M368.046 229.398H12.3304V230.088H368.046V229.398Z" fill="#102048"/>
</g>
<defs>
<clipPath id="clip0_115_433">
<rect width="378" height="230" fill="white"/>
</clipPath>
</defs>
</svg>
