<svg width="283" height="159" viewBox="0 0 283 159" fill="none" xmlns="http://www.w3.org/2000/svg">
<path d="M230.134 77.6236C229.982 77.6236 229.828 77.6008 229.675 77.5531L226.384 76.5347C225.973 76.4073 225.635 76.1224 225.432 75.7318C225.229 75.3422 225.186 74.8936 225.309 74.4709L226.43 70.6138C225.038 69.8481 223.762 68.8877 222.63 67.7533L219.422 69.9973C218.689 70.5091 217.691 70.3102 217.195 69.5539L215.271 66.6167C215.031 66.25 214.943 65.8097 215.024 65.3745C215.105 64.9394 215.345 64.5623 215.7 64.3147L218.871 62.0975C218.199 60.4585 217.778 58.7232 217.619 56.9319L213.857 56.4853C213.431 56.4346 213.049 56.2149 212.783 55.8679C212.517 55.5218 212.398 55.0888 212.447 54.6495L212.84 51.1249C212.941 50.2163 213.738 49.5625 214.617 49.6672L218.33 50.1085C218.828 48.4933 219.55 46.9683 220.481 45.5697L217.917 42.8148C217.62 42.4957 217.461 42.0761 217.469 41.6338C217.478 41.1903 217.652 40.778 217.962 40.4703L220.439 38.0107C221.077 37.3767 222.094 37.3974 222.706 38.0563L225.247 40.7863C226.689 39.829 228.256 39.111 229.909 38.65L229.673 34.8871C229.616 33.9754 230.287 33.1838 231.169 33.1248L234.597 32.8938C235.49 32.8326 236.244 33.5278 236.302 34.4395L236.539 38.2034C238.236 38.4386 239.878 38.9401 241.427 39.6953L243.605 36.6463C244.13 35.9107 245.136 35.7543 245.847 36.2961L248.611 38.4024C248.956 38.6655 249.181 39.0509 249.245 39.4892C249.309 39.9274 249.204 40.3646 248.949 40.721L246.752 43.797C247.849 45.0599 248.756 46.4752 249.452 48.0095L253.078 47.0729C253.937 46.8533 254.809 47.3931 255.023 48.2799L255.854 51.7227C255.957 52.1516 255.894 52.5971 255.674 52.9763C255.453 53.3565 255.102 53.6248 254.686 53.7326L251.012 54.6806C251.079 56.4781 250.879 58.2549 250.417 59.9706L253.838 61.7432C254.221 61.9421 254.507 62.283 254.642 62.7036C254.777 63.1232 254.745 63.5729 254.553 63.9686L253.013 67.1399C252.616 67.9563 251.651 68.2878 250.86 67.8786L247.397 66.0852C246.418 67.3616 245.272 68.4857 243.987 69.4316L245.582 73.1065C245.757 73.5105 245.77 73.9601 245.618 74.3735C245.466 74.7879 245.166 75.1164 244.774 75.2977L241.64 76.7492C240.833 77.1221 239.883 76.7492 239.521 75.9151L237.918 72.2217C237.082 72.4133 236.226 72.5397 235.371 72.5967C234.516 72.6547 233.651 72.6444 232.797 72.5667L231.671 76.4435C231.463 77.1605 230.824 77.6256 230.134 77.6256V77.6236ZM222.694 67.0477L222.848 67.2062C224.032 68.4236 225.384 69.441 226.868 70.2315L227.064 70.3361L225.816 74.6294C225.734 74.9133 225.763 75.2127 225.898 75.4728C226.034 75.7338 226.261 75.9255 226.536 76.0105L229.827 77.0289C230.396 77.204 230.996 76.8704 231.165 76.284L232.417 71.9761L232.634 71.9989C233.529 72.0922 234.439 72.1088 235.337 72.0487C236.236 71.9875 237.135 71.8487 238.01 71.6363L238.222 71.5845L240.003 75.6883C240.245 76.2467 240.882 76.4964 241.423 76.2467L244.557 74.7952C244.82 74.674 245.02 74.4543 245.122 74.1756C245.224 73.899 245.215 73.5986 245.098 73.3282L243.324 69.2389L243.505 69.1094C244.879 68.1252 246.093 66.9348 247.113 65.5693L247.246 65.3911L251.097 67.3855C251.628 67.6611 252.275 67.4383 252.54 66.8902L254.08 63.7189C254.208 63.4547 254.23 63.1543 254.14 62.8735C254.05 62.5917 253.859 62.3638 253.602 62.2302L249.786 60.2534L249.848 60.0338C250.357 58.2383 250.568 56.3693 250.474 54.4806L250.463 54.2547L254.559 53.198C254.838 53.1265 255.073 52.9462 255.221 52.6914C255.368 52.4375 255.411 52.1402 255.342 51.8532L254.511 48.4105C254.368 47.8168 253.784 47.4542 253.208 47.6034L249.155 48.6498L249.064 48.4415C248.35 46.8129 247.393 45.3179 246.217 43.999L246.068 43.8322L248.525 40.3936C248.695 40.1553 248.766 39.8621 248.723 39.57C248.68 39.2768 248.53 39.0188 248.299 38.8427L245.535 36.7364C245.058 36.3728 244.383 36.4784 244.032 36.9706L241.593 40.3843L241.395 40.2848C239.775 39.4684 238.047 38.9411 236.258 38.7173L236.04 38.6904L235.775 34.4737C235.736 33.8635 235.223 33.4004 234.633 33.4387L231.205 33.6697C230.614 33.7102 230.164 34.2385 230.202 34.8498L230.467 39.0654L230.254 39.1214C228.508 39.5824 226.86 40.3377 225.355 41.3654L225.171 41.4908L222.325 38.4334C221.914 37.9921 221.232 37.9786 220.805 38.4034L218.328 40.8629C218.121 41.0681 218.004 41.3447 217.998 41.641C217.992 41.9373 218.099 42.2181 218.297 42.4315L221.164 45.5116L221.037 45.6971C220.036 47.161 219.273 48.772 218.769 50.4836L218.705 50.7022L214.555 50.2101C213.965 50.1344 213.431 50.5779 213.364 51.186L212.971 54.7106C212.938 55.0048 213.018 55.2939 213.196 55.5249C213.375 55.758 213.63 55.9051 213.916 55.9383L218.109 56.4356L218.126 56.6604C218.271 58.546 218.714 60.3705 219.442 62.0841L219.531 62.2933L215.995 64.7653C215.757 64.9321 215.596 65.1839 215.542 65.475C215.488 65.7651 215.547 66.0604 215.707 66.3059L217.631 69.2431C217.964 69.7497 218.633 69.8833 219.124 69.5394L222.691 67.0446L222.694 67.0477ZM234.286 65.4149C229.264 65.4149 225.024 61.3723 224.694 56.1217C224.35 50.6524 228.378 45.9115 233.673 45.5552C236.238 45.3821 238.713 46.2514 240.645 48.0012C242.577 49.7521 243.732 52.1765 243.899 54.8256C244.066 57.4758 243.223 60.0338 241.527 62.0302C239.831 64.0256 237.485 65.2201 234.92 65.3932C234.708 65.4077 234.496 65.4149 234.286 65.4149ZM234.313 46.0815C234.112 46.0815 233.91 46.0887 233.707 46.1022C228.703 46.4399 224.897 50.9187 225.221 56.0865C225.546 61.2552 229.885 65.1839 234.884 64.8472C237.308 64.6835 239.525 63.5552 241.128 61.6697C242.731 59.7841 243.527 57.367 243.369 54.8629C243.212 52.3598 242.12 50.0692 240.295 48.4146C238.623 46.8979 236.517 46.0815 234.312 46.0815H234.313Z" fill="white" fill-opacity="0.5"/>
<path d="M30.9276 96.5354C30.7756 96.5354 30.6216 96.5126 30.4686 96.4649L27.1776 95.4465C26.7666 95.3191 26.4286 95.0342 26.2256 94.6436C26.0226 94.254 25.9796 93.8054 26.1026 93.3827L27.2236 89.5256C25.8316 88.7599 24.5556 87.7995 23.4236 86.6651L20.2156 88.9091C19.4826 89.4209 18.4846 89.222 17.9886 88.4657L16.0646 85.5285C15.8246 85.1618 15.7366 84.7215 15.8176 84.2863C15.8986 83.8512 16.1386 83.4741 16.4936 83.2265L19.6646 81.0093C18.9926 79.3703 18.5716 77.635 18.4126 75.8437L14.6506 75.3971C14.2246 75.3464 13.8426 75.1267 13.5766 74.7797C13.3106 74.4336 13.1916 74.0006 13.2406 73.5613L13.6336 70.0367C13.7346 69.1281 14.5316 68.4743 15.4106 68.579L19.1236 69.0203C19.6216 67.4052 20.3436 65.8801 21.2746 64.4815L18.7106 61.7266C18.4136 61.4075 18.2546 60.9879 18.2626 60.5456C18.2716 60.1021 18.4456 59.6898 18.7556 59.3821L21.2326 56.9225C21.8706 56.2885 22.8876 56.3092 23.4996 56.9681L26.0406 59.6981C27.4826 58.7408 29.0496 58.0228 30.7026 57.5618L30.4666 53.7989C30.4096 52.8872 31.0806 52.0956 31.9626 52.0366L35.3906 51.8056C36.2836 51.7444 37.0376 52.4396 37.0956 53.3513L37.3326 57.1152C39.0296 57.3504 40.6716 57.8519 42.2206 58.6071L44.3986 55.5581C44.9236 54.8225 45.9296 54.6661 46.6406 55.2079L49.4046 57.3142C49.7496 57.5773 49.9746 57.9627 50.0386 58.401C50.1026 58.8392 49.9976 59.2764 49.7426 59.6328L47.5456 62.7088C48.6426 63.9717 49.5496 65.387 50.2456 66.9213L53.8716 65.9847C54.7306 65.7651 55.6026 66.3049 55.8166 67.1917L56.6476 70.6345C56.7506 71.0634 56.6876 71.5089 56.4676 71.8881C56.2466 72.2683 55.8956 72.5366 55.4796 72.6444L51.8056 73.5924C51.8726 75.3899 51.6726 77.1667 51.2106 78.8824L54.6316 80.655C55.0146 80.8539 55.3006 81.1948 55.4356 81.6154C55.5706 82.035 55.5386 82.4847 55.3466 82.8804L53.8066 86.0517C53.4096 86.8681 52.4446 87.1997 51.6536 86.7904L48.1906 84.997C47.2116 86.2734 46.0656 87.3975 44.7806 88.3434L46.3756 92.0183C46.5506 92.4223 46.5636 92.872 46.4116 93.2853C46.2596 93.6997 45.9596 94.0282 45.5676 94.2095L42.4336 95.661C41.6266 96.0339 40.6766 95.661 40.3146 94.827L38.7116 91.1335C37.8756 91.3252 37.0196 91.4515 36.1646 91.5085C35.3096 91.5665 34.4446 91.5562 33.5906 91.4785L32.4646 95.3553C32.2566 96.0723 31.6176 96.5374 30.9276 96.5374V96.5354ZM23.4876 85.9595L23.6416 86.118C24.8256 87.3354 26.1776 88.3528 27.6616 89.1433L27.8576 89.2479L26.6096 93.5412C26.5276 93.8251 26.5566 94.1245 26.6916 94.3846C26.8276 94.6456 27.0546 94.8373 27.3296 94.9223L30.6206 95.9407C31.1896 96.1158 31.7896 95.7822 31.9586 95.1958L33.2106 90.8879L33.4276 90.9107C34.3226 91.004 35.2326 91.0206 36.1306 90.9605C37.0296 90.8993 37.9286 90.7605 38.8036 90.5481L39.0156 90.4963L40.7966 94.6001C41.0386 95.1585 41.6756 95.4082 42.2166 95.1585L45.3506 93.707C45.6136 93.5858 45.8136 93.3661 45.9156 93.0874C46.0176 92.8108 46.0086 92.5104 45.8916 92.24L44.1176 88.1507L44.2986 88.0212C45.6726 87.037 46.8866 85.8466 47.9066 84.4811L48.0396 84.3029L51.8906 86.2973C52.4216 86.5729 53.0686 86.3501 53.3336 85.802L54.8736 82.6307C55.0016 82.3665 55.0236 82.0661 54.9336 81.7853C54.8436 81.5035 54.6526 81.2756 54.3956 81.142L50.5796 79.1652L50.6416 78.9456C51.1506 77.1501 51.3616 75.2811 51.2676 73.3924L51.2566 73.1665L55.3526 72.1098C55.6316 72.0383 55.8666 71.858 56.0146 71.6032C56.1616 71.3493 56.2046 71.052 56.1356 70.765L55.3046 67.3223C55.1616 66.7286 54.5776 66.366 54.0016 66.5152L49.9486 67.5616L49.8576 67.3534C49.1436 65.7247 48.1866 64.2297 47.0106 62.9108L46.8616 62.744L49.3186 59.3054C49.4886 59.0671 49.5596 58.7739 49.5166 58.4818C49.4736 58.1886 49.3236 57.9306 49.0926 57.7545L46.3286 55.6482C45.8516 55.2846 45.1766 55.3902 44.8256 55.8824L42.3866 59.2961L42.1886 59.1966C40.5686 58.3802 38.8406 57.8529 37.0516 57.6291L36.8336 57.6022L36.5686 53.3855C36.5296 52.7753 36.0166 52.3122 35.4266 52.3505L31.9986 52.5816C31.4076 52.622 30.9576 53.1503 30.9956 53.7616L31.2606 57.9772L31.0476 58.0332C29.3016 58.4942 27.6536 59.2495 26.1486 60.2772L25.9646 60.4026L23.1186 57.3452C22.7076 56.9039 22.0256 56.8904 21.5986 57.3152L19.1216 59.7747C18.9146 59.9799 18.7976 60.2565 18.7916 60.5528C18.7856 60.8491 18.8926 61.1299 19.0906 61.3433L21.9576 64.4234L21.8306 64.6089C20.8296 66.0728 20.0666 67.6838 19.5626 69.3954L19.4986 69.614L15.3486 69.1219C14.7586 69.0462 14.2246 69.4897 14.1576 70.0978L13.7646 73.6224C13.7316 73.9166 13.8116 74.2057 13.9896 74.4367C14.1686 74.6698 14.4236 74.817 14.7096 74.8501L18.9026 75.3474L18.9196 75.5722C19.0646 77.4578 19.5076 79.2823 20.2356 80.9959L20.3246 81.2052L16.7886 83.6771C16.5506 83.8439 16.3896 84.0957 16.3356 84.3868C16.2816 84.6769 16.3406 84.9722 16.5006 85.2177L18.4246 88.1549C18.7576 88.6615 19.4266 88.7952 19.9176 88.4512L23.4846 85.9564L23.4876 85.9595ZM35.0796 84.3267C30.0576 84.3267 25.8176 80.2841 25.4876 75.0335C25.1436 69.5643 29.1716 64.8234 34.4666 64.467C37.0316 64.2939 39.5066 65.1632 41.4386 66.913C43.3706 68.6639 44.5256 71.0883 44.6926 73.7374C44.8596 76.3876 44.0166 78.9456 42.3206 80.942C40.6246 82.9374 38.2786 84.132 35.7136 84.305C35.5016 84.3195 35.2896 84.3267 35.0796 84.3267ZM35.1066 64.9933C34.9056 64.9933 34.7036 65.0005 34.5006 65.014C29.4966 65.3517 25.6906 69.8305 26.0146 74.9983C26.3396 80.167 30.6786 84.0957 35.6776 83.759C38.1016 83.5953 40.3186 82.467 41.9216 80.5815C43.5246 78.6959 44.3206 76.2788 44.1626 73.7747C44.0056 71.2716 42.9136 68.981 41.0886 67.3264C39.4166 65.8097 37.3106 64.9933 35.1056 64.9933H35.1066Z" fill="white" fill-opacity="0.5"/>
<path d="M222.363 53.9794C203.23 -6.9551 100.422 -9.60425 92.526 58.7627C92.526 58.7627 86.431 60.0132 81.055 59.1606C51.74 54.514 0.444986 112.675 39.813 157.119H259.659C283.446 114.674 266.36 71.2449 222.362 53.9783L222.363 53.9794Z" fill="#A4A4A4" fill-opacity="0.2"/>
<path d="M63.33 113.25C58.024 107.791 51.089 106.101 51.02 106.084L51.138 105.55C51.209 105.567 58.286 107.288 63.703 112.861L63.33 113.25Z" fill="#D1D1D1"/>
<path d="M90.4514 44.7336C90.2994 44.7336 90.1454 44.7108 89.9924 44.6631L86.7014 43.6447C86.2904 43.5173 85.9524 43.2323 85.7494 42.8418C85.5464 42.4522 85.5034 42.0036 85.6264 41.5809L86.7474 37.7237C85.3554 36.9581 84.0794 35.9977 82.9474 34.8632L79.7394 37.1073C79.0064 37.6191 78.0084 37.4202 77.5124 36.6639L75.5884 33.7267C75.3484 33.36 75.2604 32.9196 75.3414 32.4845C75.4224 32.0494 75.6624 31.6723 76.0174 31.4246L79.1884 29.2075C78.5164 27.5685 78.0954 25.8332 77.9364 24.0418L74.1744 23.5953C73.7484 23.5446 73.3664 23.3249 73.1004 22.9778C72.8344 22.6318 72.7154 22.1987 72.7644 21.7595L73.1574 18.2349C73.2584 17.3263 74.0554 16.6725 74.9344 16.7772L78.6474 17.2185C79.1454 15.6033 79.8674 14.0783 80.7984 12.6796L78.2344 9.92482C77.9374 9.60572 77.7784 9.18613 77.7864 8.74374C77.7954 8.30032 77.9694 7.88797 78.2794 7.58027L80.7564 5.12072C81.3944 4.48667 82.4114 4.50739 83.0234 5.16631L85.5644 7.89626C87.0064 6.93897 88.5734 6.22099 90.2264 5.75996L89.9904 1.99707C89.9334 1.08536 90.6044 0.29383 91.4864 0.234776L94.9144 0.00374167C95.8074 -0.0573845 96.5614 0.637794 96.6194 1.54951L96.8564 5.31343C98.5534 5.54861 100.195 6.05005 101.744 6.80532L103.922 3.75626C104.447 3.02068 105.453 2.86424 106.164 3.40608L108.928 5.51234C109.273 5.7755 109.498 6.1609 109.562 6.59914C109.626 7.03739 109.521 7.4746 109.266 7.83099L107.069 10.907C108.166 12.1699 109.073 13.5851 109.769 15.1195L113.395 14.1829C114.254 13.9633 115.126 14.5031 115.34 15.3899L116.171 18.8327C116.274 19.2616 116.211 19.7071 115.991 20.0863C115.77 20.4665 115.419 20.7348 115.003 20.8426L111.329 21.7905C111.396 23.5881 111.196 25.3649 110.734 27.0805L114.155 28.8532C114.538 29.0521 114.824 29.393 114.959 29.8136C115.094 30.2332 115.062 30.6828 114.87 31.0786L113.33 34.2499C112.933 35.0663 111.968 35.3978 111.177 34.9886L107.714 33.1952C106.735 34.4716 105.589 35.5957 104.304 36.5416L105.899 40.2164C106.074 40.6205 106.087 41.0701 105.935 41.4835C105.783 41.8979 105.483 42.2264 105.091 42.4077L101.957 43.8591C101.15 44.2321 100.2 43.8591 99.8384 43.0251L98.2354 39.3317C97.3994 39.5233 96.5434 39.6497 95.6884 39.7067C94.8334 39.7647 93.9684 39.7544 93.1144 39.6767L91.9884 43.5535C91.7804 44.2705 91.1414 44.7356 90.4514 44.7356V44.7336ZM83.0114 34.1577L83.1654 34.3162C84.3494 35.5336 85.7014 36.5509 87.1854 37.3414L87.3814 37.4461L86.1334 41.7394C86.0514 42.0233 86.0804 42.3227 86.2154 42.5827C86.3514 42.8438 86.5784 43.0355 86.8534 43.1205L90.1444 44.1389C90.7134 44.314 91.3134 43.9804 91.4824 43.394L92.7344 39.0861L92.9514 39.1089C93.8464 39.2022 94.7564 39.2187 95.6544 39.1586C96.5534 39.0975 97.4524 38.9587 98.3274 38.7463L98.5394 38.6945L100.32 42.7982C100.562 43.3567 101.199 43.6064 101.74 43.3567L104.874 41.9052C105.137 41.784 105.337 41.5643 105.439 41.2856C105.541 41.009 105.532 40.7086 105.415 40.4382L103.641 36.3489L103.822 36.2194C105.196 35.2352 106.41 34.0448 107.43 32.6793L107.563 32.5011L111.414 34.4955C111.945 34.771 112.592 34.5483 112.857 34.0002L114.397 30.8289C114.525 30.5647 114.547 30.2643 114.457 29.9835C114.367 29.7017 114.176 29.4738 113.919 29.3401L110.103 27.3634L110.165 27.1437C110.674 25.3483 110.885 23.4793 110.791 21.5906L110.78 21.3647L114.876 20.308C115.155 20.2365 115.39 20.0562 115.538 19.8014C115.685 19.5475 115.728 19.2502 115.659 18.9632L114.828 15.5205C114.685 14.9268 114.101 14.5642 113.525 14.7134L109.472 15.7598L109.381 15.5515C108.667 13.9229 107.71 12.4279 106.534 11.109L106.385 10.9422L108.842 7.5036C109.012 7.26532 109.083 6.97212 109.04 6.67996C108.997 6.38676 108.847 6.12878 108.616 5.95266L105.852 3.8464C105.375 3.48275 104.7 3.58842 104.349 4.08054L101.91 7.49428L101.712 7.39482C100.092 6.57843 98.3644 6.05108 96.5754 5.8273L96.3574 5.80036L96.0924 1.5837C96.0534 0.973471 95.5404 0.510361 94.9504 0.548694L91.5224 0.779732C90.9314 0.820137 90.4814 1.34851 90.5194 1.95978L90.7844 6.17541L90.5714 6.23135C88.8254 6.69239 87.1774 7.44766 85.6724 8.47541L85.4884 8.60077L82.6424 5.54343C82.2314 5.10207 81.5494 5.08861 81.1224 5.51338L78.6454 7.97293C78.4384 8.17806 78.3214 8.45469 78.3154 8.75099C78.3094 9.0473 78.4164 9.32807 78.6144 9.54149L81.4814 12.6216L81.3544 12.8071C80.3534 14.271 79.5904 15.882 79.0864 17.5936L79.0224 17.8122L74.8724 17.32C74.2824 17.2444 73.7484 17.6878 73.6814 18.296L73.2884 21.8206C73.2554 22.1148 73.3354 22.4039 73.5134 22.6349C73.6924 22.868 73.9474 23.0151 74.2334 23.0483L78.4264 23.5456L78.4434 23.7704C78.5884 25.656 79.0314 27.4804 79.7594 29.1941L79.8484 29.4033L76.3124 31.8753C76.0744 32.0421 75.9134 32.2939 75.8594 32.585C75.8054 32.8751 75.8644 33.1704 76.0244 33.4159L77.9484 36.3531C78.2814 36.8597 78.9504 36.9933 79.4414 36.6494L83.0084 34.1546L83.0114 34.1577ZM94.6034 32.5249C89.5814 32.5249 85.3414 28.4823 85.0114 23.2317C84.6674 17.7624 88.6954 13.0215 93.9904 12.6651C96.5554 12.4921 99.0304 13.3614 100.962 15.1112C102.894 16.8621 104.049 19.2864 104.216 21.9356C104.383 24.5858 103.54 27.1437 101.844 29.1402C100.148 31.1356 97.8024 32.3301 95.2374 32.5032C95.0254 32.5177 94.8134 32.5249 94.6034 32.5249ZM94.6304 13.1914C94.4294 13.1914 94.2274 13.1987 94.0244 13.2122C89.0204 13.5499 85.2144 18.0287 85.5384 23.1964C85.8634 28.3652 90.2024 32.2939 95.2014 31.9572C97.6254 31.7935 99.8424 30.6652 101.445 28.7796C103.048 26.8941 103.844 24.477 103.686 21.9729C103.529 19.4698 102.437 17.1791 100.612 15.5246C98.9404 14.0078 96.8344 13.1914 94.6294 13.1914H94.6304Z" fill="white" fill-opacity="0.5"/>
<path d="M154.088 27.4568H75.393C72.6697 27.4568 70.462 29.7441 70.462 32.5655V151.737C70.462 154.558 72.6697 156.845 75.393 156.845H154.088C156.811 156.845 159.019 154.558 159.019 151.737V32.5655C159.019 29.7441 156.811 27.4568 154.088 27.4568Z" fill="#388E3C"/>
<path d="M130.347 33.1498H99.134V38.5787H130.347V33.1498Z" fill="#D3DFFF"/>
<path d="M150.185 46.8535H79.295V63.1421H150.185V46.8535Z" fill="#D1D1D1"/>
<path d="M147.083 49.081H82.397V60.9136H147.083V49.081Z" fill="white"/>
<path d="M131.697 70.6968H126.881C125.435 70.6968 124.263 71.9112 124.263 73.4092V74.5623C124.263 76.0603 125.435 77.2746 126.881 77.2746H131.697C133.143 77.2746 134.315 76.0603 134.315 74.5623V73.4092C134.315 71.9112 133.143 70.6968 131.697 70.6968Z" fill="#4CAF50"/>
<path d="M147.568 70.6968H142.752C141.306 70.6968 140.134 71.9112 140.134 73.4092V74.5623C140.134 76.0603 141.306 77.2746 142.752 77.2746H147.568C149.014 77.2746 150.186 76.0603 150.186 74.5623V73.4092C150.186 71.9112 149.014 70.6968 147.568 70.6968Z" fill="#4CAF50"/>
<path d="M148.936 85.222H139.263C138.574 85.222 138.016 85.8005 138.016 86.514V92.5178C138.016 93.2313 138.574 93.8098 139.263 93.8098H148.936C149.625 93.8098 150.183 93.2313 150.183 92.5178V86.514C150.183 85.8005 149.625 85.222 148.936 85.222Z" fill="#4CAF50"/>
<path d="M129.524 85.222H119.851C119.162 85.222 118.604 85.8005 118.604 86.514V92.5178C118.604 93.2313 119.162 93.8098 119.851 93.8098H129.524C130.213 93.8098 130.771 93.2313 130.771 92.5178V86.514C130.771 85.8005 130.213 85.222 129.524 85.222Z" fill="#4CAF50"/>
<path d="M110.113 85.222H100.44C99.7513 85.222 99.193 85.8005 99.193 86.514V92.5178C99.193 93.2313 99.7513 93.8098 100.44 93.8098H110.113C110.802 93.8098 111.36 93.2313 111.36 92.5178V86.514C111.36 85.8005 110.802 85.222 110.113 85.222Z" fill="#4CAF50"/>
<path d="M90.701 85.222H81.028C80.3393 85.222 79.781 85.8005 79.781 86.514V92.5178C79.781 93.2313 80.3393 93.8098 81.028 93.8098H90.701C91.3897 93.8098 91.948 93.2313 91.948 92.5178V86.514C91.948 85.8005 91.3897 85.222 90.701 85.222Z" fill="#4CAF50"/>
<path d="M148.936 100.753H139.263C138.574 100.753 138.016 101.332 138.016 102.045V108.049C138.016 108.763 138.574 109.341 139.263 109.341H148.936C149.625 109.341 150.183 108.763 150.183 108.049V102.045C150.183 101.332 149.625 100.753 148.936 100.753Z" fill="#4CAF50"/>
<path d="M129.524 100.753H119.851C119.162 100.753 118.604 101.332 118.604 102.045V108.049C118.604 108.763 119.162 109.341 119.851 109.341H129.524C130.213 109.341 130.771 108.763 130.771 108.049V102.045C130.771 101.332 130.213 100.753 129.524 100.753Z" fill="#D3DFFF"/>
<path d="M110.113 100.753H100.44C99.7513 100.753 99.193 101.332 99.193 102.045V108.049C99.193 108.763 99.7513 109.341 100.44 109.341H110.113C110.802 109.341 111.36 108.763 111.36 108.049V102.045C111.36 101.332 110.802 100.753 110.113 100.753Z" fill="#D3DFFF"/>
<path d="M90.701 100.753H81.028C80.3393 100.753 79.781 101.332 79.781 102.045V108.049C79.781 108.763 80.3393 109.341 81.028 109.341H90.701C91.3897 109.341 91.948 108.763 91.948 108.049V102.045C91.948 101.332 91.3897 100.753 90.701 100.753Z" fill="#D3DFFF"/>
<path d="M148.936 116.283H139.263C138.574 116.283 138.016 116.862 138.016 117.575V123.579C138.016 124.293 138.574 124.871 139.263 124.871H148.936C149.625 124.871 150.183 124.293 150.183 123.579V117.575C150.183 116.862 149.625 116.283 148.936 116.283Z" fill="#1F3C88"/>
<path d="M129.524 116.283H119.851C119.162 116.283 118.604 116.862 118.604 117.575V123.579C118.604 124.293 119.162 124.871 119.851 124.871H129.524C130.213 124.871 130.771 124.293 130.771 123.579V117.575C130.771 116.862 130.213 116.283 129.524 116.283Z" fill="#D3DFFF"/>
<path d="M110.113 116.283H100.44C99.7513 116.283 99.193 116.862 99.193 117.575V123.579C99.193 124.293 99.7513 124.871 100.44 124.871H110.113C110.802 124.871 111.36 124.293 111.36 123.579V117.575C111.36 116.862 110.802 116.283 110.113 116.283Z" fill="#D3DFFF"/>
<path d="M90.701 116.283H81.028C80.3393 116.283 79.781 116.862 79.781 117.575V123.579C79.781 124.293 80.3393 124.871 81.028 124.871H90.701C91.3897 124.871 91.948 124.293 91.948 123.579V117.575C91.948 116.862 91.3897 116.283 90.701 116.283Z" fill="#D3DFFF"/>
<path d="M148.936 132.362H139.263C138.574 132.362 138.016 132.94 138.016 133.654V139.657C138.016 140.371 138.574 140.949 139.263 140.949H148.936C149.625 140.949 150.183 140.371 150.183 139.657V133.654C150.183 132.94 149.625 132.362 148.936 132.362Z" fill="#FBC343"/>
<path d="M129.524 132.362H119.851C119.162 132.362 118.604 132.94 118.604 133.654V139.657C118.604 140.371 119.162 140.949 119.851 140.949H129.524C130.213 140.949 130.771 140.371 130.771 139.657V133.654C130.771 132.94 130.213 132.362 129.524 132.362Z" fill="#D3DFFF"/>
<path d="M110.113 132.362H100.44C99.7513 132.362 99.193 132.94 99.193 133.654V139.657C99.193 140.371 99.7513 140.949 100.44 140.949H110.113C110.802 140.949 111.36 140.371 111.36 139.657V133.654C111.36 132.94 110.802 132.362 110.113 132.362Z" fill="#D3DFFF"/>
<path d="M90.701 132.362H81.028C80.3393 132.362 79.781 132.94 79.781 133.654V139.657C79.781 140.371 80.3393 140.949 81.028 140.949H90.701C91.3897 140.949 91.948 140.371 91.948 139.657V133.654C91.948 132.94 91.3897 132.362 90.701 132.362Z" fill="#D3DFFF"/>
<path d="M132.998 57.6801C133.185 57.7008 133.402 57.6801 133.696 57.649C134.197 57.5785 134.67 57.3641 135.033 57.0077C135.456 56.6099 135.761 56.0297 135.879 55.2454H135.85C135.495 55.693 134.984 55.9582 134.346 55.9582C133.195 55.9582 132.458 55.062 132.458 53.9307C132.458 52.6771 133.333 51.5768 134.641 51.5768C135.949 51.5768 136.755 52.6771 136.755 54.3679C136.755 55.8245 136.283 56.844 135.654 57.476C135.162 57.9753 134.483 58.281 133.796 58.3628C133.481 58.4136 133.206 58.4239 132.999 58.4136V57.6801H132.998ZM133.313 53.8695C133.313 54.6942 133.795 55.2754 134.542 55.2754C135.122 55.2754 135.575 54.9802 135.801 54.5823C135.851 54.5015 135.879 54.3989 135.879 54.256C135.879 53.1257 135.476 52.2595 134.571 52.2595C133.834 52.2595 133.312 52.9319 133.312 53.8695H133.313Z" fill="#3A6BEA"/>
<path d="M138.046 57.6801C138.233 57.7008 138.45 57.6801 138.744 57.649C139.245 57.5785 139.718 57.3641 140.081 57.0077C140.504 56.6099 140.809 56.0297 140.927 55.2454H140.898C140.543 55.693 140.032 55.9582 139.394 55.9582C138.243 55.9582 137.506 55.062 137.506 53.9307C137.506 52.6771 138.381 51.5768 139.689 51.5768C140.997 51.5768 141.803 52.6771 141.803 54.3679C141.803 55.8245 141.331 56.844 140.702 57.476C140.21 57.9753 139.531 58.281 138.844 58.3628C138.529 58.4136 138.254 58.4239 138.047 58.4136V57.6801H138.046ZM138.361 53.8695C138.361 54.6942 138.843 55.2754 139.59 55.2754C140.17 55.2754 140.623 54.9802 140.849 54.5823C140.899 54.5015 140.927 54.3989 140.927 54.256C140.927 53.1257 140.524 52.2595 139.619 52.2595C138.882 52.2595 138.36 52.9319 138.36 53.8695H138.361Z" fill="#3A6BEA"/>
<path d="M230.605 120.4H182.289V157.119H230.605V120.4Z" fill="#FBC343"/>
<path d="M230.607 128.713H217.734V129.261H230.607V128.713Z" fill="#E49B31"/>
<path d="M230.606 148.811H208.211V149.359H230.606V148.811Z" fill="#E49B31"/>
<path d="M206.375 133.704C206.375 137.93 205.761 142.178 204.513 146.306C202.614 152.577 197.011 156.841 190.674 156.841H182.289V120.402H204.297C205.672 124.688 206.376 129.183 206.376 133.704H206.375Z" fill="#E49B31"/>
<path d="M119.953 148.229H159.783C161.109 148.229 162.185 149.343 162.185 150.717V154.631C162.185 156.005 161.109 157.12 159.783 157.12H119.952C118.626 157.12 117.55 156.005 117.55 154.631V150.717C117.55 149.343 118.626 148.229 119.952 148.229H119.953Z" fill="#FBC343"/>
<path d="M157.25 141.821V145.74C157.25 147.116 156.171 148.229 154.848 148.229H115.017C113.689 148.229 112.615 147.116 112.615 145.74V141.821C112.615 140.45 113.689 139.332 115.017 139.332H154.848C156.171 139.332 157.25 140.45 157.25 141.821Z" fill="#FBC343"/>
<path d="M162.186 150.717V154.631C162.186 156.007 161.112 157.12 159.784 157.12H131.222C129.249 154.598 128.043 151.348 127.318 148.23C126.482 144.655 126.265 141.263 126.218 139.333H154.849C156.172 139.333 157.251 140.451 157.251 141.822V145.741C157.251 147.117 156.172 148.23 154.849 148.23H159.785C161.113 148.23 162.187 149.342 162.187 150.718L162.186 150.717Z" fill="#E49B31"/>
<path d="M183.119 77.8041L179.903 88.0381L179.665 88.7943L178.173 93.5466L178.162 93.5798L173.353 93.47L154.9 93.0369L153.551 89.0358L153.324 88.3675L149.753 77.8051C160.831 81.7794 169.962 73.0912 183.119 77.8051V77.8041Z" fill="#FBC343"/>
<path d="M179.665 88.7944L178.173 93.5467L173.354 93.47L154.901 93.037L153.552 89.0358C159.895 88.9208 170.809 88.7674 179.665 88.7944Z" fill="#E49B31"/>
<path d="M200.281 146.584C199.334 149.719 197.456 152.351 195.028 154.203C192.594 156.056 189.611 157.12 186.442 157.12H144.649C138.608 157.12 133.307 152.937 131.698 146.897C130.772 143.406 130.275 139.865 130.196 136.34C130.191 136 130.185 135.66 130.185 135.321C130.185 134.919 130.19 134.518 130.201 134.117C130.542 121.342 136.567 109.446 146.236 101.513L156.234 93.3115L179.114 93.8595L191.691 106.328C193.46 108.082 195.036 110.042 196.301 112.215C197.817 114.819 199.044 117.566 199.974 120.405C202.72 128.77 202.9 137.935 200.281 146.583V146.584Z" fill="#FBC343"/>
<path d="M163.066 145.669V141.087C159.945 140.942 156.92 140.074 155.149 139.013L156.548 133.368C158.505 134.475 161.25 135.49 164.279 135.49C166.933 135.49 168.749 134.429 168.749 132.5C168.749 130.57 167.259 129.505 163.812 128.299C158.83 126.563 155.428 124.151 155.428 119.471C155.428 115.225 158.317 111.897 163.3 110.884V106.299H167.861V110.546C170.982 110.691 173.078 111.367 174.614 112.137L173.264 117.59C172.054 117.059 169.912 115.948 166.556 115.948C163.53 115.948 162.552 117.299 162.552 118.651C162.552 120.242 164.182 121.255 168.141 122.799C173.681 124.827 175.918 127.478 175.918 131.823C175.918 136.168 172.983 139.783 167.629 140.749V145.669H163.064H163.066Z" fill="white"/>
<path d="M182.901 91.6196H150.535C149.191 91.6196 148.101 92.7486 148.101 94.1413V95.2147C148.101 96.6074 149.191 97.7364 150.535 97.7364H182.901C184.245 97.7364 185.335 96.6074 185.335 95.2147V94.1413C185.335 92.7486 184.245 91.6196 182.901 91.6196Z" fill="#ED7545"/>
<path opacity="0.4" d="M200.281 146.584C199.334 149.719 197.456 152.351 195.028 154.203C192.594 156.056 189.611 157.12 186.442 157.12H144.649C138.608 157.12 133.307 152.937 131.698 146.897C130.772 143.406 130.275 139.865 130.196 136.34C137.11 143.17 145.257 152.099 164.302 152.373C187.952 152.713 198.144 141.229 199.974 120.406C202.72 128.771 202.9 137.936 200.281 146.584Z" fill="#E49B31"/>
<path d="M37.952 149.537L33.72 147.892L23.889 156.845H35.523L37.952 149.537Z" fill="#102048"/>
<path d="M37.952 149.537H47.2989L46.241 156.48L35.5229 156.845L37.952 149.537Z" fill="#F9B384"/>
<path d="M75.467 110.617L75.123 113.046L74.917 114.51L73.436 125.029L72.87 129.046L72.367 132.631L71.05 141.971L70.135 148.45C69.447 153.323 65.416 156.935 60.66 156.935H39.98L40.006 156.661L40.678 149.535L40.773 148.532L55.189 145.654L57.125 131.084C56.173 126.847 56.406 122.769 56.818 119.908C57.167 117.469 57.654 115.917 57.654 115.917L64.087 114.004L75.466 110.616L75.467 110.617Z" fill="#E0E0E0"/>
<path d="M71.05 141.971L70.135 148.45C69.447 153.323 65.416 156.935 60.66 156.935H59.602C69.077 155.178 67.225 142.64 71.05 141.971Z" fill="#616161"/>
<path d="M32.6137 153.322L30.5856 156.702L31.0349 156.991L33.0629 153.612L32.6137 153.322Z" fill="white"/>
<path d="M73.436 125.028L72.367 132.63C69.389 131.747 65.461 127.337 65.461 127.337L73.435 125.028H73.436Z" fill="#616161"/>
<path d="M95.3469 144.421C95.3469 144.421 90.3209 147.093 81.3279 145.38L88.8009 140.242L95.3479 144.421H95.3469Z" fill="#102048"/>
<path d="M92.581 148.104L84.545 148.291L84.498 146.492L84.371 141.565L91.513 142.113L91.851 144.015L92.581 148.104Z" fill="#F9B384"/>
<path d="M91.851 144.015L84.498 146.492L84.371 141.565L91.513 142.113L91.851 144.015Z" fill="#E28B6D"/>
<path d="M101.696 156.914L92.8349 149.514L92.5829 148.106L84.5439 148.291L84.7669 156.914H101.696Z" fill="#102048"/>
<path d="M95.6468 151.6L92.4719 153.654L92.752 154.119L95.927 152.065L95.6468 151.6Z" fill="white"/>
<path d="M57.654 115.918L86.409 111.186C87.754 110.964 89.132 111.152 90.376 111.725C92.849 112.863 94.474 115.37 94.557 118.172L95.3459 144.42C95.3459 144.42 87.146 142.639 81.327 145.379L80.798 127.428C77.282 129.087 71.192 129.438 65.02 128.799L57.653 115.918H57.654Z" fill="#E0E0E0"/>
<path d="M91.296 143.599H90.767C90.767 139.057 90.873 135.286 90.966 131.96C91.193 123.859 91.318 119.398 89.327 117.509C87.715 115.981 84.494 116.029 79.821 116.602C74.813 117.207 72.816 111.682 72.796 111.626L73.293 111.44C73.367 111.652 75.167 116.631 79.758 116.058C84.704 115.453 87.915 115.429 89.683 117.106C91.854 119.164 91.733 123.446 91.494 131.977C91.401 135.3 91.295 139.066 91.295 143.6L91.296 143.599Z" fill="#616161"/>
<path d="M81.338 142.073L81.15 141.561C81.217 141.535 87.925 138.948 95.327 140.865L95.199 141.397C87.964 139.522 81.403 142.047 81.338 142.072V142.073Z" fill="#616161"/>
<path d="M42.918 157.013C42.094 155.306 43.369 148.233 43.424 147.932L43.944 148.035C43.581 150.029 42.773 155.487 43.392 156.769L42.919 157.014L42.918 157.013Z" fill="#616161"/>
<path d="M72.605 113.725C72.605 113.725 70.574 118.203 65.992 121.218C64.437 122.238 62.908 122.704 61.538 122.709C59.47 122.714 57.75 121.673 56.819 119.907C57.168 117.469 57.655 115.917 57.655 115.917L64.088 114.004L70.579 113.791L72.605 113.725Z" fill="#616161"/>
<path d="M67.441 86.7357V93.0794H73.437V87.5925L67.441 86.7357Z" fill="#4CAF50"/>
<path d="M73.437 83.6691H67.441V86.7357L73.437 87.5925V83.6691Z" fill="#F9B384"/>
<path d="M69.209 84.5372C69.341 84.5372 70.655 86.6725 73.437 87.5925L73.397 84.2637L69.209 84.5383V84.5372Z" fill="#102048"/>
<path d="M74.142 76.0874C74.142 76.0874 77.448 85.3143 73.172 85.9079C68.896 86.5016 68.234 84.4917 68.234 84.4917L66.911 79.6037L69.865 75.4927L74.141 76.0863L74.142 76.0874Z" fill="#F9B384"/>
<path d="M76.1693 80.5346C76.1788 80.0048 75.772 79.5675 75.2606 79.5576C74.7493 79.5478 74.3271 79.9694 74.3177 80.4991C74.3082 81.0289 74.7151 81.4663 75.2264 81.4761C75.7377 81.4859 76.1599 81.0644 76.1693 80.5346Z" fill="#F9B384"/>
<path d="M69.645 80.4719C69.645 80.4719 69.865 75.5382 74.142 76.0863C74.142 76.0863 71.264 72.2571 67.472 73.7418C65.546 74.496 64.258 76.4013 64.069 78.5251C63.825 81.2706 65.373 84.3995 67.533 84.9475C67.533 84.9475 68.238 83.2578 69.424 81.1111L69.644 80.4719H69.645Z" fill="#102048"/>
<path d="M70.668 80.2408C71.025 81.0282 70.788 81.9233 70.138 82.2404C69.488 82.5574 68.671 82.1751 68.314 81.3877C67.957 80.6003 68.194 79.7052 68.844 79.3882C69.494 79.0711 70.311 79.4534 70.668 80.2408Z" fill="#F9B384"/>
<path opacity="0.4" d="M73.9057 81.0869C73.9153 80.3935 73.3805 79.8233 72.7112 79.8134C72.0419 79.8035 71.4915 80.3575 71.4819 81.051C71.4724 81.7444 72.0072 82.3146 72.6765 82.3245C73.3458 82.3344 73.8961 81.7803 73.9057 81.0869Z" fill="#EB5D60"/>
<path d="M69.76 81.34C69.687 81.34 69.628 81.2789 69.628 81.2033C69.628 81.1712 69.613 80.4066 68.794 80.2885C68.722 80.2781 68.671 80.2087 68.681 80.133C68.691 80.0585 68.758 80.0098 68.83 80.016C69.879 80.1683 69.892 81.1919 69.892 81.2022C69.892 81.2779 69.833 81.339 69.76 81.339V81.34Z" fill="#102048"/>
<path d="M89.793 77.6859C89.793 77.6859 94.418 78.0516 96.935 81.1121L91.208 82.5739L89.793 77.6859Z" fill="#388E3C"/>
<path d="M97.9879 75.0596C98.0089 75.4978 96.8449 77.6849 95.9879 79.2358C95.4849 80.1289 95.0939 80.8085 95.0939 80.8085L92.0099 81.7399L89.8089 78.3034L89.7029 78.1335C89.7029 78.1335 89.7349 77.9853 89.7929 77.7222V77.717C89.7979 77.7118 89.7979 77.7004 89.8039 77.6838C90.1739 76.0562 91.4859 70.5083 92.2429 70.3228C92.9099 70.1643 92.5179 73.2009 92.5179 73.2009C92.5179 73.2009 94.1629 68.2621 95.1369 68.4652C95.9149 68.6237 94.3909 73.3605 94.3909 73.3605C94.3909 73.3605 94.9359 72.7689 95.4859 72.9554C96.0729 73.1584 96.1469 73.7283 96.1469 73.7283C96.1469 73.7283 96.5379 73.4434 96.9299 73.6848C97.3209 73.9313 97.2839 74.699 97.2839 74.699C97.2839 74.699 97.9449 74.3758 97.9879 75.0606V75.0596Z" fill="#F9B384"/>
<path d="M66.04 90.8519L63.9449 99.337L60.697 112.493C58.491 113.507 56.163 113.88 54.317 113.562C52.174 113.194 50.677 111.901 50.778 109.616C51.043 103.449 66.04 90.8529 66.04 90.8529V90.8519Z" fill="#00B907"/>
<path d="M65.638 93.2617L63.945 99.337L60.697 112.493C58.491 113.507 56.163 113.88 54.317 113.562C59.025 99.5659 65.638 93.2627 65.638 93.2627V93.2617Z" fill="#388E3C"/>
<path d="M78.7309 112.459C74.3669 112.766 60.6119 124.551 57.3049 116.949C57.3049 116.949 57.7649 88.5882 71.8959 89.1145C74.3979 89.2077 76.5939 90.9348 77.3499 93.4068C77.6889 94.5246 78.0269 95.9834 78.2919 97.8576C78.5619 99.7597 78.7629 102.095 78.8319 104.94C78.8899 107.132 78.8639 109.627 78.7309 112.461V112.459Z" fill="#00B907"/>
<path d="M78.8319 104.939C76.6469 103.475 74.3669 99.0624 74.3669 99.0624L78.2919 97.8565C78.5619 99.7587 78.7629 102.094 78.8319 104.939Z" fill="#388E3C"/>
<path d="M95.988 79.2369C95.485 80.1299 95.094 80.8096 95.094 80.8096L92.01 81.741L89.809 78.3044L89.793 77.7232V77.6849H89.804L95.988 79.2358V79.2369Z" fill="#E28B6D"/>
<path d="M71.897 89.1144C71.897 89.1144 78.683 89.6076 82.783 90.4302L89.793 77.6859C91.934 79.4606 94.314 80.6055 96.935 81.1121L90.8 96.088C89.447 98.9319 86.694 100.775 83.635 100.884L73.128 101.256L71.897 89.1144Z" fill="#00B907"/>
<path d="M82.7829 90.6353C82.7709 90.6353 82.7589 90.6353 82.7469 90.6322C82.6179 90.6074 69.8049 88.1727 67.6209 90.1733C67.5389 90.2479 67.4139 90.2406 67.3409 90.1546C67.2689 90.0697 67.2759 89.9402 67.3579 89.8645C69.6849 87.7334 82.2839 90.1246 82.8189 90.2282C82.9269 90.2489 82.9979 90.3567 82.9779 90.4675C82.9599 90.567 82.8769 90.6353 82.7829 90.6353Z" fill="#388E3C"/>
<path d="M223.201 145.152L224.082 156.845H209.402L216.808 151.546L216.676 144.238L223.201 145.152Z" fill="#102048"/>
<path d="M244.847 140.172L248.814 150.176L238.763 158.946L240.218 149.08L238.234 142.502L244.847 140.172Z" fill="#102048"/>
<path d="M227.082 83.7592C226.95 84.1425 226.828 84.6367 226.712 85.2169C226.516 86.2312 226.347 87.5242 226.204 89.0482C225.738 94.0253 225.543 101.419 225.49 109.275C225.379 126.963 226.024 146.981 226.024 146.981L223.337 146.938L216.724 146.833L214.386 146.795C210.842 118.774 211.852 95.1111 212.386 86.8725C212.402 86.5876 212.423 86.3244 212.434 86.0779C212.545 84.5653 212.619 83.7592 212.619 83.7592H227.083H227.082Z" fill="#00B907"/>
<path d="M247.359 142.776L246.015 143.121L238.968 144.946L234.662 146.064C234.662 146.064 229.562 126.457 225.489 109.274C223.532 100.986 221.807 93.2628 221.013 88.5757C220.738 86.9202 220.574 85.6427 220.553 84.8543L226.711 85.2159L234.488 85.6759C234.488 85.6759 234.678 86.8321 235.049 88.9104C236.53 97.1925 240.874 120.126 247.36 142.775L247.359 142.776Z" fill="#00B907"/>
<path d="M235.049 88.9114C231.917 89.1798 228.933 89.1912 226.204 89.0482C224.347 88.9498 222.607 88.7798 221.014 88.5768C217.078 88.0671 214.041 87.3273 212.386 86.8725C211.481 86.6208 210.989 86.456 210.989 86.456L212.433 86.0779L221.342 83.7592H227.082C226.95 84.1425 226.828 84.6367 226.712 85.2169L234.489 85.6769C234.489 85.6769 234.679 86.8331 235.05 88.9114H235.049Z" fill="#388E3C"/>
<path d="M225.764 111.414C225.336 109.555 223.315 100.754 223.052 99.2635L218.963 97.6753L219.149 97.1624L223.553 98.8729V99.0625C223.583 99.4686 225.2 106.597 226.279 111.287L225.765 111.414H225.764Z" fill="#388E3C"/>
<path d="M215.383 119.436C213.459 119.436 212.237 118.942 212.169 118.913L212.365 118.404C212.386 118.414 214.544 119.28 217.595 118.664L217.696 119.202C216.849 119.373 216.071 119.436 215.383 119.436Z" fill="#388E3C"/>
<path d="M230.699 119.051C229.467 119.051 228.434 118.852 228.353 118.836L228.452 118.298C228.488 118.305 232.066 118.991 233.718 117.794L234.021 118.243C233.141 118.881 231.836 119.051 230.699 119.051Z" fill="#388E3C"/>
<path d="M216.973 151.347L216.652 151.782L218.723 153.427L219.045 152.992L216.973 151.347Z" fill="white"/>
<path d="M240.304 148.807L240.105 149.314L242.926 150.501L243.125 149.993L240.304 148.807Z" fill="white"/>
<path d="M219.321 53.796C219.321 53.796 210.239 54.9833 207.947 65.5809L210.68 78.1884L209.446 86.5928C209.446 86.5928 221.79 87.8712 234.487 85.679L230.63 64.2558L219.322 53.796H219.321Z" fill="#E0E0E0"/>
<path d="M224.964 80.6542C224.964 80.6542 222.231 78.5759 225.802 69.463L228.183 78.4381L224.965 80.6532L224.964 80.6542Z" fill="#616161"/>
<path d="M224.611 62.5837L224.727 62.8098C224.877 63.1037 224.769 63.4693 224.485 63.6249L214.323 69.199L213.663 67.9071L223.825 62.3329C224.108 62.1773 224.461 62.2898 224.611 62.5837Z" fill="#102048"/>
<path d="M227.256 77.686L226.986 77.5326L223.479 75.5704L217.601 72.2758C217.495 71.5412 217.575 70.9165 217.998 70.4886L217.707 70.3684C217.231 70.1602 216.882 69.7157 216.787 69.1842L216.776 69.119C216.623 68.5875 216.697 68.0943 216.744 67.8198L216.882 67.6333C217.226 67.1671 217.379 66.9319 217.824 66.5641L217.073 66.6076C217.073 66.6076 215.221 67.1339 216.084 65.901C216.677 65.0463 218.004 64.3221 218.761 63.9605C219.078 63.8072 219.465 63.8725 219.708 64.1356C222.253 66.8708 226.728 70.1488 226.728 70.1488L226.776 70.817L227.21 76.9721L227.258 77.6849L227.256 77.686Z" fill="#F9B384"/>
<path d="M220.321 67.2116L218.72 66.4014C218.553 66.3165 218.367 66.2895 218.184 66.3227L216.479 66.6304L216.434 66.36L218.139 66.0523C218.378 66.0088 218.619 66.045 218.837 66.1549L220.438 66.965L220.321 67.2116Z" fill="#E28B6D"/>
<path d="M220.023 68.7698L218.103 68.0073C218.018 67.9731 217.928 67.9565 217.836 67.9565H216.743V67.683H217.836C217.96 67.683 218.082 67.7058 218.198 67.7524L220.118 68.5149L220.023 68.7708V68.7698Z" fill="#E28B6D"/>
<path d="M219.759 70.3228L218.015 69.6401C217.879 69.5862 217.729 69.5665 217.582 69.5841L216.868 69.6681L216.838 69.3956L217.553 69.3117C217.74 69.2899 217.933 69.3148 218.11 69.3842L219.854 70.0669L219.76 70.3228H219.759Z" fill="#E28B6D"/>
<path d="M227.209 76.9732L226.986 77.5326L223.479 75.5704L225.801 69.464L226.775 70.8171L227.209 76.9732Z" fill="#E28B6D"/>
<path d="M224.964 80.6542C224.964 80.6542 230.211 85.8157 234.486 85.679L233.251 79.6036L224.963 80.6542H224.964Z" fill="#616161"/>
<path d="M219.321 53.796C219.321 53.796 219.967 53.7266 221.044 53.7649C231.634 54.1399 239.746 63.5813 239.229 74.5468C239.015 79.0794 237.879 83.5799 234.222 83.6701L224.964 80.6552C225.837 77.2622 226.489 73.7438 225.802 69.464L230.1 71.5878L219.321 53.796Z" fill="#E0E0E0"/>
<path d="M222.342 80.2346L209.401 80.563L209.047 79.4286L207.746 75.2844L203.979 63.2975L216.919 62.968L222.342 80.2346Z" fill="#D3DFFF"/>
<path opacity="0.3" d="M210.491 73.8484C210.491 73.8484 210.47 77.5533 209.047 79.4285L207.746 75.2844L210.492 73.8484H210.491Z" fill="#1F3C88"/>
<path d="M204.215 73.5594C204.623 72.196 205.365 70.9372 206.182 69.8017C206.442 69.4401 207.007 68.5523 207.55 68.6869C208.652 68.9615 207.55 70.9704 207.55 70.9704C207.55 70.9704 208.608 69.3262 209.005 70.1477C209.402 70.9704 208.829 71.8831 208.829 71.8831C208.829 71.8831 210.504 70.7414 209.887 73.0248C209.887 73.0248 211.254 72.8425 210.416 74.3955C209.818 75.5041 209.431 76.739 208.682 77.7585C207.928 78.7841 206.51 79.3602 205.332 78.7748C203.947 78.0869 203.77 76.2521 203.941 74.8555C203.995 74.4131 204.089 73.9811 204.215 73.5584V73.5594Z" fill="#F9B384"/>
<path d="M206.591 73.1978C206.573 73.1978 206.555 73.1937 206.537 73.1864C206.47 73.1553 206.44 73.0745 206.47 73.0051L207.726 70.0586C207.755 69.9892 207.834 69.9581 207.9 69.9882C207.967 70.0193 207.997 70.1001 207.967 70.1695L206.711 73.116C206.689 73.1667 206.641 73.1978 206.59 73.1978H206.591Z" fill="#E28B6D"/>
<path d="M207.881 74.294C207.862 74.294 207.843 74.2898 207.825 74.2805C207.759 74.2484 207.73 74.1665 207.761 74.0981L208.951 71.4604C208.983 71.392 209.062 71.363 209.127 71.3941C209.193 71.4262 209.222 71.5081 209.191 71.5764L208.001 74.2142C207.979 74.2639 207.931 74.294 207.881 74.294Z" fill="#E28B6D"/>
<path d="M208.872 75.1849C208.851 75.1849 208.83 75.1798 208.81 75.1694C208.746 75.1342 208.72 75.0513 208.755 74.9839L209.78 72.9626C209.815 72.8963 209.894 72.8704 209.959 72.9057C210.023 72.9409 210.049 73.0238 210.014 73.0911L208.989 75.1124C208.965 75.159 208.919 75.186 208.872 75.186V75.1849Z" fill="#E28B6D"/>
<path d="M213.149 64.1646H208.52L207.726 62.5204H212.355L213.149 64.1646Z" fill="#102048"/>
<path d="M219.195 59.1492C217.822 59.1492 216.92 58.4457 216.907 58.4353C216.82 58.3659 216.805 58.2375 216.871 58.1473C216.938 58.0582 217.062 58.0406 217.149 58.11C217.225 58.1691 219.02 59.5532 221.423 58.051C221.516 57.9919 221.639 58.024 221.695 58.1204C221.751 58.2178 221.721 58.3442 221.627 58.4022C220.73 58.9627 219.9 59.1492 219.195 59.1492Z" fill="#616161"/>
<path d="M224.964 80.8604C224.946 80.8604 224.927 80.8573 224.908 80.8521C224.803 80.82 224.743 80.705 224.774 80.5962C226.676 73.9231 225.621 69.5593 225.61 69.5158L225.533 69.2091L233.726 70.6316C233.834 70.6502 233.907 70.7559 233.889 70.8678C233.871 70.9807 233.763 71.0564 233.661 71.0367L226.057 69.7157C226.26 70.8315 226.802 74.9353 225.156 80.7122C225.13 80.8013 225.051 80.8593 224.966 80.8593L224.964 80.8604Z" fill="#616161"/>
<path d="M230.96 70.4917C230.96 70.4917 230.952 70.4917 230.948 70.4917C230.839 70.4844 230.755 70.387 230.762 70.2741C230.764 70.2296 230.984 65.8088 228.018 61.2658C227.957 61.1715 227.981 61.0441 228.071 60.9809C228.162 60.9177 228.285 60.9415 228.347 61.0358C231.391 65.699 231.161 70.2534 231.158 70.299C231.151 70.4078 231.064 70.4917 230.96 70.4917Z" fill="#616161"/>
<path d="M222.958 48.7516V54.0416C222.958 55.7479 221.674 57.131 220.089 57.131C218.504 57.131 217.22 55.7479 217.22 54.0416V48.7516H222.957H222.958Z" fill="#F9B384"/>
<path d="M220.247 49.4571C220.247 49.4571 219.949 52.7258 217.221 53.6707V49.0282L220.247 49.4571Z" fill="#102048"/>
<path d="M215.055 42.7218C215.055 42.7218 214.165 50.1419 216.957 51.0215C219.749 51.9021 222.298 49.3452 222.298 49.3452L221.772 43.2253L217.645 40.7098L215.056 42.7218H215.055Z" fill="#F9B384"/>
<path d="M230.938 57.1414L225.431 57.5195C224.734 56.7249 224.34 55.607 224.082 54.3462C223.849 55.6443 224.033 56.7228 224.648 57.5744L223.156 57.6791C221.833 55.6288 220.722 51.0909 222.034 47.2099L222.187 46.2941C222.187 46.2941 221.245 43.3393 219.88 43.2139C219.88 43.2139 215.198 46.4868 213.114 42.8358C211.559 40.1172 212.871 36.5429 216.611 39.1796C216.611 39.1796 225.599 34.8107 225.578 43.7672C225.573 45.373 226.155 46.952 227.303 48.0263C227.398 48.1248 227.504 48.218 227.615 48.3061C229.631 49.9616 231.805 53.2614 230.937 57.1424L230.938 57.1414Z" fill="#102048"/>
<path d="M223.606 46.7737C223.871 45.9187 223.515 45.0345 222.809 44.7988C222.103 44.5631 221.315 45.0652 221.049 45.9203C220.783 46.7753 221.14 47.6595 221.846 47.8952C222.552 48.1309 223.34 47.6288 223.606 46.7737Z" fill="#F9B384"/>
<path d="M222.142 46.8535C222.069 46.8535 222.01 46.7924 222.01 46.7168C222.01 46.1252 222.461 45.603 222.995 45.5751H223.002C223.072 45.5751 223.13 45.6321 223.134 45.7056C223.138 45.7812 223.081 45.8455 223.008 45.8496C222.654 45.8683 222.274 46.2216 222.274 46.7178C222.274 46.7935 222.215 46.8546 222.142 46.8546V46.8535Z" fill="#102048"/>
<path d="M216.036 45.5512C216.036 45.7408 215.888 45.8942 215.705 45.8942C215.522 45.8942 215.374 45.7408 215.374 45.5512C215.374 45.3616 215.522 45.2083 215.705 45.2083C215.888 45.2083 216.036 45.3616 216.036 45.5512Z" fill="#102048"/>
<path d="M218.031 45.3803C218.031 45.5699 217.883 45.7232 217.7 45.7232C217.517 45.7232 217.369 45.5699 217.369 45.3803C217.369 45.1907 217.517 45.0374 217.7 45.0374C217.883 45.0374 218.031 45.1907 218.031 45.3803Z" fill="#102048"/>
<path d="M216.511 47.8471C216.478 47.8471 216.444 47.8347 216.419 47.8077C216.15 47.5352 216.04 47.2773 216.092 47.039C216.145 46.7976 216.351 46.6577 216.474 46.5935L216.445 45.917C216.442 45.8413 216.499 45.7771 216.571 45.774C216.643 45.774 216.706 45.8299 216.709 45.9045L216.746 46.7779L216.653 46.8111C216.58 46.837 216.383 46.9406 216.349 47.1001C216.312 47.2721 216.466 47.4731 216.603 47.6109C216.655 47.6637 216.656 47.7507 216.605 47.8046C216.579 47.8326 216.545 47.8461 216.51 47.8461L216.511 47.8471Z" fill="#102048"/>
<path d="M216.778 48.8334C216.668 48.8334 216.598 48.823 216.589 48.8209C216.517 48.8095 216.468 48.7391 216.48 48.6645C216.491 48.5899 216.565 48.5402 216.631 48.5505C216.638 48.5516 217.308 48.651 217.896 48.1206C217.95 48.0709 218.034 48.076 218.082 48.1341C218.13 48.191 218.125 48.2781 218.069 48.3278C217.582 48.7681 217.053 48.8344 216.778 48.8344V48.8334Z" fill="#102048"/>
<path opacity="0.4" d="M219.346 47.8471C219.825 47.8471 220.214 47.4445 220.214 46.9478C220.214 46.4511 219.825 46.0485 219.346 46.0485C218.867 46.0485 218.478 46.4511 218.478 46.9478C218.478 47.4445 218.867 47.8471 219.346 47.8471Z" fill="#EB5D60"/>
<path d="M282.314 156.572H0V157.12H282.314V156.572Z" fill="#102048"/>
</svg>
