<svg width="20" height="20" viewBox="0 0 20 20" fill="none" xmlns="http://www.w3.org/2000/svg">
<g clip-path="url(#clip0_1_2718)">
<path d="M19.0909 9.09091L3.10382 9.09091L6.09739 6.09733C6.45242 5.74236 6.45242 5.16673 6.09739 4.8117C5.91988 4.63424 5.68721 4.54545 5.45455 4.54545C5.22188 4.54545 4.98921 4.63424 4.81176 4.81176L0.266304 9.35721C-0.088728 9.71218 -0.088728 10.2878 0.266304 10.6428L4.81176 15.1883C5.16673 15.5433 5.74236 15.5433 6.09739 15.1883C6.45242 14.8333 6.45242 14.2577 6.09739 13.9027L3.10382 10.9091L19.0909 10.9091C19.593 10.9091 20 10.5021 20 10C20 9.49794 19.593 9.09091 19.0909 9.09091Z" fill="#616161"/>
</g>
<defs>
<clipPath id="clip0_1_2718">
<rect width="20" height="20" fill="white" transform="matrix(-1 0 0 -1 20 20)"/>
</clipPath>
</defs>
</svg>
