<svg width="22" height="30" viewBox="0 0 22 30" fill="none" xmlns="http://www.w3.org/2000/svg">
<path d="M18.9787 15C17.8915 14.0855 16.5094 13.6 15.0911 13.6346H5.97473C5.55908 13.6451 5.14558 13.5714 4.75898 13.4178C4.37239 13.2642 4.02066 13.0339 3.72484 12.7407C3.42903 12.4475 3.19521 12.0974 3.03739 11.7114C2.87956 11.3254 2.80098 10.9114 2.80634 10.4941C2.79621 10.3318 2.79621 10.1689 2.80634 10.0065C2.92891 9.261 3.31846 8.58604 3.90185 8.10836C4.48524 7.63068 5.22234 7.38314 5.97473 7.41222H14.9551C15.6876 7.41158 16.3966 7.67205 16.9555 8.14721C17.5145 8.62236 17.8871 9.2813 18.0068 10.0065H20.9225C20.8005 8.50247 20.1189 7.09962 19.0132 6.07684C17.9076 5.05406 16.4588 4.48627 14.9551 4.48635H11.8839V0H9.45413V4.48635H5.97473C4.47098 4.48627 3.02226 5.05406 1.9166 6.07684C0.810945 7.09962 0.129331 8.50247 0.0072725 10.0065C-0.00242417 10.1689 -0.00242417 10.3317 0.0072725 10.4941C0.0072725 11.2805 0.161625 12.0592 0.461518 12.7858C0.761411 13.5123 1.20097 14.1725 1.7551 14.7285C2.87422 15.8515 4.39207 16.4824 5.97473 16.4824H15.1883C15.6007 16.472 16.011 16.5446 16.395 16.6958C16.779 16.8469 17.1289 17.0737 17.4242 17.3628C17.7195 17.6518 17.9541 17.9972 18.1143 18.3787C18.2744 18.7602 18.3569 19.1699 18.3567 19.5839C18.3769 19.8045 18.3769 20.0265 18.3567 20.2471C18.2024 20.9334 17.8201 21.5467 17.2726 21.9862C16.7251 22.4257 16.045 22.6654 15.3438 22.6658H6.20799C5.50686 22.6654 4.82672 22.4257 4.27923 21.9862C3.73174 21.5467 3.34944 20.9334 3.1951 20.2471H0.259967C0.427012 21.7127 1.12554 23.0653 2.22246 24.0474C3.31937 25.0294 4.73799 25.5721 6.20799 25.5722H9.45413V30H11.8839V25.5722H15.1883C16.6583 25.5721 18.077 25.0294 19.1739 24.0474C20.2708 23.0653 20.9693 21.7127 21.1364 20.2471V19.5839C21.134 18.7077 20.9395 17.8429 20.5666 17.0507C20.1937 16.2584 19.6516 15.5583 18.9787 15Z" fill="#00B907"/>
</svg>
