<svg width="379" height="230" viewBox="0 0 379 230" fill="none" xmlns="http://www.w3.org/2000/svg">
<path d="M207.786 44.0546C201.615 48.448 199.434 56.2739 201.946 62.987L196.6 70.7965C196.364 71.1403 196.667 71.5944 197.077 71.5154L206.63 69.6775C212.303 74.5388 220.801 75.057 227.1 70.4666C234.451 65.1084 236.007 54.8312 230.548 47.5623C225.215 40.4616 215.038 38.8922 207.786 44.0546Z" fill="#D1D1D1"/>
<path d="M222.628 56.6038C222.033 56.1371 221.139 55.7645 219.946 55.486L219.087 55.2853V51.4339C219.11 51.4439 219.131 51.4552 219.154 51.4652C219.93 51.8554 220.348 52.5128 220.406 53.4386H223.521C223.464 51.8027 222.851 50.5544 221.683 49.6951C220.92 49.1343 220.056 48.7567 219.087 48.5622V46.6703H216.083V48.4882C214.762 48.6563 213.716 49.0853 212.942 49.7741C211.919 50.6861 211.408 51.8315 211.408 53.209C211.408 54.7195 211.93 55.8298 212.976 56.5399C213.556 56.9388 214.592 57.3101 216.083 57.6539V61.8315C215.552 61.6747 215.138 61.4225 214.841 61.0713C214.547 60.7238 214.35 60.1981 214.25 59.4943H211.157C211.157 61.0951 211.742 62.3534 212.912 63.2692C213.747 63.9229 214.804 64.3431 216.083 64.5301V66.3793H219.087V64.5627C220.444 64.3933 221.538 63.9555 222.372 63.2492C223.468 62.3195 224.015 61.1516 224.015 59.7452C224.015 58.3389 223.552 57.3265 222.628 56.6013V56.6038ZM215.163 54.2127C214.66 53.9417 214.408 53.5302 214.408 52.9807C214.408 52.3823 214.664 51.9156 215.174 51.5819C215.434 51.4125 215.737 51.2858 216.085 51.203V54.5577C215.657 54.4322 215.35 54.3181 215.164 54.2139L215.163 54.2127ZM219.503 61.7726C219.374 61.8165 219.236 61.8541 219.087 61.8867V58.3451C219.56 58.4869 219.934 58.6412 220.21 58.8068C220.662 59.0853 220.889 59.4793 220.889 59.9873C220.889 60.858 220.427 61.4527 219.503 61.7726Z" fill="white"/>
<path d="M40.7628 229.653H344.886C351.62 229.653 357.198 224.476 357.657 217.809C358.922 199.455 358.93 181.289 357.627 162.789C356.31 144.09 353.515 124.958 344.205 108.647C332.155 87.5397 309.678 73.1413 285.624 68.8043C261.571 64.4686 236.266 69.7038 214.793 81.3008C196.113 91.3899 179.559 106.321 158.85 111.126C134.371 116.807 108.75 107.234 83.7456 109.832C56.9509 112.616 31.452 131.775 25.5507 157.862C20.1576 181.702 29.2561 208.051 40.7616 229.652L40.7628 229.653Z" fill="#F3F3F3"/>
<path d="M358.551 217.158C359.144 209.135 359.573 199.271 358.665 193.999C358.665 193.999 353.034 208.981 353.034 217.255C353.034 217.255 351.957 197.083 342.248 187.851C342.248 187.851 340.498 204.879 342.976 213.974C342.976 213.974 339.932 202.248 327.971 196.457C327.971 196.457 329.421 209.524 337 218.25C337 218.25 329.998 215.2 314.988 217.255C314.988 217.255 327.329 225.675 335.954 226.254C335.954 226.254 327.526 225.818 315.72 229.724L344.986 229.688C352.116 229.68 358.028 224.215 358.55 217.158H358.551Z" fill="#D1D1D1"/>
<path d="M338.436 217.716V86.028C338.436 79.4347 333.05 74.0897 326.406 74.0897H253.671C247.027 74.0897 241.64 79.4347 241.64 86.028V217.716C241.64 224.31 247.027 229.655 253.671 229.655H326.406C333.05 229.655 338.436 224.31 338.436 217.716Z" fill="#373660"/>
<path d="M326.52 78.8984H253.559C249.527 78.8984 246.259 82.1421 246.259 86.1434V217.598C246.259 221.6 249.527 224.843 253.559 224.843H326.52C330.552 224.843 333.821 221.6 333.821 217.598V86.1434C333.821 82.1421 330.552 78.8984 326.52 78.8984Z" fill="white"/>
<mask id="mask0_115_247" style="mask-type:luminance" maskUnits="userSpaceOnUse" x="246" y="78" width="88" height="147">
<path d="M326.52 78.8984H253.559C249.527 78.8984 246.259 82.1421 246.259 86.1434V217.598C246.259 221.6 249.527 224.843 253.559 224.843H326.52C330.552 224.843 333.821 221.6 333.821 217.598V86.1434C333.821 82.1421 330.552 78.8984 326.52 78.8984Z" fill="white"/>
</mask>
<g mask="url(#mask0_115_247)">
<path d="M239.503 73.0196V165.959L338.438 217.715V74.0885L239.503 73.0196Z" fill="#F7F7F7"/>
<path d="M270.271 68.6174C271.208 68.6174 358.109 124.28 358.109 124.28V179.691L233.991 105.249L241.144 65.0143L270.272 68.6187L270.271 68.6174Z" fill="white"/>
<path d="M235.208 177.143L326.52 224.843V229.653H234.684L235.208 177.143Z" fill="#F7F7F7"/>
</g>
<path d="M261.036 85.2037H251.506C251.201 85.2037 250.954 85.4492 250.954 85.752V87.2424C250.954 87.5452 251.201 87.7906 251.506 87.7906H261.036C261.341 87.7906 261.588 87.5452 261.588 87.2424V85.752C261.588 85.4492 261.341 85.2037 261.036 85.2037Z" fill="#E8E8E8"/>
<path d="M261.036 89.2923H251.506C251.201 89.2923 250.954 89.5378 250.954 89.8405V91.3309C250.954 91.6337 251.201 91.8792 251.506 91.8792H261.036C261.341 91.8792 261.588 91.6337 261.588 91.3309V89.8405C261.588 89.5378 261.341 89.2923 261.036 89.2923Z" fill="#E8E8E8"/>
<path d="M261.036 93.3809H251.506C251.201 93.3809 250.954 93.6263 250.954 93.9291V95.4195C250.954 95.7223 251.201 95.9677 251.506 95.9677H261.036C261.341 95.9677 261.588 95.7223 261.588 95.4195V93.9291C261.588 93.6263 261.341 93.3809 261.036 93.3809Z" fill="#E8E8E8"/>
<path d="M317.245 142.663H266.185V134.083L291.714 123.748L317.245 134.083V142.663Z" fill="#E8E8E8"/>
<path d="M278.746 142.663H271.206V164.431H278.746V142.663Z" fill="#E8E8E8"/>
<path d="M278.746 142.663H271.206V144.771H278.746V142.663Z" fill="#D1D1D1"/>
<path d="M312.223 142.663H304.684V164.431H312.223V142.663Z" fill="#E8E8E8"/>
<path d="M312.223 142.663H304.684V144.771H312.223V142.663Z" fill="#D1D1D1"/>
<path d="M295.485 142.663H287.946V164.431H295.485V142.663Z" fill="#E8E8E8"/>
<path d="M295.485 142.663H287.946V144.771H295.485V142.663Z" fill="#D1D1D1"/>
<path d="M291.714 139.731C294.656 139.731 297.04 137.365 297.04 134.446C297.04 131.527 294.656 129.161 291.714 129.161C288.773 129.161 286.388 131.527 286.388 134.446C286.388 137.365 288.773 139.731 291.714 139.731Z" fill="#D1D1D1"/>
<path d="M317.245 164.431H266.185V166.888H317.245V164.431Z" fill="#D1D1D1"/>
<path d="M319.568 166.888H263.634V174.805H319.568V166.888Z" fill="#E8E8E8"/>
<path d="M305.889 123.144C312.452 116.631 312.452 106.072 305.889 99.5594C299.327 93.0468 288.686 93.0468 282.124 99.5594C275.561 106.072 275.561 116.631 282.124 123.144C288.686 129.656 299.327 129.656 305.889 123.144Z" fill="#388E3C"/>
<path d="M294.961 109.975L312.431 92.6369L317.245 97.4142L299.773 114.751L294.961 119.527L290.148 114.751L283.48 108.134L288.293 103.358L294.961 109.975Z" fill="#00B907"/>
<path d="M271.936 187.851H261.839C260.859 187.851 260.065 188.639 260.065 189.611V207.383C260.065 208.355 260.859 209.143 261.839 209.143H271.936C272.915 209.143 273.709 208.355 273.709 207.383V189.611C273.709 188.639 272.915 187.851 271.936 187.851Z" fill="#E8E8E8"/>
<path d="M288.072 187.851H277.975C276.995 187.851 276.201 188.639 276.201 189.611V207.383C276.201 208.355 276.995 209.143 277.975 209.143H288.072C289.052 209.143 289.846 208.355 289.846 207.383V189.611C289.846 188.639 289.052 187.851 288.072 187.851Z" fill="#E8E8E8"/>
<path d="M304.208 187.851H294.111C293.131 187.851 292.337 188.639 292.337 189.611V207.383C292.337 208.355 293.131 209.143 294.111 209.143H304.208C305.188 209.143 305.982 208.355 305.982 207.383V189.611C305.982 188.639 305.188 187.851 304.208 187.851Z" fill="#E8E8E8"/>
<path d="M320.344 187.851H310.247C309.268 187.851 308.474 188.639 308.474 189.611V207.383C308.474 208.355 309.268 209.143 310.247 209.143H320.344C321.324 209.143 322.118 208.355 322.118 207.383V189.611C322.118 188.639 321.324 187.851 320.344 187.851Z" fill="#E8E8E8"/>
<path d="M273.181 187.851H263.084C262.104 187.851 261.31 188.639 261.31 189.611V207.383C261.31 208.355 262.104 209.143 263.084 209.143H273.181C274.161 209.143 274.955 208.355 274.955 207.383V189.611C274.955 188.639 274.161 187.851 273.181 187.851Z" fill="#D1D1D1"/>
<path d="M289.317 187.851H279.22C278.24 187.851 277.446 188.639 277.446 189.611V207.383C277.446 208.355 278.24 209.143 279.22 209.143H289.317C290.297 209.143 291.091 208.355 291.091 207.383V189.611C291.091 188.639 290.297 187.851 289.317 187.851Z" fill="#D1D1D1"/>
<path d="M305.455 187.851H295.358C294.378 187.851 293.584 188.639 293.584 189.611V207.383C293.584 208.355 294.378 209.143 295.358 209.143H305.455C306.434 209.143 307.228 208.355 307.228 207.383V189.611C307.228 188.639 306.434 187.851 305.455 187.851Z" fill="#D1D1D1"/>
<path d="M321.591 187.851H311.494C310.514 187.851 309.72 188.639 309.72 189.611V207.383C309.72 208.355 310.514 209.143 311.494 209.143H321.591C322.571 209.143 323.365 208.355 323.365 207.383V189.611C323.365 188.639 322.571 187.851 321.591 187.851Z" fill="#D1D1D1"/>
<path d="M151.837 64.6317L167.145 81.8992L144.066 84.6655L151.837 64.6317Z" fill="#388E3C"/>
<path d="M122.23 97.6024C141.432 97.6024 156.998 82.1551 156.998 63.0999C156.998 44.0447 141.432 28.5974 122.23 28.5974C103.029 28.5974 87.4624 44.0447 87.4624 63.0999C87.4624 82.1551 103.029 97.6024 122.23 97.6024Z" fill="#388E3C"/>
<mask id="mask1_115_247" style="mask-type:luminance" maskUnits="userSpaceOnUse" x="87" y="28" width="70" height="70">
<path d="M122.23 97.6024C141.432 97.6024 156.998 82.1551 156.998 63.0999C156.998 44.0447 141.432 28.5974 122.23 28.5974C103.029 28.5974 87.4624 44.0447 87.4624 63.0999C87.4624 82.1551 103.029 97.6024 122.23 97.6024Z" fill="white"/>
</mask>
<g mask="url(#mask1_115_247)">
<path d="M142.269 83.4649L145.039 103.79H138.57L136.521 87.0579L142.269 83.4649Z" fill="#FFD1C1"/>
<mask id="mask2_115_247" style="mask-type:luminance" maskUnits="userSpaceOnUse" x="136" y="83" width="10" height="21">
<path d="M142.269 83.4649L145.039 103.79H138.57L136.521 87.0579L142.269 83.4649Z" fill="white"/>
</mask>
<g mask="url(#mask2_115_247)">
<path d="M143.357 87.4042L138.333 88.8293L137.483 98.3501L134.546 86.0442L143.226 81.4225L143.357 87.4042Z" fill="#FFB2A0"/>
</g>
<path d="M118.142 68.9737C118.142 68.9737 110.286 68.6563 111.21 61.1691C111.518 58.6763 112.057 56.2137 112.815 53.8175C113.54 51.5217 114.396 49.0565 115.616 46.9689C116.688 45.1335 119.153 42.6922 121.491 44.0797C121.694 44.2001 121.878 44.3519 122.029 44.5351C122.033 44.5389 123.262 44.1412 123.351 44.1249C124.332 43.938 125.371 43.9894 126.283 44.4184C129.023 45.7056 130.024 49.5859 131.11 52.1276C132.54 55.4748 134.813 59.3162 133.919 63.0911C133.13 66.4257 129.593 68.246 126.406 68.5948C126.124 68.6262 125.84 68.6462 125.555 68.6563L118.143 68.9724L118.142 68.9737Z" fill="#373660"/>
<path d="M127.88 55.1561C127.88 49.8644 125.254 45.5739 122.014 45.5739C118.774 45.5739 116.148 49.8644 116.148 55.1561C116.148 58.4756 117.181 61.3999 118.751 63.1199L117.988 70.4553H126.041L125.318 63.0748C126.864 61.3498 127.88 58.4467 127.88 55.1573V55.1561Z" fill="#FFD1C1"/>
<mask id="mask3_115_247" style="mask-type:luminance" maskUnits="userSpaceOnUse" x="116" y="45" width="12" height="26">
<path d="M127.88 55.1561C127.88 49.8644 125.254 45.5739 122.014 45.5739C118.774 45.5739 116.148 49.8644 116.148 55.1561C116.148 58.4756 117.181 61.3999 118.751 63.1199L117.988 70.4553H126.041L125.318 63.0748C126.864 61.3498 127.88 58.4467 127.88 55.1573V55.1561Z" fill="white"/>
</mask>
<g mask="url(#mask3_115_247)">
<path d="M115.653 55.1285C115.653 55.1285 118.459 52.8101 118.616 50.9245C118.616 50.9245 123.227 52.9431 128.568 52.1665L127.641 44.5075L116.888 44.5589C116.888 44.5589 114.893 54.3419 115.653 55.1285Z" fill="#FFB2A0"/>
</g>
<path d="M118.753 63.1199C118.753 63.1199 121.643 66.4244 125.319 63.0748L125.555 65.4935C125.555 65.4935 122.253 67.8483 118.506 65.4935L118.753 63.1199Z" fill="#FFB2A0"/>
<path d="M115.925 58.014C116.695 58.014 117.319 57.1804 117.319 56.1522C117.319 55.124 116.695 54.2905 115.925 54.2905C115.155 54.2905 114.53 55.124 114.53 56.1522C114.53 57.1804 115.155 58.014 115.925 58.014Z" fill="#FFD1C1"/>
<path d="M128.177 57.5134C128.947 57.5134 129.572 56.6799 129.572 55.6517C129.572 54.6234 128.947 53.7899 128.177 53.7899C127.407 53.7899 126.783 54.6234 126.783 55.6517C126.783 56.6799 127.407 57.5134 128.177 57.5134Z" fill="#FFD1C1"/>
<path d="M116.229 54.4711C117.208 52.6721 117.951 50.7476 118.435 48.7617C120.045 50.4503 122.351 51.4639 124.693 51.4401C123.974 50.917 123.342 50.2608 122.849 49.5244C124.239 50.5243 125.812 51.2707 127.465 51.7337C127.532 50.3474 127.579 48.8896 126.972 47.6388C126.626 46.9237 126.08 46.3203 125.477 45.7997C125.058 45.4384 124.602 45.1097 124.085 44.9127C123.646 44.7459 123.175 44.6781 122.706 44.653C121.198 44.5715 119.667 44.9215 118.347 45.6516C117.696 46.0117 117.091 46.4658 116.615 47.0354C116.275 47.4419 116.003 47.9023 115.77 48.379C115.248 49.4479 114.913 50.6196 114.914 51.8064C114.914 52.3145 114.979 52.8314 115.191 53.2943C115.404 53.7573 115.748 54.3055 116.231 54.4736L116.229 54.4711Z" fill="#373660"/>
<path d="M136.569 87.1407L143.795 82.7097C143.795 82.7097 139.248 70.8467 129.24 68.2548C128.247 67.8847 127.173 67.6827 126.057 67.6827H117.66C117.014 67.6827 116.382 67.7517 115.77 67.881C104.844 69.6085 99.4205 82.7097 99.4205 82.7097L106.647 87.1407L103.762 103.79H138.657L136.523 87.0579L136.57 87.142L136.569 87.1407Z" fill="#4CAF50"/>
<mask id="mask4_115_247" style="mask-type:luminance" maskUnits="userSpaceOnUse" x="99" y="67" width="45" height="37">
<path d="M136.569 87.1407L143.795 82.7097C143.795 82.7097 139.248 70.8467 129.24 68.2548C128.247 67.8847 127.173 67.6827 126.057 67.6827H117.66C117.014 67.6827 116.382 67.7517 115.77 67.881C104.844 69.6085 99.4205 82.7097 99.4205 82.7097L106.647 87.1407L103.762 103.79H138.657L136.523 87.0579L136.57 87.142L136.569 87.1407Z" fill="white"/>
</mask>
<g mask="url(#mask4_115_247)">
<path d="M112.861 68.5785C112.861 68.5785 114.641 73.3859 122.016 73.5916C129.388 73.7986 131.192 67.6815 131.192 67.6815C131.192 67.6815 113.812 65.0783 112.863 68.5785" fill="#FFD1C1"/>
<mask id="mask5_115_247" style="mask-type:luminance" maskUnits="userSpaceOnUse" x="112" y="66" width="20" height="8">
<path d="M112.861 68.5785C112.861 68.5785 114.641 73.3859 122.016 73.5916C129.388 73.7986 131.192 67.6815 131.192 67.6815C131.192 67.6815 113.812 65.0783 112.863 68.5785" fill="white"/>
</mask>
<g mask="url(#mask5_115_247)">
<path d="M113.736 67.8483C113.736 67.8483 116.005 72.8201 123.928 73.4963C123.928 73.4963 118.625 74.6103 114.617 72.7411C110.61 70.8718 111.135 68.2473 111.135 68.2473L113.735 67.8496" fill="#FFB2A0"/>
</g>
</g>
<path d="M106.647 87.1408L108.719 78.2774L104.721 85.9602L106.647 87.1408Z" fill="#388E3C"/>
<path d="M136.569 87.1408L135.114 78.2774L138.86 85.7357L136.569 87.1408Z" fill="#388E3C"/>
<path d="M100.653 83.4649L97.2928 103.79H103.76L106.647 87.1407L100.653 83.4649Z" fill="#FFD1C1"/>
<mask id="mask6_115_247" style="mask-type:luminance" maskUnits="userSpaceOnUse" x="97" y="83" width="10" height="21">
<path d="M100.653 83.4649L97.2928 103.79H103.76L106.647 87.1407L100.653 83.4649Z" fill="white"/>
</mask>
<g mask="url(#mask6_115_247)">
<path d="M98.461 85.7356L104.721 88.4655L105.718 95.5625L108.993 85.4132L100.036 80.173L98.461 85.7356Z" fill="#FFB2A0"/>
</g>
</g>
<path d="M129.759 99.0991C130.845 94.3398 127.838 89.6078 123.042 88.53C118.246 87.4522 113.477 90.4367 112.391 95.196C111.305 99.9554 114.313 104.687 119.109 105.765C123.905 106.843 128.673 103.858 129.759 99.0991Z" fill="#373660"/>
<path d="M124.021 97.1984C123.668 96.9224 123.138 96.7016 122.433 96.5373L121.925 96.4181V94.1386C121.937 94.1448 121.951 94.1511 121.964 94.1574C122.424 94.3882 122.67 94.7771 122.705 95.3254H124.548C124.514 94.3569 124.152 93.6179 123.461 93.1098C123.009 92.7786 122.497 92.5541 121.925 92.4387V91.3184H120.146V92.3948C119.365 92.4939 118.744 92.7485 118.286 93.1563C117.681 93.6957 117.378 94.3744 117.378 95.1899C117.378 96.0844 117.688 96.7418 118.306 97.162C118.649 97.3979 119.262 97.6174 120.146 97.8207V100.293C119.831 100.201 119.586 100.051 119.41 99.8442C119.237 99.6385 119.119 99.3274 119.06 98.9109H117.228C117.228 99.8593 117.574 100.603 118.267 101.145C118.762 101.532 119.387 101.781 120.145 101.892V102.986H121.923V101.91C122.726 101.81 123.375 101.552 123.868 101.133C124.516 100.583 124.84 99.8907 124.84 99.0589C124.84 98.2271 124.567 97.6275 124.019 97.1984H124.021ZM119.601 95.7833C119.303 95.6227 119.153 95.3793 119.153 95.0544C119.153 94.7006 119.305 94.4234 119.607 94.2264C119.76 94.126 119.94 94.0508 120.146 94.0018V95.9878C119.893 95.9138 119.711 95.846 119.601 95.7845V95.7833ZM122.171 100.258C122.095 100.285 122.013 100.307 121.925 100.326V98.2296C122.204 98.3137 122.426 98.4053 122.59 98.5031C122.858 98.6675 122.992 98.9008 122.992 99.2019C122.992 99.7175 122.718 100.069 122.171 100.26V100.258Z" fill="white"/>
<path d="M50.1736 229.653H41.7907C26.8984 229.653 14.1629 218.801 12.1642 204.156C12.1401 203.982 12.1174 203.806 12.0959 203.63L23.9579 214.894C23.9579 214.894 16.2007 194.853 20.7607 182.41C20.7607 182.41 32.7706 207.355 32.5797 212.191C32.5797 212.191 27.1449 180.474 32.3888 166.847C32.3888 166.847 48.1218 195.546 48.5769 205.947C48.5769 205.947 49.2608 197.926 57.2417 188.47C57.2417 188.47 61.8017 204.582 59.066 216.122C59.066 216.122 66.1341 207.549 75.0265 206.178C75.0265 206.178 65.4502 228.477 50.1736 229.652V229.653Z" fill="#D1D1D1"/>
<path d="M193.418 138.877H47.8525C43.4831 138.877 39.9411 142.392 39.9411 146.728V221.802C39.9411 226.138 43.4831 229.653 47.8525 229.653H193.418C197.787 229.653 201.329 226.138 201.329 221.802V146.728C201.329 142.392 197.787 138.877 193.418 138.877Z" fill="#388E3C"/>
<mask id="mask7_115_247" style="mask-type:luminance" maskUnits="userSpaceOnUse" x="39" y="138" width="163" height="92">
<path d="M193.418 138.877H47.8525C43.4831 138.877 39.9411 142.392 39.9411 146.728V221.802C39.9411 226.138 43.4831 229.653 47.8525 229.653H193.418C197.787 229.653 201.329 226.138 201.329 221.802V146.728C201.329 142.392 197.787 138.877 193.418 138.877Z" fill="white"/>
</mask>
<g mask="url(#mask7_115_247)">
<path opacity="0.68" d="M159.517 134.43C159.517 134.43 156.834 146.832 176.518 159.11C196.201 171.388 213.448 163.604 213.448 163.604L205.798 144.658L182.151 132.407L159.515 134.43H159.517Z" fill="#00B907"/>
</g>
<path d="M99.4622 168.743H41.4582C39.1171 168.743 37.2193 170.626 37.2193 172.949V195.582C37.2193 197.906 39.1171 199.789 41.4582 199.789H99.4622C101.803 199.789 103.701 197.906 103.701 195.582V172.949C103.701 170.626 101.803 168.743 99.4622 168.743Z" fill="#00B907"/>
<path d="M191.876 224.045H190.538V223.492H191.876C192.076 223.492 192.276 223.477 192.472 223.45L192.553 223.998C192.33 224.03 192.103 224.047 191.876 224.047V224.045ZM189.199 224.045H187.86V223.492H189.199V224.045ZM186.52 224.045H185.181V223.492H186.52V224.045ZM183.841 224.045H182.502V223.492H183.841V224.045ZM181.164 224.045H179.825V223.492H181.164V224.045ZM178.485 224.045H177.146V223.492H178.485V224.045ZM175.806 224.045H174.467V223.492H175.806V224.045ZM173.128 224.045H171.79V223.492H173.128V224.045ZM170.45 224.045H169.111V223.492H170.45V224.045ZM167.772 224.045H166.433V223.492H167.772V224.045ZM165.093 224.045H163.754V223.492H165.093V224.045ZM162.414 224.045H161.076V223.492H162.414V224.045ZM159.737 224.045H158.398V223.492H159.737V224.045ZM157.058 224.045H155.719V223.492H157.058V224.045ZM154.379 224.045H153.04V223.492H154.379V224.045ZM151.701 224.045H150.363V223.492H151.701V224.045ZM149.023 224.045H147.684V223.492H149.023V224.045ZM146.344 224.045H145.005V223.492H146.344V224.045ZM143.666 224.045H142.327V223.492H143.666V224.045ZM140.987 224.045H139.649V223.492H140.987V224.045ZM138.309 224.045H136.97V223.492H138.309V224.045ZM135.631 224.045H134.292V223.492H135.631V224.045ZM132.952 224.045H131.613V223.492H132.952V224.045ZM130.275 224.045H128.936V223.492H130.275V224.045ZM127.596 224.045H126.257V223.492H127.596V224.045ZM124.917 224.045H123.578V223.492H124.917V224.045ZM122.239 224.045H120.901V223.492H122.239V224.045ZM119.56 224.045H118.222V223.492H119.56V224.045ZM116.882 224.045H115.543V223.492H116.882V224.045ZM114.204 224.045H112.865V223.492H114.204V224.045ZM111.525 224.045H110.186V223.492H111.525V224.045ZM108.846 224.045H107.508V223.492H108.846V224.045ZM106.169 224.045H104.83V223.492H106.169V224.045ZM103.49 224.045H102.151V223.492H103.49V224.045ZM100.811 224.045H99.4723V223.492H100.811V224.045ZM98.1335 224.045H96.7947V223.492H98.1335V224.045ZM95.4547 224.045H94.1159V223.492H95.4547V224.045ZM92.7771 224.045H91.4383V223.492H92.7771V224.045ZM90.0983 224.045H88.7595V223.492H90.0983V224.045ZM87.4194 224.045H86.0806V223.492H87.4194V224.045ZM84.7419 224.045H83.4031V223.492H84.7419V224.045ZM82.063 224.045H80.7242V223.492H82.063V224.045ZM79.3842 224.045H78.0454V223.492H79.3842V224.045ZM76.7066 224.045H75.3678V223.492H76.7066V224.045ZM74.0278 224.045H72.689V223.492H74.0278V224.045ZM71.3489 224.045H70.0101V223.492H71.3489V224.045ZM68.6713 224.045H67.3325V223.492H68.6713V224.045ZM65.9925 224.045H64.6537V223.492H65.9925V224.045ZM63.3137 224.045H61.9749V223.492H63.3137V224.045ZM60.6361 224.045H59.2973V223.492H60.6361V224.045ZM57.9572 224.045H56.6185V223.492H57.9572V224.045ZM55.2784 224.045H53.9396V223.492H55.2784V224.045ZM52.6008 224.045H51.262V223.492H52.6008V224.045ZM49.9182 224.045C49.4391 224.038 48.9688 223.958 48.5187 223.806L48.697 223.281C49.0914 223.414 49.5061 223.485 49.9258 223.491L49.9169 224.044L49.9182 224.045ZM193.909 223.578L193.663 223.081C194.038 222.898 194.381 222.658 194.683 222.369L195.07 222.768C194.726 223.097 194.335 223.369 193.909 223.578ZM47.2608 223.153C46.8778 222.872 46.5415 222.535 46.2621 222.152L46.7147 221.827C46.96 222.164 47.2558 222.46 47.5921 222.708L47.2608 223.153ZM195.93 221.647L195.439 221.383C195.639 221.018 195.778 220.626 195.855 220.217L196.404 220.318C196.316 220.784 196.157 221.23 195.931 221.647H195.93ZM45.6174 220.898C45.4695 220.45 45.3936 219.982 45.3911 219.508L45.9486 219.504C45.9511 219.922 46.0181 220.332 46.1484 220.726L45.6174 220.898ZM196.481 218.943H195.923V217.615H196.481V218.943ZM45.9473 218.177H45.3898V216.848H45.9473V218.177ZM196.481 216.285H195.923V214.956H196.481V216.285ZM45.9473 215.518H45.3898V214.19H45.9473V215.518ZM196.481 213.626H195.923V212.298H196.481V213.626ZM45.9473 212.86H45.3898V211.531H45.9473V212.86ZM196.481 210.969H195.923V209.641H196.481V210.969ZM45.9473 210.203H45.3898V208.874H45.9473V210.203ZM196.481 208.311H195.923V206.982H196.481V208.311ZM45.9473 207.544H45.3898V206.216H45.9473V207.544ZM196.481 205.654H195.923V204.325H196.481V205.654ZM45.9473 204.886H45.3898V203.557H45.9473V204.886ZM196.481 202.995H195.923V201.667H196.481V202.995ZM45.9473 202.229H45.3898V200.9H45.9473V202.229ZM196.481 200.337H195.923V199.009H196.481V200.337ZM45.9473 199.571H45.3898V198.242H45.9473V199.571ZM196.481 197.68H195.923V196.351H196.481V197.68ZM45.9473 196.912H45.3898V195.584H45.9473V196.912ZM196.481 195.022H195.923V193.693H196.481V195.022ZM45.9473 194.255H45.3898V192.926H45.9473V194.255ZM196.481 192.363H195.923V191.035H196.481V192.363ZM45.9473 191.597H45.3898V190.268H45.9473V191.597ZM196.481 189.706H195.923V188.377H196.481V189.706ZM45.9473 188.94H45.3898V187.611H45.9473V188.94ZM196.481 187.048H195.923V185.719H196.481V187.048ZM45.9473 186.281H45.3898V184.953H45.9473V186.281ZM196.481 184.389H195.923V183.061H196.481V184.389ZM45.9473 183.623H45.3898V182.294H45.9473V183.623ZM196.481 181.732H195.923V180.404H196.481V181.732ZM45.9473 180.966H45.3898V179.637H45.9473V180.966ZM196.481 179.074H195.923V177.745H196.481V179.074ZM45.9473 178.307H45.3898V176.979H45.9473V178.307ZM196.481 176.415H195.923V175.087H196.481V176.415ZM45.9473 175.649H45.3898V174.32H45.9473V175.649ZM196.481 173.758H195.923V172.43H196.481V173.758ZM45.9473 172.992H45.3898V171.663H45.9473V172.992ZM196.481 171.1H195.923V169.771H196.481V171.1ZM45.9473 170.333H45.3898V169.005H45.9473V170.333ZM196.481 168.443H195.923V167.114H196.481V168.443ZM45.9473 167.675H45.3898V166.346H45.9473V167.675ZM196.481 165.784H195.923V164.456H196.481V165.784ZM45.9473 165.018H45.3898V163.689H45.9473V165.018ZM196.481 163.126H195.923V161.797H196.481V163.126ZM45.9473 162.359H45.3898V161.031H45.9473V162.359ZM196.481 160.469H195.923V159.14H196.481V160.469ZM45.9473 159.701H45.3898V158.373H45.9473V159.701ZM196.481 157.81H195.923V156.482H196.481V157.81ZM45.9473 157.044H45.3898V155.715H45.9473V157.044ZM196.481 155.152H195.923V153.824H196.481V155.152ZM45.9473 154.386H45.3898V153.057H45.9473V154.386ZM196.481 152.495H195.923V151.166H196.481V152.495ZM45.9473 151.727H45.3898V150.399H45.9473V151.727ZM195.909 149.859C195.876 149.444 195.779 149.04 195.62 148.656L196.136 148.445C196.316 148.882 196.428 149.344 196.466 149.815L195.909 149.859ZM46.0813 149.153L45.5415 149.011C45.6629 148.554 45.8551 148.12 46.113 147.721L46.5832 148.02C46.3569 148.37 46.1875 148.751 46.0813 149.153ZM194.973 147.597C194.702 147.279 194.386 147.005 194.032 146.783L194.329 146.315C194.732 146.567 195.091 146.878 195.399 147.241L194.971 147.597H194.973ZM47.41 147.092L47.0535 146.666C47.4214 146.363 47.831 146.121 48.2722 145.944L48.4808 146.457C48.094 146.612 47.7337 146.826 47.41 147.092ZM192.888 146.293C192.559 146.208 192.219 146.167 191.878 146.167H191.63V145.614H191.878C192.267 145.614 192.654 145.661 193.027 145.757L192.888 146.293ZM49.6957 146.177L49.6552 145.625C49.7665 145.618 49.8803 145.613 49.994 145.613H51.0143V146.166H49.994C49.8942 146.166 49.7943 146.17 49.6957 146.177ZM190.29 146.167H188.951V145.614H190.29V146.167ZM187.612 146.167H186.274V145.614H187.612V146.167ZM184.933 146.167H183.595V145.614H184.933V146.167ZM182.255 146.167H180.916V145.614H182.255V146.167ZM179.577 146.167H178.238V145.614H179.577V146.167ZM176.898 146.167H175.559V145.614H176.898V146.167ZM174.219 146.167H172.881V145.614H174.219V146.167ZM171.542 146.167H170.203V145.614H171.542V146.167ZM168.863 146.167H167.524V145.614H168.863V146.167ZM166.184 146.167H164.845V145.614H166.184V146.167ZM163.507 146.167H162.168V145.614H163.507V146.167ZM160.828 146.167H159.489V145.614H160.828V146.167ZM158.149 146.167H156.81V145.614H158.149V146.167ZM155.471 146.167H154.133V145.614H155.471V146.167ZM152.792 146.167H151.454V145.614H152.792V146.167ZM150.115 146.167H148.776V145.614H150.115V146.167ZM147.436 146.167H146.097V145.614H147.436V146.167ZM144.757 146.167H143.418V145.614H144.757V146.167ZM142.08 146.167H140.741V145.614H142.08V146.167ZM139.401 146.167H138.062V145.614H139.401V146.167ZM136.722 146.167H135.383V145.614H136.722V146.167ZM134.044 146.167H132.706V145.614H134.044V146.167ZM131.366 146.167H130.027V145.614H131.366V146.167ZM128.687 146.167H127.348V145.614H128.687V146.167ZM126.009 146.167H124.67V145.614H126.009V146.167ZM123.33 146.167H121.991V145.614H123.33V146.167ZM120.651 146.167H119.313V145.614H120.651V146.167ZM117.974 146.167H116.635V145.614H117.974V146.167ZM115.295 146.167H113.956V145.614H115.295V146.167ZM112.617 146.167H111.279V145.614H112.617V146.167ZM109.939 146.167H108.6V145.614H109.939V146.167ZM107.26 146.167H105.921V145.614H107.26V146.167ZM104.582 146.167H103.243V145.614H104.582V146.167ZM101.903 146.167H100.565V145.614H101.903V146.167ZM99.2245 146.167H97.8857V145.614H99.2245V146.167ZM96.547 146.167H95.2082V145.614H96.547V146.167ZM93.8681 146.167H92.5293V145.614H93.8681V146.167ZM91.1893 146.167H89.8505V145.614H91.1893V146.167ZM88.5117 146.167H87.1729V145.614H88.5117V146.167ZM85.8329 146.167H84.4941V145.614H85.8329V146.167ZM83.154 146.167H81.8152V145.614H83.154V146.167ZM80.4764 146.167H79.1376V145.614H80.4764V146.167ZM77.7976 146.167H76.4588V145.614H77.7976V146.167ZM75.1188 146.167H73.78V145.614H75.1188V146.167ZM72.4412 146.167H71.1024V145.614H72.4412V146.167ZM69.7623 146.167H68.4236V145.614H69.7623V146.167ZM67.0848 146.167H65.746V145.614H67.0848V146.167ZM64.4059 146.167H63.0671V145.614H64.4059V146.167ZM61.7271 146.167H60.3883V145.614H61.7271V146.167ZM59.0495 146.167H57.7107V145.614H59.0495V146.167ZM56.3707 146.167H55.0319V145.614H56.3707V146.167ZM53.6918 146.167H52.353V145.614H53.6918V146.167Z" fill="#00B907"/>
<path d="M90.322 192.959C95.1605 192.959 99.0829 189.067 99.0829 184.265C99.0829 179.464 95.1605 175.571 90.322 175.571C85.4835 175.571 81.5611 179.464 81.5611 184.265C81.5611 189.067 85.4835 192.959 90.322 192.959Z" fill="#388E3C"/>
<path d="M164.054 185.034C162.5 183.817 160.167 182.845 157.053 182.119L154.814 181.595V171.545C154.872 171.573 154.93 171.599 154.988 171.628C157.015 172.646 158.103 174.363 158.254 176.779H166.383C166.235 172.51 164.635 169.253 161.587 167.009C159.6 165.546 157.342 164.56 154.815 164.052V159.113H146.975V163.856C143.527 164.295 140.795 165.414 138.778 167.213C136.109 169.593 134.775 172.582 134.775 176.18C134.775 180.123 136.139 183.019 138.867 184.874C140.381 185.915 143.083 186.883 146.976 187.78V198.684C145.59 198.275 144.508 197.615 143.733 196.701C142.967 195.793 142.453 194.422 142.191 192.587H134.118C134.118 196.765 135.644 200.049 138.698 202.438C140.877 204.143 143.637 205.24 146.977 205.728V210.553H154.818V205.813C158.356 205.372 161.213 204.229 163.388 202.385C166.247 199.959 167.676 196.911 167.676 193.241C167.676 189.572 166.47 186.929 164.056 185.038L164.054 185.034ZM144.571 178.793C143.258 178.084 142.6 177.013 142.6 175.577C142.6 174.015 143.267 172.797 144.599 171.925C145.274 171.484 146.067 171.154 146.973 170.936V179.69C145.86 179.364 145.057 179.065 144.571 178.793ZM155.9 198.523C155.565 198.638 155.202 198.738 154.814 198.822V189.579C156.046 189.951 157.025 190.351 157.746 190.782C158.926 191.51 159.517 192.536 159.517 193.862C159.517 196.134 158.311 197.687 155.9 198.523Z" fill="#00B907"/>
<path d="M210.593 107.477L213.121 109.582L231.479 86.7368L234.72 90.1454L218.751 119.166C217.987 120.554 216.774 121.647 215.308 122.268C212.987 123.252 210.316 122.938 208.291 121.445L202.005 116.812L210.595 107.477H210.593Z" fill="#FFD1C1"/>
<mask id="mask8_115_247" style="mask-type:luminance" maskUnits="userSpaceOnUse" x="202" y="86" width="33" height="37">
<path d="M210.593 107.477L213.121 109.582L231.479 86.7368L234.72 90.1454L218.751 119.166C217.987 120.554 216.774 121.647 215.308 122.268C212.987 123.252 210.316 122.938 208.291 121.445L202.005 116.812L210.595 107.477H210.593Z" fill="white"/>
</mask>
<g mask="url(#mask8_115_247)">
<path d="M213.121 109.582C213.121 109.582 208.151 120.4 209.579 124.534L199.019 115.901L209.906 105.248L213.121 109.582Z" fill="#FFB2A0"/>
</g>
<path d="M230.701 91.8767C230.373 91.824 230.15 91.5166 230.203 91.1904L232.533 76.9676C232.586 76.6415 232.896 76.4207 233.225 76.4733C233.553 76.526 233.776 76.8334 233.723 77.1596L231.393 91.3824C231.34 91.7085 231.03 91.9293 230.701 91.8767Z" fill="#373660"/>
<path d="M232.923 82.0461C232.923 82.0461 236.433 84.6819 236.433 85.0745C236.433 85.4672 234.719 90.1454 234.719 90.1454L231.405 89.0552C231.405 89.0552 230.671 85.0708 230.671 84.175C230.671 83.2793 232.923 82.0448 232.923 82.0448V82.0461Z" fill="#FFD1C1"/>
<path d="M231.756 89.1706L234.719 90.1454L231.393 91.3823L231.756 89.1706Z" fill="#FFB2A0"/>
<path d="M180.461 71.8014C177.494 72.3973 175.845 76.5925 176.779 81.1728L177.601 85.2024C177.927 86.8032 178.107 88.4291 178.138 90.0626L178.25 95.9551L185.1 94.5563L183.843 88.3865C186.81 87.7906 188.458 83.5954 187.524 79.015C186.59 74.4347 183.428 71.2042 180.461 71.8001V71.8014Z" fill="#FFD1C1"/>
<mask id="mask9_115_247" style="mask-type:luminance" maskUnits="userSpaceOnUse" x="176" y="71" width="12" height="25">
<path d="M180.461 71.8014C177.494 72.3973 175.845 76.5925 176.779 81.1728L177.601 85.2024C177.927 86.8032 178.107 88.4291 178.138 90.0626L178.25 95.9551L185.1 94.5563L183.843 88.3865C186.81 87.7906 188.458 83.5954 187.524 79.015C186.59 74.4347 183.428 71.2042 180.461 71.8001V71.8014Z" fill="white"/>
</mask>
<g mask="url(#mask9_115_247)">
<path d="M187.748 80.114C187.748 80.114 183.357 76.8258 179.662 77.5673L179.332 75.1598L186.39 73.0597C186.39 73.0597 188.515 79.429 187.748 80.1128" fill="#FFB2A0"/>
</g>
<path d="M183.843 88.3877C183.843 88.3877 181.634 88.4969 179.717 85.9401C179.717 85.9401 180.958 89.8004 184.056 89.4378L183.843 88.3877Z" fill="#FFB2A0"/>
<path d="M211.863 107.059L199.51 95.6315C196.368 92.7259 192.233 91.1088 187.939 91.1088H176.701C176.567 91.1088 176.433 91.1101 176.299 91.1138C170.635 91.2468 165.576 94.6717 163.228 99.7878L157.165 112.998L166.642 118.649L168.613 129.981H198.098L196.624 113.5L201.468 118.355L211.863 107.058V107.059Z" fill="#4CAF50"/>
<mask id="mask10_115_247" style="mask-type:luminance" maskUnits="userSpaceOnUse" x="157" y="91" width="55" height="39">
<path d="M211.863 107.059L199.51 95.6315C196.368 92.7259 192.233 91.1088 187.939 91.1088H176.701C176.567 91.1088 176.433 91.1101 176.299 91.1138C170.635 91.2468 165.576 94.6717 163.228 99.7878L157.165 112.998L166.642 118.649L168.613 129.981H198.098L196.624 113.5L201.468 118.355L211.863 107.058V107.059Z" fill="white"/>
</mask>
<g mask="url(#mask10_115_247)">
<path d="M166.642 118.65L172.974 107.508C172.974 107.508 170.916 122.363 172.425 124.679C173.935 126.994 198.912 124.135 198.912 124.135L199.05 132.306L167.503 132.495L166.643 118.65" fill="#388E3C"/>
<path d="M196.624 113.501L195.63 104.496L205.314 115.555L200.658 120.557L196.624 113.501Z" fill="#388E3C"/>
</g>
<path d="M209.85 202.48L208.66 205.112L217.365 213.977C218.843 215.482 219.245 217.73 218.379 219.647L192.765 208.253L197.795 197.117L209.848 202.479L209.85 202.48Z" fill="#4F5285"/>
<path d="M202.874 206.896C202.347 208.064 200.965 208.586 199.788 208.063C198.611 207.539 198.085 206.168 198.612 205C199.139 203.832 200.521 203.31 201.698 203.834C202.875 204.357 203.401 205.728 202.874 206.896Z" fill="#373660"/>
<path d="M209.709 206.18L208.062 207.529C207.699 207.827 207.66 208.364 207.976 208.709C208.264 209.024 208.749 209.066 209.089 208.807L210.918 207.409L209.709 206.178V206.18Z" fill="#373660"/>
<path d="M211.832 208.349L210.185 209.699C209.822 209.996 209.783 210.533 210.099 210.878C210.387 211.193 210.871 211.235 211.211 210.976L213.041 209.578L211.832 208.347V208.349Z" fill="#373660"/>
<path d="M214.235 210.793L212.588 212.142C212.225 212.44 212.186 212.977 212.502 213.322C212.79 213.637 213.274 213.679 213.614 213.42L215.444 212.022L214.235 210.791V210.793Z" fill="#373660"/>
<path d="M192.759 208.233L191.907 210.12L217.521 221.512L218.373 219.625L192.759 208.233Z" fill="#373660"/>
<path d="M235.638 186.799L237.317 189.154L249.437 186.226C251.495 185.729 253.649 186.53 254.873 188.245L231.958 204.332L224.856 194.369L235.639 186.799H235.638Z" fill="#4F5285"/>
<path d="M235.18 198.367C236.297 197.727 236.679 196.309 236.034 195.201C235.389 194.093 233.961 193.714 232.845 194.354C231.728 194.994 231.345 196.411 231.99 197.519C232.635 198.627 234.064 199.007 235.18 198.367Z" fill="#373660"/>
<path d="M238.777 188.802L239.11 190.895C239.183 191.356 239.629 191.663 240.089 191.568C240.509 191.481 240.792 191.09 240.74 190.668L240.458 188.395L238.776 188.802H238.777Z" fill="#373660"/>
<path d="M241.738 188.091L242.07 190.185C242.144 190.646 242.59 190.953 243.05 190.859C243.47 190.772 243.753 190.381 243.701 189.96L243.419 187.686L241.737 188.093L241.738 188.091Z" fill="#373660"/>
<path d="M245.082 187.282L245.414 189.376C245.487 189.837 245.934 190.144 246.394 190.049C246.814 189.962 247.097 189.571 247.045 189.149L246.763 186.876L245.08 187.282H245.082Z" fill="#373660"/>
<path d="M254.873 188.233L231.959 204.321L233.162 206.009L256.076 189.92L254.873 188.233Z" fill="#373660"/>
<path d="M198.098 129.982C198.098 129.982 231.208 138.113 229.143 149.303C228.462 152.991 214.11 203.712 214.11 203.712L192.884 198.094L207.143 155.263C207.143 155.263 164.299 155.315 169.188 129.981H198.098V129.982Z" fill="#373660"/>
<path d="M209.818 139.577C212.449 142.267 240.676 184.441 240.676 184.441L221.925 196.681L198.168 154.302L209.818 139.577Z" fill="#373660"/>
<path d="M217.946 189.801C217.867 189.801 217.791 189.76 217.75 189.687L203.806 164.812C203.746 164.706 203.784 164.57 203.891 164.511C203.999 164.452 204.135 164.49 204.195 164.596L218.139 189.471C218.198 189.578 218.16 189.714 218.053 189.773C218.019 189.791 217.981 189.8 217.944 189.8L217.946 189.801Z" fill="#4F5285"/>
<path d="M225.918 162.772C225.847 162.772 225.777 162.74 225.734 162.677L213.212 144.808C210.933 141.557 207.583 139.107 203.776 137.91L197.132 135.821C197.014 135.785 196.95 135.659 196.986 135.542C197.023 135.426 197.149 135.36 197.267 135.398L203.912 137.487C207.81 138.713 211.244 141.223 213.579 144.555L226.101 162.424C226.172 162.524 226.146 162.662 226.045 162.732C226.006 162.758 225.962 162.772 225.918 162.772Z" fill="#4F5285"/>
<path d="M177.601 85.2037C177.601 85.2037 179.04 81.3234 179.074 81.09C179.108 80.8567 177.439 81.0562 177.601 79.823C177.763 78.5897 179.007 77.9223 179.342 78.5559C179.677 79.1894 179.717 79.9559 179.717 79.9559C179.717 79.9559 182.133 78.389 182.152 77.9888C182.171 77.5886 182.152 75.5224 182.152 75.5224C182.152 75.5224 185.025 76.8384 186.686 76.3805C188.347 75.9226 190.812 72.0586 189.373 70.0137C189.373 70.0137 188.595 71.7738 187.786 72.0122C187.786 72.0122 188.904 70.04 188.842 68.118C188.842 68.118 186.435 70.3825 185.717 70.5067C185.717 70.5067 186.686 69.3588 187.061 68.118C187.061 68.118 184.686 69.6373 183.843 69.6373C182.999 69.6373 175.81 68.3652 175.372 71.9018C175.372 71.9018 172.341 72.2744 172.309 74.7546C172.278 77.2361 177.602 85.2037 177.602 85.2037H177.601Z" fill="#373660"/>
<path d="M198.87 105.248L200.831 109.681C200.831 109.681 168.761 123.938 164.083 123.46C158.113 122.851 158.741 113.938 158.741 113.938L198.87 105.246V105.248Z" fill="#FFD1C1"/>
<mask id="mask11_115_247" style="mask-type:luminance" maskUnits="userSpaceOnUse" x="158" y="105" width="43" height="19">
<path d="M198.87 105.248L200.831 109.681C200.831 109.681 168.761 123.938 164.083 123.46C158.113 122.851 158.741 113.938 158.741 113.938L198.87 105.246V105.248Z" fill="white"/>
</mask>
<g mask="url(#mask11_115_247)">
<path d="M158.741 113.939C158.741 113.939 160.203 118.585 164.887 118.745C169.57 118.906 186.849 116.422 186.849 116.422C186.849 116.422 166.825 124.835 163.757 124.674C160.689 124.514 158.509 122.59 158.266 121.149C158.024 119.706 157.763 114.742 158.742 113.939" fill="#FFB2A0"/>
</g>
<path d="M198.87 105.248C198.87 105.248 201.445 102.649 202.516 102.508C203.587 102.366 210.795 102.861 210.795 103.145C210.795 103.428 210.153 103.806 209.939 103.865C209.726 103.924 205.658 104.491 205.658 104.491C205.658 104.491 206.391 106.491 206.3 107.679C206.209 108.867 200.832 109.682 200.832 109.682C200.832 109.682 198.223 107.705 198.871 105.249L198.87 105.248Z" fill="#FFD1C0"/>
<path d="M369.045 229.312H18.3486V229.995H369.045V229.312Z" fill="#373660"/>
</svg>
