<svg width="300" height="183" viewBox="0 0 300 183" fill="none" xmlns="http://www.w3.org/2000/svg">
<g clip-path="url(#clip0_168_3386)">
<path d="M164.475 34.8717C159.589 38.3493 157.863 44.544 159.852 49.8577L155.62 56.0394C155.434 56.3115 155.673 56.671 155.998 56.6084L163.559 55.1536C168.05 59.0017 174.777 59.4118 179.762 55.7783C185.581 51.537 186.813 43.402 182.492 37.6483C178.27 32.0276 170.215 30.7853 164.475 34.8717Z" fill="#D1D1D1"/>
<path d="M176.223 44.8051C175.751 44.4357 175.044 44.1408 174.099 43.9203L173.42 43.7614V40.7128C173.438 40.7207 173.455 40.7297 173.473 40.7376C174.087 41.0465 174.418 41.5668 174.464 42.2997H176.929C176.884 41.0047 176.399 40.0167 175.474 39.3364C174.871 38.8925 174.186 38.5936 173.42 38.4397V36.9422H171.042V38.3811C169.997 38.5142 169.168 38.8538 168.556 39.399C167.746 40.1209 167.342 41.0276 167.342 42.1179C167.342 43.3136 167.755 44.1924 168.583 44.7545C169.042 45.0703 169.861 45.3642 171.042 45.6363V48.9431C170.622 48.819 170.294 48.6194 170.059 48.3413C169.826 48.0663 169.67 47.6502 169.591 47.0931H167.143C167.143 48.3602 167.606 49.3562 168.532 50.0812C169.193 50.5985 170.03 50.9312 171.042 51.0792V52.5429H173.42V51.105C174.494 50.9709 175.36 50.6244 176.02 50.0653C176.887 49.3294 177.321 48.4049 177.321 47.2917C177.321 46.1785 176.954 45.3771 176.223 44.8031V44.8051ZM170.314 42.9124C169.915 42.6979 169.716 42.3722 169.716 41.9372C169.716 41.4635 169.918 41.0941 170.323 40.83C170.528 40.6959 170.768 40.5956 171.043 40.5301V43.1855C170.705 43.0862 170.462 42.9958 170.315 42.9134L170.314 42.9124ZM173.749 48.8965C173.647 48.9312 173.538 48.961 173.42 48.9868V46.1835C173.794 46.2957 174.09 46.4178 174.308 46.5489C174.667 46.7694 174.846 47.0812 174.846 47.4834C174.846 48.1725 174.481 48.6432 173.749 48.8965Z" fill="white"/>
<path d="M32.2661 181.784H272.997C278.327 181.784 282.743 177.685 283.106 172.408C284.107 157.88 284.114 143.501 283.082 128.856C282.039 114.055 279.827 98.9112 272.458 86.0006C262.919 69.2926 245.128 57.8955 226.088 54.4625C207.048 51.0305 187.018 55.1745 170.021 64.3542C155.234 72.3403 142.131 84.1595 125.739 87.9628C106.362 92.4593 86.082 84.8814 66.2894 86.938C45.0799 89.1416 24.8961 104.307 20.2249 124.957C15.9559 143.828 23.1579 164.684 32.2651 181.783L32.2661 181.784Z" fill="#A4A4A4" fill-opacity="0.2"/>
<path d="M283.814 171.893C284.283 165.542 284.622 157.734 283.904 153.561C283.904 153.561 279.447 165.42 279.447 171.969C279.447 171.969 278.594 156.002 270.909 148.694C270.909 148.694 269.524 162.173 271.485 169.373C271.485 169.373 269.075 160.091 259.608 155.507C259.608 155.507 260.756 165.85 266.755 172.757C266.755 172.757 261.212 170.343 249.331 171.969C249.331 171.969 259.1 178.635 265.926 179.092C265.926 179.092 259.256 178.748 249.91 181.839L273.076 181.811C278.72 181.804 283.399 177.479 283.813 171.893H283.814Z" fill="#D1D1D1"/>
<path d="M267.892 172.335V68.096C267.892 62.877 263.628 58.6462 258.369 58.6462L200.795 58.6462C195.535 58.6462 191.272 62.877 191.272 68.096V172.335C191.272 177.554 195.535 181.785 200.795 181.785H258.369C263.628 181.785 267.892 177.554 267.892 172.335Z" fill="#373660"/>
<path d="M258.459 62.4525H200.707C197.515 62.4525 194.928 65.0201 194.928 68.1873V172.241C194.928 175.409 197.515 177.976 200.707 177.976H258.459C261.651 177.976 264.238 175.409 264.238 172.241V68.1873C264.238 65.0201 261.651 62.4525 258.459 62.4525Z" fill="white"/>
<mask id="mask0_168_3386" style="mask-type:luminance" maskUnits="userSpaceOnUse" x="194" y="62" width="71" height="116">
<path d="M258.459 62.4525H200.707C197.515 62.4525 194.928 65.0201 194.928 68.1873V172.241C194.928 175.409 197.515 177.976 200.707 177.976H258.459C261.651 177.976 264.238 175.409 264.238 172.241V68.1873C264.238 65.0201 261.651 62.4525 258.459 62.4525Z" fill="white"/>
</mask>
<g mask="url(#mask0_168_3386)">
<path d="M189.58 57.7991V131.366L267.893 172.334V58.6451L189.58 57.7991Z" fill="#F7F7F7"/>
<path d="M213.935 54.3145C214.676 54.3145 283.463 98.3749 283.463 98.3749V142.236L185.217 83.3104L190.879 51.4625L213.936 54.3155L213.935 54.3145Z" fill="white"/>
<path d="M186.181 140.219L258.459 177.976V181.784H185.765L186.181 140.219Z" fill="#F7F7F7"/>
</g>
<path d="M206.625 67.4435H199.081C198.84 67.4435 198.644 67.6378 198.644 67.8775V69.0572C198.644 69.2969 198.84 69.4912 199.081 69.4912H206.625C206.866 69.4912 207.062 69.2969 207.062 69.0572V67.8775C207.062 67.6378 206.866 67.4435 206.625 67.4435Z" fill="#E8E8E8"/>
<path d="M206.625 70.6799H199.081C198.84 70.6799 198.644 70.8742 198.644 71.1138V72.2936C198.644 72.5332 198.84 72.7275 199.081 72.7275H206.625C206.866 72.7275 207.062 72.5332 207.062 72.2936V71.1138C207.062 70.8742 206.866 70.6799 206.625 70.6799Z" fill="#E8E8E8"/>
<path d="M206.625 73.9162H199.081C198.84 73.9162 198.644 74.1105 198.644 74.3502V75.5299C198.644 75.7696 198.84 75.9639 199.081 75.9639H206.625C206.866 75.9639 207.062 75.7696 207.062 75.5299V74.3502C207.062 74.1105 206.866 73.9162 206.625 73.9162Z" fill="#E8E8E8"/>
<path d="M251.117 112.926H210.7V106.135L230.908 97.9539L251.117 106.135V112.926Z" fill="#E8E8E8"/>
<path d="M220.643 112.926H214.675V130.156H220.643V112.926Z" fill="#E8E8E8"/>
<path d="M220.643 112.926H214.675V114.594H220.643V112.926Z" fill="#D1D1D1"/>
<path d="M247.142 112.926H241.174V130.156H247.142V112.926Z" fill="#E8E8E8"/>
<path d="M247.142 112.926H241.174V114.594H247.142V112.926Z" fill="#D1D1D1"/>
<path d="M233.893 112.926H227.925V130.156H233.893V112.926Z" fill="#E8E8E8"/>
<path d="M233.893 112.926H227.925V114.594H233.893V112.926Z" fill="#D1D1D1"/>
<path d="M230.908 110.605C233.237 110.605 235.124 108.732 235.124 106.422C235.124 104.111 233.237 102.238 230.908 102.238C228.58 102.238 226.692 104.111 226.692 106.422C226.692 108.732 228.58 110.605 230.908 110.605Z" fill="#D1D1D1"/>
<path d="M251.117 130.156H210.7V132.102H251.117V130.156Z" fill="#D1D1D1"/>
<path d="M252.956 132.102H208.681V138.368H252.956V132.102Z" fill="#E8E8E8"/>
<path d="M242.129 97.4753C247.324 92.3202 247.324 83.962 242.129 78.8069C236.934 73.6518 228.512 73.6518 223.317 78.8069C218.122 83.9621 218.122 92.3202 223.317 97.4753C228.512 102.63 236.934 102.63 242.129 97.4753Z" fill="#388E3C"/>
<path d="M233.478 87.0512L247.307 73.3273L251.117 77.1088L237.288 90.8317L233.478 94.6122L229.668 90.8317L224.391 85.5944L228.2 81.8139L233.478 87.0512Z" fill="#00B907"/>
<path d="M215.253 148.694H207.26C206.485 148.694 205.856 149.318 205.856 150.088V164.155C205.856 164.925 206.485 165.548 207.26 165.548H215.253C216.028 165.548 216.657 164.925 216.657 164.155V150.088C216.657 149.318 216.028 148.694 215.253 148.694Z" fill="#E8E8E8"/>
<path d="M228.025 148.694H220.033C219.257 148.694 218.629 149.318 218.629 150.088V164.155C218.629 164.925 219.257 165.548 220.033 165.548H228.025C228.801 165.548 229.429 164.925 229.429 164.155V150.088C229.429 149.318 228.801 148.694 228.025 148.694Z" fill="#E8E8E8"/>
<path d="M240.798 148.694H232.806C232.03 148.694 231.402 149.318 231.402 150.088V164.155C231.402 164.925 232.03 165.548 232.806 165.548H240.798C241.573 165.548 242.202 164.925 242.202 164.155V150.088C242.202 149.318 241.573 148.694 240.798 148.694Z" fill="#E8E8E8"/>
<path d="M253.571 148.694H245.578C244.803 148.694 244.174 149.318 244.174 150.088V164.155C244.174 164.925 244.803 165.548 245.578 165.548H253.571C254.346 165.548 254.975 164.925 254.975 164.155V150.088C254.975 149.318 254.346 148.694 253.571 148.694Z" fill="#E8E8E8"/>
<path d="M216.238 148.694H208.246C207.47 148.694 206.842 149.318 206.842 150.088V164.155C206.842 164.925 207.47 165.548 208.246 165.548H216.238C217.014 165.548 217.642 164.925 217.642 164.155V150.088C217.642 149.318 217.014 148.694 216.238 148.694Z" fill="#D1D1D1"/>
<path d="M229.011 148.694H221.018C220.243 148.694 219.615 149.318 219.615 150.088V164.155C219.615 164.925 220.243 165.548 221.018 165.548H229.011C229.786 165.548 230.415 164.925 230.415 164.155V150.088C230.415 149.318 229.786 148.694 229.011 148.694Z" fill="#D1D1D1"/>
<path d="M241.785 148.694H233.792C233.017 148.694 232.388 149.318 232.388 150.088V164.155C232.388 164.925 233.017 165.548 233.792 165.548H241.785C242.56 165.548 243.189 164.925 243.189 164.155V150.088C243.189 149.318 242.56 148.694 241.785 148.694Z" fill="#D1D1D1"/>
<path d="M254.557 148.694H246.565C245.79 148.694 245.161 149.318 245.161 150.088V164.155C245.161 164.925 245.79 165.548 246.565 165.548H254.557C255.333 165.548 255.961 164.925 255.961 164.155V150.088C255.961 149.318 255.333 148.694 254.557 148.694Z" fill="#D1D1D1"/>
<path d="M120.187 51.1596L132.305 64.8279L114.036 67.0175L120.187 51.1596Z" fill="#388E3C"/>
<path d="M96.7523 77.2578C111.952 77.2578 124.273 65.0304 124.273 49.9471C124.273 34.8638 111.952 22.6364 96.7523 22.6364C81.553 22.6364 69.2314 34.8638 69.2314 49.9471C69.2314 65.0304 81.553 77.2578 96.7523 77.2578Z" fill="#388E3C"/>
<mask id="mask1_168_3386" style="mask-type:luminance" maskUnits="userSpaceOnUse" x="69" y="22" width="56" height="56">
<path d="M96.7523 77.2578C111.952 77.2578 124.273 65.0304 124.273 49.9471C124.273 34.8638 111.952 22.6364 96.7523 22.6364C81.553 22.6364 69.2314 34.8638 69.2314 49.9471C69.2314 65.0304 81.553 77.2578 96.7523 77.2578Z" fill="white"/>
</mask>
<g mask="url(#mask1_168_3386)">
<path d="M112.614 66.0672L114.807 82.1555H109.686L108.064 68.9113L112.614 66.0672Z" fill="#FFD1C1"/>
<mask id="mask2_168_3386" style="mask-type:luminance" maskUnits="userSpaceOnUse" x="108" y="66" width="7" height="17">
<path d="M112.614 66.0672L114.807 82.1555H109.686L108.064 68.9113L112.614 66.0672Z" fill="white"/>
</mask>
<g mask="url(#mask2_168_3386)">
<path d="M113.475 69.1853L109.498 70.3134L108.826 77.8496L106.501 68.1089L113.372 64.4505L113.475 69.1853Z" fill="#FFB2A0"/>
</g>
<path d="M93.5161 54.5966C93.5161 54.5966 87.2978 54.3453 88.0293 48.4188C88.2725 46.4457 88.6998 44.4963 89.2992 42.5996C89.8736 40.7823 90.551 38.831 91.5167 37.1786C92.3653 35.7258 94.3166 33.7933 96.1669 34.8916C96.328 34.9869 96.4731 35.1071 96.5932 35.2521C96.5962 35.255 97.5688 34.9403 97.6389 34.9273C98.4154 34.7794 99.238 34.8201 99.9605 35.1597C102.129 36.1786 102.922 39.2501 103.781 41.262C104.913 43.9114 106.712 46.9521 106.005 49.9402C105.38 52.5797 102.58 54.0206 100.058 54.2967C99.8344 54.3215 99.6092 54.3374 99.3841 54.3453L93.5171 54.5956L93.5161 54.5966Z" fill="#373660"/>
<path d="M101.224 43.6591C101.224 39.4705 99.1459 36.0743 96.5812 36.0743C94.0164 36.0743 91.938 39.4705 91.938 43.6591C91.938 46.2867 92.7556 48.6015 93.9984 49.963L93.394 55.7693H99.7684L99.196 49.9272C100.42 48.5618 101.224 46.2639 101.224 43.6601V43.6591Z" fill="#FFD1C1"/>
<mask id="mask3_168_3386" style="mask-type:luminance" maskUnits="userSpaceOnUse" x="91" y="36" width="11" height="20">
<path d="M101.224 43.6591C101.224 39.4705 99.1459 36.0743 96.5812 36.0743C94.0164 36.0743 91.938 39.4705 91.938 43.6591C91.938 46.2867 92.7556 48.6015 93.9984 49.963L93.394 55.7693H99.7684L99.196 49.9272C100.42 48.5618 101.224 46.2639 101.224 43.6601V43.6591Z" fill="white"/>
</mask>
<g mask="url(#mask3_168_3386)">
<path d="M91.5457 43.6373C91.5457 43.6373 93.7673 41.8021 93.8913 40.3096C93.8913 40.3096 97.5408 41.9074 101.769 41.2927L101.035 35.2302L92.5234 35.2709C92.5234 35.2709 90.9443 43.0146 91.5457 43.6373Z" fill="#FFB2A0"/>
</g>
<path d="M93.9994 49.963C93.9994 49.963 96.287 52.5787 99.197 49.9272L99.3841 51.8418C99.3841 51.8418 96.7703 53.7058 93.8043 51.8418L93.9994 49.963Z" fill="#FFB2A0"/>
<path d="M91.7609 45.9214C92.3704 45.9214 92.8646 45.2616 92.8646 44.4477C92.8646 43.6338 92.3704 42.974 91.7609 42.974C91.1513 42.974 90.6571 43.6338 90.6571 44.4477C90.6571 45.2616 91.1513 45.9214 91.7609 45.9214Z" fill="#FFD1C1"/>
<path d="M101.46 45.5251C102.069 45.5251 102.563 44.8653 102.563 44.0514C102.563 43.2375 102.069 42.5778 101.46 42.5778C100.85 42.5778 100.356 43.2375 100.356 44.0514C100.356 44.8653 100.85 45.5251 101.46 45.5251Z" fill="#FFD1C1"/>
<path d="M92.002 43.117C92.7766 41.693 93.365 40.1696 93.7482 38.5976C95.0221 39.9343 96.8473 40.7367 98.7016 40.7178C98.1322 40.3037 97.6319 39.7843 97.2416 39.2014C98.3424 39.9929 99.5872 40.5837 100.896 40.9502C100.949 39.8529 100.986 38.6989 100.506 37.7089C100.232 37.1428 99.7994 36.6652 99.322 36.2531C98.9908 35.9671 98.6296 35.7069 98.2203 35.551C97.873 35.4189 97.4998 35.3653 97.1285 35.3454C95.9347 35.2809 94.7229 35.5579 93.6782 36.1359C93.1628 36.4209 92.6845 36.7804 92.3072 37.2312C92.038 37.553 91.8229 37.9174 91.6388 38.2948C91.2255 39.1408 90.9603 40.0683 90.9613 41.0078C90.9613 41.4099 91.0123 41.8191 91.1805 42.1855C91.3486 42.5519 91.6208 42.9859 92.003 43.119L92.002 43.117Z" fill="#373660"/>
<path d="M108.102 68.9768L113.822 65.4694C113.822 65.4694 110.223 56.0792 102.301 54.0275C101.515 53.7346 100.665 53.5747 99.7814 53.5747H93.1348C92.6235 53.5747 92.1231 53.6293 91.6388 53.7316C82.9898 55.099 78.6969 65.4694 78.6969 65.4694L84.4168 68.9768L82.1333 82.1555H109.755L108.066 68.9113L108.103 68.9778L108.102 68.9768Z" fill="#4CAF50"/>
<mask id="mask4_168_3386" style="mask-type:luminance" maskUnits="userSpaceOnUse" x="78" y="53" width="36" height="30">
<path d="M108.102 68.9768L113.822 65.4694C113.822 65.4694 110.223 56.0792 102.301 54.0275C101.515 53.7346 100.665 53.5747 99.7814 53.5747H93.1348C92.6235 53.5747 92.1231 53.6293 91.6388 53.7316C82.9898 55.099 78.6969 65.4694 78.6969 65.4694L84.4168 68.9768L82.1333 82.1555H109.755L108.066 68.9113L108.103 68.9778L108.102 68.9768Z" fill="white"/>
</mask>
<g mask="url(#mask4_168_3386)">
<path d="M89.3362 54.2838C89.3362 54.2838 90.7451 58.0891 96.5821 58.252C102.418 58.4158 103.846 53.5737 103.846 53.5737C103.846 53.5737 90.0887 51.5132 89.3372 54.2838" fill="#FFD1C1"/>
<mask id="mask5_168_3386" style="mask-type:luminance" maskUnits="userSpaceOnUse" x="89" y="52" width="15" height="7">
<path d="M89.3362 54.2838C89.3362 54.2838 90.7451 58.0891 96.5821 58.252C102.418 58.4158 103.846 53.5737 103.846 53.5737C103.846 53.5737 90.0887 51.5132 89.3372 54.2838" fill="white"/>
</mask>
<g mask="url(#mask5_168_3386)">
<path d="M90.0286 53.7058C90.0286 53.7058 91.8249 57.6412 98.0962 58.1765C98.0962 58.1765 93.8983 59.0583 90.7261 57.5787C87.5539 56.099 87.9692 54.0216 87.9692 54.0216L90.0276 53.7068" fill="#FFB2A0"/>
</g>
</g>
<path d="M84.4168 68.9768L86.0569 61.9609L82.8928 68.0423L84.4168 68.9768Z" fill="#388E3C"/>
<path d="M108.102 68.9768L106.95 61.9609L109.915 67.8646L108.102 68.9768Z" fill="#388E3C"/>
<path d="M79.6726 66.0672L77.0128 82.1555H82.1323L84.4168 68.9768L79.6726 66.0672Z" fill="#FFD1C1"/>
<mask id="mask6_168_3386" style="mask-type:luminance" maskUnits="userSpaceOnUse" x="77" y="66" width="8" height="17">
<path d="M79.6726 66.0672L77.0128 82.1555H82.1323L84.4168 68.9768L79.6726 66.0672Z" fill="white"/>
</mask>
<g mask="url(#mask6_168_3386)">
<path d="M77.9374 67.8646L82.8928 70.0254L83.6813 75.6431L86.2741 67.6094L79.1842 63.4614L77.9374 67.8646Z" fill="#FFB2A0"/>
</g>
</g>
<path d="M102.712 78.4426C103.571 74.6753 101.191 70.9297 97.3944 70.0766C93.5981 69.2234 89.8237 71.5858 88.964 75.3531C88.1043 79.1204 90.4848 82.866 94.2811 83.7191C98.0774 84.5723 101.852 82.2099 102.712 78.4426Z" fill="#373660"/>
<path d="M98.1693 76.9381C97.8901 76.7196 97.4708 76.5448 96.9124 76.4148L96.5102 76.3204V74.5161C96.5202 74.521 96.5312 74.526 96.5412 74.531C96.9054 74.7137 97.1006 75.0215 97.1276 75.4555H98.5866C98.5596 74.6888 98.2734 74.1039 97.726 73.7018C97.3687 73.4396 96.9635 73.2618 96.5102 73.1705V72.2837H95.1022V73.1357C94.4838 73.2142 93.9924 73.4158 93.6302 73.7385C93.1508 74.1655 92.9117 74.7027 92.9117 75.3482C92.9117 76.0563 93.1569 76.5766 93.6462 76.9093C93.9174 77.096 94.4027 77.2698 95.1022 77.4306V79.3879C94.853 79.3144 94.6589 79.1963 94.5198 79.0324C94.3827 78.8696 94.2896 78.6233 94.2426 78.2936H92.7926C92.7926 79.0443 93.0668 79.6332 93.6152 80.0622C94.0064 80.3681 94.5018 80.5657 95.1012 80.6531V81.519H96.5092V80.668C97.1446 80.5885 97.6579 80.3839 98.0482 80.0523C98.5616 79.6173 98.8177 79.0692 98.8177 78.4108C98.8177 77.7524 98.6016 77.2777 98.1683 76.9381H98.1693ZM94.6709 75.8179C94.4347 75.6908 94.3167 75.4982 94.3167 75.241C94.3167 74.9609 94.4367 74.7415 94.6759 74.5856C94.797 74.5061 94.9391 74.4465 95.1022 74.4078V75.9798C94.9021 75.9212 94.758 75.8676 94.6709 75.8189V75.8179ZM96.7053 79.3601C96.6452 79.381 96.5802 79.3988 96.5102 79.4137V77.7544C96.7313 77.8209 96.9074 77.8934 97.0365 77.9708C97.2487 78.1009 97.3547 78.2856 97.3547 78.524C97.3547 78.9321 97.1386 79.2102 96.7053 79.3611V79.3601Z" fill="white"/>
<path d="M39.7152 181.784H33.0797C21.2916 181.784 11.2107 173.194 9.62859 161.601C9.60958 161.463 9.59157 161.324 9.57455 161.185L18.964 170.1C18.964 170.1 12.8238 154.238 16.4333 144.388C16.4333 144.388 25.9398 164.133 25.7887 167.961C25.7887 167.961 21.4867 142.855 25.6376 132.069C25.6376 132.069 38.0911 154.786 38.4514 163.019C38.4514 163.019 38.9927 156.67 45.3101 149.185C45.3101 149.185 48.9195 161.939 46.754 171.073C46.754 171.073 52.3489 164.287 59.3877 163.202C59.3877 163.202 51.8075 180.852 39.7152 181.783V181.784Z" fill="#D1D1D1"/>
<path d="M153.101 109.929H37.878C34.4194 109.929 31.6157 112.711 31.6157 116.143V175.569C31.6157 179.001 34.4194 181.784 37.878 181.784H153.101C156.56 181.784 159.363 179.001 159.363 175.569V116.143C159.363 112.711 156.56 109.929 153.101 109.929Z" fill="#388E3C"/>
<mask id="mask7_168_3386" style="mask-type:luminance" maskUnits="userSpaceOnUse" x="31" y="109" width="129" height="73">
<path d="M153.101 109.929H37.878C34.4194 109.929 31.6157 112.711 31.6157 116.143V175.569C31.6157 179.001 34.4194 181.784 37.878 181.784H153.101C156.56 181.784 159.363 179.001 159.363 175.569V116.143C159.363 112.711 156.56 109.929 153.101 109.929Z" fill="white"/>
</mask>
<g mask="url(#mask7_168_3386)">
<path opacity="0.68" d="M126.267 106.409C126.267 106.409 124.143 116.226 139.724 125.945C155.305 135.664 168.956 129.502 168.956 129.502L162.901 114.505L144.183 104.808L126.266 106.409H126.267Z" fill="#00B907"/>
</g>
<path d="M78.73 133.569H32.8165C30.9634 133.569 29.4612 135.06 29.4612 136.899V154.815C29.4612 156.653 30.9634 158.144 32.8165 158.144H78.73C80.5831 158.144 82.0853 156.653 82.0853 154.815V136.899C82.0853 135.06 80.5831 133.569 78.73 133.569Z" fill="#00B907"/>
<path d="M151.881 177.345H150.821V176.907H151.881C152.039 176.907 152.197 176.895 152.352 176.873L152.417 177.307C152.24 177.333 152.06 177.346 151.881 177.346V177.345ZM149.762 177.345H148.702V176.907H149.762V177.345ZM147.641 177.345H146.582V176.907H147.641V177.345ZM145.521 177.345H144.461V176.907H145.521V177.345ZM143.401 177.345H142.342V176.907H143.401V177.345ZM141.281 177.345H140.221V176.907H141.281V177.345ZM139.16 177.345H138.101V176.907H139.16V177.345ZM137.041 177.345H135.981V176.907H137.041V177.345ZM134.921 177.345H133.861V176.907H134.921V177.345ZM132.801 177.345H131.741V176.907H132.801V177.345ZM130.681 177.345H129.621V176.907H130.681V177.345ZM128.56 177.345H127.5V176.907H128.56V177.345ZM126.441 177.345H125.381V176.907H126.441V177.345ZM124.32 177.345H123.261V176.907H124.32V177.345ZM122.2 177.345H121.14V176.907H122.2V177.345ZM120.08 177.345H119.021V176.907H120.08V177.345ZM117.96 177.345H116.9V176.907H117.96V177.345ZM115.839 177.345H114.78V176.907H115.839V177.345ZM113.72 177.345H112.66V176.907H113.72V177.345ZM111.6 177.345H110.54V176.907H111.6V177.345ZM109.479 177.345H108.419V176.907H109.479V177.345ZM107.36 177.345H106.3V176.907H107.36V177.345ZM105.239 177.345H104.179V176.907H105.239V177.345ZM103.12 177.345H102.06V176.907H103.12V177.345ZM100.999 177.345H99.9395V176.907H100.999V177.345ZM98.8788 177.345H97.8191V176.907H98.8788V177.345ZM96.7594 177.345H95.6996V176.907H96.7594V177.345ZM94.6389 177.345H93.5792V176.907H94.6389V177.345ZM92.5184 177.345H91.4587V176.907H92.5184V177.345ZM90.399 177.345H89.3393V176.907H90.399V177.345ZM88.2785 177.345H87.2188V176.907H88.2785V177.345ZM86.1581 177.345H85.0984V176.907H86.1581V177.345ZM84.0386 177.345H82.9789V176.907H84.0386V177.345ZM81.9182 177.345H80.8585V176.907H81.9182V177.345ZM79.7977 177.345H78.738V176.907H79.7977V177.345ZM77.6783 177.345H76.6185V176.907H77.6783V177.345ZM75.5578 177.345H74.4981V176.907H75.5578V177.345ZM73.4384 177.345H72.3786V176.907H73.4384V177.345ZM71.3179 177.345H70.2582V176.907H71.3179V177.345ZM69.1975 177.345H68.1377V176.907H69.1975V177.345ZM67.078 177.345H66.0183V176.907H67.078V177.345ZM64.9575 177.345H63.8978V176.907H64.9575V177.345ZM62.8371 177.345H61.7774V176.907H62.8371V177.345ZM60.7176 177.345H59.6579V176.907H60.7176V177.345ZM58.5972 177.345H57.5375V176.907H58.5972V177.345ZM56.4767 177.345H55.417V176.907H56.4767V177.345ZM54.3573 177.345H53.2976V176.907H54.3573V177.345ZM52.2368 177.345H51.1771V176.907H52.2368V177.345ZM50.1164 177.345H49.0566V176.907H50.1164V177.345ZM47.9969 177.345H46.9372V176.907H47.9969V177.345ZM45.8765 177.345H44.8167V176.907H45.8765V177.345ZM43.756 177.345H42.6963V176.907H43.756V177.345ZM41.6366 177.345H40.5768V176.907H41.6366V177.345ZM39.5131 177.345C39.1338 177.339 38.7616 177.275 38.4053 177.155L38.5464 176.74C38.8587 176.845 39.1869 176.901 39.5191 176.906L39.5121 177.344L39.5131 177.345ZM153.49 176.974L153.295 176.581C153.592 176.436 153.863 176.246 154.103 176.018L154.409 176.334C154.137 176.594 153.827 176.809 153.49 176.974ZM37.4097 176.639C37.1065 176.416 36.8403 176.149 36.6191 175.846L36.9774 175.589C37.1715 175.855 37.4057 176.09 37.6718 176.286L37.4097 176.639ZM155.089 175.446L154.701 175.237C154.859 174.949 154.969 174.638 155.03 174.314L155.465 174.394C155.396 174.763 155.269 175.116 155.09 175.446H155.089ZM36.1088 174.853C35.9917 174.499 35.9316 174.128 35.9296 173.753L36.371 173.75C36.373 174.081 36.426 174.405 36.5291 174.717L36.1088 174.853ZM155.526 173.306H155.084V172.254H155.526V173.306ZM36.37 172.699H35.9286V171.648H36.37V172.699ZM155.526 171.202H155.084V170.15H155.526V171.202ZM36.37 170.595H35.9286V169.543H36.37V170.595ZM155.526 169.097H155.084V168.046H155.526V169.097ZM36.37 168.491H35.9286V167.439H36.37V168.491ZM155.526 166.994H155.084V165.943H155.526V166.994ZM36.37 166.387H35.9286V165.336H36.37V166.387ZM155.526 164.89H155.084V163.838H155.526V164.89ZM36.37 164.283H35.9286V163.232H36.37V164.283ZM155.526 162.787H155.084V161.735H155.526V162.787ZM36.37 162.179H35.9286V161.127H36.37V162.179ZM155.526 160.682H155.084V159.631H155.526V160.682ZM36.37 160.076H35.9286V159.024H36.37V160.076ZM155.526 158.578H155.084V157.527H155.526V158.578ZM36.37 157.971H35.9286V156.92H36.37V157.971ZM155.526 156.475H155.084V155.423H155.526V156.475ZM36.37 155.867H35.9286V154.816H36.37V155.867ZM155.526 154.371H155.084V153.319H155.526V154.371ZM36.37 153.764H35.9286V152.712H36.37V153.764ZM155.526 152.266H155.084V151.215H155.526V152.266ZM36.37 151.66H35.9286V150.608H36.37V151.66ZM155.526 150.163H155.084V149.111H155.526V150.163ZM36.37 149.556H35.9286V148.505H36.37V149.556ZM155.526 148.059H155.084V147.007H155.526V148.059ZM36.37 147.452H35.9286V146.4H36.37V147.452ZM155.526 145.955H155.084V144.903H155.526V145.955ZM36.37 145.348H35.9286V144.296H36.37V145.348ZM155.526 143.851H155.084V142.8H155.526V143.851ZM36.37 143.245H35.9286V142.193H36.37V143.245ZM155.526 141.747H155.084V140.695H155.526V141.747ZM36.37 141.14H35.9286V140.089H36.37V141.14ZM155.526 139.643H155.084V138.591H155.526V139.643ZM36.37 139.036H35.9286V137.984H36.37V139.036ZM155.526 137.54H155.084V136.488H155.526V137.54ZM36.37 136.933H35.9286V135.881H36.37V136.933ZM155.526 135.435H155.084V134.384H155.526V135.435ZM36.37 134.829H35.9286V133.777H36.37V134.829ZM155.526 133.332H155.084V132.28H155.526V133.332ZM36.37 132.724H35.9286V131.673H36.37V132.724ZM155.526 131.228H155.084V130.176H155.526V131.228ZM36.37 130.621H35.9286V129.569H36.37V130.621ZM155.526 129.124H155.084V128.072H155.526V129.124ZM36.37 128.517H35.9286V127.465H36.37V128.517ZM155.526 127.02H155.084V125.969H155.526V127.02ZM36.37 126.412H35.9286V125.361H36.37V126.412ZM155.526 124.916H155.084V123.864H155.526V124.916ZM36.37 124.309H35.9286V123.258H36.37V124.309ZM155.526 122.812H155.084V121.76H155.526V122.812ZM36.37 122.205H35.9286V121.153H36.37V122.205ZM155.526 120.708H155.084V119.657H155.526V120.708ZM36.37 120.101H35.9286V119.049H36.37V120.101ZM155.073 118.622C155.047 118.293 154.97 117.974 154.844 117.67L155.252 117.503C155.396 117.848 155.484 118.214 155.514 118.587L155.073 118.622ZM36.476 118.063L36.0487 117.951C36.1448 117.589 36.2969 117.246 36.501 116.93L36.8733 117.166C36.6942 117.443 36.5601 117.745 36.476 118.063ZM154.332 116.832C154.118 116.579 153.867 116.363 153.587 116.187L153.822 115.817C154.142 116.016 154.426 116.263 154.669 116.55L154.331 116.832H154.332ZM37.5277 116.431L37.2456 116.095C37.5368 115.854 37.861 115.663 38.2102 115.523L38.3753 115.929C38.0691 116.052 37.7839 116.221 37.5277 116.431ZM152.682 115.799C152.422 115.732 152.152 115.7 151.882 115.7H151.686V115.262H151.882C152.19 115.262 152.497 115.299 152.792 115.375L152.682 115.799ZM39.337 115.707L39.305 115.271C39.393 115.265 39.4831 115.261 39.5731 115.261H40.3807V115.699H39.5731C39.4941 115.699 39.415 115.702 39.337 115.707ZM150.625 115.7H149.566V115.262H150.625V115.7ZM148.506 115.7H147.446V115.262H148.506V115.7ZM146.385 115.7H145.326V115.262H146.385V115.7ZM144.265 115.7H143.205V115.262H144.265V115.7ZM142.145 115.7H141.086V115.262H142.145V115.7ZM140.025 115.7H138.965V115.262H140.025V115.7ZM137.905 115.7H136.845V115.262H137.905V115.7ZM135.785 115.7H134.725V115.262H135.785V115.7ZM133.665 115.7H132.605V115.262H133.665V115.7ZM131.544 115.7H130.484V115.262H131.544V115.7ZM129.425 115.7H128.365V115.262H129.425V115.7ZM127.304 115.7H126.245V115.262H127.304V115.7ZM125.184 115.7H124.124V115.262H125.184V115.7ZM123.064 115.7H122.005V115.262H123.064V115.7ZM120.944 115.7H119.884V115.262H120.944V115.7ZM118.824 115.7H117.765V115.262H118.824V115.7ZM116.704 115.7H115.644V115.262H116.704V115.7ZM114.584 115.7H113.524V115.262H114.584V115.7ZM112.464 115.7H111.404V115.262H112.464V115.7ZM110.344 115.7H109.284V115.262H110.344V115.7ZM108.223 115.7H107.163V115.262H108.223V115.7ZM106.104 115.7H105.044V115.262H106.104V115.7ZM103.983 115.7H102.924V115.262H103.983V115.7ZM101.863 115.7H100.803V115.262H101.863V115.7ZM99.7434 115.7H98.6837V115.262H99.7434V115.7ZM97.6229 115.7H96.5632V115.262H97.6229V115.7ZM95.5025 115.7H94.4428V115.262H95.5025V115.7ZM93.383 115.7H92.3233V115.262H93.383V115.7ZM91.2626 115.7H90.2029V115.262H91.2626V115.7ZM89.1431 115.7H88.0834V115.262H89.1431V115.7ZM87.0227 115.7H85.9629V115.262H87.0227V115.7ZM84.9022 115.7H83.8425V115.262H84.9022V115.7ZM82.7828 115.7H81.723V115.262H82.7828V115.7ZM80.6623 115.7H79.6026V115.262H80.6623V115.7ZM78.5419 115.7H77.4821V115.262H78.5419V115.7ZM76.4224 115.7H75.3627V115.262H76.4224V115.7ZM74.302 115.7H73.2422V115.262H74.302V115.7ZM72.1815 115.7H71.1218V115.262H72.1815V115.7ZM70.062 115.7H69.0023V115.262H70.062V115.7ZM67.9416 115.7H66.8819V115.262H67.9416V115.7ZM65.8211 115.7H64.7614V115.262H65.8211V115.7ZM63.7017 115.7H62.642V115.262H63.7017V115.7ZM61.5812 115.7H60.5215V115.262H61.5812V115.7ZM59.4608 115.7H58.4011V115.262H59.4608V115.7ZM57.3413 115.7H56.2816V115.262H57.3413V115.7ZM55.2209 115.7H54.1611V115.262H55.2209V115.7ZM53.1014 115.7H52.0417V115.262H53.1014V115.7ZM50.981 115.7H49.9212V115.262H50.981V115.7ZM48.8605 115.7H47.8008V115.262H48.8605V115.7ZM46.7411 115.7H45.6813V115.262H46.7411V115.7ZM44.6206 115.7H43.5609V115.262H44.6206V115.7ZM42.5002 115.7H41.4404V115.262H42.5002V115.7Z" fill="#00B907"/>
<path d="M71.4951 152.738C75.325 152.738 78.4298 149.657 78.4298 145.856C78.4298 142.056 75.325 138.974 71.4951 138.974C67.6651 138.974 64.5603 142.056 64.5603 145.856C64.5603 149.657 67.6651 152.738 71.4951 152.738Z" fill="#388E3C"/>
<path d="M129.858 146.465C128.628 145.502 126.781 144.732 124.316 144.157L122.544 143.743V135.788C122.59 135.81 122.636 135.831 122.682 135.853C124.286 136.659 125.148 138.018 125.267 139.931H131.701C131.584 136.551 130.318 133.974 127.906 132.197C126.333 131.039 124.545 130.259 122.545 129.856V125.947H116.339V129.701C113.61 130.049 111.447 130.935 109.85 132.359C107.738 134.243 106.682 136.608 106.682 139.456C106.682 142.577 107.762 144.87 109.921 146.338C111.119 147.162 113.259 147.929 116.34 148.639V157.269C115.243 156.946 114.386 156.423 113.773 155.7C113.167 154.981 112.759 153.896 112.552 152.443H106.162C106.162 155.751 107.37 158.35 109.787 160.242C111.512 161.591 113.697 162.459 116.341 162.845V166.665H122.547V162.913C125.348 162.563 127.61 161.659 129.331 160.199C131.594 158.279 132.725 155.866 132.725 152.962C132.725 150.057 131.77 147.965 129.86 146.468L129.858 146.465ZM114.436 141.525C113.397 140.964 112.876 140.116 112.876 138.979C112.876 137.743 113.404 136.779 114.458 136.089C114.993 135.739 115.62 135.478 116.338 135.305V142.235C115.456 141.976 114.821 141.74 114.436 141.525ZM123.404 157.142C123.138 157.234 122.851 157.312 122.544 157.379V150.063C123.52 150.357 124.294 150.674 124.865 151.015C125.799 151.591 126.267 152.403 126.267 153.453C126.267 155.252 125.312 156.481 123.404 157.142Z" fill="#00B907"/>
<path d="M166.696 85.0741L168.698 86.7404L183.229 68.6571L185.794 71.3552L173.154 94.3263C172.549 95.4256 171.589 96.2905 170.429 96.7821C168.592 97.5606 166.477 97.3124 164.874 96.1307L159.899 92.4633L166.698 85.0741H166.696Z" fill="#FFD1C1"/>
<mask id="mask8_168_3386" style="mask-type:luminance" maskUnits="userSpaceOnUse" x="159" y="68" width="27" height="30">
<path d="M166.696 85.0741L168.698 86.7404L183.229 68.6571L185.794 71.3552L173.154 94.3263C172.549 95.4256 171.589 96.2905 170.429 96.7821C168.592 97.5606 166.477 97.3124 164.874 96.1307L159.899 92.4633L166.698 85.0741H166.696Z" fill="white"/>
</mask>
<g mask="url(#mask8_168_3386)">
<path d="M168.698 86.7404C168.698 86.7404 164.763 95.3034 165.894 98.5755L157.535 91.7424L166.153 83.3094L168.698 86.7404Z" fill="#FFB2A0"/>
</g>
<path d="M182.613 72.7256C182.353 72.6839 182.177 72.4406 182.219 72.1824L184.063 60.9243C184.105 60.6661 184.35 60.4913 184.611 60.533C184.871 60.5747 185.047 60.818 185.005 61.0762L183.161 72.3343C183.119 72.5925 182.873 72.7673 182.613 72.7256Z" fill="#373660"/>
<path d="M184.371 64.9441C184.371 64.9441 187.15 67.0305 187.15 67.3413C187.15 67.6521 185.793 71.3552 185.793 71.3552L183.171 70.4922C183.171 70.4922 182.589 67.3383 182.589 66.6293C182.589 65.9203 184.371 64.9431 184.371 64.9431V64.9441Z" fill="#FFD1C1"/>
<path d="M183.448 70.5836L185.793 71.3552L183.161 72.3343L183.448 70.5836Z" fill="#FFB2A0"/>
<path d="M142.845 56.8349C140.496 57.3066 139.191 60.6273 139.931 64.2529L140.581 67.4426C140.84 68.7097 140.982 69.9967 141.007 71.2896L141.095 75.954L146.517 74.8467L145.522 69.9629C147.87 69.4912 149.175 66.1705 148.436 62.5449C147.696 58.9193 145.194 56.3622 142.845 56.8339V56.8349Z" fill="#FFD1C1"/>
<mask id="mask9_168_3386" style="mask-type:luminance" maskUnits="userSpaceOnUse" x="139" y="56" width="10" height="20">
<path d="M142.845 56.8349C140.496 57.3066 139.191 60.6273 139.931 64.2529L140.581 67.4426C140.84 68.7097 140.982 69.9967 141.007 71.2896L141.095 75.954L146.517 74.8467L145.522 69.9629C147.87 69.4912 149.175 66.1705 148.436 62.5449C147.696 58.9193 145.194 56.3622 142.845 56.8339V56.8349Z" fill="white"/>
</mask>
<g mask="url(#mask9_168_3386)">
<path d="M148.613 63.4148C148.613 63.4148 145.137 60.812 142.212 61.3989L141.951 59.4933L147.538 57.8309C147.538 57.8309 149.22 62.8726 148.613 63.4138" fill="#FFB2A0"/>
</g>
<path d="M145.522 69.9639C145.522 69.9639 143.774 70.0503 142.257 68.0265C142.257 68.0265 143.238 71.0821 145.691 70.7951L145.522 69.9639Z" fill="#FFB2A0"/>
<path d="M167.702 84.7434L157.923 75.6978C155.437 73.3979 152.163 72.1179 148.764 72.1179H139.869C139.763 72.1179 139.657 72.1189 139.551 72.1218C135.068 72.2271 131.063 74.9381 129.205 78.9877L124.405 89.4445L131.906 93.9172L133.466 102.887H156.805L155.639 89.8417L159.473 93.6848L167.702 84.7424V84.7434Z" fill="#4CAF50"/>
<mask id="mask10_168_3386" style="mask-type:luminance" maskUnits="userSpaceOnUse" x="124" y="72" width="44" height="31">
<path d="M167.702 84.7434L157.923 75.6978C155.437 73.3979 152.163 72.1179 148.764 72.1179H139.869C139.763 72.1179 139.657 72.1189 139.551 72.1218C135.068 72.2271 131.063 74.9381 129.205 78.9877L124.405 89.4445L131.906 93.9172L133.466 102.887H156.805L155.639 89.8417L159.473 93.6848L167.702 84.7424V84.7434Z" fill="white"/>
</mask>
<g mask="url(#mask10_168_3386)">
<path d="M131.906 93.9181L136.919 85.0989C136.919 85.0989 135.29 96.8575 136.485 98.6907C137.679 100.523 157.45 98.2597 157.45 98.2597L157.559 104.727L132.588 104.877L131.907 93.9181" fill="#388E3C"/>
<path d="M155.639 89.8427L154.852 82.7146L162.517 91.4683L158.832 95.4275L155.639 89.8427Z" fill="#388E3C"/>
</g>
<path d="M166.108 160.274L165.166 162.358L172.057 169.375C173.227 170.566 173.545 172.346 172.859 173.863L152.585 164.844L156.566 156.029L166.107 160.273L166.108 160.274Z" fill="#4F5285"/>
<path d="M160.586 163.77C160.169 164.694 159.075 165.107 158.143 164.693C157.212 164.279 156.795 163.194 157.213 162.269C157.63 161.345 158.724 160.932 159.655 161.346C160.587 161.76 161.003 162.845 160.586 163.77Z" fill="#373660"/>
<path d="M165.997 163.203L164.693 164.271C164.406 164.507 164.375 164.932 164.625 165.205C164.853 165.454 165.236 165.488 165.505 165.282L166.953 164.176L165.997 163.202V163.203Z" fill="#373660"/>
<path d="M167.677 164.92L166.373 165.988C166.086 166.224 166.055 166.649 166.305 166.922C166.533 167.171 166.916 167.205 167.186 166.999L168.634 165.893L167.677 164.919V164.92Z" fill="#373660"/>
<path d="M169.579 166.854L168.275 167.923C167.988 168.158 167.957 168.583 168.207 168.856C168.435 169.105 168.819 169.139 169.088 168.934L170.536 167.827L169.579 166.853V166.854Z" fill="#373660"/>
<path d="M152.579 164.828L151.905 166.322L172.18 175.339L172.855 173.846L152.579 164.828Z" fill="#373660"/>
<path d="M186.521 147.862L187.85 149.726L197.443 147.408C199.072 147.015 200.778 147.649 201.746 149.006L183.608 161.74L177.986 153.854L186.522 147.862H186.521Z" fill="#4F5285"/>
<path d="M186.158 157.018C187.042 156.512 187.345 155.39 186.834 154.513C186.324 153.636 185.194 153.335 184.31 153.842C183.426 154.349 183.123 155.47 183.634 156.347C184.144 157.225 185.274 157.525 186.158 157.018Z" fill="#373660"/>
<path d="M189.006 149.447L189.269 151.105C189.327 151.469 189.68 151.712 190.044 151.637C190.376 151.568 190.601 151.258 190.56 150.925L190.336 149.125L189.005 149.447H189.006Z" fill="#373660"/>
<path d="M191.349 148.885L191.612 150.542C191.67 150.907 192.024 151.15 192.388 151.076C192.72 151.007 192.944 150.697 192.903 150.364L192.68 148.564L191.348 148.886L191.349 148.885Z" fill="#373660"/>
<path d="M193.996 148.245L194.259 149.902C194.317 150.266 194.67 150.51 195.035 150.434C195.367 150.366 195.591 150.056 195.55 149.722L195.327 147.923L193.995 148.245H193.996Z" fill="#373660"/>
<path d="M201.746 148.997L183.608 161.731L184.561 163.067L202.699 150.333L201.746 148.997Z" fill="#373660"/>
<path d="M156.805 102.888C156.805 102.888 183.014 109.324 181.379 118.182C180.841 121.101 169.48 161.25 169.48 161.25L152.679 156.803L163.965 122.899C163.965 122.899 130.052 122.941 133.922 102.887H156.805V102.888Z" fill="#373660"/>
<path d="M166.083 110.483C168.165 112.612 190.509 145.995 190.509 145.995L175.666 155.684L156.862 122.138L166.083 110.483Z" fill="#373660"/>
<path d="M172.516 150.239C172.454 150.239 172.394 150.206 172.361 150.148L161.324 130.458C161.277 130.374 161.307 130.267 161.392 130.22C161.477 130.173 161.585 130.203 161.632 130.287L172.669 149.977C172.716 150.062 172.686 150.169 172.601 150.216C172.574 150.231 172.544 150.238 172.515 150.238L172.516 150.239Z" fill="#4F5285"/>
<path d="M178.827 128.844C178.771 128.844 178.715 128.818 178.681 128.768L168.77 114.624C166.965 112.05 164.314 110.111 161.301 109.163L156.041 107.51C155.948 107.481 155.897 107.382 155.926 107.29C155.955 107.197 156.055 107.146 156.148 107.175L161.408 108.829C164.494 109.799 167.212 111.786 169.06 114.424L178.972 128.567C179.028 128.647 179.008 128.756 178.928 128.812C178.897 128.833 178.862 128.844 178.827 128.844Z" fill="#4F5285"/>
<path d="M140.581 67.4436C140.581 67.4436 141.72 64.3721 141.747 64.1874C141.774 64.0027 140.453 64.1606 140.581 63.1844C140.709 62.2083 141.694 61.68 141.959 62.1814C142.225 62.6829 142.257 63.2897 142.257 63.2897C142.257 63.2897 144.169 62.0494 144.184 61.7326C144.199 61.4158 144.184 59.7803 144.184 59.7803C144.184 59.7803 146.457 60.822 147.772 60.4595C149.087 60.097 151.039 57.0385 149.9 55.4198C149.9 55.4198 149.283 56.813 148.643 57.0017C148.643 57.0017 149.529 55.4407 149.479 53.9193C149.479 53.9193 147.574 55.7118 147.006 55.8101C147.006 55.8101 147.772 54.9014 148.07 53.9193C148.07 53.9193 146.189 55.1219 145.522 55.1219C144.854 55.1219 139.163 54.1149 138.817 56.9143C138.817 56.9143 136.418 57.2093 136.393 59.1725C136.367 61.1368 140.582 67.4436 140.582 67.4436H140.581Z" fill="#373660"/>
<path d="M157.417 83.3094L158.969 86.8188C158.969 86.8188 133.584 98.1038 129.881 97.7254C125.156 97.2438 125.652 90.1882 125.652 90.1882L157.417 83.3084V83.3094Z" fill="#FFD1C1"/>
<mask id="mask11_168_3386" style="mask-type:luminance" maskUnits="userSpaceOnUse" x="125" y="83" width="34" height="15">
<path d="M157.417 83.3094L158.969 86.8188C158.969 86.8188 133.584 98.1038 129.881 97.7254C125.156 97.2438 125.652 90.1882 125.652 90.1882L157.417 83.3084V83.3094Z" fill="white"/>
</mask>
<g mask="url(#mask11_168_3386)">
<path d="M125.652 90.1892C125.652 90.1892 126.81 93.8665 130.517 93.9936C134.224 94.1207 147.901 92.1544 147.901 92.1544C147.901 92.1544 132.052 98.8138 129.623 98.6867C127.194 98.5596 125.469 97.0372 125.277 95.8962C125.085 94.7542 124.879 90.8248 125.653 90.1892" fill="#FFB2A0"/>
</g>
<path d="M157.417 83.3094C157.417 83.3094 159.455 81.2528 160.303 81.1406C161.15 81.0284 166.856 81.4207 166.856 81.6451C166.856 81.8695 166.348 82.1684 166.179 82.2151C166.01 82.2618 162.79 82.7106 162.79 82.7106C162.79 82.7106 163.37 84.2935 163.298 85.2339C163.226 86.1744 158.97 86.8198 158.97 86.8198C158.97 86.8198 156.905 85.2548 157.418 83.3104L157.417 83.3094Z" fill="#FFD1C0"/>
<path d="M292.12 181.514H14.524V182.054H292.12V181.514Z" fill="#373660"/>
</g>
<defs>
<clipPath id="clip0_168_3386">
<rect width="300" height="182.058" fill="white"/>
</clipPath>
</defs>
</svg>
